<svg width="1312" height="309" viewBox="0 0 1312 309" fill="none" xmlns="http://www.w3.org/2000/svg">
<path opacity="0.6" d="M1195.31 240.534C1194.98 240.534 1194.65 240.406 1194.41 240.175C1194.16 239.944 1194.02 239.629 1194 239.293C1194.01 238.952 1194.15 238.627 1194.4 238.389C1194.64 238.151 1194.97 238.018 1195.31 238.018V238.018C1195.49 237.987 1195.68 237.996 1195.86 238.045C1196.04 238.094 1196.21 238.182 1196.35 238.302C1196.49 238.421 1196.6 238.571 1196.68 238.739C1196.76 238.907 1196.8 239.09 1196.8 239.276C1196.8 239.461 1196.76 239.644 1196.68 239.813C1196.6 239.981 1196.49 240.13 1196.35 240.25C1196.21 240.369 1196.04 240.457 1195.86 240.506C1195.68 240.555 1195.49 240.564 1195.31 240.534ZM1201.91 240.534C1201.74 240.538 1201.57 240.51 1201.42 240.45C1201.26 240.39 1201.12 240.3 1200.99 240.185C1200.87 240.07 1200.77 239.932 1200.71 239.779C1200.64 239.626 1200.6 239.461 1200.6 239.293C1200.6 239.123 1200.63 238.954 1200.7 238.797C1200.76 238.64 1200.86 238.498 1200.98 238.379C1201.1 238.26 1201.25 238.166 1201.41 238.104C1201.57 238.042 1201.74 238.013 1201.91 238.018C1202.09 237.987 1202.28 237.996 1202.46 238.045C1202.64 238.094 1202.8 238.182 1202.94 238.302C1203.09 238.421 1203.2 238.571 1203.28 238.739C1203.36 238.907 1203.4 239.09 1203.4 239.276C1203.4 239.461 1203.36 239.644 1203.28 239.813C1203.2 239.981 1203.09 240.13 1202.94 240.25C1202.8 240.369 1202.64 240.457 1202.46 240.506C1202.28 240.555 1202.09 240.564 1201.91 240.534ZM1208.47 240.534C1208.3 240.538 1208.13 240.51 1207.98 240.45C1207.82 240.39 1207.68 240.3 1207.55 240.185C1207.43 240.07 1207.33 239.932 1207.27 239.779C1207.2 239.626 1207.16 239.461 1207.16 239.293C1207.16 239.123 1207.19 238.954 1207.26 238.797C1207.32 238.64 1207.42 238.498 1207.54 238.379C1207.66 238.26 1207.81 238.166 1207.97 238.104C1208.13 238.042 1208.3 238.013 1208.47 238.018V238.018C1208.65 237.987 1208.84 237.996 1209.02 238.045C1209.2 238.094 1209.36 238.182 1209.5 238.302C1209.65 238.421 1209.76 238.571 1209.84 238.739C1209.92 238.907 1209.96 239.09 1209.96 239.276C1209.96 239.461 1209.92 239.644 1209.84 239.813C1209.76 239.981 1209.65 240.13 1209.5 240.25C1209.36 240.369 1209.2 240.457 1209.02 240.506C1208.84 240.555 1208.65 240.564 1208.47 240.534ZM1215.03 240.534C1214.69 240.534 1214.37 240.406 1214.12 240.175C1213.88 239.944 1213.73 239.629 1213.72 239.293C1213.72 238.952 1213.87 238.627 1214.11 238.389C1214.36 238.151 1214.69 238.018 1215.03 238.018C1215.21 237.987 1215.4 237.996 1215.58 238.045C1215.76 238.094 1215.92 238.182 1216.06 238.302C1216.21 238.421 1216.32 238.571 1216.4 238.739C1216.48 238.907 1216.52 239.09 1216.52 239.276C1216.52 239.461 1216.48 239.644 1216.4 239.813C1216.32 239.981 1216.21 240.13 1216.06 240.25C1215.92 240.369 1215.76 240.457 1215.58 240.506C1215.4 240.555 1215.21 240.564 1215.03 240.534ZM1221.59 240.534C1221.25 240.534 1220.93 240.406 1220.68 240.175C1220.44 239.944 1220.29 239.629 1220.28 239.293C1220.28 238.952 1220.43 238.627 1220.67 238.389C1220.92 238.151 1221.25 238.018 1221.59 238.018C1221.77 237.987 1221.96 237.996 1222.14 238.045C1222.32 238.094 1222.48 238.182 1222.62 238.302C1222.77 238.421 1222.88 238.571 1222.96 238.739C1223.04 238.907 1223.08 239.09 1223.08 239.276C1223.08 239.461 1223.04 239.644 1222.96 239.813C1222.88 239.981 1222.77 240.13 1222.62 240.25C1222.48 240.369 1222.32 240.457 1222.14 240.506C1221.96 240.555 1221.77 240.564 1221.59 240.534ZM1228.18 240.534C1227.84 240.543 1227.51 240.419 1227.26 240.187C1227 239.956 1226.85 239.635 1226.84 239.293C1226.84 239.121 1226.88 238.952 1226.95 238.794C1227.02 238.637 1227.12 238.495 1227.24 238.377C1227.37 238.258 1227.52 238.165 1227.68 238.104C1227.84 238.042 1228.01 238.013 1228.18 238.018V238.018C1228.37 237.987 1228.55 237.996 1228.73 238.045C1228.91 238.094 1229.08 238.182 1229.22 238.302C1229.36 238.421 1229.47 238.571 1229.55 238.739C1229.63 238.907 1229.67 239.09 1229.67 239.276C1229.67 239.461 1229.63 239.644 1229.55 239.813C1229.47 239.981 1229.36 240.13 1229.22 240.25C1229.08 240.369 1228.91 240.457 1228.73 240.506C1228.55 240.555 1228.37 240.564 1228.18 240.534ZM1234.74 240.534C1234.58 240.538 1234.41 240.51 1234.25 240.45C1234.09 240.39 1233.95 240.3 1233.83 240.185C1233.71 240.07 1233.61 239.932 1233.54 239.779C1233.47 239.626 1233.44 239.461 1233.43 239.293C1233.43 239.123 1233.47 238.954 1233.53 238.797C1233.6 238.64 1233.69 238.498 1233.82 238.379C1233.94 238.26 1234.08 238.166 1234.24 238.104C1234.4 238.042 1234.57 238.013 1234.74 238.018V238.018C1234.93 237.987 1235.11 237.996 1235.29 238.045C1235.47 238.094 1235.64 238.182 1235.78 238.302C1235.92 238.421 1236.03 238.571 1236.11 238.739C1236.19 238.907 1236.23 239.09 1236.23 239.276C1236.23 239.461 1236.19 239.644 1236.11 239.813C1236.03 239.981 1235.92 240.13 1235.78 240.25C1235.64 240.369 1235.47 240.457 1235.29 240.506C1235.11 240.555 1234.93 240.564 1234.74 240.534ZM1241.3 240.534C1241.14 240.538 1240.97 240.51 1240.81 240.45C1240.65 240.39 1240.51 240.3 1240.39 240.185C1240.27 240.07 1240.17 239.932 1240.1 239.779C1240.03 239.626 1240 239.461 1239.99 239.293V239.293C1239.99 239.123 1240.03 238.954 1240.09 238.797C1240.16 238.64 1240.25 238.498 1240.38 238.379C1240.5 238.26 1240.64 238.166 1240.8 238.104C1240.96 238.042 1241.13 238.013 1241.3 238.018V238.018C1241.49 237.987 1241.67 237.996 1241.85 238.045C1242.03 238.094 1242.2 238.182 1242.34 238.302C1242.48 238.421 1242.59 238.571 1242.67 238.739C1242.75 238.907 1242.79 239.09 1242.79 239.276C1242.79 239.461 1242.75 239.644 1242.67 239.813C1242.59 239.981 1242.48 240.13 1242.34 240.25C1242.2 240.369 1242.03 240.457 1241.85 240.506C1241.67 240.555 1241.49 240.564 1241.3 240.534ZM1247.86 240.534C1247.53 240.534 1247.2 240.406 1246.96 240.175C1246.72 239.944 1246.57 239.629 1246.55 239.293C1246.56 238.952 1246.7 238.627 1246.95 238.389C1247.19 238.151 1247.52 238.018 1247.86 238.018C1248.05 237.987 1248.23 237.996 1248.41 238.045C1248.59 238.094 1248.76 238.182 1248.9 238.302C1249.04 238.421 1249.15 238.571 1249.23 238.739C1249.31 238.907 1249.35 239.09 1249.35 239.276C1249.35 239.461 1249.31 239.644 1249.23 239.813C1249.15 239.981 1249.04 240.13 1248.9 240.25C1248.76 240.369 1248.59 240.457 1248.41 240.506C1248.23 240.555 1248.05 240.564 1247.86 240.534ZM1254.42 240.534C1254.09 240.534 1253.76 240.406 1253.52 240.175C1253.28 239.944 1253.13 239.629 1253.11 239.293C1253.12 238.952 1253.26 238.627 1253.51 238.389C1253.75 238.151 1254.08 238.018 1254.42 238.018C1254.61 237.987 1254.79 237.996 1254.97 238.045C1255.15 238.094 1255.32 238.182 1255.46 238.302C1255.6 238.421 1255.71 238.571 1255.79 238.739C1255.87 238.907 1255.91 239.09 1255.91 239.276C1255.91 239.461 1255.87 239.644 1255.79 239.813C1255.71 239.981 1255.6 240.13 1255.46 240.25C1255.32 240.369 1255.15 240.457 1254.97 240.506C1254.79 240.555 1254.61 240.564 1254.42 240.534V240.534ZM1261.02 240.534C1260.68 240.543 1260.34 240.419 1260.09 240.187C1259.84 239.956 1259.69 239.635 1259.67 239.293V239.293C1259.68 239.121 1259.71 238.952 1259.78 238.794C1259.85 238.637 1259.95 238.495 1260.08 238.377C1260.21 238.258 1260.35 238.165 1260.51 238.104C1260.67 238.042 1260.85 238.013 1261.02 238.018C1261.2 237.987 1261.39 237.996 1261.57 238.045C1261.75 238.094 1261.91 238.182 1262.05 238.302C1262.2 238.421 1262.31 238.571 1262.39 238.739C1262.47 238.907 1262.51 239.09 1262.51 239.276C1262.51 239.461 1262.47 239.644 1262.39 239.813C1262.31 239.981 1262.2 240.13 1262.05 240.25C1261.91 240.369 1261.75 240.457 1261.57 240.506C1261.39 240.555 1261.2 240.564 1261.02 240.534ZM1267.58 240.534C1267.41 240.538 1267.24 240.51 1267.09 240.45C1266.93 240.39 1266.79 240.3 1266.67 240.185C1266.54 240.07 1266.45 239.932 1266.38 239.779C1266.31 239.626 1266.27 239.461 1266.27 239.293V239.293C1266.27 239.123 1266.3 238.954 1266.37 238.797C1266.43 238.64 1266.53 238.498 1266.65 238.379C1266.78 238.26 1266.92 238.166 1267.08 238.104C1267.24 238.042 1267.41 238.013 1267.58 238.018V238.018C1267.76 237.987 1267.95 237.996 1268.13 238.045C1268.31 238.094 1268.47 238.182 1268.61 238.302C1268.76 238.421 1268.87 238.571 1268.95 238.739C1269.03 238.907 1269.07 239.09 1269.07 239.276C1269.07 239.461 1269.03 239.644 1268.95 239.813C1268.87 239.981 1268.76 240.13 1268.61 240.25C1268.47 240.369 1268.31 240.457 1268.13 240.506C1267.95 240.555 1267.76 240.564 1267.58 240.534ZM1274.14 240.534C1273.97 240.538 1273.8 240.51 1273.65 240.45C1273.49 240.39 1273.35 240.3 1273.23 240.185C1273.1 240.07 1273.01 239.932 1272.94 239.779C1272.87 239.626 1272.83 239.461 1272.83 239.293C1272.83 239.123 1272.86 238.954 1272.93 238.797C1272.99 238.64 1273.09 238.498 1273.21 238.379C1273.33 238.26 1273.48 238.166 1273.64 238.104C1273.8 238.042 1273.97 238.013 1274.14 238.018C1274.32 237.987 1274.51 237.996 1274.69 238.045C1274.87 238.094 1275.03 238.182 1275.17 238.302C1275.32 238.421 1275.43 238.571 1275.51 238.739C1275.59 238.907 1275.63 239.09 1275.63 239.276C1275.63 239.461 1275.59 239.644 1275.51 239.813C1275.43 239.981 1275.32 240.13 1275.17 240.25C1275.03 240.369 1274.87 240.457 1274.69 240.506C1274.51 240.555 1274.32 240.564 1274.14 240.534V240.534ZM1280.7 240.534C1280.36 240.534 1280.04 240.406 1279.79 240.175C1279.55 239.944 1279.4 239.629 1279.39 239.293C1279.4 238.952 1279.54 238.627 1279.78 238.389C1280.03 238.151 1280.36 238.018 1280.7 238.018V238.018C1280.88 237.987 1281.07 237.996 1281.25 238.045C1281.43 238.094 1281.59 238.182 1281.73 238.302C1281.88 238.421 1281.99 238.571 1282.07 238.739C1282.15 238.907 1282.19 239.09 1282.19 239.276C1282.19 239.461 1282.15 239.644 1282.07 239.813C1281.99 239.981 1281.88 240.13 1281.73 240.25C1281.59 240.369 1281.43 240.457 1281.25 240.506C1281.07 240.555 1280.88 240.564 1280.7 240.534ZM1287.26 240.534C1286.92 240.534 1286.6 240.406 1286.35 240.175C1286.11 239.944 1285.96 239.629 1285.95 239.293C1285.96 238.952 1286.1 238.627 1286.34 238.389C1286.59 238.151 1286.92 238.018 1287.26 238.018V238.018C1287.44 237.987 1287.63 237.996 1287.81 238.045C1287.99 238.094 1288.15 238.182 1288.29 238.302C1288.44 238.421 1288.55 238.571 1288.63 238.739C1288.71 238.907 1288.75 239.09 1288.75 239.276C1288.75 239.461 1288.71 239.644 1288.63 239.813C1288.55 239.981 1288.44 240.13 1288.29 240.25C1288.15 240.369 1287.99 240.457 1287.81 240.506C1287.63 240.555 1287.44 240.564 1287.26 240.534Z" fill="white"/>
<path opacity="0.6" d="M1218.64 250.314C1218.47 250.318 1218.3 250.289 1218.15 250.227C1217.99 250.165 1217.84 250.072 1217.72 249.953C1217.6 249.834 1217.5 249.691 1217.43 249.534C1217.37 249.377 1217.33 249.208 1217.33 249.038V249.038C1217.33 248.867 1217.37 248.698 1217.43 248.541C1217.5 248.384 1217.6 248.242 1217.72 248.123C1217.84 248.004 1217.99 247.911 1218.15 247.849C1218.3 247.787 1218.47 247.757 1218.64 247.762V247.762C1218.98 247.762 1219.31 247.897 1219.55 248.136C1219.79 248.375 1219.92 248.699 1219.92 249.038C1219.92 249.376 1219.79 249.701 1219.55 249.94C1219.31 250.179 1218.98 250.314 1218.64 250.314V250.314ZM1225.2 250.314C1225.03 250.318 1224.86 250.289 1224.71 250.227C1224.55 250.165 1224.4 250.072 1224.28 249.953C1224.16 249.834 1224.06 249.691 1223.99 249.534C1223.93 249.377 1223.89 249.208 1223.89 249.038V249.038C1223.89 248.867 1223.93 248.698 1223.99 248.541C1224.06 248.384 1224.16 248.242 1224.28 248.123C1224.4 248.004 1224.55 247.911 1224.71 247.849C1224.86 247.787 1225.03 247.757 1225.2 247.762V247.762C1225.54 247.762 1225.87 247.897 1226.11 248.136C1226.35 248.375 1226.48 248.699 1226.48 249.038C1226.48 249.376 1226.35 249.701 1226.11 249.94C1225.87 250.179 1225.54 250.314 1225.2 250.314V250.314ZM1231.76 250.314C1231.42 250.314 1231.09 250.18 1230.85 249.942C1230.6 249.704 1230.46 249.379 1230.45 249.038V249.038C1230.46 248.696 1230.6 248.372 1230.85 248.134C1231.09 247.895 1231.42 247.762 1231.76 247.762C1232.1 247.762 1232.43 247.897 1232.67 248.136C1232.91 248.375 1233.04 248.699 1233.04 249.038C1233.04 249.376 1232.91 249.701 1232.67 249.94C1232.43 250.179 1232.1 250.314 1231.76 250.314V250.314ZM1238.32 250.314C1237.98 250.314 1237.65 250.18 1237.41 249.942C1237.16 249.704 1237.02 249.379 1237.01 249.038V249.038C1237.02 248.696 1237.16 248.372 1237.41 248.134C1237.65 247.895 1237.98 247.762 1238.32 247.762C1238.66 247.762 1238.99 247.897 1239.23 248.136C1239.47 248.375 1239.6 248.699 1239.6 249.038C1239.6 249.376 1239.47 249.701 1239.23 249.94C1238.99 250.179 1238.66 250.314 1238.32 250.314V250.314ZM1244.88 250.314C1244.54 250.314 1244.21 250.18 1243.97 249.942C1243.72 249.704 1243.58 249.379 1243.57 249.038V249.038C1243.58 248.696 1243.72 248.372 1243.97 248.134C1244.21 247.895 1244.54 247.762 1244.88 247.762C1245.22 247.762 1245.55 247.897 1245.79 248.136C1246.03 248.375 1246.16 248.699 1246.16 249.038C1246.16 249.376 1246.03 249.701 1245.79 249.94C1245.55 250.179 1245.22 250.314 1244.88 250.314V250.314ZM1251.48 250.314C1251.31 250.318 1251.14 250.289 1250.98 250.227C1250.82 250.165 1250.68 250.072 1250.55 249.953C1250.43 249.834 1250.33 249.691 1250.27 249.534C1250.2 249.377 1250.17 249.208 1250.17 249.038V249.038C1250.17 248.867 1250.2 248.698 1250.27 248.541C1250.33 248.384 1250.43 248.242 1250.55 248.123C1250.68 248.004 1250.82 247.911 1250.98 247.849C1251.14 247.787 1251.31 247.757 1251.48 247.762V247.762C1251.82 247.762 1252.14 247.897 1252.38 248.136C1252.62 248.375 1252.76 248.699 1252.76 249.038C1252.76 249.376 1252.62 249.701 1252.38 249.94C1252.14 250.179 1251.82 250.314 1251.48 250.314V250.314ZM1258.04 250.314C1257.87 250.318 1257.7 250.289 1257.54 250.227C1257.38 250.165 1257.24 250.072 1257.11 249.953C1256.99 249.834 1256.89 249.691 1256.83 249.534C1256.76 249.377 1256.73 249.208 1256.73 249.038V249.038C1256.73 248.867 1256.76 248.698 1256.83 248.541C1256.89 248.384 1256.99 248.242 1257.11 248.123C1257.24 248.004 1257.38 247.911 1257.54 247.849C1257.7 247.787 1257.87 247.757 1258.04 247.762V247.762C1258.38 247.762 1258.7 247.897 1258.94 248.136C1259.18 248.375 1259.32 248.699 1259.32 249.038C1259.32 249.376 1259.18 249.701 1258.94 249.94C1258.7 250.179 1258.38 250.314 1258.04 250.314V250.314ZM1264.6 250.314C1264.26 250.314 1263.93 250.18 1263.68 249.942C1263.44 249.704 1263.3 249.379 1263.29 249.038V249.038C1263.3 248.696 1263.44 248.372 1263.68 248.134C1263.93 247.895 1264.26 247.762 1264.6 247.762C1264.94 247.762 1265.26 247.897 1265.5 248.136C1265.74 248.375 1265.88 248.699 1265.88 249.038C1265.88 249.376 1265.74 249.701 1265.5 249.94C1265.26 250.179 1264.94 250.314 1264.6 250.314V250.314ZM1271.16 250.314C1270.82 250.314 1270.49 250.18 1270.24 249.942C1270 249.704 1269.86 249.379 1269.85 249.038V249.038C1269.86 248.696 1270 248.372 1270.24 248.134C1270.49 247.895 1270.82 247.762 1271.16 247.762C1271.5 247.762 1271.82 247.897 1272.06 248.136C1272.3 248.375 1272.44 248.699 1272.44 249.038C1272.44 249.376 1272.3 249.701 1272.06 249.94C1271.82 250.179 1271.5 250.314 1271.16 250.314V250.314ZM1277.72 250.314C1277.38 250.314 1277.05 250.18 1276.8 249.942C1276.56 249.704 1276.42 249.379 1276.41 249.038V249.038C1276.42 248.696 1276.56 248.372 1276.8 248.134C1277.05 247.895 1277.38 247.762 1277.72 247.762C1278.06 247.762 1278.38 247.897 1278.62 248.136C1278.86 248.375 1279 248.699 1279 249.038C1279 249.376 1278.86 249.701 1278.62 249.94C1278.38 250.179 1278.06 250.314 1277.72 250.314V250.314ZM1284.32 250.314C1284.14 250.318 1283.97 250.289 1283.82 250.227C1283.66 250.165 1283.51 250.072 1283.39 249.953C1283.27 249.834 1283.17 249.691 1283.1 249.534C1283.04 249.377 1283 249.208 1283 249.038V249.038C1283 248.867 1283.04 248.698 1283.1 248.541C1283.17 248.384 1283.27 248.242 1283.39 248.123C1283.51 248.004 1283.66 247.911 1283.82 247.849C1283.97 247.787 1284.14 247.757 1284.32 247.762C1284.65 247.762 1284.98 247.897 1285.22 248.136C1285.46 248.375 1285.59 248.699 1285.59 249.038C1285.59 249.376 1285.46 249.701 1285.22 249.94C1284.98 250.179 1284.65 250.314 1284.32 250.314V250.314ZM1290.88 250.314C1290.7 250.318 1290.53 250.289 1290.38 250.227C1290.22 250.165 1290.07 250.072 1289.95 249.953C1289.83 249.834 1289.73 249.691 1289.66 249.534C1289.6 249.377 1289.56 249.208 1289.56 249.038V249.038C1289.56 248.867 1289.6 248.698 1289.66 248.541C1289.73 248.384 1289.83 248.242 1289.95 248.123C1290.07 248.004 1290.22 247.911 1290.38 247.849C1290.53 247.787 1290.7 247.757 1290.88 247.762V247.762C1291.21 247.762 1291.54 247.897 1291.78 248.136C1292.02 248.375 1292.15 248.699 1292.15 249.038C1292.15 249.376 1292.02 249.701 1291.78 249.94C1291.54 250.179 1291.21 250.314 1290.88 250.314V250.314ZM1297.44 250.314C1297.09 250.314 1296.76 250.18 1296.52 249.942C1296.27 249.704 1296.13 249.379 1296.12 249.038V249.038C1296.13 248.696 1296.27 248.372 1296.52 248.134C1296.76 247.895 1297.09 247.762 1297.44 247.762C1297.77 247.762 1298.1 247.897 1298.34 248.136C1298.58 248.375 1298.71 248.699 1298.71 249.038C1298.71 249.376 1298.58 249.701 1298.34 249.94C1298.1 250.179 1297.77 250.314 1297.44 250.314V250.314ZM1304 250.314C1303.65 250.314 1303.32 250.18 1303.08 249.942C1302.83 249.704 1302.69 249.379 1302.68 249.038V249.038C1302.69 248.696 1302.83 248.372 1303.08 248.134C1303.32 247.895 1303.65 247.762 1304 247.762C1304.33 247.762 1304.66 247.897 1304.9 248.136C1305.14 248.375 1305.27 248.699 1305.27 249.038C1305.27 249.376 1305.14 249.701 1304.9 249.94C1304.66 250.179 1304.33 250.314 1304 250.314V250.314ZM1310.56 250.314C1310.21 250.314 1309.88 250.18 1309.64 249.942C1309.39 249.704 1309.25 249.379 1309.24 249.038V249.038C1309.25 248.696 1309.39 248.372 1309.64 248.134C1309.88 247.895 1310.21 247.762 1310.56 247.762C1310.89 247.762 1311.22 247.897 1311.46 248.136C1311.7 248.375 1311.83 248.699 1311.83 249.038C1311.83 249.376 1311.7 249.701 1311.46 249.94C1311.22 250.179 1310.89 250.314 1310.56 250.314V250.314Z" fill="white"/>
<path opacity="0.6" d="M96.3119 136.534C95.9759 136.534 95.6525 136.406 95.4084 136.175C95.1643 135.944 95.0182 135.629 95 135.293C95.0092 134.952 95.1514 134.627 95.3965 134.389C95.6415 134.151 95.97 134.018 96.3119 134.018V134.018C96.4949 133.987 96.6825 133.996 96.8614 134.045C97.0404 134.094 97.2066 134.182 97.3483 134.302C97.49 134.421 97.6039 134.571 97.682 134.739C97.7601 134.907 97.8006 135.09 97.8006 135.276C97.8006 135.461 97.7601 135.644 97.682 135.813C97.6039 135.981 97.49 136.13 97.3483 136.25C97.2066 136.369 97.0404 136.457 96.8614 136.506C96.6825 136.555 96.4949 136.564 96.3119 136.534ZM102.907 136.534C102.74 136.538 102.573 136.51 102.416 136.45C102.259 136.39 102.116 136.3 101.994 136.185C101.872 136.07 101.774 135.932 101.706 135.779C101.638 135.626 101.6 135.461 101.595 135.293C101.595 135.123 101.63 134.954 101.696 134.797C101.762 134.64 101.859 134.498 101.982 134.379C102.104 134.26 102.249 134.166 102.408 134.104C102.567 134.042 102.737 134.013 102.907 134.018C103.09 133.987 103.278 133.996 103.457 134.045C103.636 134.094 103.802 134.182 103.944 134.302C104.086 134.421 104.199 134.571 104.277 134.739C104.356 134.907 104.396 135.09 104.396 135.276C104.396 135.461 104.356 135.644 104.277 135.813C104.199 135.981 104.086 136.13 103.944 136.25C103.802 136.369 103.636 136.457 103.457 136.506C103.278 136.555 103.09 136.564 102.907 136.534ZM109.467 136.534C109.3 136.538 109.133 136.51 108.976 136.45C108.819 136.39 108.676 136.3 108.554 136.185C108.432 136.07 108.334 135.932 108.266 135.779C108.198 135.626 108.16 135.461 108.155 135.293C108.155 135.123 108.19 134.954 108.256 134.797C108.322 134.64 108.419 134.498 108.542 134.379C108.664 134.26 108.809 134.166 108.968 134.104C109.127 134.042 109.297 134.013 109.467 134.018V134.018C109.65 133.987 109.838 133.996 110.017 134.045C110.196 134.094 110.362 134.182 110.504 134.302C110.646 134.421 110.759 134.571 110.837 134.739C110.916 134.907 110.956 135.09 110.956 135.276C110.956 135.461 110.916 135.644 110.837 135.813C110.759 135.981 110.646 136.13 110.504 136.25C110.362 136.369 110.196 136.457 110.017 136.506C109.838 136.555 109.65 136.564 109.467 136.534ZM116.027 136.534C115.691 136.534 115.368 136.406 115.124 136.175C114.88 135.944 114.734 135.629 114.715 135.293C114.725 134.952 114.867 134.627 115.112 134.389C115.357 134.151 115.685 134.018 116.027 134.018C116.21 133.987 116.398 133.996 116.577 134.045C116.756 134.094 116.922 134.182 117.064 134.302C117.205 134.421 117.319 134.571 117.397 134.739C117.476 134.907 117.516 135.09 117.516 135.276C117.516 135.461 117.476 135.644 117.397 135.813C117.319 135.981 117.205 136.13 117.064 136.25C116.922 136.369 116.756 136.457 116.577 136.506C116.398 136.555 116.21 136.564 116.027 136.534ZM122.587 136.534C122.251 136.534 121.928 136.406 121.684 136.175C121.44 135.944 121.294 135.629 121.275 135.293C121.285 134.952 121.427 134.627 121.672 134.389C121.917 134.151 122.245 134.018 122.587 134.018C122.77 133.987 122.958 133.996 123.137 134.045C123.316 134.094 123.482 134.182 123.624 134.302C123.765 134.421 123.879 134.571 123.957 134.739C124.036 134.907 124.076 135.09 124.076 135.276C124.076 135.461 124.036 135.644 123.957 135.813C123.879 135.981 123.765 136.13 123.624 136.25C123.482 136.369 123.316 136.457 123.137 136.506C122.958 136.555 122.77 136.564 122.587 136.534ZM129.183 136.534C128.841 136.543 128.508 136.419 128.257 136.187C128.005 135.956 127.854 135.635 127.835 135.293C127.84 135.121 127.878 134.952 127.949 134.794C128.019 134.637 128.119 134.495 128.245 134.377C128.37 134.258 128.517 134.165 128.678 134.104C128.839 134.042 129.011 134.013 129.183 134.018V134.018C129.366 133.987 129.553 133.996 129.732 134.045C129.911 134.094 130.077 134.182 130.219 134.302C130.361 134.421 130.475 134.571 130.553 134.739C130.631 134.907 130.671 135.09 130.671 135.276C130.671 135.461 130.631 135.644 130.553 135.813C130.475 135.981 130.361 136.13 130.219 136.25C130.077 136.369 129.911 136.457 129.732 136.506C129.553 136.555 129.366 136.564 129.183 136.534ZM135.743 136.534C135.575 136.538 135.408 136.51 135.252 136.45C135.095 136.39 134.952 136.3 134.83 136.185C134.708 136.07 134.61 135.932 134.541 135.779C134.473 135.626 134.435 135.461 134.431 135.293C134.431 135.123 134.465 134.954 134.531 134.797C134.598 134.64 134.695 134.498 134.817 134.379C134.94 134.26 135.085 134.166 135.243 134.104C135.402 134.042 135.572 134.013 135.743 134.018V134.018C135.926 133.987 136.113 133.996 136.292 134.045C136.471 134.094 136.637 134.182 136.779 134.302C136.921 134.421 137.035 134.571 137.113 134.739C137.191 134.907 137.231 135.09 137.231 135.276C137.231 135.461 137.191 135.644 137.113 135.813C137.035 135.981 136.921 136.13 136.779 136.25C136.637 136.369 136.471 136.457 136.292 136.506C136.113 136.555 135.926 136.564 135.743 136.534ZM142.303 136.534C142.135 136.538 141.968 136.51 141.812 136.45C141.655 136.39 141.512 136.3 141.39 136.185C141.268 136.07 141.17 135.932 141.101 135.779C141.033 135.626 140.995 135.461 140.991 135.293V135.293C140.991 135.123 141.025 134.954 141.091 134.797C141.158 134.64 141.255 134.498 141.377 134.379C141.5 134.26 141.644 134.166 141.803 134.104C141.962 134.042 142.132 134.013 142.303 134.018V134.018C142.486 133.987 142.673 133.996 142.852 134.045C143.031 134.094 143.197 134.182 143.339 134.302C143.481 134.421 143.595 134.571 143.673 134.739C143.751 134.907 143.791 135.09 143.791 135.276C143.791 135.461 143.751 135.644 143.673 135.813C143.595 135.981 143.481 136.13 143.339 136.25C143.197 136.369 143.031 136.457 142.852 136.506C142.673 136.555 142.486 136.564 142.303 136.534ZM148.863 136.534C148.527 136.534 148.203 136.406 147.959 136.175C147.715 135.944 147.569 135.629 147.551 135.293C147.56 134.952 147.702 134.627 147.947 134.389C148.192 134.151 148.521 134.018 148.863 134.018C149.046 133.987 149.233 133.996 149.412 134.045C149.591 134.094 149.757 134.182 149.899 134.302C150.041 134.421 150.155 134.571 150.233 134.739C150.311 134.907 150.351 135.09 150.351 135.276C150.351 135.461 150.311 135.644 150.233 135.813C150.155 135.981 150.041 136.13 149.899 136.25C149.757 136.369 149.591 136.457 149.412 136.506C149.233 136.555 149.046 136.564 148.863 136.534ZM155.423 136.534C155.087 136.534 154.763 136.406 154.519 136.175C154.275 135.944 154.129 135.629 154.111 135.293C154.12 134.952 154.262 134.627 154.507 134.389C154.752 134.151 155.081 134.018 155.423 134.018C155.606 133.987 155.793 133.996 155.972 134.045C156.151 134.094 156.317 134.182 156.459 134.302C156.601 134.421 156.715 134.571 156.793 134.739C156.871 134.907 156.911 135.09 156.911 135.276C156.911 135.461 156.871 135.644 156.793 135.813C156.715 135.981 156.601 136.13 156.459 136.25C156.317 136.369 156.151 136.457 155.972 136.506C155.793 136.555 155.606 136.564 155.423 136.534V136.534ZM162.018 136.534C161.676 136.543 161.344 136.419 161.092 136.187C160.84 135.956 160.689 135.635 160.671 135.293V135.293C160.675 135.121 160.714 134.952 160.784 134.794C160.854 134.637 160.955 134.495 161.08 134.377C161.205 134.258 161.352 134.165 161.513 134.104C161.674 134.042 161.846 134.013 162.018 134.018C162.201 133.987 162.389 133.996 162.568 134.045C162.747 134.094 162.913 134.182 163.055 134.302C163.196 134.421 163.31 134.571 163.388 134.739C163.466 134.907 163.507 135.09 163.507 135.276C163.507 135.461 163.466 135.644 163.388 135.813C163.31 135.981 163.196 136.13 163.055 136.25C162.913 136.369 162.747 136.457 162.568 136.506C162.389 136.555 162.201 136.564 162.018 136.534ZM168.578 136.534C168.411 136.538 168.244 136.51 168.087 136.45C167.93 136.39 167.787 136.3 167.665 136.185C167.543 136.07 167.445 135.932 167.377 135.779C167.308 135.626 167.271 135.461 167.266 135.293V135.293C167.266 135.123 167.3 134.954 167.367 134.797C167.433 134.64 167.53 134.498 167.653 134.379C167.775 134.26 167.92 134.166 168.079 134.104C168.238 134.042 168.408 134.013 168.578 134.018V134.018C168.761 133.987 168.949 133.996 169.128 134.045C169.307 134.094 169.473 134.182 169.615 134.302C169.756 134.421 169.87 134.571 169.948 134.739C170.026 134.907 170.067 135.09 170.067 135.276C170.067 135.461 170.026 135.644 169.948 135.813C169.87 135.981 169.756 136.13 169.615 136.25C169.473 136.369 169.307 136.457 169.128 136.506C168.949 136.555 168.761 136.564 168.578 136.534ZM175.138 136.534C174.971 136.538 174.804 136.51 174.647 136.45C174.49 136.39 174.347 136.3 174.225 136.185C174.103 136.07 174.005 135.932 173.937 135.779C173.868 135.626 173.831 135.461 173.826 135.293C173.826 135.123 173.86 134.954 173.927 134.797C173.993 134.64 174.09 134.498 174.213 134.379C174.335 134.26 174.48 134.166 174.639 134.104C174.798 134.042 174.968 134.013 175.138 134.018C175.321 133.987 175.509 133.996 175.688 134.045C175.867 134.094 176.033 134.182 176.175 134.302C176.316 134.421 176.43 134.571 176.508 134.739C176.586 134.907 176.627 135.09 176.627 135.276C176.627 135.461 176.586 135.644 176.508 135.813C176.43 135.981 176.316 136.13 176.175 136.25C176.033 136.369 175.867 136.457 175.688 136.506C175.509 136.555 175.321 136.564 175.138 136.534V136.534ZM181.698 136.534C181.362 136.534 181.039 136.406 180.795 136.175C180.551 135.944 180.404 135.629 180.386 135.293C180.395 134.952 180.538 134.627 180.783 134.389C181.028 134.151 181.356 134.018 181.698 134.018V134.018C181.881 133.987 182.069 133.996 182.248 134.045C182.427 134.094 182.593 134.182 182.735 134.302C182.876 134.421 182.99 134.571 183.068 134.739C183.146 134.907 183.187 135.09 183.187 135.276C183.187 135.461 183.146 135.644 183.068 135.813C182.99 135.981 182.876 136.13 182.735 136.25C182.593 136.369 182.427 136.457 182.248 136.506C182.069 136.555 181.881 136.564 181.698 136.534ZM188.258 136.534C187.922 136.534 187.599 136.406 187.355 136.175C187.111 135.944 186.964 135.629 186.946 135.293C186.955 134.952 187.098 134.627 187.343 134.389C187.588 134.151 187.916 134.018 188.258 134.018V134.018C188.441 133.987 188.629 133.996 188.808 134.045C188.987 134.094 189.153 134.182 189.295 134.302C189.436 134.421 189.55 134.571 189.628 134.739C189.706 134.907 189.747 135.09 189.747 135.276C189.747 135.461 189.706 135.644 189.628 135.813C189.55 135.981 189.436 136.13 189.295 136.25C189.153 136.369 188.987 136.457 188.808 136.506C188.629 136.555 188.441 136.564 188.258 136.534Z" fill="white"/>
<path opacity="0.6" d="M119.645 146.314C119.474 146.318 119.304 146.289 119.145 146.227C118.986 146.165 118.841 146.072 118.719 145.953C118.597 145.834 118.499 145.691 118.433 145.534C118.367 145.377 118.332 145.208 118.333 145.038V145.038C118.332 144.867 118.367 144.698 118.433 144.541C118.499 144.384 118.597 144.242 118.719 144.123C118.841 144.004 118.986 143.911 119.145 143.849C119.304 143.787 119.474 143.757 119.645 143.762V143.762C119.983 143.762 120.308 143.897 120.547 144.136C120.787 144.375 120.921 144.699 120.921 145.038C120.921 145.376 120.787 145.701 120.547 145.94C120.308 146.179 119.983 146.314 119.645 146.314V146.314ZM126.205 146.314C126.034 146.318 125.864 146.289 125.705 146.227C125.546 146.165 125.401 146.072 125.279 145.953C125.157 145.834 125.059 145.691 124.993 145.534C124.927 145.377 124.892 145.208 124.893 145.038V145.038C124.892 144.867 124.927 144.698 124.993 144.541C125.059 144.384 125.157 144.242 125.279 144.123C125.401 144.004 125.546 143.911 125.705 143.849C125.864 143.787 126.034 143.757 126.205 143.762V143.762C126.543 143.762 126.868 143.897 127.107 144.136C127.347 144.375 127.481 144.699 127.481 145.038C127.481 145.376 127.347 145.701 127.107 145.94C126.868 146.179 126.543 146.314 126.205 146.314V146.314ZM132.765 146.314C132.423 146.314 132.094 146.18 131.849 145.942C131.604 145.704 131.462 145.379 131.453 145.038V145.038C131.462 144.696 131.604 144.372 131.849 144.134C132.094 143.895 132.423 143.762 132.765 143.762C133.103 143.762 133.428 143.897 133.667 144.136C133.907 144.375 134.041 144.699 134.041 145.038C134.041 145.376 133.907 145.701 133.667 145.94C133.428 146.179 133.103 146.314 132.765 146.314V146.314ZM139.325 146.314C138.983 146.314 138.654 146.18 138.409 145.942C138.164 145.704 138.022 145.379 138.012 145.038V145.038C138.022 144.696 138.164 144.372 138.409 144.134C138.654 143.895 138.983 143.762 139.325 143.762C139.663 143.762 139.988 143.897 140.227 144.136C140.467 144.375 140.601 144.699 140.601 145.038C140.601 145.376 140.467 145.701 140.227 145.94C139.988 146.179 139.663 146.314 139.325 146.314V146.314ZM145.885 146.314C145.543 146.314 145.214 146.18 144.969 145.942C144.724 145.704 144.582 145.379 144.572 145.038V145.038C144.582 144.696 144.724 144.372 144.969 144.134C145.214 143.895 145.543 143.762 145.885 143.762C146.223 143.762 146.548 143.897 146.787 144.136C147.027 144.375 147.161 144.699 147.161 145.038C147.161 145.376 147.027 145.701 146.787 145.94C146.548 146.179 146.223 146.314 145.885 146.314V146.314ZM152.48 146.314C152.309 146.318 152.14 146.289 151.981 146.227C151.822 146.165 151.677 146.072 151.554 145.953C151.432 145.834 151.335 145.691 151.268 145.534C151.202 145.377 151.168 145.208 151.168 145.038V145.038C151.168 144.867 151.202 144.698 151.268 144.541C151.335 144.384 151.432 144.242 151.554 144.123C151.677 144.004 151.822 143.911 151.981 143.849C152.14 143.787 152.309 143.757 152.48 143.762V143.762C152.819 143.762 153.143 143.897 153.383 144.136C153.622 144.375 153.756 144.699 153.756 145.038C153.756 145.376 153.622 145.701 153.383 145.94C153.143 146.179 152.819 146.314 152.48 146.314V146.314ZM159.04 146.314C158.869 146.318 158.7 146.289 158.541 146.227C158.382 146.165 158.237 146.072 158.114 145.953C157.992 145.834 157.895 145.691 157.828 145.534C157.762 145.377 157.728 145.208 157.728 145.038V145.038C157.728 144.867 157.762 144.698 157.828 144.541C157.895 144.384 157.992 144.242 158.114 144.123C158.237 144.004 158.382 143.911 158.541 143.849C158.7 143.787 158.869 143.757 159.04 143.762V143.762C159.379 143.762 159.703 143.897 159.943 144.136C160.182 144.375 160.316 144.699 160.316 145.038C160.316 145.376 160.182 145.701 159.943 145.94C159.703 146.179 159.379 146.314 159.04 146.314V146.314ZM165.6 146.314C165.258 146.314 164.93 146.18 164.685 145.942C164.44 145.704 164.297 145.379 164.288 145.038V145.038C164.297 144.696 164.44 144.372 164.685 144.134C164.93 143.895 165.258 143.762 165.6 143.762C165.939 143.762 166.263 143.897 166.503 144.136C166.742 144.375 166.876 144.699 166.876 145.038C166.876 145.376 166.742 145.701 166.503 145.94C166.263 146.179 165.939 146.314 165.6 146.314V146.314ZM172.16 146.314C171.818 146.314 171.49 146.18 171.245 145.942C171 145.704 170.857 145.379 170.848 145.038V145.038C170.857 144.696 171 144.372 171.245 144.134C171.49 143.895 171.818 143.762 172.16 143.762C172.499 143.762 172.823 143.897 173.063 144.136C173.302 144.375 173.436 144.699 173.436 145.038C173.436 145.376 173.302 145.701 173.063 145.94C172.823 146.179 172.499 146.314 172.16 146.314V146.314ZM178.72 146.314C178.378 146.314 178.05 146.18 177.805 145.942C177.56 145.704 177.417 145.379 177.408 145.038V145.038C177.417 144.696 177.56 144.372 177.805 144.134C178.05 143.895 178.378 143.762 178.72 143.762C179.059 143.762 179.383 143.897 179.623 144.136C179.862 144.375 179.996 144.699 179.996 145.038C179.996 145.376 179.862 145.701 179.623 145.94C179.383 146.179 179.059 146.314 178.72 146.314V146.314ZM185.315 146.314C185.145 146.318 184.975 146.289 184.816 146.227C184.657 146.165 184.512 146.072 184.39 145.953C184.267 145.834 184.17 145.691 184.104 145.534C184.038 145.377 184.003 145.208 184.003 145.038V145.038C184.003 144.867 184.038 144.698 184.104 144.541C184.17 144.384 184.267 144.242 184.39 144.123C184.512 144.004 184.657 143.911 184.816 143.849C184.975 143.787 185.145 143.757 185.315 143.762C185.654 143.762 185.979 143.897 186.218 144.136C186.457 144.375 186.592 144.699 186.592 145.038C186.592 145.376 186.457 145.701 186.218 145.94C185.979 146.179 185.654 146.314 185.315 146.314V146.314ZM191.875 146.314C191.705 146.318 191.535 146.289 191.376 146.227C191.217 146.165 191.072 146.072 190.95 145.953C190.827 145.834 190.73 145.691 190.664 145.534C190.597 145.377 190.563 145.208 190.563 145.038V145.038C190.563 144.867 190.597 144.698 190.664 144.541C190.73 144.384 190.827 144.242 190.95 144.123C191.072 144.004 191.217 143.911 191.376 143.849C191.535 143.787 191.705 143.757 191.875 143.762V143.762C192.214 143.762 192.539 143.897 192.778 144.136C193.017 144.375 193.152 144.699 193.152 145.038C193.152 145.376 193.017 145.701 192.778 145.94C192.539 146.179 192.214 146.314 191.875 146.314V146.314ZM198.435 146.314C198.093 146.314 197.765 146.18 197.52 145.942C197.275 145.704 197.133 145.379 197.123 145.038V145.038C197.133 144.696 197.275 144.372 197.52 144.134C197.765 143.895 198.093 143.762 198.435 143.762C198.774 143.762 199.099 143.897 199.338 144.136C199.577 144.375 199.712 144.699 199.712 145.038C199.712 145.376 199.577 145.701 199.338 145.94C199.099 146.179 198.774 146.314 198.435 146.314V146.314ZM204.995 146.314C204.653 146.314 204.325 146.18 204.08 145.942C203.835 145.704 203.693 145.379 203.683 145.038V145.038C203.693 144.696 203.835 144.372 204.08 144.134C204.325 143.895 204.653 143.762 204.995 143.762C205.334 143.762 205.659 143.897 205.898 144.136C206.137 144.375 206.272 144.699 206.272 145.038C206.272 145.376 206.137 145.701 205.898 145.94C205.659 146.179 205.334 146.314 204.995 146.314V146.314ZM211.555 146.314C211.213 146.314 210.885 146.18 210.64 145.942C210.395 145.704 210.253 145.379 210.243 145.038V145.038C210.253 144.696 210.395 144.372 210.64 144.134C210.885 143.895 211.213 143.762 211.555 143.762C211.894 143.762 212.219 143.897 212.458 144.136C212.697 144.375 212.832 144.699 212.832 145.038C212.832 145.376 212.697 145.701 212.458 145.94C212.219 146.179 211.894 146.314 211.555 146.314V146.314Z" fill="white"/>
<g clip-path="url(#clip0_92_4270)">
<circle class="circle two" cx="652" cy="215.5" r="162.819" stroke="white" stroke-opacity="0.04"/>
<circle class="circle one" cx="652" cy="215.5" r="215" stroke="white" stroke-opacity="0.02"/>
<circle class="circle three" cx="652" cy="215.5" r="111.994" stroke="white" stroke-opacity="0.08"/>
<style>
    .circle{
        opacity: 0;
        animation: pulsate 3s linear infinite;
        animation-delay: 1.1s;
        transform-origin: center;
        transform-box: fill-box;
    }
    .circle.two{
        animation-delay: 1.3s;
    }
    .circle.three{
        animation-delay: 1.5s;
    }
    @keyframes pulsate {
        0% {
            transform: scale(.1, .1);
            opacity: 0;
        }
        50% {
            opacity: 1;
        }
        100% {
            transform: scale(1.8, 1.8);
            opacity: 0;
        }
    }
</style>    
</g>
<path opacity="0.6" d="M130.069 218.182C130.222 200.686 101.31 186.251 65.4929 185.938C29.6757 185.626 0.516213 199.555 0.36343 217.05C0.210647 234.546 29.1224 248.981 64.9397 249.294C100.757 249.606 129.916 235.677 130.069 218.182Z" fill="url(#paint0_radial_92_4270)"/>
<path opacity="0.6" d="M1290.62 132.958C1290.72 121.337 1271.52 111.747 1247.72 111.54C1223.93 111.332 1204.56 120.585 1204.46 132.206C1204.36 143.828 1223.57 153.417 1247.36 153.624C1271.15 153.832 1290.52 144.579 1290.62 132.958Z" fill="url(#paint1_radial_92_4270)"/>
<path opacity="0.6" d="M1295 126.185C1295 129.928 1291.87 132.941 1287.98 132.941C1286.62 132.955 1285.29 132.579 1284.14 131.857C1282.99 131.135 1282.08 130.097 1281.5 128.869C1280.54 132.917 1276.75 135.93 1272.25 135.93C1269.86 135.942 1267.56 135.079 1265.77 133.506C1264.78 139.202 1259.62 143.556 1253.38 143.556C1247.68 143.556 1242.87 139.908 1241.34 134.894C1240.04 135.434 1238.64 135.713 1237.22 135.718C1232.25 135.718 1228.08 132.376 1227.02 127.904C1226.39 128.646 1225.61 129.241 1224.73 129.648C1223.85 130.055 1222.88 130.263 1221.91 130.257C1218.28 130.257 1215.36 127.433 1215.36 123.949C1215.36 120.466 1218.28 117.665 1221.91 117.665C1221.91 114.181 1224.86 111.356 1228.48 111.356C1229.88 111.336 1231.25 111.767 1232.39 112.585C1233.53 113.403 1234.37 114.565 1234.8 115.899C1235.57 115.731 1236.36 115.637 1237.15 115.617C1237.1 115.321 1237.08 115.022 1237.08 114.722C1237.08 110.98 1240.24 107.967 1244.12 107.967C1244.52 107.974 1244.93 108.005 1245.32 108.061C1247.7 102.671 1253.26 98.8811 1259.74 98.8811C1266.22 98.8811 1272.06 102.883 1274.32 108.508C1274.66 108.441 1275.01 108.409 1275.36 108.414C1278.98 108.414 1281.93 111.239 1281.93 114.722C1281.93 115.305 1281.84 115.883 1281.67 116.44C1283.48 116.77 1284.87 118.276 1284.87 120.112C1285.85 119.668 1286.91 119.436 1287.98 119.43C1291.87 119.43 1295 122.466 1295 126.185ZM1281.31 124.02C1281.31 123.996 1281.34 123.949 1281.34 123.926H1281.29L1281.31 124.02Z" fill="url(#paint2_linear_92_4270)"/>
<path opacity="0.6" d="M119.888 203.105C119.888 208.739 115.172 213.275 109.321 213.275C107.279 213.296 105.273 212.73 103.543 211.643C101.814 210.556 100.435 208.994 99.5701 207.144C98.1162 213.239 92.4072 217.775 85.6345 217.775C82.0464 217.793 78.5764 216.494 75.8832 214.125C74.3939 222.7 66.6282 229.256 57.2315 229.256C48.6503 229.256 41.4166 223.763 39.1118 216.216C37.1433 217.027 35.0357 217.449 32.9064 217.456C25.4244 217.456 19.1481 212.424 17.5524 205.692C16.6076 206.809 15.4288 207.706 14.0992 208.318C12.7696 208.93 11.3217 209.243 9.85774 209.235C4.39699 209.235 0 204.983 0 199.738C0 194.494 4.39699 190.277 9.85774 190.277C9.85774 185.033 14.2901 180.781 19.7509 180.781C21.8597 180.75 23.9224 181.398 25.6339 182.63C27.3453 183.862 28.6147 185.611 29.254 187.62C30.4201 187.367 31.6073 187.225 32.8 187.194C32.7279 186.749 32.6923 186.299 32.6936 185.848C32.6936 180.214 37.4452 175.678 43.296 175.678C43.9011 175.688 44.505 175.736 45.1044 175.82C48.6858 167.705 57.0542 162 66.8055 162C76.5569 162 85.3508 168.024 88.7549 176.493C89.2687 176.392 89.7915 176.344 90.3151 176.351C95.7759 176.351 100.208 180.603 100.208 185.848C100.206 186.725 100.074 187.596 99.8183 188.435C102.549 188.931 104.641 191.199 104.641 193.962C106.111 193.294 107.706 192.944 109.321 192.935C115.172 192.935 119.888 197.506 119.888 203.105ZM99.2864 199.845C99.2864 199.809 99.3219 199.738 99.3219 199.703H99.2509L99.2864 199.845Z" fill="url(#paint3_linear_92_4270)"/>
<defs>
<radialGradient id="paint0_radial_92_4270" cx="0" cy="0" r="1" gradientUnits="userSpaceOnUse" gradientTransform="translate(65.2162 217.616) rotate(0.499658) scale(64.8553 31.679)">
<stop stop-color="#022652" stop-opacity="0.62"/>
<stop offset="1" stop-color="#022652" stop-opacity="0"/>
</radialGradient>
<radialGradient id="paint1_radial_92_4270" cx="0" cy="0" r="1" gradientUnits="userSpaceOnUse" gradientTransform="translate(1247.54 132.582) rotate(0.499658) scale(43.0807 21.0431)">
<stop stop-color="#022652" stop-opacity="0.62"/>
<stop offset="1" stop-color="#022652" stop-opacity="0"/>
</radialGradient>
<linearGradient id="paint2_linear_92_4270" x1="1223.58" y1="152.943" x2="1270.09" y2="111.659" gradientUnits="userSpaceOnUse">
<stop stop-color="#CEC0A6"/>
<stop offset="1" stop-color="white"/>
</linearGradient>
<linearGradient id="paint3_linear_92_4270" x1="12.3718" y1="243.387" x2="82.3832" y2="181.236" gradientUnits="userSpaceOnUse">
<stop stop-color="#CEC0A6"/>
<stop offset="1" stop-color="white"/>
</linearGradient>
<clipPath id="clip0_92_4270">
<rect width="431" height="309" fill="white" transform="translate(437)"/>
</clipPath>
</defs>
</svg>
