<svg width="42" height="42" viewBox="0 0 42 42" fill="none" xmlns="http://www.w3.org/2000/svg">
<path d="M31.57 23.7125C30.835 24.43 30.415 25.4625 30.52 26.565C30.6775 28.455 32.41 29.8375 34.3 29.8375H37.625V31.92C37.625 35.5425 34.6675 38.5 31.045 38.5H13.3525C13.895 38.045 14.3675 37.485 14.735 36.855C15.3825 35.805 15.75 34.5625 15.75 33.25C15.75 29.3825 12.6175 26.25 8.75 26.25C7.105 26.25 5.5825 26.8275 4.375 27.79V20.1425C4.375 16.52 7.3325 13.5625 10.955 13.5625H31.045C34.6675 13.5625 37.625 16.52 37.625 20.1425V22.6625H34.09C33.11 22.6625 32.2175 23.0475 31.57 23.7125Z" stroke="#433434" stroke-width="2" stroke-linecap="round" stroke-linejoin="round"/>
<path d="M4.375 21.7175V13.7201C4.375 11.6376 5.6525 9.78248 7.595 9.04748L21.49 3.79748C23.66 2.97498 25.9875 4.58503 25.9875 6.91253V13.5625" stroke="#433434" stroke-width="2" stroke-linecap="round" stroke-linejoin="round"/>
<path d="M12.25 21H24.5" stroke="#433434" stroke-width="2" stroke-linecap="round" stroke-linejoin="round"/>
<path d="M17 33C17 34.5 16.58 35.92 15.84 37.12C15.42 37.84 14.88 38.48 14.26 39C12.86 40.26 11.02 41 9 41C6.08 41 3.54 39.44 2.16 37.12C1.42 35.92 1 34.5 1 33C1 30.48 2.16 28.22 4 26.76C5.38 25.66 7.12 25 9 25C13.42 25 17 28.58 17 33Z" fill="#433434"/>
<path d="M17 33C17 34.5 16.58 35.92 15.84 37.12C15.42 37.84 14.88 38.48 14.26 39C12.86 40.26 11.02 41 9 41C6.08 41 3.54 39.44 2.16 37.12C1.42 35.92 1 34.5 1 33C1 30.48 2.16 28.22 4 26.76C5.38 25.66 7.12 25 9 25C13.42 25 17 28.58 17 33Z" fill="url(#paint0_radial_120_7086)"/>
<path d="M11.4999 34.9569L7.04199 30.52" stroke="white" stroke-width="1.5" stroke-miterlimit="10" stroke-linecap="round" stroke-linejoin="round"/>
<path d="M11.4579 30.5832L7 35.0201" stroke="white" stroke-width="1.5" stroke-miterlimit="10" stroke-linecap="round" stroke-linejoin="round"/>
<path d="M39.4779 24.4478V28.0529C39.4779 29.0154 38.7079 29.8028 37.7279 29.8378H34.2979C32.4079 29.8378 30.6754 28.4553 30.5179 26.5653C30.4129 25.4628 30.8329 24.4303 31.5679 23.7128C32.2154 23.0478 33.1079 22.6628 34.0879 22.6628H37.7279C38.7079 22.6978 39.4779 23.4853 39.4779 24.4478Z" fill="url(#paint1_radial_120_7086)"/>
<defs>
<radialGradient id="paint0_radial_120_7086" cx="0" cy="0" r="1" gradientUnits="userSpaceOnUse" gradientTransform="translate(9.305 21.7022) rotate(25.2544) scale(12.1188 18.8607)">
<stop stop-color="#2789E4"/>
<stop offset="0.2245" stop-color="#217CD4"/>
<stop offset="0.6624" stop-color="#1059AA"/>
<stop offset="1" stop-color="#013B85"/>
</radialGradient>
<radialGradient id="paint1_radial_120_7086" cx="0" cy="0" r="1" gradientUnits="userSpaceOnUse" gradientTransform="translate(35.161 21.184) rotate(20.6602) scale(6.57141 8.75017)">
<stop stop-color="#2789E4"/>
<stop offset="0.2245" stop-color="#217CD4"/>
<stop offset="0.6624" stop-color="#1059AA"/>
<stop offset="1" stop-color="#013B85"/>
</radialGradient>
</defs>
</svg>
