<svg width="161" height="90" viewBox="0 0 161 90" fill="none" xmlns="http://www.w3.org/2000/svg">
<path style="mix-blend-mode:multiply" opacity="0.6" d="M136.683 55.9568C136.844 37.5466 106.442 22.3557 68.7779 22.027C31.1143 21.6983 0.451558 36.3562 0.290899 54.7664C0.13024 73.1766 30.5325 88.3675 68.1961 88.6962C105.86 89.0249 136.522 74.367 136.683 55.9568Z" fill="url(#paint0_radial_117_6144)"/>
<path opacity="0.6" d="M160.679 43.2933C160.679 47.1713 157.062 50.2662 152.625 50.2662C149.306 50.2662 146.435 48.551 145.205 46.0526C144.086 50.2289 139.723 53.3612 134.54 53.3612C132.567 53.3652 130.623 52.8918 128.873 51.9815C127.977 52.7364 127.016 53.4103 126.002 53.9951C123.727 58.2833 118.73 61.2663 112.914 61.2663C107.097 61.2663 102.548 58.5442 100.161 54.5917C97.0292 64.4731 86.5887 71.7443 74.172 71.7443C61.7553 71.7443 51.6131 64.6969 48.3318 55.0392C45.5159 56.0836 42.5353 56.6141 39.532 56.6053C27.1525 56.6053 17.085 47.917 17.085 37.178C17.085 26.4389 27.0407 17.8998 39.3455 17.7879C39.2699 17.2193 39.2326 16.6463 39.2337 16.0727C39.2337 8.87601 45.9827 3.02172 54.2978 3.02172C57.3242 3.00677 60.299 3.80526 62.9112 5.33364C67.6802 1.81382 73.4653 -0.0579133 79.3922 0.00136586C93.2259 0.00136586 104.449 9.73364 104.449 21.7032C104.449 22.2253 104.412 22.7474 104.375 23.2321C107.395 18.3846 113.361 15.0659 120.185 15.0659C127.829 15.0659 134.354 19.1676 136.927 24.9846L138.12 24.9101C142.296 24.9101 145.689 27.8186 145.689 31.4356C145.684 32.0441 145.583 32.648 145.391 33.2254C147.479 33.561 149.045 35.1271 149.082 37.0288C150.204 36.5583 151.408 36.3174 152.625 36.3203C157.062 36.3203 160.679 39.4526 160.679 43.2933ZM145.018 40.9814H144.944V41.056C144.981 41.0187 144.981 40.9814 145.018 40.9814Z" fill="url(#paint1_linear_117_6144)"/>
<defs>
<radialGradient id="paint0_radial_117_6144" cx="0" cy="0" r="1" gradientUnits="userSpaceOnUse" gradientTransform="translate(74.1478 53.8667) rotate(-179.5) scale(68.1733 33.301)">
<stop stop-color="#273C67"/>
<stop offset="0.02" stop-color="#2E426C"/>
<stop offset="0.17" stop-color="#657492"/>
<stop offset="0.31" stop-color="#949EB4"/>
<stop offset="0.46" stop-color="#BAC1CF"/>
<stop offset="0.6" stop-color="#D8DCE4"/>
<stop offset="0.74" stop-color="#EEF0F3"/>
<stop offset="0.87" stop-color="#FBFBFC"/>
<stop offset="1" stop-color="white"/>
</radialGradient>
<linearGradient id="paint1_linear_117_6144" x1="35.4416" y1="74.1756" x2="105.629" y2="24.2146" gradientUnits="userSpaceOnUse">
<stop stop-color="#A6C0CE"/>
<stop offset="1" stop-color="#ACE1FF"/>
</linearGradient>
</defs>
</svg>
