<svg width="36" height="42" viewBox="0 0 36 42" fill="none" xmlns="http://www.w3.org/2000/svg">
<path d="M4.86138 31.1295C4.5345 30.9553 4.33069 30.6146 4.33171 30.2442L4.36603 17.8013C4.36811 17.0472 5.17236 16.5667 5.83742 16.9221L17.6771 23.2505C18.0025 23.4245 18.2057 23.7635 18.2057 24.1324V36.5751C18.2057 37.3299 17.4015 37.8126 16.7354 37.4576L4.86138 31.1295Z" fill="#9B9A9A"/>
<path d="M18.2057 24.1324C18.2057 23.7635 18.0025 23.4245 17.6771 23.2505L5.83742 16.9221C5.17236 16.5667 4.36811 17.0472 4.36603 17.8013L4.33171 30.2442C4.33069 30.6146 4.5345 30.9553 4.86138 31.1295L16.7354 37.4576C17.4015 37.8126 18.2057 37.3299 18.2057 36.5751V24.1324Z" fill="#115BAC" fill-opacity="0.65"/>
<path d="M32.05 17.7961C32.0458 17.0432 31.2426 16.5648 30.5786 16.9197L18.7343 23.2505C18.4089 23.4245 18.2057 23.7635 18.2057 24.1324V36.5774C18.2057 37.3317 19.0089 37.8144 19.675 37.4605L31.5879 31.1301C31.9162 30.9556 32.1207 30.6133 32.1186 30.2415L32.05 17.7961Z" fill="white"/>
<path d="M32.05 17.7961C32.0458 17.0432 31.2426 16.5648 30.5786 16.9197L18.7343 23.2505C18.4089 23.4245 18.2057 23.7635 18.2057 24.1324V36.5774C18.2057 37.3317 19.0089 37.8144 19.675 37.4605L31.5879 31.1301C31.9162 30.9556 32.1207 30.6133 32.1186 30.2415L32.05 17.7961Z" fill="url(#paint0_radial_125_3800)"/>
<path d="M0.353973 9.35603V32.4397L12.2822 38.8132L13.8645 39.6712L17.734 41.747C18.0287 41.905 18.3829 41.9054 18.6778 41.7478L35.5706 32.7257V10.4183L18.5303 19.5292L1.93629 10.3366L0.353973 9.35603ZM33.9882 31.9086L18.7171 40.0732C18.4229 40.2305 18.0696 40.2307 17.7752 40.0737L15.4874 38.8541L13.9051 37.9961L1.93629 31.6226V12.2568L18.2057 21.286L18.3274 21.3677L19.9909 20.4689L33.9882 12.9922V31.9086Z" fill="white"/>
<path d="M0.353973 9.35603V32.4397L12.2822 38.8132L13.8645 39.6712L17.734 41.747C18.0287 41.905 18.3829 41.9054 18.6778 41.7478L35.5706 32.7257V10.4183L18.5303 19.5292L1.93629 10.3366L0.353973 9.35603ZM33.9882 31.9086L18.7171 40.0732C18.4229 40.2305 18.0696 40.2307 17.7752 40.0737L15.4874 38.8541L13.9051 37.9961L1.93629 31.6226V12.2568L18.2057 21.286L18.3274 21.3677L19.9909 20.4689L33.9882 12.9922V31.9086Z" fill="url(#paint1_radial_125_3800)"/>
<path d="M23.6424 3.18677L22.06 2.32879L18.1905 0.253027C17.8958 0.0949522 17.5417 0.0946287 17.2467 0.252164L0.882868 8.99185C0.557291 9.16573 0.353973 9.50482 0.353973 9.87392V12.6654L1.93629 11.8074V10.1323L17.2484 1.96684C17.5424 1.81003 17.8953 1.81001 18.1893 1.96679L20.4777 3.18677L22.06 4.04475L33.9882 10.4183V12.0934L35.5706 12.9514V10.1598C35.5706 9.79075 35.3673 9.45171 35.0418 9.2778L23.6424 3.18677Z" fill="white"/>
<path d="M23.6424 3.18677L22.06 2.32879L18.1905 0.253027C17.8958 0.0949522 17.5417 0.0946287 17.2467 0.252164L0.882868 8.99185C0.557291 9.16573 0.353973 9.50482 0.353973 9.87392V12.6654L1.93629 11.8074V10.1323L17.2484 1.96684C17.5424 1.81003 17.8953 1.81001 18.1893 1.96679L20.4777 3.18677L22.06 4.04475L33.9882 10.4183V12.0934L35.5706 12.9514V10.1598C35.5706 9.79075 35.3673 9.45171 35.0418 9.2778L23.6424 3.18677Z" fill="url(#paint2_radial_125_3800)"/>
<path d="M5.70947 10.3372C5.70947 10.2865 5.73737 10.2399 5.78206 10.216L17.2884 4.05192C17.5827 3.89426 17.9363 3.89388 18.2309 4.0509L29.9669 10.3053C30.1446 10.4 30.2556 10.5849 30.2556 10.7862C30.2556 10.9873 30.1449 11.172 29.9675 11.2668L18.8882 17.1891C18.5891 17.349 18.2294 17.3464 17.9326 17.1822L5.78041 10.4575C5.73664 10.4333 5.70947 10.3872 5.70947 10.3372Z" fill="#417ABA"/>
<path d="M13.8645 32.4805L13.2154 27.1284H13.1748L11.349 31.3366L10.8216 31.0506L9.077 25.0039H9.03643L8.30613 29.6615L6.72382 28.8444L8.0627 21.2043L9.15814 21.7763L11.1462 28.1498L13.0531 23.7782L14.1891 24.3502L15.4062 33.2977L13.8645 32.4805Z" fill="white"/>
<path d="M27.943 22.9202L27.2127 24.3911C26.8881 24.1051 26.4824 24.1051 25.9956 24.3502C25.7521 24.4728 25.5087 24.677 25.3058 24.963C25.103 25.249 25.0218 25.4942 25.0218 25.7802C25.0218 25.9436 25.0624 26.107 25.1841 26.1887C25.3058 26.2704 25.4681 26.3113 25.6304 26.3113C25.8333 26.3113 26.0361 26.2704 26.239 26.2704C26.4824 26.2296 26.6853 26.2296 26.9287 26.2704C27.1722 26.2704 27.375 26.3113 27.5373 26.393C27.7402 26.4747 27.8619 26.5973 27.9836 26.8424C28.1053 27.0467 28.1459 27.3735 28.1459 27.7413C28.1459 28.5584 27.9024 29.3755 27.4156 30.1109C26.9287 30.8872 26.2796 31.4591 25.4681 31.8677C24.4538 32.3988 23.6018 32.2763 22.9932 31.5409L24.0075 30.0292C24.1292 30.3152 24.3321 30.4786 24.5755 30.5603C24.819 30.642 25.1435 30.6012 25.4681 30.4377C25.7927 30.2743 26.0361 30.0292 26.239 29.7023C26.4419 29.3755 26.523 29.0486 26.523 28.7218C26.523 28.2724 26.2796 28.0272 25.7521 28.0681C25.671 28.0681 25.4681 28.109 25.1435 28.109C24.535 28.1498 24.0887 28.109 23.8047 27.9455C23.5207 27.7821 23.3584 27.4144 23.3584 26.8016C23.3584 26.107 23.6018 25.4125 24.0481 24.7179C24.4944 24.0234 25.0624 23.4922 25.7116 23.1654C26.0767 22.9611 26.4824 22.8385 26.9287 22.7977C27.375 22.7568 27.6996 22.7977 27.943 22.9202Z" fill="white"/>
<defs>
<radialGradient id="paint0_radial_125_3800" cx="0" cy="0" r="1" gradientUnits="userSpaceOnUse" gradientTransform="translate(25.4291 11.5824) rotate(36.842) scale(11.9119 23.0551)">
<stop stop-color="#2789E4"/>
<stop offset="0.2245" stop-color="#217CD4"/>
<stop offset="0.6624" stop-color="#1059AA"/>
<stop offset="1" stop-color="#013B85"/>
</radialGradient>
<radialGradient id="paint1_radial_125_3800" cx="0" cy="0" r="1" gradientUnits="userSpaceOnUse" gradientTransform="translate(18.6336 2.62775) rotate(23.6181) scale(26.3299 38.9831)">
<stop stop-color="#2789E4"/>
<stop offset="0.2245" stop-color="#217CD4"/>
<stop offset="0.6624" stop-color="#1059AA"/>
<stop offset="1" stop-color="#013B85"/>
</radialGradient>
<radialGradient id="paint2_radial_125_3800" cx="0" cy="0" r="1" gradientUnits="userSpaceOnUse" gradientTransform="translate(18.6336 -2.66942) rotate(9.84189) scale(24.4847 16.6319)">
<stop stop-color="#2789E4"/>
<stop offset="0.2245" stop-color="#217CD4"/>
<stop offset="0.6624" stop-color="#1059AA"/>
<stop offset="1" stop-color="#013B85"/>
</radialGradient>
</defs>
</svg>
