<svg width="100" height="100" viewBox="0 0 100 100" fill="none" xmlns="http://www.w3.org/2000/svg">
<path d="M65.3125 84.375H15.625C12.9688 84.375 10.9375 82.3438 10.9375 79.6875V32.6562C11.0938 30 13.125 28.125 15.625 28.125H68.75C71.4062 28.125 73.4375 30.1562 73.4375 32.8125V52.0312C73.4375 52.6562 72.9688 53.2812 72.3438 53.5937L60.9375 56.7187V68.9062C60.9375 71.875 61.7188 74.8437 63.125 77.5C63.9063 79.0625 65 80.4688 66.25 81.5625C66.7188 82.0312 66.875 82.6562 66.5625 83.2812C66.5625 84.0625 65.9375 84.375 65.3125 84.375ZM15.625 31.25C14.8438 31.25 14.0625 31.875 14.0625 32.8125V79.6875C14.0625 80.625 14.6875 81.25 15.625 81.25H61.875C61.4062 80.625 60.9375 79.8437 60.4688 79.0625C58.75 75.9375 57.8125 72.5 57.8125 68.9062V55.4688C57.8125 54.8438 58.2812 54.2188 58.9062 53.9062L70.3125 50.625V32.8125C70.3125 31.875 69.6875 31.25 68.75 31.25H15.625Z" fill="#433434"/>
<path d="M71.875 34.375C70.9375 34.375 70.3125 33.75 70.3125 32.8125C70.3125 31.875 69.6875 31.25 68.75 31.25H15.625C14.8438 31.25 14.0625 31.875 14.0625 32.8125C14.0625 33.5938 13.2812 34.2188 12.5 34.375C11.7188 34.375 10.9375 33.5938 10.9375 32.8125C10.9375 29.6875 11.4063 26.4062 12.3438 23.4375L15 14.375C15.625 12.3437 17.5 10.9375 19.5312 10.9375H64.8438C66.875 10.9375 68.75 12.3438 69.375 14.2188L72.1875 23.4375C72.9688 26.5625 73.4375 29.6875 73.4375 32.8125C73.4375 33.75 72.8125 34.375 71.875 34.375ZM19.5312 14.0625C18.9062 14.0625 18.2812 14.5312 17.9688 15.1562L15.3125 24.2188C14.8438 25.625 14.5312 26.875 14.375 28.2812C14.8437 28.125 15.1562 28.125 15.625 28.125H68.75C69.2188 28.125 69.5312 28.125 70 28.2812C69.8438 27.0312 69.5312 25.7812 69.0625 24.5312L66.25 15.3125C66.0938 14.6875 65.4688 14.2188 64.6875 14.2188H19.5312V14.0625Z" fill="#433434"/>
<path fill-rule="evenodd" clip-rule="evenodd" d="M50 29.6875V43.75C50 44.2188 49.6875 44.8438 49.2188 45.1562C48.75 45.4687 48.125 45.4687 47.6562 45.1562L45.3125 43.9062L42.8125 45.1562C42.3438 45.3125 41.875 45.3125 41.4062 45.1562L39.0625 43.9062L36.7188 45.1562C36.4062 45.3125 36.25 45.3125 35.9375 45.3125C35.625 45.3125 35.3125 45.3125 35.1562 45.1562C34.6875 44.8438 34.375 44.2188 34.375 43.75V29.6875V12.5C34.375 11.5625 35 10.9375 35.9375 10.9375H48.4375C49.375 10.9375 50 11.5625 50 12.5V29.6875Z" fill="url(#paint0_radial_43_51)"/>
<path d="M73.4375 89.0625C73.2812 89.0625 73.125 89.0625 72.9687 89.0625C70.3125 88.2812 67.8125 87.0312 65.625 85.3125C65.1562 85 64.6875 84.5312 64.0625 84.0625C62.6562 82.6562 61.4062 80.9375 60.3125 79.2188C58.5937 76.0938 57.6562 72.6563 57.6562 69.0625V55.625C57.6562 55 58.125 54.375 58.75 54.0625L72.8125 50C73.125 50 73.4375 50 73.5937 50L87.6562 54.0625C88.2812 54.2187 88.75 54.8437 88.75 55.625V69.0625C88.75 78.2813 82.5 86.5625 73.4375 89.0625C73.75 89.0625 73.5937 89.0625 73.4375 89.0625Z" fill="#433434"/>
<path d="M73.4375 89.0625C73.2812 89.0625 73.125 89.0625 72.9687 89.0625C70.3125 88.2812 67.8125 87.0312 65.625 85.3125C65.1562 85 64.6875 84.5312 64.0625 84.0625C62.6562 82.6562 61.4062 80.9375 60.3125 79.2188C58.5937 76.0938 57.6562 72.6563 57.6562 69.0625V55.625C57.6562 55 58.125 54.375 58.75 54.0625L72.8125 50C73.125 50 73.4375 50 73.5937 50L87.6562 54.0625C88.2812 54.2187 88.75 54.8437 88.75 55.625V69.0625C88.75 78.2813 82.5 86.5625 73.4375 89.0625C73.75 89.0625 73.5937 89.0625 73.4375 89.0625Z" fill="url(#paint1_radial_43_51)"/>
<path d="M32.8125 68.75H20.3125C19.375 68.75 18.75 68.125 18.75 67.1875C18.75 66.25 19.375 65.625 20.3125 65.625H32.8125C33.75 65.625 34.375 66.25 34.375 67.1875C34.375 68.125 33.75 68.75 32.8125 68.75ZM32.8125 76.5625H20.3125C19.375 76.5625 18.75 75.9375 18.75 75C18.75 74.0625 19.375 73.4375 20.3125 73.4375H32.8125C33.75 73.4375 34.375 74.0625 34.375 75C34.375 75.9375 33.75 76.5625 32.8125 76.5625Z" fill="#E13455"/>
<path d="M32.8125 68.75H20.3125C19.375 68.75 18.75 68.125 18.75 67.1875C18.75 66.25 19.375 65.625 20.3125 65.625H32.8125C33.75 65.625 34.375 66.25 34.375 67.1875C34.375 68.125 33.75 68.75 32.8125 68.75ZM32.8125 76.5625H20.3125C19.375 76.5625 18.75 75.9375 18.75 75C18.75 74.0625 19.375 73.4375 20.3125 73.4375H32.8125C33.75 73.4375 34.375 74.0625 34.375 75C34.375 75.9375 33.75 76.5625 32.8125 76.5625Z" fill="url(#paint2_radial_43_51)"/>
<path d="M71.875 75C71.4063 75 71.0938 74.8438 70.7812 74.5313L66.875 70.625C66.25 70 66.25 69.0625 66.875 68.4375C67.5 67.8125 68.4375 67.8125 69.0625 68.4375L71.875 71.25L78.5938 64.5312C79.2188 63.9063 80.1563 63.9063 80.7813 64.5312C81.4063 65.1562 81.4063 66.0938 80.7813 66.7188L72.9688 74.5313C72.6563 74.8438 72.3438 75 71.875 75Z" fill="white"/>
<defs>
<radialGradient id="paint0_radial_43_51" cx="0" cy="0" r="1" gradientUnits="userSpaceOnUse" gradientTransform="translate(42.4854 3.83633) rotate(46.1275) scale(15.444 31.1216)">
<stop stop-color="#2789E4"/>
<stop offset="0.2245" stop-color="#217CD4"/>
<stop offset="0.6624" stop-color="#1059AA"/>
<stop offset="1" stop-color="#013B85"/>
</radialGradient>
<radialGradient id="paint1_radial_43_51" cx="0" cy="0" r="1" gradientUnits="userSpaceOnUse" gradientTransform="translate(73.7958 41.9488) rotate(30.6518) scale(24.7595 43.7992)">
<stop stop-color="#2789E4"/>
<stop offset="0.2245" stop-color="#217CD4"/>
<stop offset="0.6624" stop-color="#1059AA"/>
<stop offset="1" stop-color="#013B85"/>
</radialGradient>
<radialGradient id="paint2_radial_43_51" cx="0" cy="0" r="1" gradientUnits="userSpaceOnUse" gradientTransform="translate(26.8604 63.3707) rotate(18.2736) scale(11.272 13.5366)">
<stop stop-color="#2789E4"/>
<stop offset="0.2245" stop-color="#217CD4"/>
<stop offset="0.6624" stop-color="#1059AA"/>
<stop offset="1" stop-color="#013B85"/>
</radialGradient>
</defs>
</svg>
