<svg width="100" height="100" viewBox="0 0 100 100" fill="none" xmlns="http://www.w3.org/2000/svg">
<path d="M86.6881 86.6819H13.3117C10.4291 86.6819 8.07056 84.3234 8.07056 81.4408C8.07056 78.5581 10.4291 76.1996 13.3117 76.1996H86.6881C89.5707 76.1996 91.9293 78.5581 91.9293 81.4408C91.9293 84.3234 89.5707 86.6819 86.6881 86.6819ZM13.3117 78.8202C11.7394 78.8202 10.6911 79.8684 10.6911 81.4408C10.6911 83.0131 11.7394 84.0613 13.3117 84.0613H86.6881C88.2605 84.0613 89.3087 83.0131 89.3087 81.4408C89.3087 79.8684 88.2605 78.8202 86.6881 78.8202H13.3117Z" fill="#433434"/>
<path d="M85.3778 91.9231C84.5917 91.9231 84.0676 91.3989 84.0676 90.6128V86.6819H15.9324V90.6128C15.9324 91.3989 15.4082 91.9231 14.6221 91.9231C13.8359 91.9231 13.3118 91.3989 13.3118 90.6128V85.3716C13.3118 84.5854 13.8359 84.0613 14.6221 84.0613H85.3778C86.164 84.0613 86.6881 84.5854 86.6881 85.3716V90.6128C86.6881 91.3989 86.164 91.9231 85.3778 91.9231ZM72.2749 31.1255H71.4888C70.7026 31.1255 70.1785 30.6014 70.1785 29.8152C70.1785 29.029 70.7026 28.5049 71.2267 28.5049L73.5852 21.9534C73.8473 20.9052 73.5852 19.5949 72.799 18.8087C72.0129 17.7605 70.9646 17.2364 69.6543 17.2364C68.8682 17.2364 68.344 16.7123 68.344 15.9261C68.344 14.3538 67.5579 12.7814 66.5096 11.7332C65.4614 10.6849 63.8891 10.4229 62.3167 10.6849L46.5932 13.3055C45.2829 13.5676 43.9726 14.3538 43.1864 15.402C42.4003 16.4502 42.1382 18.0226 42.4003 19.3329L44.7588 28.2429C45.2829 28.2429 45.807 28.767 45.807 29.5531C45.807 30.3393 45.2829 30.8634 44.4967 30.8634H43.7106C43.1864 30.8634 42.6623 30.3393 42.4003 29.8152L39.7797 19.857C39.2556 17.7605 39.7797 15.664 41.09 13.8296C42.4003 11.9952 44.2347 10.947 46.3311 10.6849L62.0546 8.06435C64.4132 7.80229 66.5096 8.32641 68.344 9.89876C69.9164 11.2091 70.7026 13.0435 70.9646 14.8779C72.537 15.1399 73.8473 15.9261 74.8955 17.2364C76.2058 18.8087 76.7299 20.9052 76.2058 22.7396L73.5852 30.0773C73.3232 30.8634 72.799 31.1255 72.2749 31.1255Z" fill="#433434"/>
<path d="M72.0127 31.1254H71.2266C69.3922 31.1254 67.5578 29.5531 67.5578 27.4566V23.5258C62.8407 26.9325 56.5513 28.2428 50.786 27.1946L48.4275 26.6705C48.1654 26.6705 47.6413 27.1946 47.6413 27.7187C47.6413 29.5531 46.069 31.3875 43.9725 31.3875H43.1863C42.4001 31.3875 41.876 30.8634 41.876 30.0772C41.876 29.291 42.4001 28.7669 43.1863 28.7669H43.9725C44.4966 28.7669 45.0207 28.2428 45.0207 27.7187C45.0207 25.8843 46.5931 24.0499 48.6895 24.0499L51.3101 24.574C56.5513 25.6222 62.0545 24.3119 66.2475 21.1672C67.0336 20.6431 68.0819 20.6431 68.868 20.9052C69.6542 21.4293 70.1783 22.2155 70.1783 23.0016V27.4566C70.1783 27.9807 70.7025 28.5049 71.2266 28.5049H72.0127C72.7989 28.5049 73.323 29.029 73.323 29.8152C73.323 30.6013 72.7989 31.1254 72.0127 31.1254ZM85.3777 78.8201H30.3454C29.5593 78.8201 29.0352 78.296 29.0352 77.5098C29.0352 76.7236 29.5593 76.1995 30.3454 76.1995H84.0674V67.8136C84.0674 63.6207 81.4468 59.9519 77.516 58.6416L65.1992 54.4487C64.413 54.1866 64.151 53.4004 64.4131 52.8763C64.6751 52.0901 65.4613 51.8281 65.9854 52.0901L78.3021 56.2831C83.2813 57.8554 86.688 62.5725 86.688 68.0757V77.7719C86.688 78.296 86.1639 78.8201 85.3777 78.8201Z" fill="#433434"/>
<path d="M85.3778 78.8201H72.2749C71.4887 78.8201 70.9646 78.296 70.9646 77.5099V75.4134C70.9646 68.0757 76.4678 61.7863 83.8054 61.0002C84.3296 61.0002 84.8537 61.2622 85.1157 61.5243C86.164 63.3587 86.9501 65.7172 86.9501 67.8137V77.5099C86.6881 78.296 86.164 78.8201 85.3778 78.8201ZM73.5852 76.1996H84.0675V67.8137C84.0675 66.5034 83.8054 64.931 83.0193 63.6208C77.516 64.669 73.3231 69.6481 73.3231 75.4134V76.1996H73.5852ZM70.9646 43.7043H61.7925C61.0064 43.7043 60.4822 43.1802 60.4822 42.394C60.4822 41.6078 61.0064 41.0837 61.7925 41.0837H70.9646C73.8472 41.0837 76.2057 38.7252 76.2057 35.8426V31.3876C76.2057 30.6014 76.7299 30.0773 77.516 30.0773C78.3022 30.0773 78.8263 30.6014 78.8263 31.3876V35.8426C78.8263 40.0355 75.1575 43.7043 70.9646 43.7043ZM43.4484 36.8908H40.8278C38.7314 36.8908 36.897 35.0564 36.897 32.9599V30.3393C36.897 28.2429 38.7314 26.4084 40.8278 26.4084H42.1381C42.9243 26.4084 43.4484 26.9326 43.4484 27.7187C43.4484 28.5049 42.9243 29.029 42.1381 29.029H40.8278C40.0417 29.029 39.5176 29.5531 39.5176 30.3393V32.9599C39.5176 33.7461 40.0417 34.2702 40.8278 34.2702H42.1381V31.6496C42.1381 30.8634 42.6623 30.3393 43.4484 30.3393C44.2346 30.3393 44.7587 30.8634 44.7587 31.6496V35.5805C44.7587 36.3667 44.2346 36.8908 43.4484 36.8908Z" fill="#433434"/>
<path d="M57.862 61.2623H57.3378C57.3378 61.2623 55.2414 60.2141 53.1449 58.9038C52.6208 58.3797 52.3587 57.5935 52.8829 57.0694C53.407 56.5453 54.1931 56.2832 54.7173 56.8073C56.0276 57.5935 57.0758 58.3797 57.862 58.6417C59.9584 57.5935 64.1514 54.9729 64.1514 52.3523V46.8491C64.1514 46.0629 64.6755 45.5388 65.4617 45.5388C66.2478 45.5388 66.772 46.0629 66.772 46.8491V52.3523C66.772 57.3314 59.1723 60.7382 58.3861 61.2623H57.862Z" fill="#433434"/>
<path d="M57.8617 49.9937C56.5514 49.9937 54.979 49.7317 53.6688 49.4696C53.1446 49.2076 52.6205 48.6834 52.6205 48.1593V44.7526H46.8552C46.5932 44.7526 46.0691 44.4905 45.807 44.2284C43.4485 41.6079 42.1382 37.939 42.1382 34.2702V30.3393C42.1382 29.5532 42.6623 29.0291 43.4485 29.0291C44.2347 29.0291 44.7588 29.5532 44.7588 30.3393V34.2702C44.7588 37.1529 45.807 40.0355 47.3794 42.132H53.9308C54.717 42.132 55.2411 42.6561 55.2411 43.4423V47.1111C56.0273 47.3731 57.0755 47.3731 57.8617 47.3731C65.1993 47.3731 70.9646 41.6079 70.9646 34.2702V30.3393C70.9646 29.5532 71.4887 29.0291 72.2749 29.0291C73.0611 29.0291 73.5852 29.5532 73.5852 30.3393V34.2702C73.5852 42.9182 66.5096 49.9937 57.8617 49.9937Z" fill="#433434"/>
<path d="M74.8955 35.8427H72.2749C71.4887 35.8427 70.9646 35.3186 70.9646 34.5324V30.6015C70.9646 29.8153 71.4887 29.2912 72.2749 29.2912C73.0611 29.2912 73.5852 29.8153 73.5852 30.6015V33.2221H74.8955C75.6817 33.2221 76.2058 32.698 76.2058 31.9118V29.2912C76.2058 28.5051 75.6817 27.9809 74.8955 27.9809H73.5852C72.799 27.9809 72.2749 27.4568 72.2749 26.6706C72.2749 25.8845 72.799 25.3604 73.5852 25.3604H74.8955C76.9919 25.3604 78.8264 27.1948 78.8264 29.2912V31.9118C78.8264 34.0083 76.9919 35.8427 74.8955 35.8427Z" fill="#433434"/>
<path fill-rule="evenodd" clip-rule="evenodd" d="M13.3118 43.4423V69.6481V69.6482V73.5791C13.3118 76.4617 15.6703 78.8202 18.5529 78.8202H55.2411C58.1238 78.8202 60.4823 76.4617 60.4823 73.5791V69.6482C60.4823 68.862 59.9582 68.3379 59.172 68.3379H55.2411V43.4423C55.2411 42.6561 54.717 42.132 53.9308 42.132H14.6221C13.8359 42.132 13.3118 42.6561 13.3118 43.4423Z" fill="#383838"/>
<path fill-rule="evenodd" clip-rule="evenodd" d="M13.3118 43.4423V69.6481V69.6482V73.5791C13.3118 76.4617 15.6703 78.8202 18.5529 78.8202H55.2411C58.1238 78.8202 60.4823 76.4617 60.4823 73.5791V69.6482C60.4823 68.862 59.9582 68.3379 59.172 68.3379H55.2411V43.4423C55.2411 42.6561 54.717 42.132 53.9308 42.132H14.6221C13.8359 42.132 13.3118 42.6561 13.3118 43.4423Z" fill="url(#paint0_radial_206_2862)"/>
<path d="M34.2763 59.1657C35.7237 59.1657 36.8969 57.9925 36.8969 56.5451C36.8969 55.0978 35.7237 53.9246 34.2763 53.9246C32.829 53.9246 31.6558 55.0978 31.6558 56.5451C31.6558 57.9925 32.829 59.1657 34.2763 59.1657Z" fill="white"/>
<defs>
<radialGradient id="paint0_radial_206_2862" cx="0" cy="0" r="1" gradientUnits="userSpaceOnUse" gradientTransform="translate(35.0757 36.1905) rotate(17.9684) scale(30.1956 35.7388)">
<stop stop-color="#2789E4"/>
<stop offset="0.2245" stop-color="#217CD4"/>
<stop offset="0.6624" stop-color="#1059AA"/>
<stop offset="1" stop-color="#013B85"/>
</radialGradient>
</defs>
</svg>
