<svg width="473" height="392" viewBox="0 0 473 392" fill="none" xmlns="http://www.w3.org/2000/svg">
<path d="M0.545268 35.1628C0.545268 35.1628 91.6324 30.9271 139.5 58C195.809 89.8471 238.25 191 238.25 191C238.25 191 287.372 318.123 359 342.163C401.038 356.271 472.545 342.163 472.545 342.163" stroke="#04408C" stroke-opacity="0.2" stroke-width="2" stroke-dasharray="9 4"/>
<g filter="url(#filter0_d_242_2863)">
<path d="M318 206.5C318 276.208 306.208 288 236.5 288C166.792 288 155 276.208 155 206.5C155 136.792 166.792 125 236.5 125C306.208 125 318 136.792 318 206.5Z" fill="url(#paint0_radial_242_2863)"/>
</g>
<path d="M204.809 230.258C204.482 230.084 204.278 229.743 204.279 229.373L204.368 197.319C204.37 196.565 205.174 196.084 205.839 196.44L236.126 212.628C236.451 212.802 236.654 213.141 236.654 213.51V245.564C236.654 246.318 235.85 246.801 235.184 246.446L204.809 230.258Z" fill="#9B9A9A"/>
<path d="M236.654 213.51C236.654 213.141 236.451 212.802 236.126 212.628L205.839 196.44C205.174 196.084 204.37 196.565 204.368 197.319L204.279 229.373C204.278 229.743 204.482 230.084 204.809 230.258L235.184 246.446C235.85 246.801 236.654 246.318 236.654 245.564V213.51Z" fill="#115BAC" fill-opacity="0.65"/>
<path d="M268.945 197.314C268.941 196.561 268.138 196.082 267.474 196.437L237.183 212.628C236.857 212.802 236.654 213.141 236.654 213.51V245.566C236.654 246.32 237.457 246.803 238.123 246.449L268.591 230.259C268.92 230.084 269.124 229.742 269.122 229.37L268.945 197.314Z" fill="white"/>
<path d="M195 179.831V233.693L222.832 248.564L226.525 250.566L236.182 255.747C236.477 255.905 236.831 255.905 237.126 255.748L277.172 234.36V182.309L237.411 203.568L198.692 182.119L195 179.831ZM273.48 232.453L237.22 251.84C236.925 251.997 236.572 251.997 236.278 251.84L230.311 248.66L226.619 246.658L198.692 231.786V186.599L236.654 207.667L236.938 207.858L240.819 205.761L273.48 188.315V232.453Z" fill="white"/>
<path d="M249.34 165.436L245.648 163.434L235.99 158.253C235.695 158.095 235.341 158.095 235.046 158.252L195.529 179.358C195.203 179.531 195 179.871 195 180.24V187.553L198.692 185.551V181.642L235.048 162.255C235.342 162.098 235.694 162.098 235.989 162.255L241.955 165.436L245.648 167.438L273.48 182.309V186.218L277.172 188.22V180.907C277.172 180.538 276.969 180.199 276.643 180.025L249.34 165.436Z" fill="white"/>
<path d="M207.497 182.12C207.497 182.002 207.562 181.893 207.666 181.837L235.142 167.118C235.436 166.961 235.79 166.96 236.085 167.117L264.241 182.123C264.567 182.296 264.771 182.636 264.771 183.005V183.331C264.771 183.7 264.568 184.039 264.242 184.213L237.607 198.45C237.308 198.61 236.949 198.607 236.652 198.443L207.662 182.401C207.56 182.345 207.497 182.237 207.497 182.12V182.12Z" fill="#417ABA"/>
<path d="M226.524 233.788L225.009 221.3H224.915L220.655 231.119L219.424 230.451L215.353 216.342H215.259L213.555 227.21L209.863 225.303L212.987 207.477L215.543 208.811L220.181 223.683L224.631 213.482L227.282 214.817L230.122 235.694L226.524 233.788Z" fill="white"/>
<path d="M259.374 211.48L257.67 214.912C256.913 214.245 255.966 214.245 254.83 214.817C254.262 215.103 253.694 215.58 253.221 216.247C252.747 216.914 252.558 217.486 252.558 218.154C252.558 218.535 252.653 218.916 252.937 219.107C253.221 219.298 253.599 219.393 253.978 219.393C254.451 219.393 254.925 219.298 255.398 219.298C255.966 219.202 256.44 219.202 257.008 219.298C257.576 219.298 258.049 219.393 258.428 219.584C258.901 219.774 259.185 220.06 259.469 220.632C259.753 221.109 259.848 221.871 259.848 222.729C259.848 224.636 259.28 226.543 258.144 228.259C257.008 230.07 255.493 231.405 253.599 232.358C251.233 233.597 249.245 233.311 247.825 231.595L250.191 228.068C250.475 228.735 250.949 229.117 251.517 229.307C252.085 229.498 252.842 229.403 253.599 229.021C254.357 228.64 254.925 228.068 255.398 227.305C255.872 226.543 256.061 225.78 256.061 225.017C256.061 223.969 255.493 223.397 254.262 223.492C254.073 223.492 253.599 223.587 252.842 223.587C251.422 223.683 250.381 223.587 249.718 223.206C249.055 222.825 248.677 221.967 248.677 220.537C248.677 218.916 249.245 217.296 250.286 215.675C251.327 214.054 252.653 212.815 254.167 212.052C255.019 211.576 255.966 211.29 257.008 211.194C258.049 211.099 258.806 211.194 259.374 211.48Z" fill="#1B60AB"/>
<defs>
<filter id="filter0_d_242_2863" x="107" y="93" width="259" height="259" filterUnits="userSpaceOnUse" color-interpolation-filters="sRGB">
<feFlood flood-opacity="0" result="BackgroundImageFix"/>
<feColorMatrix in="SourceAlpha" type="matrix" values="0 0 0 0 0 0 0 0 0 0 0 0 0 0 0 0 0 0 127 0" result="hardAlpha"/>
<feOffset dy="16"/>
<feGaussianBlur stdDeviation="24"/>
<feComposite in2="hardAlpha" operator="out"/>
<feColorMatrix type="matrix" values="0 0 0 0 0.427451 0 0 0 0 0.552941 0 0 0 0 0.678431 0 0 0 0.25 0"/>
<feBlend mode="normal" in2="BackgroundImageFix" result="effect1_dropShadow_242_2863"/>
<feBlend mode="normal" in="SourceGraphic" in2="effect1_dropShadow_242_2863" result="shape"/>
</filter>
<radialGradient id="paint0_radial_242_2863" cx="0" cy="0" r="1" gradientUnits="userSpaceOnUse" gradientTransform="translate(239.607 91.4039) rotate(25.2544) scale(123.46 192.143)">
<stop stop-color="#2789E4"/>
<stop offset="0.2245" stop-color="#217CD4"/>
<stop offset="0.6624" stop-color="#1059AA"/>
<stop offset="1" stop-color="#013B85"/>
</radialGradient>
</defs>
</svg>
