<svg width="303" height="22" viewBox="0 0 303 22" fill="none" xmlns="http://www.w3.org/2000/svg">
<g clip-path="url(#clip0_9_160)">
<g clip-path="url(#clip1_9_160)">
<g clip-path="url(#clip2_9_160)">
<g clip-path="url(#clip3_9_160)">
<path d="M0.03302 3.05644V21.8119H12.47V19.8391H2.88385V13.1538H11.8865V11.2811H2.88385V5.02924H12.47V3.05644H0.03302ZM20.6334 21.9675C21.4411 21.9675 22.1617 21.8953 22.7952 21.7508C23.4287 21.6063 23.977 21.421 24.4401 21.195C24.9032 20.9654 25.2829 20.7208 25.5793 20.4615C25.8757 20.2022 26.085 19.9577 26.2073 19.728L26.4407 21.8119H28.7914V11.3366C28.7914 9.85472 28.5246 8.66363 27.9911 7.76337C27.4577 6.86681 26.6815 6.21477 25.6627 5.80724C24.6439 5.39972 23.4028 5.19595 21.9394 5.19595C21.0688 5.19595 20.2537 5.28672 19.4942 5.46826C18.7347 5.64609 18.0568 5.9295 17.4603 6.3185C16.8638 6.70751 16.3637 7.21691 15.9599 7.84673C15.556 8.47654 15.28 9.24528 15.1319 10.153L17.8826 10.8921C18.0234 9.97327 18.2754 9.23972 18.6384 8.69141C19.0052 8.1394 19.472 7.73743 20.0388 7.48551C20.602 7.23729 21.241 7.11318 21.9561 7.11318C22.7785 7.11318 23.4917 7.25211 24.0956 7.52997C24.6957 7.80782 25.1588 8.24499 25.4849 8.84146C25.8072 9.43793 25.9683 10.2233 25.9683 11.1977V12.1257H20.5945C19.7313 12.1257 18.9533 12.2054 18.2605 12.3647C17.564 12.524 16.9731 12.7852 16.4878 13.1483C16.0025 13.515 15.6301 14.0115 15.3708 14.6376C15.1115 15.26 14.9818 16.0436 14.9818 16.9883C14.9818 17.97 15.1133 18.7832 15.3764 19.4279C15.6394 20.0725 16.0229 20.5801 16.5267 20.9505C17.0343 21.321 17.6326 21.5822 18.3217 21.7341C19.0108 21.8897 19.7813 21.9675 20.6334 21.9675ZM21.2447 20.117C20.7742 20.117 20.3297 20.0688 19.911 19.9725C19.4961 19.8724 19.1312 19.7076 18.8163 19.4779C18.5013 19.2445 18.2568 18.9203 18.0827 18.5054C17.9123 18.0867 17.8271 17.544 17.8271 16.8771C17.8271 16.2288 17.916 15.6972 18.0938 15.2822C18.2679 14.8636 18.5106 14.5413 18.8218 14.3153C19.133 14.0893 19.4961 13.9318 19.911 13.8429C20.3297 13.754 20.7742 13.7095 21.2447 13.7095H25.9294V18.0052C25.7701 18.3461 25.483 18.6795 25.0681 19.0055C24.6494 19.3315 24.1178 19.5983 23.4732 19.8058C22.8322 20.0132 22.0894 20.117 21.2447 20.117ZM41.6395 13.0149H44.4459C44.4459 10.303 44.0829 8.32464 43.3567 7.07984C42.6306 5.83132 41.3321 5.20707 39.4611 5.20707C37.6458 5.20707 36.2009 5.70351 35.1265 6.69639C34.0522 7.68557 33.515 8.88406 33.515 10.2919L34.5986 11.0866C34.5986 10.0752 34.9413 9.16933 35.6267 8.3691C36.3121 7.56887 37.2512 7.16875 38.4442 7.16875C39.4926 7.16875 40.2873 7.57813 40.8282 8.39688C41.3691 9.21564 41.6395 10.755 41.6395 13.0149ZM31.8034 5.346V21.8119H34.6097V8.53026L34.0151 5.346H31.8034ZM54.2932 21.9953C55.312 21.9953 56.2845 21.8786 57.2107 21.6452V19.7391C56.5735 19.9539 55.9159 20.0614 55.2379 20.0614C54.4785 20.0614 53.8913 19.8984 53.4763 19.5724C53.0577 19.25 52.8484 18.5832 52.8484 17.5718V7.31879H58.2944V5.346H52.8484V1.62269H50.0309V5.346H46.1798V7.31879H50.0309V18.2275C50.0309 19.6724 50.4384 20.6616 51.2535 21.195C52.0685 21.7285 53.0818 21.9953 54.2932 21.9953ZM60.7673 0V21.8119H63.5904V0H60.7673ZM71.1315 12.4036V21.8119H73.9378V12.3091C73.9378 10.0566 73.5284 8.30612 72.7097 7.05761C71.8909 5.80539 70.5313 5.17928 68.6307 5.17928C66.7154 5.17928 65.1612 5.7776 63.9683 6.97425C62.779 8.16719 62.1844 9.43978 62.1844 10.792L63.5348 11.6534C63.5348 10.3567 63.9238 9.28233 64.7018 8.43023C65.4798 7.57813 66.4523 7.15208 67.6193 7.15208C68.7752 7.15208 69.6495 7.55034 70.2423 8.34687C70.8351 9.1434 71.1315 10.4956 71.1315 12.4036ZM84.0241 21.9397C86.8027 21.9397 88.7217 21.221 89.7813 19.7835C90.8409 18.3461 91.3707 16.54 91.3707 14.3653H88.4809C88.4809 16.3473 88.1049 17.7755 87.3528 18.6499C86.597 19.5242 85.4782 19.9614 83.9963 19.9614C82.4847 19.9614 81.3103 19.4779 80.4731 18.5109C79.6358 17.544 79.2171 15.5045 79.2171 12.3925C79.2171 9.28788 79.6358 7.25952 80.4731 6.30739C81.3103 5.35156 82.4847 4.87364 83.9963 4.87364C85.4782 4.87364 86.597 5.29969 87.3528 6.15179C88.1049 7.00389 88.4809 8.43023 88.4809 10.4308H91.3707C91.3707 8.21906 90.8409 6.41112 89.7813 5.00701C88.7217 3.6066 86.7971 2.9064 84.0074 2.9064C81.2103 2.9064 79.2338 3.65477 78.0779 5.1515C76.9183 6.65193 76.3385 9.0656 76.3385 12.3925C76.3385 15.7157 76.9202 18.1368 78.0835 19.6557C79.2468 21.1784 81.227 21.9397 84.0241 21.9397ZM99.3063 21.9675C100.11 21.9675 100.829 21.8953 101.462 21.7508C102.1 21.6063 102.65 21.421 103.113 21.195C103.576 20.9654 103.956 20.7208 104.252 20.4615C104.549 20.2022 104.756 19.9577 104.875 19.728L105.114 21.8119H107.459V11.3366C107.459 9.85472 107.192 8.66363 106.658 7.76337C106.129 6.86681 105.354 6.21477 104.336 5.80724C103.317 5.39972 102.076 5.19595 100.612 5.19595C99.7416 5.19595 98.9266 5.28672 98.1671 5.46826C97.4076 5.64609 96.7278 5.9295 96.1276 6.3185C95.5311 6.70751 95.031 7.21691 94.6272 7.84673C94.2271 8.47654 93.9529 9.24528 93.8047 10.153L96.5555 10.8921C96.6926 9.97327 96.9445 9.23972 97.3113 8.69141C97.6781 8.1394 98.143 7.73743 98.7061 7.48551C99.273 7.23729 99.912 7.11318 100.623 7.11318C101.45 7.11318 102.163 7.25211 102.763 7.52997C103.367 7.80782 103.83 8.24499 104.152 8.84146C104.478 9.43793 104.641 10.2233 104.641 11.1977V12.1257H99.2618C98.4023 12.1257 97.6243 12.2054 96.9278 12.3647C96.235 12.524 95.6441 12.7852 95.1551 13.1483C94.6698 13.515 94.2974 14.0115 94.0381 14.6376C93.7788 15.26 93.6491 16.0436 93.6491 16.9883C93.6491 17.97 93.7806 18.7832 94.0437 19.4279C94.3104 20.0725 94.6957 20.5801 95.1996 20.9505C95.7034 21.321 96.2999 21.5822 96.989 21.7341C97.6818 21.8897 98.4542 21.9675 99.3063 21.9675ZM99.9176 20.117C99.4434 20.117 98.9988 20.0688 98.5839 19.9725C98.1652 19.8724 97.7985 19.7076 97.4836 19.4779C97.1686 19.2445 96.926 18.9203 96.7556 18.5054C96.5851 18.0867 96.4999 17.544 96.4999 16.8771C96.4999 16.2288 96.587 15.6972 96.7611 15.2822C96.9389 14.8636 97.1816 14.5413 97.4891 14.3153C97.8003 14.0893 98.1652 13.9318 98.5839 13.8429C98.9988 13.754 99.4434 13.7095 99.9176 13.7095H104.597V18.0052C104.441 18.3461 104.154 18.6795 103.735 19.0055C103.32 19.3315 102.791 19.5983 102.146 19.8058C101.501 20.0132 100.759 20.117 99.9176 20.117ZM120.307 13.0149H123.113C123.113 10.303 122.75 8.32464 122.024 7.07984C121.298 5.83132 119.999 5.20707 118.128 5.20707C116.313 5.20707 114.868 5.70351 113.794 6.69639C112.719 7.68557 112.182 8.88406 112.182 10.2919L113.266 11.0866C113.266 10.0752 113.609 9.16933 114.294 8.3691C114.979 7.56887 115.919 7.16875 117.111 7.16875C118.16 7.16875 118.955 7.57813 119.496 8.39688C120.036 9.21564 120.307 10.755 120.307 13.0149ZM110.471 5.346V21.8119H113.277V8.53026L112.682 5.346H110.471ZM132.466 21.9508V20.0892C131.058 20.0892 129.96 19.5742 129.171 18.5443C128.374 17.5366 127.976 15.8694 127.976 13.5428C127.976 11.0903 128.389 9.39162 129.215 8.4469C130.03 7.50959 131.099 7.04094 132.421 7.04094C133.785 7.04094 134.846 7.48551 135.606 8.37466C136.261 9.20823 136.626 10.6346 136.7 12.6537H127.67V14.4042H139.479C139.516 14.1263 139.535 13.8262 139.535 13.5039C139.535 10.7513 138.988 8.6766 137.895 7.27989C136.795 5.87949 134.97 5.17928 132.421 5.17928C129.95 5.17928 128.141 5.87949 126.992 7.27989C125.833 8.66919 125.253 10.7568 125.253 13.5428C125.253 16.1732 125.818 18.2349 126.948 19.728C128.07 21.2099 129.91 21.9508 132.466 21.9508ZM132.466 20.0892V21.9508C133.855 21.9508 135.004 21.7693 135.911 21.4062C136.819 21.0469 137.56 20.4689 138.134 19.6724C138.697 18.8833 139.059 17.9237 139.218 16.7938L136.689 16.1158C136.53 16.9308 136.293 17.6625 135.978 18.3109C135.645 18.9592 135.178 19.4168 134.578 19.6835C133.974 19.9539 133.27 20.0892 132.466 20.0892ZM142.119 3.05644V21.8119H144.953V16.3381H150.438C152.513 16.3381 153.909 15.7064 154.628 14.4431C155.347 13.1761 155.706 11.5886 155.706 9.68059C155.706 7.78374 155.347 6.20551 154.628 4.94588C153.909 3.68626 152.513 3.05644 150.438 3.05644H142.119ZM149.576 14.3653H144.953V5.02924H149.576C150.799 5.02924 151.657 5.42936 152.149 6.22959C152.638 7.02982 152.883 8.18571 152.883 9.69726C152.883 11.2051 152.638 12.361 152.149 13.1649C151.657 13.9652 150.799 14.3653 149.576 14.3653ZM165.098 21.9508V20.0892C163.69 20.0892 162.591 19.5742 161.802 18.5443C161.006 17.5366 160.607 15.8694 160.607 13.5428C160.607 11.0903 161.021 9.39162 161.847 8.4469C162.662 7.50959 163.731 7.04094 165.053 7.04094C166.417 7.04094 167.478 7.48551 168.237 8.37466C168.893 9.20823 169.258 10.6346 169.332 12.6537H160.302V14.4042H172.111C172.148 14.1263 172.166 13.8262 172.166 13.5039C172.166 10.7513 171.62 8.6766 170.527 7.27989C169.427 5.87949 167.602 5.17928 165.053 5.17928C162.582 5.17928 160.772 5.87949 159.624 7.27989C158.464 8.66919 157.884 10.7568 157.884 13.5428C157.884 16.1732 158.449 18.2349 159.579 19.728C160.702 21.2099 162.541 21.9508 165.098 21.9508ZM165.098 20.0892V21.9508C166.487 21.9508 167.635 21.7693 168.543 21.4062C169.451 21.0469 170.192 20.4689 170.766 19.6724C171.329 18.8833 171.69 17.9237 171.85 16.7938L169.321 16.1158C169.162 16.9308 168.925 17.6625 168.61 18.3109C168.276 18.9592 167.81 19.4168 167.209 19.6835C166.605 19.9539 165.902 20.0892 165.098 20.0892ZM181.752 21.923C183.92 21.923 185.568 21.5526 186.698 20.8116C187.828 20.0706 188.393 18.9407 188.393 17.4217C188.393 15.7731 187.826 14.6357 186.693 14.0096C185.555 13.3835 184.149 12.9 182.475 12.5592C181.056 12.2332 179.887 11.8942 178.968 11.5422C178.046 11.1903 177.585 10.5327 177.585 9.56945C177.585 8.80256 177.888 8.19127 178.496 7.73558C179.1 7.2836 180.028 7.05761 181.28 7.05761C182.577 7.05761 183.603 7.37251 184.359 8.00233C185.111 8.63214 185.567 9.55278 185.726 10.7642L188.21 9.91955C187.943 8.23387 187.228 7.02797 186.065 6.30183C184.902 5.57199 183.316 5.20707 181.308 5.20707C179.289 5.20707 177.699 5.58125 176.54 6.32962C175.384 7.07428 174.806 8.15978 174.806 9.58612C174.806 11.1495 175.332 12.2684 176.384 12.9427C177.433 13.6132 178.796 14.1282 180.474 14.4875C181.945 14.8136 183.168 15.1544 184.142 15.5101C185.113 15.8657 185.598 16.5678 185.598 17.6162C185.598 18.3461 185.281 18.937 184.648 19.389C184.014 19.8372 183.062 20.0614 181.791 20.0614C180.45 20.0614 179.383 19.7594 178.59 19.1556C177.798 18.5554 177.323 17.5607 177.168 16.1714L174.678 17.0161C174.967 18.861 175.723 20.1392 176.946 20.8505C178.168 21.5655 179.77 21.923 181.752 21.923ZM197.879 21.9953C198.898 21.9953 199.871 21.8786 200.797 21.6452V19.7391C200.16 19.9539 199.502 20.0614 198.824 20.0614C198.065 20.0614 197.477 19.8984 197.062 19.5724C196.644 19.25 196.435 18.5832 196.435 17.5718V7.31879H201.881V5.346H196.435V1.62269H193.617V5.346H189.766V7.31879H193.617V18.2275C193.617 19.6724 194.025 20.6616 194.84 21.195C195.655 21.7285 196.668 21.9953 197.879 21.9953ZM211.394 21.9397C214.173 21.9397 216.094 21.221 217.157 19.7835C218.217 18.3461 218.747 16.54 218.747 14.3653H215.857C215.857 16.3473 215.479 17.7755 214.723 18.6499C213.967 19.5242 212.849 19.9614 211.367 19.9614C209.859 19.9614 208.686 19.4779 207.849 18.5109C207.008 17.544 206.587 15.5045 206.587 12.3925C206.587 9.28788 207.008 7.25952 207.849 6.30739C208.686 5.35156 209.859 4.87364 211.367 4.87364C212.849 4.87364 213.967 5.29969 214.723 6.15179C215.479 7.00389 215.857 8.43023 215.857 10.4308H218.747C218.747 8.21906 218.217 6.41112 217.157 5.00701C216.094 3.6066 214.169 2.9064 211.383 2.9064C208.586 2.9064 206.608 3.65477 205.448 5.1515C204.292 6.65193 203.714 9.0656 203.714 12.3925C203.714 15.7157 204.296 18.1368 205.459 19.6557C206.619 21.1784 208.597 21.9397 211.394 21.9397ZM228.427 21.923C230.891 21.923 232.714 21.2395 233.895 19.8724C235.077 18.5054 235.668 16.3918 235.668 13.5317C235.668 10.6679 235.077 8.55804 233.895 7.20209C232.714 5.84614 230.891 5.16817 228.427 5.16817C225.975 5.16817 224.156 5.84614 222.97 7.20209C221.784 8.55804 221.192 10.6679 221.192 13.5317C221.192 16.3918 221.784 18.5054 222.97 19.8724C224.156 21.2395 225.975 21.923 228.427 21.923ZM228.427 19.9891C227.142 19.9891 226.082 19.539 225.248 18.6388C224.415 17.7348 223.998 16.0361 223.998 13.5428C223.998 11.0532 224.415 9.35827 225.248 8.45801C226.082 7.56146 227.142 7.11318 228.427 7.11318C229.716 7.11318 230.778 7.56146 231.611 8.45801C232.445 9.35827 232.862 11.0532 232.862 13.5428C232.862 16.0361 232.445 17.7348 231.611 18.6388C230.778 19.539 229.716 19.9891 228.427 19.9891ZM238.386 5.346V21.8119H241.192V8.53026L240.597 5.346H238.386ZM248.711 12.4036V21.8119H251.517V12.3925C251.517 10.1511 251.121 8.38948 250.328 7.10762C249.535 5.82206 248.185 5.17928 246.277 5.17928C244.361 5.17928 242.794 5.7776 241.575 6.97425C240.357 8.16719 239.747 9.43978 239.747 10.792L241.109 11.6534C241.109 10.3567 241.512 9.28233 242.32 8.43023C243.124 7.57813 244.106 7.15208 245.265 7.15208C246.421 7.15208 247.284 7.55034 247.855 8.34687C248.426 9.1434 248.711 10.4956 248.711 12.4036ZM261.337 21.9953C262.356 21.9953 263.328 21.8786 264.254 21.6452V19.7391C263.617 19.9539 262.959 20.0614 262.281 20.0614C261.522 20.0614 260.935 19.8984 260.52 19.5724C260.101 19.25 259.892 18.5832 259.892 17.5718V7.31879H265.338V5.346H259.892V1.62269H257.074V5.346H253.223V7.31879H257.074V18.2275C257.074 19.6724 257.482 20.6616 258.297 21.195C259.112 21.7285 260.125 21.9953 261.337 21.9953ZM277.647 13.0149H280.453C280.453 10.303 280.09 8.32464 279.364 7.07984C278.634 5.83132 277.334 5.20707 275.463 5.20707C273.648 5.20707 272.203 5.70351 271.128 6.69639C270.054 7.68557 269.517 8.88406 269.517 10.2919L270.601 11.0866C270.601 10.0752 270.943 9.16933 271.629 8.3691C272.314 7.56887 273.255 7.16875 274.452 7.16875C275.496 7.16875 276.291 7.57813 276.836 8.39688C277.377 9.21564 277.647 10.755 277.647 13.0149ZM267.811 5.346V21.8119H270.617V8.53026L270.017 5.346H267.811ZM289.801 21.923C292.264 21.923 294.087 21.2395 295.269 19.8724C296.451 18.5054 297.042 16.3918 297.042 13.5317C297.042 10.6679 296.451 8.55804 295.269 7.20209C294.087 5.84614 292.264 5.16817 289.801 5.16817C287.348 5.16817 285.529 5.84614 284.343 7.20209C283.158 8.55804 282.565 10.6679 282.565 13.5317C282.565 16.3918 283.158 18.5054 284.343 19.8724C285.529 21.2395 287.348 21.923 289.801 21.923ZM289.801 19.9891C288.515 19.9891 287.455 19.539 286.622 18.6388C285.788 17.7348 285.371 16.0361 285.371 13.5428C285.371 11.0532 285.788 9.35827 286.622 8.45801C287.455 7.56146 288.515 7.11318 289.801 7.11318C291.09 7.11318 292.151 7.56146 292.985 8.45801C293.818 9.35827 294.235 11.0532 294.235 13.5428C294.235 16.0361 293.818 17.7348 292.985 18.6388C292.151 19.539 291.09 19.9891 289.801 19.9891ZM300.109 0V21.8119H302.927V0H300.109Z" fill="white"/>
</g>
</g>
</g>
</g>
<defs>
<clipPath id="clip0_9_160">
<rect width="302.96" height="21.9953" fill="white"/>
</clipPath>
<clipPath id="clip1_9_160">
<rect width="302.96" height="21.9953" fill="white"/>
</clipPath>
<clipPath id="clip2_9_160">
<rect width="302.96" height="21.9953" fill="white"/>
</clipPath>
<clipPath id="clip3_9_160">
<rect width="302.96" height="21.9953" fill="white"/>
</clipPath>
</defs>
</svg>
