<svg width="424" height="335" viewBox="0 0 424 335" fill="none" xmlns="http://www.w3.org/2000/svg">
<g opacity="0.8">
<path opacity="0.0196078" d="M210.499 334.318C325.624 334.318 418.951 327.585 418.951 319.279C418.951 310.974 325.624 304.241 210.499 304.241C95.374 304.241 2.04688 310.974 2.04688 319.279C2.04688 327.585 95.374 334.318 210.499 334.318Z" fill="#FCFCFC"/>
<path opacity="0.0392157" d="M208.998 334.017C322.163 334.017 413.901 327.419 413.901 319.279C413.901 311.14 322.163 304.542 208.998 304.542C95.8325 304.542 4.09399 311.14 4.09399 319.279C4.09399 327.419 95.8325 334.017 208.998 334.017Z" fill="#F8F8F8"/>
<path opacity="0.0588235" d="M207.497 333.777C318.702 333.777 408.852 327.286 408.852 319.28C408.852 311.273 318.702 304.782 207.497 304.782C96.2909 304.782 6.14087 311.273 6.14087 319.28C6.14087 327.286 96.2909 333.777 207.497 333.777Z" fill="#F5F5F5"/>
<path opacity="0.0784314" d="M205.996 333.536C315.242 333.536 403.803 327.153 403.803 319.279C403.803 311.405 315.242 305.022 205.996 305.022C96.7494 305.022 8.18799 311.405 8.18799 319.279C8.18799 327.153 96.7494 333.536 205.996 333.536Z" fill="#F2F2F2"/>
<path opacity="0.0980392" d="M204.494 333.295C311.781 333.295 398.754 327.02 398.754 319.279C398.754 311.538 311.781 305.263 204.494 305.263C97.2078 305.263 10.2349 311.538 10.2349 319.279C10.2349 327.02 97.2078 333.295 204.494 333.295Z" fill="#EFEFEF"/>
<path opacity="0.1176" d="M202.993 332.995C308.32 332.995 393.705 326.854 393.705 319.279C393.705 311.705 308.32 305.564 202.993 305.564C97.6663 305.564 12.282 311.705 12.282 319.279C12.282 326.854 97.6663 332.995 202.993 332.995Z" fill="#EBEBEB"/>
<path opacity="0.1373" d="M201.492 332.754C304.897 332.754 388.724 326.721 388.724 319.279C388.724 311.838 304.897 305.805 201.492 305.805C98.0871 305.805 14.2607 311.838 14.2607 319.279C14.2607 326.721 98.0871 332.754 201.492 332.754Z" fill="#E8E8E8"/>
<path opacity="0.1569" d="M199.991 332.513C301.437 332.513 383.674 326.588 383.674 319.279C383.674 311.97 301.437 306.045 199.991 306.045C98.5457 306.045 16.3079 311.97 16.3079 319.279C16.3079 326.588 98.5457 332.513 199.991 332.513Z" fill="#E5E5E5"/>
<path opacity="0.1765" d="M198.49 332.273C297.976 332.273 378.625 326.456 378.625 319.28C378.625 312.103 297.976 306.286 198.49 306.286C99.004 306.286 18.3547 312.103 18.3547 319.28C18.3547 326.456 99.004 332.273 198.49 332.273Z" fill="#E1E1E1"/>
<path opacity="0.1961" d="M196.989 331.972C294.515 331.972 373.576 326.29 373.576 319.28C373.576 312.27 294.515 306.587 196.989 306.587C99.4626 306.587 20.4019 312.27 20.4019 319.28C20.4019 326.29 99.4626 331.972 196.989 331.972Z" fill="#DEDEDE"/>
<path opacity="0.2157" d="M195.488 331.731C291.054 331.731 368.527 326.156 368.527 319.279C368.527 312.402 291.054 306.827 195.488 306.827C99.9209 306.827 22.4487 312.402 22.4487 319.279C22.4487 326.156 99.9209 331.731 195.488 331.731Z" fill="#DBDBDB"/>
<path opacity="0.2353" d="M193.987 331.491C287.594 331.491 363.478 326.023 363.478 319.279C363.478 312.535 287.594 307.068 193.987 307.068C100.379 307.068 24.4958 312.535 24.4958 319.279C24.4958 326.023 100.379 331.491 193.987 331.491Z" fill="#D7D7D7"/>
<path opacity="0.2549" d="M192.554 331.25C284.201 331.25 358.496 325.891 358.496 319.279C358.496 312.668 284.201 307.309 192.554 307.309C100.906 307.309 26.6108 312.668 26.6108 319.279C26.6108 325.891 100.906 331.25 192.554 331.25Z" fill="#D4D4D4"/>
<path opacity="0.2745" d="M191.052 331.01C280.778 331.01 353.515 325.758 353.515 319.279C353.515 312.801 280.778 307.549 191.052 307.549C101.327 307.549 28.5896 312.801 28.5896 319.279C28.5896 325.758 101.327 331.01 191.052 331.01Z" fill="#D1D1D1"/>
<path opacity="0.2941" d="M189.551 330.709C277.318 330.709 348.466 325.592 348.466 319.279C348.466 312.967 277.318 307.85 189.551 307.85C101.785 307.85 30.6367 312.967 30.6367 319.279C30.6367 325.592 101.785 330.709 189.551 330.709Z" fill="#CECECE"/>
<path opacity="0.3137" d="M188.05 330.468C273.857 330.468 343.417 325.459 343.417 319.279C343.417 313.1 273.857 308.09 188.05 308.09C102.244 308.09 32.6836 313.1 32.6836 319.279C32.6836 325.459 102.244 330.468 188.05 330.468Z" fill="#CACACA"/>
<path opacity="0.3333" d="M186.549 330.227C270.396 330.227 338.368 325.326 338.368 319.279C338.368 313.233 270.396 308.331 186.549 308.331C102.702 308.331 34.7307 313.233 34.7307 319.279C34.7307 325.326 102.702 330.227 186.549 330.227Z" fill="#C7C7C7"/>
<path opacity="0.3529" d="M185.048 329.987C266.935 329.987 333.318 325.193 333.318 319.279C333.318 313.366 266.935 308.572 185.048 308.572C103.161 308.572 36.7776 313.366 36.7776 319.279C36.7776 325.193 103.161 329.987 185.048 329.987Z" fill="#C4C4C4"/>
<path opacity="0.3725" d="M183.547 329.686C263.475 329.686 328.269 325.027 328.269 319.279C328.269 313.532 263.475 308.873 183.547 308.873C103.619 308.873 38.8247 313.532 38.8247 319.279C38.8247 325.027 103.619 329.686 183.547 329.686Z" fill="#C0C0C0"/>
<path opacity="0.3922" d="M182.046 329.446C260.014 329.446 323.22 324.894 323.22 319.279C323.22 313.665 260.014 309.113 182.046 309.113C104.077 309.113 40.8716 313.665 40.8716 319.279C40.8716 324.894 104.077 329.446 182.046 329.446Z" fill="#BDBDBD"/>
<path opacity="0.4118" d="M180.545 329.205C256.591 329.205 318.239 324.761 318.239 319.28C318.239 313.798 256.591 309.354 180.545 309.354C104.498 309.354 42.8503 313.798 42.8503 319.28C42.8503 324.761 104.498 329.205 180.545 329.205Z" fill="#BABABA"/>
<path opacity="0.4314" d="M179.043 328.964C253.13 328.964 313.189 324.628 313.189 319.279C313.189 313.93 253.13 309.594 179.043 309.594C104.956 309.594 44.8972 313.93 44.8972 319.279C44.8972 324.628 104.956 328.964 179.043 328.964Z" fill="#B7B7B7"/>
<path opacity="0.451" d="M177.542 328.663C249.669 328.663 308.14 324.462 308.14 319.279C308.14 314.096 249.669 309.895 177.542 309.895C105.415 309.895 46.9441 314.096 46.9441 319.279C46.9441 324.462 105.415 328.663 177.542 328.663Z" fill="#B3B3B3"/>
<path opacity="0.4706" d="M176.041 328.423C246.209 328.423 303.091 324.329 303.091 319.279C303.091 314.229 246.209 310.136 176.041 310.136C105.873 310.136 48.9912 314.229 48.9912 319.279C48.9912 324.329 105.873 328.423 176.041 328.423Z" fill="#B0B0B0"/>
<path opacity="0.4902" d="M174.608 328.182C242.816 328.182 298.11 324.196 298.11 319.279C298.11 314.362 242.816 310.376 174.608 310.376C106.4 310.376 51.1064 314.362 51.1064 319.279C51.1064 324.196 106.4 328.182 174.608 328.182Z" fill="#ADADAD"/>
<path opacity="0.5098" d="M173.107 327.942C239.356 327.942 293.061 324.064 293.061 319.279C293.061 314.495 239.356 310.617 173.107 310.617C106.859 310.617 53.1536 314.495 53.1536 319.279C53.1536 324.064 106.859 327.942 173.107 327.942Z" fill="#A9A9A9"/>
<path opacity="0.5294" d="M171.606 327.641C235.933 327.641 288.08 323.897 288.08 319.279C288.08 314.662 235.933 310.918 171.606 310.918C107.279 310.918 55.1323 314.662 55.1323 319.279C55.1323 323.897 107.279 327.641 171.606 327.641Z" fill="#A6A6A6"/>
<path opacity="0.549" d="M170.105 327.4C232.472 327.4 283.031 323.764 283.031 319.279C283.031 314.794 232.472 311.158 170.105 311.158C107.738 311.158 57.1794 314.794 57.1794 319.279C57.1794 323.764 107.738 327.4 170.105 327.4Z" fill="#A3A3A3"/>
<path opacity="0.5686" d="M168.604 327.159C229.011 327.159 277.981 323.631 277.981 319.279C277.981 314.927 229.011 311.399 168.604 311.399C108.196 311.399 59.2263 314.927 59.2263 319.279C59.2263 323.631 108.196 327.159 168.604 327.159Z" fill="#9F9F9F"/>
<path opacity="0.5882" d="M167.103 326.919C225.551 326.919 272.932 323.499 272.932 319.279C272.932 315.06 225.551 311.64 167.103 311.64C108.655 311.64 61.2734 315.06 61.2734 319.279C61.2734 323.499 108.655 326.919 167.103 326.919Z" fill="#9C9C9C"/>
<path opacity="0.6078" d="M165.602 326.618C222.09 326.618 267.883 323.332 267.883 319.279C267.883 315.226 222.09 311.94 165.602 311.94C109.113 311.94 63.3203 315.226 63.3203 319.279C63.3203 323.332 109.113 326.618 165.602 326.618Z" fill="#999999"/>
<path opacity="0.6275" d="M164.1 326.378C218.629 326.378 262.834 323.2 262.834 319.279C262.834 315.359 218.629 312.181 164.1 312.181C109.572 312.181 65.3672 315.359 65.3672 319.279C65.3672 323.2 109.572 326.378 164.1 326.378Z" fill="#969696"/>
<path opacity="0.6471" d="M162.599 326.137C215.169 326.137 257.784 323.067 257.784 319.28C257.784 315.492 215.169 312.422 162.599 312.422C110.03 312.422 67.4143 315.492 67.4143 319.28C67.4143 323.067 110.03 326.137 162.599 326.137Z" fill="#929292"/>
<path opacity="0.6667" d="M161.098 325.896C211.746 325.896 252.803 322.934 252.803 319.279C252.803 315.625 211.746 312.662 161.098 312.662C110.451 312.662 69.3931 315.625 69.3931 319.279C69.3931 322.934 110.451 325.896 161.098 325.896Z" fill="#8F8F8F"/>
<path opacity="0.6863" d="M159.597 325.656C208.285 325.656 247.754 322.801 247.754 319.279C247.754 315.758 208.285 312.903 159.597 312.903C110.909 312.903 71.4399 315.758 71.4399 319.279C71.4399 322.801 110.909 325.656 159.597 325.656Z" fill="#8C8C8C"/>
<path opacity="0.7059" d="M158.096 325.355C204.824 325.355 242.705 322.635 242.705 319.279C242.705 315.924 204.824 313.204 158.096 313.204C111.368 313.204 73.4868 315.924 73.4868 319.279C73.4868 322.635 111.368 325.355 158.096 325.355Z" fill="#888888"/>
<path opacity="0.7255" d="M156.595 325.114C201.363 325.114 237.656 322.502 237.656 319.279C237.656 316.057 201.363 313.444 156.595 313.444C111.826 313.444 75.5339 316.057 75.5339 319.279C75.5339 322.502 111.826 325.114 156.595 325.114Z" fill="#858585"/>
<path opacity="0.7451" d="M155.162 324.874C197.971 324.874 232.675 322.369 232.675 319.279C232.675 316.19 197.971 313.685 155.162 313.685C112.353 313.685 77.6492 316.19 77.6492 319.279C77.6492 322.369 112.353 324.874 155.162 324.874Z" fill="#828282"/>
<path opacity="0.7647" d="M153.661 324.633C194.51 324.633 227.625 322.236 227.625 319.28C227.625 316.323 194.51 313.926 153.661 313.926C112.811 313.926 79.6963 316.323 79.6963 319.28C79.6963 322.236 112.811 324.633 153.661 324.633Z" fill="#7F7F7F"/>
<path opacity="0.7843" d="M152.16 324.333C191.05 324.333 222.576 322.07 222.576 319.28C222.576 316.489 191.05 314.227 152.16 314.227C113.27 314.227 81.7432 316.489 81.7432 319.28C81.7432 322.07 113.27 324.333 152.16 324.333Z" fill="#7B7B7B"/>
<path opacity="0.8039" d="M150.659 324.092C187.627 324.092 217.595 321.937 217.595 319.279C217.595 316.621 187.627 314.467 150.659 314.467C113.69 314.467 83.7219 316.621 83.7219 319.279C83.7219 321.937 113.69 324.092 150.659 324.092Z" fill="#787878"/>
<path opacity="0.8235" d="M149.157 323.851C184.166 323.851 212.546 321.804 212.546 319.279C212.546 316.754 184.166 314.708 149.157 314.708C114.149 314.708 85.7688 316.754 85.7688 319.279C85.7688 321.804 114.149 323.851 149.157 323.851Z" fill="#757575"/>
<path opacity="0.8431" d="M147.656 323.611C180.705 323.611 207.496 321.671 207.496 319.279C207.496 316.887 180.705 314.948 147.656 314.948C114.607 314.948 87.8157 316.887 87.8157 319.279C87.8157 321.671 114.607 323.611 147.656 323.611Z" fill="#717171"/>
<path opacity="0.8627" d="M146.155 323.31C177.244 323.31 202.447 321.505 202.447 319.279C202.447 317.053 177.244 315.249 146.155 315.249C115.066 315.249 89.8628 317.053 89.8628 319.279C89.8628 321.505 115.066 323.31 146.155 323.31Z" fill="#6E6E6E"/>
<path opacity="0.8824" d="M144.654 323.069C173.784 323.069 197.398 321.373 197.398 319.28C197.398 317.186 173.784 315.49 144.654 315.49C115.524 315.49 91.9097 317.186 91.9097 319.28C91.9097 321.373 115.524 323.069 144.654 323.069Z" fill="#6B6B6B"/>
<path opacity="0.902" d="M192.349 319.279C192.349 321.264 170.31 322.828 143.153 322.828C115.996 322.828 93.957 321.264 93.957 319.279C93.957 317.294 115.996 315.73 143.153 315.73C170.31 315.73 192.349 317.294 192.349 319.279Z" fill="#676767"/>
<path opacity="0.9216" d="M187.368 319.279C187.368 321.084 166.898 322.588 141.72 322.588C116.542 322.588 96.072 321.144 96.072 319.279C96.072 317.475 116.542 315.971 141.72 315.971C166.898 315.971 187.368 317.414 187.368 319.279Z" fill="#646464"/>
<path opacity="0.9412" d="M182.319 319.279C182.319 320.964 163.418 322.287 140.151 322.287C116.883 322.287 97.9827 320.903 97.9827 319.279C97.9827 317.655 116.883 316.271 140.151 316.271C163.418 316.271 182.319 317.595 182.319 319.279Z" fill="#616161"/>
<path opacity="0.9608" d="M177.269 319.279C177.269 320.843 160.006 322.046 138.649 322.046C117.292 322.046 100.03 320.783 100.03 319.279C100.03 317.715 117.292 316.512 138.649 316.512C160.006 316.512 177.269 317.715 177.269 319.279Z" fill="#5E5E5E"/>
<path opacity="0.9804" d="M172.22 319.279C172.22 320.663 156.527 321.806 137.148 321.806C117.77 321.806 102.077 320.663 102.077 319.279C102.077 317.896 117.77 316.753 137.148 316.753C156.527 316.753 172.22 317.836 172.22 319.279Z" fill="#5A5A5A"/>
<path opacity="0.8" d="M167.239 319.28C167.239 320.543 153.115 321.565 135.716 321.565C118.316 321.565 104.192 320.543 104.192 319.28C104.192 318.016 118.316 316.994 135.716 316.994C153.115 316.994 167.239 318.016 167.239 319.28Z" fill="#575757"/>
</g>
<path d="M281.268 298.4C214.517 263.12 142.022 241.396 67.5923 234.391C70.3555 202.11 73.099 169.81 75.8622 137.529C161.917 145.638 245.761 170.737 322.934 211.542C309.038 240.488 295.163 269.454 281.268 298.4Z" fill="url(#paint0_linear_78_573)"/>
<path d="M281.268 298.4C214.517 263.12 142.022 241.396 67.5923 234.391C70.3555 202.11 73.099 169.81 75.8622 137.529C161.917 145.638 245.761 170.737 322.934 211.542C309.038 240.488 295.163 269.454 281.268 298.4Z" fill="url(#paint1_radial_78_573)"/>
<path d="M74.145 216.672C76.0201 196.546 77.9148 176.4 79.7899 156.274C87.6058 157.083 94.6126 152.032 95.481 144.79C167.226 153.807 237.135 174.743 302.624 206.846C299.703 213.456 303.137 221.625 310.183 225.275C301.657 243.428 293.13 261.561 284.604 279.714C278.11 276.36 270.452 279.142 267.531 285.752C210.036 257.576 148.634 239.166 85.6124 231.254C86.4611 224.032 81.3491 217.422 74.145 216.672Z" fill="#B7D972"/>
<path d="M74.145 216.672C76.0201 196.546 77.9148 176.4 79.7899 156.274C87.6058 157.083 94.6126 152.032 95.481 144.79C167.226 153.807 237.135 174.743 302.624 206.846C299.703 213.456 303.137 221.625 310.183 225.275C301.657 243.428 293.13 261.561 284.604 279.714C278.11 276.36 270.452 279.142 267.531 285.752C210.036 257.576 148.634 239.166 85.6124 231.254C86.4611 224.032 81.3491 217.422 74.145 216.672Z" fill="url(#paint2_linear_78_573)"/>
<path d="M228.175 220.007C222.155 237.331 203.602 246.151 186.391 240.863C169.2 235.536 158.147 217.58 162.015 199.585C165.864 181.629 184.97 170.875 204.312 176.854C223.675 182.813 234.195 202.722 228.175 220.007Z" fill="#50BFA5"/>
<path d="M186.253 234.766C186.727 232.832 187.22 230.899 187.694 228.965C185.108 228.116 182.641 226.933 180.687 225.689C179.049 224.644 178.457 222.513 179.345 220.836C179.384 220.776 179.424 220.697 179.444 220.638C180.411 218.783 182.819 218.172 184.634 219.375C186.49 220.599 188.641 221.684 191.069 222.355C194.582 223.341 197.326 222.71 197.977 220.263C198.569 217.955 196.97 215.903 192.727 213.081C186.569 209.016 182.661 204.794 184.003 198.835C185.227 193.448 190.2 190.212 197.464 190.844C197.937 188.91 198.411 186.976 198.885 185.042C201.016 185.634 203.148 186.226 205.28 186.858C204.826 188.653 204.372 190.429 203.918 192.225C206.247 192.994 208.102 193.862 209.602 194.75C211.438 195.836 212.089 198.105 211.082 199.802C210.036 201.558 207.648 202.071 205.813 200.926C204.431 200.058 202.655 199.19 200.385 198.539C196.22 197.355 194.444 198.716 194.029 200.413C193.536 202.426 195.47 204.32 200.326 207.813C207.174 212.548 209.227 216.85 207.727 222.296C206.227 227.702 201.115 231.076 193.793 230.287C193.26 232.359 192.727 234.431 192.194 236.502C190.2 235.871 188.227 235.318 186.253 234.766Z" fill="#3C8F7C"/>
<path d="M151.831 198.914C134.817 194.987 117.646 191.791 100.336 189.344C100.731 186.246 101.146 183.129 101.54 180.031C119.087 182.517 136.495 185.773 153.746 189.739C153.094 192.797 152.463 195.855 151.831 198.914Z" fill="#50BFA5"/>
<path d="M284.485 246.013C268.656 238.278 252.55 231.234 236.208 224.881C237.234 221.941 238.28 219.001 239.307 216.061C255.886 222.493 272.209 229.636 288.275 237.489C286.992 240.33 285.748 243.172 284.485 246.013Z" fill="#50BFA5"/>
<path d="M312.453 187.568C243.59 201.953 178.003 230.78 119.166 272.532C103.277 245.105 87.369 217.679 71.4805 190.272C139.515 142.008 215.326 108.662 294.966 92.0479C300.788 123.875 306.63 155.722 312.453 187.568Z" fill="url(#paint3_linear_78_573)"/>
<path d="M312.453 187.568C243.59 201.953 178.003 230.78 119.166 272.532C103.277 245.105 87.369 217.679 71.4805 190.272C139.515 142.008 215.326 108.662 294.966 92.0479C300.788 123.875 306.63 155.722 312.453 187.568Z" fill="url(#paint4_radial_78_573)"/>
<path d="M114.192 254.281C104.402 237.075 94.5929 219.869 84.8032 202.663C91.0205 198.322 93.3889 189.857 89.9941 183.563C147.963 145.126 211.22 117.324 277.36 101.223C278.88 108.327 285.946 112.648 293.17 111.089C296.959 130.939 300.749 150.789 304.538 170.619C297.887 172.079 293.762 179.163 295.282 186.266C237.175 200.414 181.634 224.822 130.732 258.582C127.357 252.288 119.916 250.295 114.192 254.281Z" fill="#B7D972"/>
<path d="M114.192 254.281C104.402 237.075 94.5929 219.869 84.8032 202.663C91.0205 198.322 93.3889 189.857 89.9941 183.563C147.963 145.126 211.22 117.324 277.36 101.223C278.88 108.327 285.946 112.648 293.17 111.089C296.959 130.939 300.749 150.789 304.538 170.619C297.887 172.079 293.762 179.163 295.282 186.266C237.175 200.414 181.634 224.822 130.732 258.582C127.357 252.288 119.916 250.295 114.192 254.281Z" fill="url(#paint5_linear_78_573)"/>
<path d="M229.734 158.997C234.905 176.598 226.122 195.402 210.47 202.15C194.819 208.839 176.68 201.598 169.555 184.846C162.43 168.113 170.542 147.435 188.147 139.877C205.753 132.3 224.563 141.436 229.734 158.997Z" fill="url(#paint6_linear_78_573)"/>
<path d="M229.734 158.997C234.905 176.598 226.122 195.402 210.47 202.15C194.819 208.839 176.68 201.598 169.555 184.846C162.43 168.113 170.542 147.435 188.147 139.877C205.753 132.3 224.563 141.436 229.734 158.997Z" fill="url(#paint7_radial_78_573)"/>
<path d="M223.431 177.381C224.396 178.307 224.595 179.769 223.878 180.898C222.488 183.117 220.068 185.914 216.826 188.216C212.085 191.608 206.296 193.352 200.409 192.367C196.718 191.758 192.986 189.864 189.948 186.959L187.146 188.949C186.195 189.618 184.874 189.42 184.206 188.47L184.16 188.399C183.492 187.449 183.689 186.128 184.64 185.46L186.931 183.827C186.292 183.089 185.872 182.651 185.561 182.21C185.039 181.496 184.52 180.588 183.992 179.545L181.631 181.224C180.68 181.893 179.359 181.695 178.691 180.745C178.023 179.794 178.221 178.474 179.172 177.806L182.036 175.743C180.48 171.889 179.941 167.818 180.55 164.128C181.601 157.867 185.317 152.601 190.243 149.077C193.133 147.007 195.66 145.945 197.794 145.373C199.279 144.947 200.797 145.78 201.274 147.251L201.288 147.302C201.778 148.824 200.914 150.433 199.385 150.898C197.657 151.444 195.689 152.329 193.539 153.87C190.393 156.118 187.962 159.387 187.193 163.616C186.776 166.069 187.022 168.841 188.258 171.293L204.377 159.755C205.328 159.087 206.648 159.284 207.316 160.235C207.984 161.186 207.787 162.506 206.836 163.174L189.996 175.208C190.494 176.039 190.974 176.903 191.35 177.38C191.8 178.031 192.276 178.675 192.961 179.484L209.845 167.41C210.815 166.709 212.168 166.925 212.843 167.902C213.544 168.871 213.328 170.224 212.351 170.899L196.181 182.451C198.16 184.18 200.458 185.245 202.679 185.614C207.049 186.289 210.622 185.222 214.208 182.663C216.384 181.115 218.078 179.311 219.297 177.69C220.276 176.408 222.211 176.22 223.431 177.381Z" fill="#EDFDFC"/>
<path d="M161.66 190.785C146.916 198.48 132.469 206.866 118.337 215.903C116.916 213.18 115.475 210.457 114.054 207.734C128.383 198.559 143.048 190.074 157.989 182.261C159.193 185.102 160.417 187.943 161.66 190.785Z" fill="#50BFA5"/>
<path d="M285.729 143.883C269.742 147.79 253.932 152.426 238.359 157.774C237.491 154.775 236.622 151.795 235.754 148.796C251.563 143.37 267.59 138.674 283.794 134.708C284.426 137.766 285.077 140.824 285.729 143.883Z" fill="url(#paint8_linear_78_573)"/>
<path d="M285.729 143.883C269.742 147.79 253.932 152.426 238.359 157.774C237.491 154.775 236.622 151.795 235.754 148.796C251.563 143.37 267.59 138.674 283.794 134.708C284.426 137.766 285.077 140.824 285.729 143.883Z" fill="url(#paint9_radial_78_573)"/>
<path d="M323.446 247.769C251.82 243.428 180.095 253.945 112.04 278.747C102.685 247.986 93.3098 217.224 83.9346 186.463C162.627 157.793 245.543 145.638 328.361 150.65C326.723 183.03 325.085 215.389 323.446 247.769Z" fill="url(#paint10_linear_78_573)"/>
<path d="M323.446 247.769C251.82 243.428 180.095 253.945 112.04 278.747C102.685 247.986 93.3098 217.224 83.9346 186.463C162.627 157.793 245.543 145.638 328.361 150.65C326.723 183.03 325.085 215.389 323.446 247.769Z" fill="url(#paint11_radial_78_573)"/>
<path d="M111.35 259.746C105.646 240.507 99.9416 221.249 94.2375 202.011C101.422 199.466 105.744 191.889 103.85 184.904C170.266 163.061 239.445 152.919 308.782 154.873C308.644 162.154 314.624 168.211 322.164 168.606C321.295 188.811 320.427 209.036 319.558 229.241C312.631 228.886 306.887 234.647 306.749 241.928C245.859 240.212 185.108 249.11 126.784 268.29C124.87 261.324 117.962 257.398 111.35 259.746Z" fill="#B7D972"/>
<path d="M111.35 259.746C105.646 240.507 99.9416 221.249 94.2375 202.011C101.422 199.466 105.744 191.889 103.85 184.904C170.266 163.061 239.445 152.919 308.782 154.873C308.644 162.154 314.624 168.211 322.164 168.606C321.295 188.811 320.427 209.036 319.558 229.241C312.631 228.886 306.887 234.647 306.749 241.928C245.859 240.212 185.108 249.11 126.784 268.29C124.87 261.324 117.962 257.398 111.35 259.746Z" fill="url(#paint12_linear_78_573)"/>
<path d="M248.09 198.164C249.116 216.574 236.03 232.438 218.957 234.805C201.885 237.134 185.601 225.315 182.424 207.201C179.266 189.127 192.134 171.25 211.339 168.626C230.543 165.982 247.063 179.794 248.09 198.164Z" fill="url(#paint13_linear_78_573)"/>
<path d="M248.09 198.164C249.116 216.574 236.03 232.438 218.957 234.805C201.885 237.134 185.601 225.315 182.424 207.201C179.266 189.127 192.134 171.25 211.339 168.626C230.543 165.982 247.063 179.794 248.09 198.164Z" fill="url(#paint14_radial_78_573)"/>
<path d="M236.774 216.779C237.579 217.988 237.446 219.586 236.42 220.615C234.424 222.641 231.2 225.039 227.22 226.718C221.394 229.201 214.843 229.69 208.831 227.261C205.06 225.747 201.547 222.861 199.007 219.065L195.567 220.518C194.402 221.003 193.047 220.483 192.562 219.318L192.529 219.232C192.044 218.067 192.564 216.713 193.73 216.228L196.544 215.034C196.04 214.101 195.697 213.537 195.47 212.997C195.085 212.117 194.748 211.032 194.433 209.801L191.534 211.027C190.368 211.512 189.014 210.993 188.529 209.827C188.044 208.662 188.564 207.308 189.729 206.823L193.253 205.309C192.508 200.855 192.893 196.41 194.408 192.64C196.995 186.246 202.173 181.534 208.227 178.955C211.78 177.439 214.709 176.906 217.108 176.801C218.782 176.699 220.197 177.94 220.357 179.611L220.36 179.669C220.522 181.399 219.227 182.902 217.496 183.036C215.535 183.208 213.239 183.685 210.596 184.813C206.731 186.458 203.383 189.354 201.574 193.658C200.554 196.163 200.164 199.161 200.898 202.052L220.708 193.604C221.873 193.119 223.228 193.639 223.713 194.804C224.198 195.969 223.678 197.323 222.512 197.808L201.821 206.613C202.154 207.612 202.46 208.64 202.746 209.235C203.071 210.032 203.424 210.827 203.96 211.845L224.708 203.009C225.901 202.494 227.286 203.041 227.772 204.235C228.288 205.428 227.74 206.813 226.546 207.299L206.679 215.749C208.371 218.048 210.557 219.718 212.827 220.632C217.303 222.376 221.343 222.084 225.749 220.213C228.421 219.083 230.642 217.568 232.316 216.134C233.656 215.005 235.752 215.261 236.774 216.779Z" fill="#EDFDFC"/>
<path d="M173.206 210.871C156.805 214.403 140.521 218.685 124.396 223.696C123.607 220.677 122.837 217.678 122.047 214.659C138.39 209.588 154.91 205.247 171.529 201.656C172.101 204.734 172.654 207.793 173.206 210.871Z" fill="#50BFA5"/>
<path d="M307.124 198.381C290.367 197.927 273.61 198.223 256.912 199.269C256.754 196.132 256.577 193.014 256.419 189.877C273.353 188.811 290.327 188.515 307.321 188.969C307.282 192.126 307.203 195.264 307.124 198.381Z" fill="#50BFA5"/>
<path d="M347 188.772H77C69.8203 188.772 64 194.592 64 201.772V306C64 313.18 69.8203 319 77 319H347C354.18 319 360 313.18 360 306V201.772C360 194.592 354.18 188.772 347 188.772Z" fill="url(#paint15_linear_78_573)"/>
<path d="M347 188.772H77C69.8203 188.772 64 194.592 64 201.772V306C64 313.18 69.8203 319 77 319H347C354.18 319 360 313.18 360 306V201.772C360 194.592 354.18 188.772 347 188.772Z" fill="url(#paint16_radial_78_573)"/>
<path d="M344.368 195.185H74.9148V205.307H344.368V195.185Z" fill="url(#paint17_linear_78_573)"/>
<path d="M203.977 222.02H78.3293V225.374H203.977V222.02Z" fill="url(#paint18_linear_78_573)"/>
<g filter="url(#filter0_d_78_573)">
<path d="M275.88 200.335C291.337 200.335 303.867 187.808 303.867 172.355C303.867 156.903 291.337 144.376 275.88 144.376C260.423 144.376 247.892 156.903 247.892 172.355C247.892 187.808 260.423 200.335 275.88 200.335Z" fill="#EDFDFC"/>
</g>
<path d="M295.104 158.879C302.545 169.494 299.979 184.135 289.38 191.574C278.761 199.013 264.116 196.448 256.675 185.852C249.234 175.236 251.8 160.596 262.399 153.157C273.018 145.698 287.663 148.263 295.104 158.879Z" fill="url(#paint19_linear_78_573)"/>
<path d="M295.104 158.879C302.545 169.494 299.979 184.135 289.38 191.574C278.761 199.013 264.116 196.448 256.675 185.852C249.234 175.236 251.8 160.596 262.399 153.157C273.018 145.698 287.663 148.263 295.104 158.879Z" fill="url(#paint20_radial_78_573)"/>
<path d="M289.75 179.742C290.168 180.435 290.056 181.322 289.46 181.87C288.3 182.95 286.448 184.207 284.193 185.045C280.892 186.286 277.236 186.399 273.951 184.9C271.889 183.965 270.005 182.273 268.684 180.097L266.736 180.822C266.076 181.064 265.335 180.742 265.093 180.081L265.077 180.032C264.835 179.372 265.158 178.63 265.818 178.388L267.412 177.792C267.155 177.26 266.977 176.938 266.865 176.632C266.671 176.132 266.51 175.519 266.365 174.826L264.723 175.439C264.062 175.681 263.322 175.358 263.08 174.697C262.838 174.037 263.161 173.295 263.821 173.053L265.818 172.296C265.512 169.798 265.834 167.332 266.768 165.269C268.362 161.771 271.358 159.273 274.788 157.983C276.801 157.226 278.444 157 279.781 157C280.715 156.984 281.472 157.709 281.52 158.644V158.677C281.568 159.644 280.811 160.449 279.845 160.482C278.75 160.53 277.462 160.74 275.964 161.304C273.774 162.126 271.841 163.657 270.73 166.01C270.102 167.38 269.812 169.04 270.15 170.668L281.375 166.445C282.035 166.203 282.776 166.526 283.018 167.187C283.259 167.847 282.937 168.589 282.277 168.831L270.553 173.231C270.714 173.795 270.859 174.375 271.004 174.714C271.165 175.165 271.342 175.616 271.616 176.196L283.372 171.78C284.048 171.522 284.805 171.861 285.047 172.538C285.305 173.215 284.966 173.972 284.29 174.214L273.033 178.437C273.919 179.758 275.094 180.742 276.334 181.306C278.782 182.386 281.037 182.321 283.533 181.386C285.047 180.822 286.319 180.032 287.286 179.275C288.059 178.679 289.218 178.872 289.75 179.742Z" fill="#EDFDFC"/>
<path d="M322.068 281.659C332.998 270.732 332.998 253.017 322.068 242.09C311.139 231.164 293.418 231.164 282.488 242.09C271.559 253.017 271.559 270.732 282.488 281.659C293.418 292.585 311.139 292.585 322.068 281.659Z" fill="#EDFDFC"/>
<path d="M321.493 248.4C328.934 259.016 326.368 273.657 315.769 281.096C305.15 288.534 290.505 285.969 283.064 275.373C275.623 264.758 278.189 250.117 288.788 242.678C299.407 235.22 314.052 237.785 321.493 248.4Z" fill="url(#paint21_linear_78_573)"/>
<path d="M321.493 248.4C328.934 259.016 326.368 273.657 315.769 281.096C305.15 288.534 290.505 285.969 283.064 275.373C275.623 264.758 278.189 250.117 288.788 242.678C299.407 235.22 314.052 237.785 321.493 248.4Z" fill="url(#paint22_radial_78_573)"/>
<path d="M316.827 262.905C317.573 263.276 317.965 264.109 317.749 264.914C317.336 266.494 316.418 268.61 314.919 270.584C312.731 273.487 309.612 275.604 305.926 276.117C303.617 276.443 301.043 276.013 298.693 274.852L297.398 276.559C296.957 277.134 296.134 277.263 295.56 276.822L295.519 276.789C294.944 276.348 294.815 275.526 295.256 274.951L296.314 273.551C295.797 273.232 295.464 273.049 295.197 272.845C294.753 272.518 294.275 272.074 293.767 271.552L292.675 272.992C292.234 273.567 291.412 273.696 290.837 273.255C290.262 272.814 290.133 271.992 290.574 271.417L291.894 269.655C290.249 267.653 289.168 265.332 288.842 263.022C288.299 259.102 289.527 255.275 291.8 252.259C293.133 250.489 294.438 249.385 295.601 248.646C296.405 248.116 297.464 248.328 298.022 249.114L298.04 249.142C298.616 249.956 298.402 251.075 297.579 251.637C296.652 252.284 295.647 253.178 294.655 254.496C293.203 256.42 292.367 258.819 292.698 261.478C292.908 263.016 293.572 264.619 294.765 265.847L302.201 255.975C302.642 255.4 303.465 255.271 304.04 255.711C304.615 256.152 304.744 256.975 304.302 257.55L296.529 267.852C296.981 268.253 297.427 268.677 297.74 268.892C298.129 269.195 298.533 269.489 299.091 269.842L306.883 259.508C307.329 258.91 308.175 258.786 308.759 259.241C309.356 259.687 309.48 260.533 309.025 261.116L301.561 271.006C303.061 271.666 304.626 271.871 306.017 271.676C308.743 271.262 310.669 269.96 312.325 267.769C313.331 266.442 314.002 265.053 314.425 263.86C314.768 262.915 315.884 262.442 316.827 262.905Z" fill="#EDFDFC"/>
<path d="M248.366 254.859C263.821 254.601 276.142 241.867 275.884 226.416C275.627 210.965 262.889 198.648 247.433 198.905C231.978 199.163 219.657 211.897 219.915 227.348C220.173 242.799 232.91 255.116 248.366 254.859Z" fill="#EDFDFC"/>
<path d="M247.892 250.354C260.864 250.354 271.38 239.841 271.38 226.873C271.38 213.905 260.864 203.393 247.892 203.393C234.921 203.393 224.405 213.905 224.405 226.873C224.405 239.841 234.921 250.354 247.892 250.354Z" fill="url(#paint23_linear_78_573)"/>
<path d="M247.892 250.354C260.864 250.354 271.38 239.841 271.38 226.873C271.38 213.905 260.864 203.393 247.892 203.393C234.921 203.393 224.405 213.905 224.405 226.873C224.405 239.841 234.921 250.354 247.892 250.354Z" fill="url(#paint24_radial_78_573)"/>
<path d="M251.243 242.357C251.043 243.167 250.316 243.73 249.483 243.695C247.851 243.636 245.586 243.201 243.333 242.168C240.023 240.666 237.277 238.083 235.973 234.598C235.152 232.415 235.01 229.809 235.632 227.263L233.684 226.371C233.027 226.065 232.721 225.291 233.026 224.634L233.05 224.587C233.355 223.929 234.129 223.624 234.787 223.93L236.383 224.658C236.582 224.083 236.688 223.719 236.829 223.414C237.051 222.909 237.38 222.346 237.779 221.736L236.136 220.984C235.479 220.679 235.173 219.904 235.478 219.247C235.783 218.59 236.558 218.285 237.215 218.59L239.222 219.494C240.818 217.452 242.848 215.892 245.031 215.071C248.739 213.686 252.741 214.051 256.18 215.612C258.198 216.528 259.56 217.561 260.534 218.535C261.227 219.204 261.25 220.284 260.605 220.999L260.581 221.023C259.913 221.762 258.774 221.797 258.046 221.116C257.213 220.354 256.122 219.567 254.619 218.886C252.425 217.888 249.901 217.595 247.378 218.498C245.923 219.037 244.503 220.035 243.565 221.466L254.82 226.573C255.477 226.878 255.782 227.653 255.477 228.31C255.172 228.967 254.398 229.272 253.741 228.967L241.992 223.626C241.699 224.154 241.382 224.682 241.241 225.034C241.03 225.48 240.831 225.937 240.608 226.559L252.391 231.913C253.072 232.218 253.377 233.016 253.061 233.685C252.756 234.365 251.958 234.67 251.289 234.353L240.01 229.223C239.693 230.831 239.834 232.404 240.327 233.718C241.325 236.288 243.015 237.885 245.515 239.023C247.029 239.716 248.532 240.068 249.787 240.221C250.785 240.35 251.489 241.336 251.243 242.357Z" fill="#EDFDFC"/>
<path d="M271.873 62.8251L272.84 69.3167L262.537 72.02L262.774 81.7279L255.392 85.0033L257.05 88.7326L266.919 84.3522L266.702 75.1573L277.419 72.3554L275.978 62.5488L271.873 62.8251Z" fill="url(#paint25_linear_78_573)"/>
<path d="M271.873 62.8251L272.84 69.3167L262.537 72.02L262.774 81.7279L255.392 85.0033L257.05 88.7326L266.919 84.3522L266.702 75.1573L277.419 72.3554L275.978 62.5488L271.873 62.8251Z" fill="url(#paint26_radial_78_573)"/>
<path d="M183.825 94.7903C184.338 95.6387 184.2 96.724 183.47 97.3948C182.049 98.7169 179.779 100.256 177.016 101.282C172.969 102.801 168.489 102.939 164.463 101.104C161.936 99.9599 159.627 97.8881 158.009 95.2244L155.62 96.1123C154.811 96.4083 153.903 96.0136 153.607 95.2046L153.587 95.1454C153.291 94.3365 153.686 93.4288 154.495 93.1328L156.449 92.4028C156.134 91.7516 155.916 91.357 155.778 90.9821C155.541 90.3704 155.344 89.6206 155.166 88.7722L153.153 89.522C152.344 89.8179 151.436 89.4233 151.14 88.6143C150.844 87.8053 151.239 86.8977 152.048 86.6017L154.495 85.6743C154.12 82.6159 154.515 79.597 155.66 77.0713C157.614 72.7896 161.285 69.7312 165.489 68.1527C167.956 67.2253 169.969 66.9491 171.608 66.9491C172.752 66.9293 173.68 67.8172 173.739 68.9617V69.0011C173.798 70.185 172.871 71.1716 171.687 71.2111C170.344 71.2703 168.765 71.5268 166.93 72.2174C164.246 73.2237 161.877 75.0982 160.515 77.979C159.746 79.6562 159.39 81.6885 159.805 83.6814L173.562 78.5117C174.371 78.2158 175.279 78.6104 175.575 79.4194C175.871 80.2284 175.476 81.136 174.667 81.432L160.298 86.8187C160.496 87.5093 160.673 88.2197 160.851 88.634C161.048 89.1865 161.265 89.739 161.601 90.4493L176.009 85.0429C176.838 84.7272 177.766 85.1415 178.062 85.9703C178.378 86.799 177.963 87.7264 177.134 88.0224L163.338 93.192C164.423 94.81 165.864 96.0136 167.384 96.7042C170.384 98.0262 173.147 97.9473 176.206 96.8029C178.062 96.1123 179.621 95.1454 180.805 94.2181C181.753 93.488 183.174 93.7248 183.825 94.7903Z" fill="url(#paint27_linear_78_573)"/>
<path d="M183.825 94.7903C184.338 95.6387 184.2 96.724 183.47 97.3948C182.049 98.7169 179.779 100.256 177.016 101.282C172.969 102.801 168.489 102.939 164.463 101.104C161.936 99.9599 159.627 97.8881 158.009 95.2244L155.62 96.1123C154.811 96.4083 153.903 96.0136 153.607 95.2046L153.587 95.1454C153.291 94.3365 153.686 93.4288 154.495 93.1328L156.449 92.4028C156.134 91.7516 155.916 91.357 155.778 90.9821C155.541 90.3704 155.344 89.6206 155.166 88.7722L153.153 89.522C152.344 89.8179 151.436 89.4233 151.14 88.6143C150.844 87.8053 151.239 86.8977 152.048 86.6017L154.495 85.6743C154.12 82.6159 154.515 79.597 155.66 77.0713C157.614 72.7896 161.285 69.7312 165.489 68.1527C167.956 67.2253 169.969 66.9491 171.608 66.9491C172.752 66.9293 173.68 67.8172 173.739 68.9617V69.0011C173.798 70.185 172.871 71.1716 171.687 71.2111C170.344 71.2703 168.765 71.5268 166.93 72.2174C164.246 73.2237 161.877 75.0982 160.515 77.979C159.746 79.6562 159.39 81.6885 159.805 83.6814L173.562 78.5117C174.371 78.2158 175.279 78.6104 175.575 79.4194C175.871 80.2284 175.476 81.136 174.667 81.432L160.298 86.8187C160.496 87.5093 160.673 88.2197 160.851 88.634C161.048 89.1865 161.265 89.739 161.601 90.4493L176.009 85.0429C176.838 84.7272 177.766 85.1415 178.062 85.9703C178.378 86.799 177.963 87.7264 177.134 88.0224L163.338 93.192C164.423 94.81 165.864 96.0136 167.384 96.7042C170.384 98.0262 173.147 97.9473 176.206 96.8029C178.062 96.1123 179.621 95.1454 180.805 94.2181C181.753 93.488 183.174 93.7248 183.825 94.7903Z" fill="url(#paint28_radial_78_573)"/>
<path d="M146.245 45.7376L140.008 46.369L137.877 36.4441L128.62 36.2467L125.817 29.0645L122.186 30.4851L125.936 40.0944L134.699 40.272L136.929 50.6113L146.324 49.6642L146.245 45.7376Z" fill="url(#paint29_linear_78_573)"/>
<path d="M146.245 45.7376L140.008 46.369L137.877 36.4441L128.62 36.2467L125.817 29.0645L122.186 30.4851L125.936 40.0944L134.699 40.272L136.929 50.6113L146.324 49.6642L146.245 45.7376Z" fill="url(#paint30_radial_78_573)"/>
<path d="M218.464 38.3185L225.155 40.5284C225.155 40.5284 235.754 37.0951 236.8 34.9444C237.846 32.7936 238.142 27.545 239.642 27.4069C241.142 27.2688 244.063 27.7621 244.754 31.3335C245.267 33.938 241.438 41.4558 242.05 42.2648C242.425 42.7581 246.234 44.1393 249.017 45.1061C250.853 45.7375 252.175 47.3555 252.471 49.3089C252.669 50.6309 251.919 51.9135 250.675 52.387L248.761 53.1368L249.373 55.1297C249.827 56.6096 249.017 58.1881 247.557 58.6814L246.077 59.1747L246.55 60.3783C247.162 61.9371 246.294 63.6932 244.695 64.1668L243.392 64.5417L243.451 64.8969C243.669 66.3373 242.761 67.7382 241.359 68.0934L240.076 68.4288L222.254 62.5488C220.576 61.9963 219.056 61.1084 217.734 59.9245L211.813 56.8069C211.181 56.4715 210.885 55.7217 211.122 55.0311L216.609 39.2458C216.885 38.4763 217.714 38.0619 218.464 38.3185Z" fill="url(#paint31_linear_78_573)"/>
<path d="M218.464 38.3185L225.155 40.5284C225.155 40.5284 235.754 37.0951 236.8 34.9444C237.846 32.7936 238.142 27.545 239.642 27.4069C241.142 27.2688 244.063 27.7621 244.754 31.3335C245.267 33.938 241.438 41.4558 242.05 42.2648C242.425 42.7581 246.234 44.1393 249.017 45.1061C250.853 45.7375 252.175 47.3555 252.471 49.3089C252.669 50.6309 251.919 51.9135 250.675 52.387L248.761 53.1368L249.373 55.1297C249.827 56.6096 249.017 58.1881 247.557 58.6814L246.077 59.1747L246.55 60.3783C247.162 61.9371 246.294 63.6932 244.695 64.1668L243.392 64.5417L243.451 64.8969C243.669 66.3373 242.761 67.7382 241.359 68.0934L240.076 68.4288L222.254 62.5488C220.576 61.9963 219.056 61.1084 217.734 59.9245L211.813 56.8069C211.181 56.4715 210.885 55.7217 211.122 55.0311L216.609 39.2458C216.885 38.4763 217.714 38.0619 218.464 38.3185Z" fill="url(#paint32_linear_78_573)"/>
<path d="M112.712 108.997L114.133 101.992L120.705 99.1903C121.455 98.8746 121.514 97.8288 120.804 97.4342L114.567 93.922L113.935 86.7989C113.856 85.9899 112.889 85.615 112.297 86.1675L107.027 90.982L100.06 89.3837C99.2706 89.2062 98.5995 90.0152 98.9548 90.7452L101.935 97.2566L98.2442 103.393C97.8297 104.084 98.3824 104.972 99.1916 104.873L106.297 104.044L110.995 109.431C111.547 110.062 112.554 109.806 112.712 108.997Z" fill="url(#paint33_linear_78_573)"/>
<path d="M112.712 108.997L114.133 101.992L120.705 99.1903C121.455 98.8746 121.514 97.8288 120.804 97.4342L114.567 93.922L113.935 86.7989C113.856 85.9899 112.889 85.615 112.297 86.1675L107.027 90.982L100.06 89.3837C99.2706 89.2062 98.5995 90.0152 98.9548 90.7452L101.935 97.2566L98.2442 103.393C97.8297 104.084 98.3824 104.972 99.1916 104.873L106.297 104.044L110.995 109.431C111.547 110.062 112.554 109.806 112.712 108.997Z" fill="url(#paint34_radial_78_573)"/>
<defs>
<filter id="filter0_d_78_573" x="216.892" y="117.376" width="117.975" height="117.958" filterUnits="userSpaceOnUse" color-interpolation-filters="sRGB">
<feFlood flood-opacity="0" result="BackgroundImageFix"/>
<feColorMatrix in="SourceAlpha" type="matrix" values="0 0 0 0 0 0 0 0 0 0 0 0 0 0 0 0 0 0 127 0" result="hardAlpha"/>
<feOffset dy="4"/>
<feGaussianBlur stdDeviation="15.5"/>
<feComposite in2="hardAlpha" operator="out"/>
<feColorMatrix type="matrix" values="0 0 0 0 0 0 0 0 0 0 0 0 0 0 0 0 0 0 0.13 0"/>
<feBlend mode="normal" in2="BackgroundImageFix" result="effect1_dropShadow_78_573"/>
<feBlend mode="normal" in="SourceGraphic" in2="effect1_dropShadow_78_573" result="shape"/>
</filter>
<linearGradient id="paint0_linear_78_573" x1="67.5866" y1="217.963" x2="322.928" y2="217.963" gradientUnits="userSpaceOnUse">
<stop stop-color="#53CD9F"/>
<stop offset="1" stop-color="#0D7A5C"/>
</linearGradient>
<radialGradient id="paint1_radial_78_573" cx="0" cy="0" r="1" gradientUnits="userSpaceOnUse" gradientTransform="translate(200.13 104.371) rotate(16.5519) scale(182.478 200.985)">
<stop stop-color="#2789E4"/>
<stop offset="0.2245" stop-color="#217CD4"/>
<stop offset="0.6624" stop-color="#1059AA"/>
<stop offset="1" stop-color="#013B85"/>
</radialGradient>
<linearGradient id="paint2_linear_78_573" x1="74.1247" y1="215.252" x2="310.173" y2="215.252" gradientUnits="userSpaceOnUse">
<stop stop-color="#9FF4FA"/>
<stop offset="1" stop-color="white"/>
</linearGradient>
<linearGradient id="paint3_linear_78_573" x1="71.4836" y1="182.284" x2="312.461" y2="182.284" gradientUnits="userSpaceOnUse">
<stop stop-color="#53CD9F"/>
<stop offset="1" stop-color="#0D7A5C"/>
</linearGradient>
<radialGradient id="paint4_radial_78_573" cx="0" cy="0" r="1" gradientUnits="userSpaceOnUse" gradientTransform="translate(196.56 54.848) rotate(19.459) scale(175.073 221.8)">
<stop stop-color="#2789E4"/>
<stop offset="0.2245" stop-color="#217CD4"/>
<stop offset="0.6624" stop-color="#1059AA"/>
<stop offset="1" stop-color="#013B85"/>
</radialGradient>
<linearGradient id="paint5_linear_78_573" x1="84.7843" y1="179.881" x2="304.529" y2="179.881" gradientUnits="userSpaceOnUse">
<stop stop-color="#9FF4FA"/>
<stop offset="1" stop-color="white"/>
</linearGradient>
<linearGradient id="paint6_linear_78_573" x1="166.972" y1="170.908" x2="231.215" y2="170.908" gradientUnits="userSpaceOnUse">
<stop stop-color="#53CD9F"/>
<stop offset="1" stop-color="#0D7A5C"/>
</linearGradient>
<radialGradient id="paint7_radial_78_573" cx="0" cy="0" r="1" gradientUnits="userSpaceOnUse" gradientTransform="translate(200.323 123.298) rotate(26.341) scale(49.1068 78.759)">
<stop stop-color="#2789E4"/>
<stop offset="0.2245" stop-color="#217CD4"/>
<stop offset="0.6624" stop-color="#1059AA"/>
<stop offset="1" stop-color="#013B85"/>
</radialGradient>
<linearGradient id="paint8_linear_78_573" x1="235.747" y1="146.243" x2="285.73" y2="146.243" gradientUnits="userSpaceOnUse">
<stop stop-color="#53CD9F"/>
<stop offset="1" stop-color="#0D7A5C"/>
</linearGradient>
<radialGradient id="paint9_radial_78_573" cx="0" cy="0" r="1" gradientUnits="userSpaceOnUse" gradientTransform="translate(261.694 129.953) rotate(12.2832) scale(35.0363 29.3754)">
<stop stop-color="#2789E4"/>
<stop offset="0.2245" stop-color="#217CD4"/>
<stop offset="0.6624" stop-color="#1059AA"/>
<stop offset="1" stop-color="#013B85"/>
</radialGradient>
<linearGradient id="paint10_linear_78_573" x1="83.9371" y1="214.145" x2="328.367" y2="214.145" gradientUnits="userSpaceOnUse">
<stop stop-color="#53CD9F"/>
<stop offset="1" stop-color="#0D7A5C"/>
</linearGradient>
<radialGradient id="paint11_radial_78_573" cx="0" cy="0" r="1" gradientUnits="userSpaceOnUse" gradientTransform="translate(210.807 122.922) rotate(14.0006) scale(172.566 163.388)">
<stop stop-color="#2789E4"/>
<stop offset="0.2245" stop-color="#217CD4"/>
<stop offset="0.6624" stop-color="#1059AA"/>
<stop offset="1" stop-color="#013B85"/>
</radialGradient>
<linearGradient id="paint12_linear_78_573" x1="94.2179" y1="211.447" x2="322.154" y2="211.447" gradientUnits="userSpaceOnUse">
<stop stop-color="#9FF4FA"/>
<stop offset="1" stop-color="white"/>
</linearGradient>
<linearGradient id="paint13_linear_78_573" x1="181.938" y1="201.708" x2="248.148" y2="201.708" gradientUnits="userSpaceOnUse">
<stop stop-color="#53CD9F"/>
<stop offset="1" stop-color="#0D7A5C"/>
</linearGradient>
<radialGradient id="paint14_radial_78_573" cx="0" cy="0" r="1" gradientUnits="userSpaceOnUse" gradientTransform="translate(216.309 154.533) rotate(25.4537) scale(50.2232 78.6096)">
<stop stop-color="#2789E4"/>
<stop offset="0.2245" stop-color="#217CD4"/>
<stop offset="0.6624" stop-color="#1059AA"/>
<stop offset="1" stop-color="#013B85"/>
</radialGradient>
<linearGradient id="paint15_linear_78_573" x1="309.43" y1="144.279" x2="127.361" y2="349.221" gradientUnits="userSpaceOnUse">
<stop stop-color="#53CD9F"/>
<stop offset="1" stop-color="#0D7A5C"/>
</linearGradient>
<radialGradient id="paint16_radial_78_573" cx="0" cy="0" r="1" gradientUnits="userSpaceOnUse" gradientTransform="translate(217.642 161.93) rotate(11.7247) scale(207.09 166.193)">
<stop stop-color="#2789E4"/>
<stop offset="0.2245" stop-color="#217CD4"/>
<stop offset="0.6624" stop-color="#1059AA"/>
<stop offset="1" stop-color="#013B85"/>
</radialGradient>
<linearGradient id="paint17_linear_78_573" x1="74.9083" y1="200.235" x2="344.367" y2="200.235" gradientUnits="userSpaceOnUse">
<stop stop-color="#00503E"/>
<stop offset="1" stop-color="#023222"/>
</linearGradient>
<linearGradient id="paint18_linear_78_573" x1="78.3307" y1="223.695" x2="203.97" y2="223.695" gradientUnits="userSpaceOnUse">
<stop stop-color="#00503E"/>
<stop offset="1" stop-color="#023222"/>
</linearGradient>
<linearGradient id="paint19_linear_78_573" x1="277.255" y1="144.838" x2="274.842" y2="193.318" gradientUnits="userSpaceOnUse">
<stop stop-color="#C9CD55"/>
<stop offset="0.5065" stop-color="#659C52"/>
<stop offset="1" stop-color="#287F50"/>
</linearGradient>
<radialGradient id="paint20_radial_78_573" cx="0" cy="0" r="1" gradientUnits="userSpaceOnUse" gradientTransform="translate(276.785 139.211) rotate(25.2546) scale(35.5557 55.3363)">
<stop stop-color="#2789E4"/>
<stop offset="0.2245" stop-color="#217CD4"/>
<stop offset="0.6624" stop-color="#1059AA"/>
<stop offset="1" stop-color="#013B85"/>
</radialGradient>
<linearGradient id="paint21_linear_78_573" x1="318.95" y1="202.548" x2="300.966" y2="266.606" gradientUnits="userSpaceOnUse">
<stop stop-color="#C9CD55"/>
<stop offset="0.5065" stop-color="#659C52"/>
<stop offset="1" stop-color="#287F50"/>
</linearGradient>
<radialGradient id="paint22_radial_78_573" cx="0" cy="0" r="1" gradientUnits="userSpaceOnUse" gradientTransform="translate(303.173 228.733) rotate(25.2546) scale(35.5557 55.3363)">
<stop stop-color="#2789E4"/>
<stop offset="0.2245" stop-color="#217CD4"/>
<stop offset="0.6624" stop-color="#1059AA"/>
<stop offset="1" stop-color="#013B85"/>
</radialGradient>
<linearGradient id="paint23_linear_78_573" x1="259.426" y1="185.837" x2="241.442" y2="249.895" gradientUnits="userSpaceOnUse">
<stop stop-color="#C9CD55"/>
<stop offset="0.5065" stop-color="#659C52"/>
<stop offset="1" stop-color="#287F50"/>
</linearGradient>
<radialGradient id="paint24_radial_78_573" cx="0" cy="0" r="1" gradientUnits="userSpaceOnUse" gradientTransform="translate(248.788 193.713) rotate(25.248) scale(35.5778 55.3602)">
<stop stop-color="#2789E4"/>
<stop offset="0.2245" stop-color="#217CD4"/>
<stop offset="0.6624" stop-color="#1059AA"/>
<stop offset="1" stop-color="#013B85"/>
</radialGradient>
<linearGradient id="paint25_linear_78_573" x1="224.802" y1="4.75933" x2="286.217" y2="109.194" gradientUnits="userSpaceOnUse">
<stop stop-color="#FB9A2B"/>
<stop offset="1" stop-color="#E65925"/>
</linearGradient>
<radialGradient id="paint26_radial_78_573" cx="0" cy="0" r="1" gradientUnits="userSpaceOnUse" gradientTransform="translate(266.826 57.1521) rotate(29.2815) scale(17.2994 29.7665)">
<stop stop-color="#2789E4"/>
<stop offset="0.2245" stop-color="#217CD4"/>
<stop offset="0.6624" stop-color="#1059AA"/>
<stop offset="1" stop-color="#013B85"/>
</radialGradient>
<linearGradient id="paint27_linear_78_573" x1="203.674" y1="-4.48701" x2="141.826" y2="160.928" gradientUnits="userSpaceOnUse">
<stop stop-color="#53CD9F"/>
<stop offset="1" stop-color="#0D7A5C"/>
</linearGradient>
<radialGradient id="paint28_radial_78_573" cx="0" cy="0" r="1" gradientUnits="userSpaceOnUse" gradientTransform="translate(168.218 59.6313) rotate(26.8447) scale(25.4054 41.2859)">
<stop stop-color="#2789E4"/>
<stop offset="0.2245" stop-color="#217CD4"/>
<stop offset="0.6624" stop-color="#1059AA"/>
<stop offset="1" stop-color="#013B85"/>
</radialGradient>
<linearGradient id="paint29_linear_78_573" x1="157.397" y1="-21.7898" x2="95.5491" y2="143.625" gradientUnits="userSpaceOnUse">
<stop stop-color="#53CD9F"/>
<stop offset="1" stop-color="#0D7A5C"/>
</linearGradient>
<radialGradient id="paint30_radial_78_573" cx="0" cy="0" r="1" gradientUnits="userSpaceOnUse" gradientTransform="translate(134.715 24.6234) rotate(22.8347) scale(17.9419 25.8824)">
<stop stop-color="#2789E4"/>
<stop offset="0.2245" stop-color="#217CD4"/>
<stop offset="0.6624" stop-color="#1059AA"/>
<stop offset="1" stop-color="#013B85"/>
</radialGradient>
<linearGradient id="paint31_linear_78_573" x1="243.822" y1="7.90692" x2="215.75" y2="112.33" gradientUnits="userSpaceOnUse">
<stop stop-color="#53CD9F"/>
<stop offset="1" stop-color="#0D7A5C"/>
</linearGradient>
<linearGradient id="paint32_linear_78_573" x1="229.385" y1="59.8398" x2="231.802" y2="51.2008" gradientUnits="userSpaceOnUse">
<stop stop-color="#ED9886"/>
<stop offset="1" stop-color="#DEB386"/>
</linearGradient>
<linearGradient id="paint33_linear_78_573" x1="97.1849" y1="79.8069" x2="158.599" y2="184.241" gradientUnits="userSpaceOnUse">
<stop stop-color="#FB9A2B"/>
<stop offset="1" stop-color="#E65925"/>
</linearGradient>
<radialGradient id="paint34_radial_78_573" cx="0" cy="0" r="1" gradientUnits="userSpaceOnUse" gradientTransform="translate(110.146 80.9841) rotate(25.897) scale(17.6674 27.9975)">
<stop stop-color="#2789E4"/>
<stop offset="0.2245" stop-color="#217CD4"/>
<stop offset="0.6624" stop-color="#1059AA"/>
<stop offset="1" stop-color="#013B85"/>
</radialGradient>
</defs>
</svg>
