<svg width="24" height="25" viewBox="0 0 24 25" fill="none" xmlns="http://www.w3.org/2000/svg">
<path d="M7 17.7031L7 8.20312L5 8.20312C3 8.20312 2 8.95312 2 11.2031L2 14.7031C2 16.9531 3 17.7031 5 17.7031L7 17.7031Z" stroke="white" stroke-width="1.5" stroke-miterlimit="10" stroke-linecap="round" stroke-linejoin="round"/>
<path d="M15 8.95312L19 8.95312C21 8.95312 22 9.95312 22 11.9531L22 13.9531C22 15.9531 21 16.9531 19 16.9531L15 16.9531L15 8.95312Z" stroke="white" stroke-width="1.5" stroke-miterlimit="10" stroke-linecap="round" stroke-linejoin="round"/>
<path d="M10 3.95312L15 3.95312C17 3.95312 18 4.95312 18 6.95312L18 8.95312L15 8.95312L15 16.9531L18 16.9531L18 18.9531C18 20.9531 17 21.9531 15 21.9531L10 21.9531C8 21.9531 7 20.9531 7 18.9531L7 6.95312C7 4.95312 8 3.95312 10 3.95312Z" stroke="white" stroke-width="1.5" stroke-miterlimit="10" stroke-linecap="round" stroke-linejoin="round"/>
<path d="M15 7.95312L15 9.16313L15 17.9531" stroke="white" stroke-width="1.5" stroke-miterlimit="10" stroke-linecap="round" stroke-linejoin="round"/>
<path d="M11 17.9531L11 14.9531" stroke="white" stroke-width="1.5" stroke-miterlimit="10" stroke-linecap="round" stroke-linejoin="round"/>
</svg>
