<?xml version="1.0" encoding="utf-8"?>
<!-- Generator: Adobe Illustrator 27.5.0, SVG Export Plug-In . SVG Version: 6.00 Build 0)  -->
<svg version="1.1" xmlns="http://www.w3.org/2000/svg" xmlns:xlink="http://www.w3.org/1999/xlink" x="0px" y="0px"
	 viewBox="0 0 500 500" style="enable-background:new 0 0 500 500;" xml:space="preserve">
<g id="BACKGROUND">
	<rect style="fill:#FFFFFF;" width="500" height="500"/>
</g>
<g id="OBJECTS">
	<g>
		<g>
			<path style="fill:#B1E7FC;" d="M475.842,275.978L475.842,275.978c0-14.905-12.083-26.987-26.987-26.987h-2.776
				c7.926-2.383,13.703-9.728,13.703-18.43v0c0-9.261-6.542-16.99-15.256-18.83c14.761-3.835,25.659-17.249,25.659-33.21l0,0
				c0-15.048-9.691-27.825-23.17-32.452c5.136-3.686,8.494-9.694,8.494-16.498v0c0-11.218-9.094-20.312-20.312-20.312H390
				c5.942-6.169,9.603-14.552,9.603-23.794l0,0c0-4.359-0.821-8.523-2.303-12.359h26.696c11.218,0,20.312-9.094,20.312-20.312l0,0
				c0-11.218-9.094-20.312-20.312-20.312h-37.51c0.165-0.84,0.256-1.707,0.256-2.596c0-7.396-5.996-13.392-13.392-13.392H205.748
				c-7.396,0-13.392,5.996-13.392,13.392c0,0.889,0.091,1.756,0.256,2.596h-52.596c-10.663,0-19.39,8.222-20.229,18.669h-7.712
				c-18.951,0-34.313,15.362-34.313,34.313l0,0c0,17.485,13.081,31.905,29.989,34.032H69.843c-22.504,0-40.747,18.243-40.747,40.748
				v0c0,22.504,18.243,40.748,40.747,40.748H80.36c-16.49,5.217-28.445,20.637-28.445,38.853v0c0,19.97,14.369,36.572,33.33,40.062
				h-47.41c-7.396,0-13.392,5.996-13.392,13.392c0,7.396,5.996,13.392,13.392,13.392h40.88
				c-9.457,5.056-15.894,15.022-15.894,26.495v0c0,9.788,4.686,18.48,11.933,23.961H54.429c-13.509,0-24.46,10.951-24.46,24.46l0,0
				c0,13.509,10.951,24.46,24.46,24.46h10.421c-0.865,1.772-1.363,3.755-1.363,5.859c0,7.396,5.996,13.392,13.392,13.392h32.069
				c-3.292,3.454-5.325,8.119-5.325,13.268c0,10.632,8.619,19.25,19.251,19.25h10.552c-0.02,0.36-0.055,0.716-0.055,1.08v0
				c0,10.632,8.619,19.25,19.251,19.25h184.816c10.632,0,19.251-8.619,19.251-19.25v0c0-0.365-0.035-0.721-0.055-1.08h81.006
				c10.632,0,19.251-8.619,19.251-19.25c0-9.222-6.489-16.92-15.148-18.802c3.548-3.492,5.753-8.345,5.753-13.716v0
				c0-3.567-0.988-6.897-2.679-9.761c7.33-0.077,13.25-6.036,13.25-13.385c0-2.425-0.654-4.693-1.781-6.655h6.165
				c7.396,0,13.392-5.996,13.392-13.392c0-7.396-5.996-13.392-13.392-13.392h-19.788c8.655-3.762,14.71-12.384,14.71-22.423l0,0
				c0-12.102-8.797-22.143-20.344-24.094h11.83C463.759,302.965,475.842,290.883,475.842,275.978z"/>
			<g>
				<defs>
					<path id="SVGID_1_" d="M475.842,275.978L475.842,275.978c0-14.905-12.083-26.987-26.987-26.987h-2.776
						c7.926-2.383,13.703-9.728,13.703-18.43v0c0-9.261-6.542-16.99-15.256-18.83c14.761-3.835,25.659-17.249,25.659-33.21l0,0
						c0-15.048-9.691-27.825-23.17-32.452c5.136-3.686,8.494-9.694,8.494-16.498v0c0-11.218-9.094-20.312-20.312-20.312H390
						c5.942-6.169,9.603-14.552,9.603-23.794l0,0c0-4.359-0.821-8.523-2.303-12.359h26.696c11.218,0,20.312-9.094,20.312-20.312l0,0
						c0-11.218-9.094-20.312-20.312-20.312h-37.51c0.165-0.84,0.256-1.707,0.256-2.596c0-7.396-5.996-13.392-13.392-13.392H205.748
						c-7.396,0-13.392,5.996-13.392,13.392c0,0.889,0.091,1.756,0.256,2.596h-52.596c-10.663,0-19.39,8.222-20.229,18.669h-7.712
						c-18.951,0-34.313,15.362-34.313,34.313l0,0c0,17.485,13.081,31.905,29.989,34.032H69.843
						c-22.504,0-40.747,18.243-40.747,40.748v0c0,22.504,18.243,40.748,40.747,40.748H80.36
						c-16.49,5.217-28.445,20.637-28.445,38.853v0c0,19.97,14.369,36.572,33.33,40.062h-47.41c-7.396,0-13.392,5.996-13.392,13.392
						c0,7.396,5.996,13.392,13.392,13.392h40.88c-9.457,5.056-15.894,15.022-15.894,26.495v0c0,9.788,4.686,18.48,11.933,23.961
						H54.429c-13.509,0-24.46,10.951-24.46,24.46l0,0c0,13.509,10.951,24.46,24.46,24.46h10.421
						c-0.865,1.772-1.363,3.755-1.363,5.859c0,7.396,5.996,13.392,13.392,13.392h32.069c-3.292,3.454-5.325,8.119-5.325,13.268
						c0,10.632,8.619,19.25,19.251,19.25h10.552c-0.02,0.36-0.055,0.716-0.055,1.08v0c0,10.632,8.619,19.25,19.251,19.25h184.816
						c10.632,0,19.251-8.619,19.251-19.25v0c0-0.365-0.035-0.721-0.055-1.08h81.006c10.632,0,19.251-8.619,19.251-19.25
						c0-9.222-6.489-16.92-15.148-18.802c3.548-3.492,5.753-8.345,5.753-13.716v0c0-3.567-0.988-6.897-2.679-9.761
						c7.33-0.077,13.25-6.036,13.25-13.385c0-2.425-0.654-4.693-1.781-6.655h6.165c7.396,0,13.392-5.996,13.392-13.392
						c0-7.396-5.996-13.392-13.392-13.392h-19.788c8.655-3.762,14.71-12.384,14.71-22.423l0,0c0-12.102-8.797-22.143-20.344-24.094
						h11.83C463.759,302.965,475.842,290.883,475.842,275.978z"/>
				</defs>
				<clipPath id="SVGID_00000153688523395041728680000006207783039208912259_">
					<use xlink:href="#SVGID_1_"  style="overflow:visible;"/>
				</clipPath>
				<g style="clip-path:url(#SVGID_00000153688523395041728680000006207783039208912259_);">
					<path style="fill:#CFCBEF;" d="M503.447,151.399h-74.348v-31.045h-46.034h-19.248l-25.043,10.12h-38.282V40.62h-9.118v8.087
						l-65.753,36.261v4.957h10.44c0,0-5.693,14.935-9.416,35.452l-28.742,0l-14.022-27.151h-32.515l-13.528,27.151H109.61v22.367
						H64.705v9.807H43.012v11.417H8.577v66.498h215.516l-0.559-27.527l76.957-0.935l0.521,28.461h128.087v-21.987h74.348V151.399z"
						/>
					<g>
						<g>
							<polyline style="fill:none;stroke:#98ADC2;stroke-linecap:round;stroke-linejoin:round;stroke-miterlimit:10;" points="
								417.099,140.163 373.012,140.163 337.012,156.598 302.577,156.598 							"/>
							<polyline style="fill:none;stroke:#98ADC2;stroke-linecap:round;stroke-linejoin:round;stroke-miterlimit:10;" points="
								417.099,148.381 373.012,148.381 337.012,164.816 302.577,164.816 							"/>
							<polyline style="fill:none;stroke:#98ADC2;stroke-linecap:round;stroke-linejoin:round;stroke-miterlimit:10;" points="
								417.099,156.598 373.012,156.598 337.012,173.033 302.577,173.033 							"/>
							<polyline style="fill:none;stroke:#98ADC2;stroke-linecap:round;stroke-linejoin:round;stroke-miterlimit:10;" points="
								337.012,181.251 373.012,164.816 417.099,164.816 							"/>
							<polyline style="fill:none;stroke:#98ADC2;stroke-linecap:round;stroke-linejoin:round;stroke-miterlimit:10;" points="
								417.099,173.033 373.012,173.033 337.012,189.468 303.046,189.468 							"/>
							<polyline style="fill:none;stroke:#98ADC2;stroke-linecap:round;stroke-linejoin:round;stroke-miterlimit:10;" points="
								417.099,181.251 373.012,181.251 337.012,197.685 302.577,197.685 							"/>
							<polyline style="fill:none;stroke:#98ADC2;stroke-linecap:round;stroke-linejoin:round;stroke-miterlimit:10;" points="
								417.099,189.468 373.012,189.468 337.012,205.903 302.577,205.903 							"/>
							<polyline style="fill:none;stroke:#98ADC2;stroke-linecap:round;stroke-linejoin:round;stroke-miterlimit:10;" points="
								417.099,197.685 373.012,197.685 337.012,214.12 302.577,214.12 							"/>
							<polyline style="fill:none;stroke:#98ADC2;stroke-linecap:round;stroke-linejoin:round;stroke-miterlimit:10;" points="
								417.099,205.903 373.012,205.903 337.012,222.337 302.577,222.337 							"/>
							
								<polygon style="fill:none;stroke:#98ADC2;stroke-width:2;stroke-linecap:round;stroke-linejoin:round;stroke-miterlimit:10;" points="
								417.099,214.12 373.012,214.12 337.012,230.555 302.577,230.952 302.577,147.577 337.012,147.577 373.012,131.142 
								417.099,131.142 							"/>
							
								<line style="fill:none;stroke:#98ADC2;stroke-linecap:round;stroke-linejoin:round;stroke-miterlimit:10;" x1="373.012" y1="131.142" x2="373.012" y2="224.82"/>
							
								<line style="fill:none;stroke:#98ADC2;stroke-linecap:round;stroke-linejoin:round;stroke-miterlimit:10;" x1="336.36" y1="181.251" x2="302.577" y2="181.251"/>
						</g>
						<g>
							
								<rect x="429.164" y="160.229" style="fill:none;stroke:#98ADC2;stroke-linecap:round;stroke-linejoin:round;stroke-miterlimit:10;" width="67.891" height="5.674"/>
							
								<rect x="429.164" y="170.196" style="fill:none;stroke:#98ADC2;stroke-linecap:round;stroke-linejoin:round;stroke-miterlimit:10;" width="67.891" height="5.674"/>
							
								<rect x="429.164" y="180.163" style="fill:none;stroke:#98ADC2;stroke-linecap:round;stroke-linejoin:round;stroke-miterlimit:10;" width="67.891" height="5.674"/>
							
								<rect x="429.164" y="190.13" style="fill:none;stroke:#98ADC2;stroke-linecap:round;stroke-linejoin:round;stroke-miterlimit:10;" width="67.891" height="5.674"/>
							
								<rect x="429.164" y="200.098" style="fill:none;stroke:#98ADC2;stroke-linecap:round;stroke-linejoin:round;stroke-miterlimit:10;" width="67.891" height="5.674"/>
							
								<rect x="429.164" y="210.065" style="fill:none;stroke:#98ADC2;stroke-linecap:round;stroke-linejoin:round;stroke-miterlimit:10;" width="67.891" height="5.674"/>
						</g>
						<g>
							<g>
								
									<rect x="119.012" y="142.396" style="fill:none;stroke:#98ADC2;stroke-linecap:round;stroke-linejoin:round;stroke-miterlimit:10;" width="87.695" height="5.984"/>
								
									<rect x="119.012" y="152.905" style="fill:none;stroke:#98ADC2;stroke-linecap:round;stroke-linejoin:round;stroke-miterlimit:10;" width="87.695" height="5.984"/>
								
									<rect x="119.012" y="163.414" style="fill:none;stroke:#98ADC2;stroke-linecap:round;stroke-linejoin:round;stroke-miterlimit:10;" width="87.695" height="5.984"/>
								
									<rect x="119.012" y="173.922" style="fill:none;stroke:#98ADC2;stroke-linecap:round;stroke-linejoin:round;stroke-miterlimit:10;" width="87.695" height="5.984"/>
								
									<rect x="119.012" y="184.431" style="fill:none;stroke:#98ADC2;stroke-linecap:round;stroke-linejoin:round;stroke-miterlimit:10;" width="87.695" height="5.984"/>
								
									<rect x="119.012" y="194.939" style="fill:none;stroke:#98ADC2;stroke-linecap:round;stroke-linejoin:round;stroke-miterlimit:10;" width="87.695" height="5.984"/>
							</g>
							<g>
								
									<rect x="155.278" y="107.664" style="fill:none;stroke:#98ADC2;stroke-linecap:round;stroke-linejoin:round;stroke-miterlimit:10;" width="9.234" height="26.288"/>
								
									<line style="fill:none;stroke:#98ADC2;stroke-linecap:round;stroke-linejoin:round;stroke-miterlimit:10;" x1="159.895" y1="107.664" x2="159.895" y2="133.952"/>
								
									<line style="fill:none;stroke:#98ADC2;stroke-linecap:round;stroke-linejoin:round;stroke-miterlimit:10;" x1="168.996" y1="116.566" x2="168.996" y2="133.952"/>
								
									<line style="fill:none;stroke:#98ADC2;stroke-linecap:round;stroke-linejoin:round;stroke-miterlimit:10;" x1="173.365" y1="125.836" x2="173.365" y2="133.952"/>
								
									<line style="fill:none;stroke:#98ADC2;stroke-linecap:round;stroke-linejoin:round;stroke-miterlimit:10;" x1="150.794" y1="117.176" x2="150.794" y2="133.952"/>
								
									<line style="fill:none;stroke:#98ADC2;stroke-linecap:round;stroke-linejoin:round;stroke-miterlimit:10;" x1="146.425" y1="126.445" x2="146.425" y2="133.952"/>
								<polygon style="fill:none;stroke:#98ADC2;stroke-linecap:round;stroke-linejoin:round;stroke-miterlimit:10;" points="
									155.278,107.664 164.8,107.664 177.191,133.952 142.886,133.952 								"/>
							</g>
							
								<polyline style="fill:none;stroke:#98ADC2;stroke-width:2;stroke-linecap:round;stroke-linejoin:round;stroke-miterlimit:10;" points="
								170.838,98.226 188.316,133.952 214.925,133.952 214.925,175.387 							"/>
						</g>
						<g>
							
								<rect x="70.664" y="153.707" style="fill:none;stroke:#98ADC2;stroke-linecap:round;stroke-linejoin:round;stroke-miterlimit:10;" width="6.261" height="40.826"/>
							
								<rect x="81.36" y="153.707" style="fill:none;stroke:#98ADC2;stroke-linecap:round;stroke-linejoin:round;stroke-miterlimit:10;" width="6.261" height="40.826"/>
							
								<rect x="92.056" y="153.707" style="fill:none;stroke:#98ADC2;stroke-linecap:round;stroke-linejoin:round;stroke-miterlimit:10;" width="6.261" height="40.826"/>
							
								<rect x="102.751" y="153.707" style="fill:none;stroke:#98ADC2;stroke-linecap:round;stroke-linejoin:round;stroke-miterlimit:10;" width="6.261" height="40.826"/>
						</g>
						<g>
							
								<rect x="45.439" y="160.881" style="fill:none;stroke:#98ADC2;stroke-linecap:round;stroke-linejoin:round;stroke-miterlimit:10;" width="4.016" height="40.826"/>
							
								<rect x="52.3" y="160.881" style="fill:none;stroke:#98ADC2;stroke-linecap:round;stroke-linejoin:round;stroke-miterlimit:10;" width="4.016" height="40.826"/>
							
								<rect x="59.161" y="160.881" style="fill:none;stroke:#98ADC2;stroke-linecap:round;stroke-linejoin:round;stroke-miterlimit:10;" width="4.016" height="40.826"/>
						</g>
						<g>
							
								<rect x="24.444" y="171.838" style="fill:none;stroke:#98ADC2;stroke-linecap:round;stroke-linejoin:round;stroke-miterlimit:10;" width="4.016" height="40.826"/>
							
								<rect x="31.305" y="171.838" style="fill:none;stroke:#98ADC2;stroke-linecap:round;stroke-linejoin:round;stroke-miterlimit:10;" width="4.016" height="40.826"/>
							
								<rect x="38.167" y="171.838" style="fill:none;stroke:#98ADC2;stroke-linecap:round;stroke-linejoin:round;stroke-miterlimit:10;" width="4.016" height="40.826"/>
						</g>
						<g>
							
								<line style="fill:none;stroke:#98ADC2;stroke-linecap:round;stroke-linejoin:round;stroke-miterlimit:10;" x1="240.465" y1="97.377" x2="292.466" y2="69.612"/>
							
								<line style="fill:none;stroke:#98ADC2;stroke-linecap:round;stroke-linejoin:round;stroke-miterlimit:10;" x1="238.507" y1="106.752" x2="292.466" y2="77.942"/>
							
								<line style="fill:none;stroke:#98ADC2;stroke-linecap:round;stroke-linejoin:round;stroke-miterlimit:10;" x1="236.823" y1="115.98" x2="292.604" y2="86.197"/>
							
								<line style="fill:none;stroke:#98ADC2;stroke-linecap:round;stroke-linejoin:round;stroke-miterlimit:10;" x1="235.429" y1="125.054" x2="292.466" y2="94.6"/>
							
								<line style="fill:none;stroke:#98ADC2;stroke-linecap:round;stroke-linejoin:round;stroke-miterlimit:10;" x1="234.364" y1="133.952" x2="292.466" y2="102.929"/>
							
								<line style="fill:none;stroke:#98ADC2;stroke-linecap:round;stroke-linejoin:round;stroke-miterlimit:10;" x1="234.147" y1="142.396" x2="292.466" y2="111.259"/>
							
								<line style="fill:none;stroke:#98ADC2;stroke-linecap:round;stroke-linejoin:round;stroke-miterlimit:10;" x1="233.487" y1="151.079" x2="292.466" y2="119.588"/>
							
								<line style="fill:none;stroke:#98ADC2;stroke-linecap:round;stroke-linejoin:round;stroke-miterlimit:10;" x1="233.727" y1="159.279" x2="292.466" y2="127.917"/>
							
								<line style="fill:none;stroke:#98ADC2;stroke-linecap:round;stroke-linejoin:round;stroke-miterlimit:10;" x1="234.147" y1="167.384" x2="292.466" y2="136.247"/>
							
								<line style="fill:none;stroke:#98ADC2;stroke-linecap:round;stroke-linejoin:round;stroke-miterlimit:10;" x1="234.76" y1="175.387" x2="292.604" y2="144.502"/>
							
								<line style="fill:none;stroke:#98ADC2;stroke-linecap:round;stroke-linejoin:round;stroke-miterlimit:10;" x1="235.599" y1="183.268" x2="292.466" y2="152.905"/>
							
								<line style="fill:none;stroke:#98ADC2;stroke-linecap:round;stroke-linejoin:round;stroke-miterlimit:10;" x1="236.74" y1="190.988" x2="292.466" y2="161.234"/>
							
								<line style="fill:none;stroke:#98ADC2;stroke-linecap:round;stroke-linejoin:round;stroke-miterlimit:10;" x1="237.133" y1="199.107" x2="292.604" y2="169.49"/>
							
								<line style="fill:none;stroke:#98ADC2;stroke-linecap:round;stroke-linejoin:round;stroke-miterlimit:10;" x1="237.133" y1="207.437" x2="292.466" y2="177.893"/>
							
								<line style="fill:none;stroke:#98ADC2;stroke-width:2;stroke-linecap:round;stroke-linejoin:round;stroke-miterlimit:10;" x1="292.466" y1="54.185" x2="292.466" y2="193.49"/>
							
								<line style="fill:none;stroke:#98ADC2;stroke-width:2;stroke-linecap:round;stroke-linejoin:round;stroke-miterlimit:10;" x1="238.599" y1="88.62" x2="292.466" y2="59.859"/>
							<path style="fill:none;stroke:#98ADC2;stroke-linecap:round;stroke-linejoin:round;stroke-miterlimit:10;" d="
								M243.137,86.197c0,0-10.292,38.665-9.625,66.401c0.667,27.736,3.717,40.891,3.717,40.891"/>
							
								<path style="fill:none;stroke:#98ADC2;stroke-width:2;stroke-linecap:round;stroke-linejoin:round;stroke-miterlimit:10;" d="
								M225.771,130.472c-1.277,8.023-3.315,23.331-2.629,35.822c0.978,17.804,4.231,39.339,4.231,39.339"/>
						</g>
					</g>
				</g>
				<g style="clip-path:url(#SVGID_00000153688523395041728680000006207783039208912259_);">
					<rect x="17.708" y="209.455" style="fill:#BFDD0A;" width="467.385" height="155.989"/>
					<g>
						<path style="fill:#AAD61E;" d="M262.691,303.823c3.305-3.808,2.897-9.575-0.911-12.88l-1.413-1.227
							c1.326-0.337,2.568-1.065,3.532-2.176c1.801-2.076,2.146-4.912,1.138-7.281l64.867,56.293c2.9,2.516,7.29,2.206,9.806-0.694
							c2.516-2.9,2.206-7.29-0.694-9.806L221.991,224.495c-2.9-2.516-7.29-2.206-9.806,0.694c-1.801,2.076-2.146,4.912-1.138,7.281
							l-26.52-23.015H140.02l109.791,95.279C253.619,308.04,259.386,307.632,262.691,303.823z"/>
						<path style="fill:#AAD61E;" d="M325.872,256.478c-2.018-1.751-5.073-1.535-6.824,0.483c-0.94,1.083-1.295,2.463-1.127,3.782
							l-31.603-27.426c-2.018-1.751-5.073-1.535-6.824,0.483c-1.751,2.018-1.535,5.073,0.483,6.824l7.027,6.098
							c-1.424-0.063-2.862,0.481-3.868,1.641c-1.751,2.018-1.535,5.073,0.483,6.824l52.446,45.514
							c2.018,1.751,5.073,1.535,6.824-0.483c1.751-2.018,1.535-5.073-0.483-6.824l-7.026-6.098c1.424,0.062,2.861-0.481,3.868-1.641
							l0,0c0.94-1.083,1.295-2.463,1.127-3.782l9.962,8.645c2.018,1.751,5.073,1.535,6.824-0.483
							c1.751-2.018,1.535-5.073-0.483-6.824L325.872,256.478z"/>
						<path style="fill:#AAD61E;" d="M451.635,241.46c1.051-1.211,1.379-2.793,1.049-4.245l23.569,20.454
							c2.018,1.751,5.073,1.535,6.824-0.483c1.751-2.018,1.535-5.073-0.483-6.824L443.4,216.348c2.018,1.723,5.05,1.502,6.792-0.505
							c1.617-1.863,1.536-4.599-0.072-6.388h-42.745l37.435,32.487C446.829,243.694,449.884,243.477,451.635,241.46z"/>
						<path style="fill:#AAD61E;" d="M356.403,270.408c-1.751,2.018-1.535,5.073,0.483,6.824l16.625,14.427
							c-1.259-0.124-2.556,0.336-3.448,1.364l-1.05,1.21c-1.461,1.684-1.281,4.233,0.403,5.694l17.855,15.495
							c1.683,1.461,4.233,1.281,5.694-0.403l1.05-1.21c1.461-1.684,1.281-4.233-0.403-5.694l-3.499-3.037
							c1.591,0.249,3.27-0.289,4.403-1.596c1.751-2.018,1.535-5.073-0.483-6.824l-14.193-12.317c2.2,0.401,4.548-0.329,6.119-2.14
							l0,0c0.54-0.623,0.935-1.32,1.201-2.051l30.483,26.454c4.405,3.823,11.075,3.351,14.898-1.054
							c3.823-4.405,3.351-11.075-1.054-14.898l-16.029-13.91c1.3-0.301,2.521-0.993,3.462-2.078c1.41-1.625,1.869-3.746,1.44-5.697
							l2.199,1.909c2.728,2.368,6.859,2.075,9.227-0.653c2.368-2.728,2.075-6.859-0.653-9.227l-59.39-51.54h-11.611
							c-0.904,1.473-1.17,3.205-0.813,4.825l-5.56-4.825h-61.605l68.352,59.317C359.007,268.634,357.465,269.184,356.403,270.408z"
							/>
						<path style="fill:#AAD61E;" d="M20.427,263.52l38.645,33.537c-2.257-0.719-4.825-0.085-6.475,1.817
							c-2.213,2.55-1.94,6.411,0.61,8.624l39.258,34.069c2.55,2.213,6.411,1.94,8.624-0.61c2.213-2.55,1.94-6.411-0.61-8.624
							l-9.824-8.525c4.457,1.983,9.863,0.933,13.226-2.942c2.765-3.186,3.437-7.469,2.151-11.19l51.681,44.85
							c4.405,3.823,11.075,3.351,14.898-1.054c3.823-4.405,3.351-11.075-1.054-14.898l-17.259-14.978
							c5.838,1.967,12.54,0.371,16.828-4.57h0c1.665-1.919,2.765-4.13,3.345-6.436l7.721,6.7c3.935,3.415,9.893,2.993,13.307-0.942
							v0c2.452-2.826,2.915-6.691,1.531-9.912l26.1,22.65c2.018,1.751,5.073,1.535,6.824-0.483c1.751-2.018,1.535-5.073-0.483-6.824
							l-39.194-34.014c2.018,1.723,5.05,1.502,6.792-0.505c1.751-2.018,1.535-5.073-0.483-6.824l-32.53-28.23
							c-2.018-1.751-5.073-1.535-6.824,0.483c-1.742,2.008-1.534,5.04,0.456,6.796l-6.827-5.925
							c-2.018-1.751-5.073-1.535-6.824,0.483c-1.051,1.211-1.379,2.793-1.049,4.245l-15.046-13.057
							c-3.935-3.415-9.893-2.993-13.307,0.942v0c-0.184,0.212-0.351,0.432-0.513,0.655l-45.367-39.37H20.981l14.664,12.726
							c-3.72-0.906-7.801,0.24-10.484,3.33c-3.823,4.405-3.351,11.075,1.054,14.898l3.849,3.341
							c-3.865-0.749-8.01,0.519-10.776,3.705c-0.645,0.743-1.162,1.55-1.582,2.391v10.168
							C18.357,261.314,19.263,262.51,20.427,263.52z"/>
					</g>
				</g>
				<g style="clip-path:url(#SVGID_00000153688523395041728680000006207783039208912259_);">
					<g>
						<path style="fill:#4DAC54;" d="M168.331,198.78h-6.401c-1.984-3.141-5.478-5.233-9.467-5.233h-32.028
							c-3.19-5.749-9.316-9.644-16.357-9.644H68.156c-10.328,0-18.701,8.373-18.701,18.701c0,1.767,0.262,3.47,0.72,5.09H39.404
							c-8.263,0-14.961,6.698-14.961,14.96l0,0c0,8.262,6.698,14.961,14.961,14.961h17.221c0.115,2.992,2.57,5.384,5.59,5.384
							h40.593c3.093,0,5.601-2.508,5.601-5.601c0-3.093-2.508-5.601-5.601-5.601H92.44c1.069-1.38,1.911-2.943,2.447-4.646h50.702
							c6.187,0,11.202-5.015,11.202-11.202c0-0.288-0.022-0.57-0.043-0.853c2.415-1.001,4.401-2.822,5.616-5.116h5.968
							c3.093,0,5.601-2.508,5.601-5.601S171.425,198.78,168.331,198.78z"/>
						<path style="fill:#3DA545;" d="M108.409,237.398c0-3.093-2.508-5.601-5.601-5.601H92.44c1.069-1.38,1.911-2.943,2.447-4.646
							h50.702c6.187,0,11.202-5.015,11.202-11.202c0-0.288-0.022-0.57-0.043-0.853c2.415-1.001,4.401-2.822,5.616-5.116h5.968
							c0.541,0,1.062-0.081,1.557-0.224c-0.186-2.008-1.856-3.586-3.913-3.586h-12.161c0.648-0.863,1.045-1.925,1.045-3.087
							c0-2.856-2.315-5.17-5.17-5.17h-8.343c1.253-1.097,2.11-2.632,2.332-4.367h-23.244c-3.19-5.749-9.316-9.644-16.357-9.644
							H89.835c0.295,0.847,0.778,1.607,1.407,2.221c-2.636,1.001-4.513,3.544-4.513,6.531c0,2.099,0.93,3.977,2.394,5.259H78.248
							c-2.856,0-5.17,2.315-5.17,5.17c0,2.855,2.315,5.17,5.17,5.17h0.601c-0.302,0.558-0.489,1.187-0.489,1.866
							c0,0.883,0.3,1.69,0.789,2.347h-6.012c-1.978,0-3.581,1.604-3.581,3.581l0,0c0,1.978,1.603,3.581,3.581,3.581h7.294
							c-1.054,1.005-1.715,2.42-1.715,3.992c0,1.411,0.534,2.694,1.404,3.669h-5.725c-2.673,0-4.84,2.167-4.84,4.84
							c0,2.673,2.167,4.84,4.84,4.84H88.11c-1.943,0.905-3.294,2.87-3.294,5.156c0,0.297,0.03,0.586,0.074,0.871h17.918
							C105.902,242.999,108.409,240.492,108.409,237.398z"/>
					</g>
					<g>
						<path style="fill:#3F9B4E;" d="M391.491,197.648h-7.74c0.428-0.844,0.675-1.795,0.675-2.806c0-3.432-2.783-6.215-6.215-6.215
							h-21.232c1.467-1.383,2.389-3.339,2.389-5.514c0-1.118-0.248-2.176-0.683-3.132h9.746c2.914,0,5.276-2.362,5.276-5.276
							c0-2.914-2.362-5.276-5.276-5.276h-30.716c-2.914,0-5.276,2.362-5.276,5.276c0,0.283,0.04,0.555,0.083,0.825h-54.774
							c-4.188,0-7.583,3.395-7.583,7.583s3.395,7.583,7.583,7.583h9.472c-3.258,1.756-5.472,5.198-5.472,9.158l0,0
							c0,2.511,0.89,4.814,2.372,6.612H264.51c-3.103,0-5.619,2.516-5.619,5.619v0c0,3.103,2.516,5.619,5.619,5.619h12.396
							c-1.731,1.994-2.786,4.59-2.786,7.438v0c0,0.47,0.037,0.931,0.093,1.386h-5.392c-3.436,0-6.221,2.785-6.221,6.221
							c0,3.436,2.785,6.221,6.221,6.221h60.536c2.023,0,3.815-0.97,4.951-2.465h3.157c6.276,0,11.363-5.087,11.363-11.363v0
							c0-0.336-0.022-0.666-0.05-0.994h12.091c6.245,0,11.443-4.461,12.595-10.369h18.027c4.454,0,8.065-3.611,8.065-8.065
							C399.556,201.259,395.945,197.648,391.491,197.648z"/>
						<path style="fill:#319341;" d="M338.367,190.949h-6.57c0.197-0.554,0.324-1.142,0.324-1.764c0-2.917-2.365-5.283-5.283-5.283
							h-6.684c1.209-1.289,1.955-3.017,1.955-4.924c0-1.249-0.318-2.424-0.878-3.448h-43.484c-4.188,0-7.583,3.395-7.583,7.583
							s3.395,7.583,7.583,7.583h9.472c-3.258,1.756-5.472,5.198-5.472,9.158l0,0c0,2.511,0.89,4.814,2.372,6.612H264.51
							c-3.103,0-5.619,2.516-5.619,5.619v0c0,3.103,2.516,5.619,5.619,5.619h12.396c-1.731,1.994-2.786,4.59-2.786,7.438v0
							c0,0.47,0.037,0.931,0.093,1.386h-5.392c-3.436,0-6.221,2.785-6.221,6.221c0,3.436,2.785,6.221,6.221,6.221h48.938
							c1.729-1.913,2.79-4.441,2.79-7.222v0c0-1.075-0.162-2.112-0.455-3.092h1.836c4.028,0,7.293-3.265,7.293-7.293
							c0-1.804-0.659-3.452-1.744-4.725h0.502c4.447,0,8.052-3.605,8.052-8.053c0-2.369-1.029-4.492-2.657-5.965h4.99
							c3.223,0,5.836-2.613,5.836-5.836C344.202,193.562,341.589,190.949,338.367,190.949z"/>
					</g>
					<g>
						<path style="fill:#3B984A;" d="M234.551,214.548c0-4.42-3.583-8.004-8.004-8.004h-24.124c0.441-0.863,0.695-1.839,0.695-2.875
							c0-0.769-0.144-1.503-0.395-2.185h13.018c2.392,0,4.332-1.939,4.332-4.332c0-2.392-1.939-4.332-4.332-4.332h-3.072
							c0.175-0.48,0.286-0.992,0.286-1.533c0-2.486-2.016-4.502-4.502-4.502h-12.595c-2.486,0-4.502,2.016-4.502,4.502
							c0,0.541,0.111,1.053,0.286,1.533h-3.072c-2.392,0-4.332,1.939-4.332,4.332c0,0.062,0.016,0.12,0.018,0.181H169.5
							c0.629-1.059,0.997-2.292,0.997-3.613c0-3.918-3.176-7.093-7.093-7.093h-19.846c-3.918,0-7.094,3.176-7.094,7.093
							c0,1.321,0.368,2.554,0.997,3.613h-2.597c-3.499,0-6.335,2.836-6.335,6.335c0,3.499,2.836,6.335,6.335,6.335h3.199
							c-1.007,1.543-1.598,3.383-1.598,5.363c0,0.195,0.018,0.386,0.029,0.579H124.47c-6.162,0-11.157,4.995-11.157,11.157
							c0,6.162,4.995,11.157,11.157,11.157h19.395c0.876,5.33,5.492,9.4,11.069,9.4h29.861c5.578,0,10.193-4.07,11.069-9.4h3.334
							c5.601,0,10.225-4.132,11.022-9.512h14.026c3.241,0,5.869-2.628,5.869-5.869v0c0-0.384-0.039-0.759-0.11-1.122
							C232.692,220.466,234.551,217.728,234.551,214.548z"/>
						<path style="fill:#319341;" d="M195.865,238.26h3.334c5.601,0,10.225-4.132,11.022-9.512h14.026
							c3.241,0,5.869-2.628,5.869-5.869v0c0-0.384-0.039-0.759-0.11-1.122c2.686-1.291,4.545-4.03,4.545-7.21
							c0-4.42-3.583-8.004-8.004-8.004h-24.124c0.441-0.863,0.695-1.839,0.695-2.875c0-0.769-0.144-1.503-0.395-2.185h13.018
							c2.392,0,4.332-1.939,4.332-4.332c0-2.392-1.939-4.332-4.332-4.332h-3.072c0.175-0.48,0.286-0.992,0.286-1.533
							c0-2.486-2.016-4.502-4.502-4.502h-12.595c-2.486,0-4.502,2.016-4.502,4.502c0,0.541,0.111,1.053,0.286,1.533h-3.072
							c-2.392,0-4.332,1.939-4.332,4.332c0,0.062,0.016,0.12,0.018,0.181H169.5c0.629-1.059,0.997-2.292,0.997-3.613
							c0-0.119-0.012-0.235-0.018-0.353h-9.432c-3.926,0-7.108,3.182-7.108,7.108c0,3.926,3.182,7.108,7.108,7.108h1.651
							c-2.456,0.466-4.315,2.617-4.315,5.209c0,2.932,2.377,5.309,5.309,5.309h15.402c-0.601,1.036-0.951,2.236-0.951,3.52
							c0,2.33,1.138,4.39,2.883,5.67h-9.283c-3.813,0-6.905,3.091-6.905,6.905v0c0,3.813,3.091,6.905,6.905,6.905h10.31
							c-0.496,0.95-0.78,2.029-0.78,3.175c0,1.231,0.327,2.383,0.893,3.383h2.629C190.373,247.66,194.988,243.589,195.865,238.26z"
							/>
					</g>
					<g>
						<path style="fill:#4BAB52;" d="M457.037,202.65c1.496-1.904,2.396-4.299,2.396-6.908c0-6.187-5.015-11.202-11.202-11.202
							h-36.591c-4.272,0-7.984,2.393-9.873,5.911h-13.872c-3.389,0-6.256,2.223-7.228,5.29h-16.494
							c-6.187,0-11.202,5.015-11.202,11.202c0,6.186,5.015,11.202,11.202,11.202h16.281c0.846,5.771,5.802,10.206,11.808,10.206
							h9.896c0.444,3.396,3.341,6.02,6.858,6.02h32.592c3.824,0,6.924-3.1,6.924-6.924s-3.1-6.924-6.924-6.924h-5.881
							c0.318-0.863,0.544-1.769,0.655-2.712h20.549c4.188,0,7.583-3.395,7.583-7.583
							C464.513,206.076,461.175,202.708,457.037,202.65z"/>
						<path style="fill:#3DA545;" d="M448.531,227.447c0-3.824-3.1-6.924-6.924-6.924h-5.881c0.317-0.863,0.544-1.769,0.655-2.712
							h20.549c4.188,0,7.583-3.395,7.583-7.583c0-4.152-3.338-7.52-7.476-7.577c1.496-1.904,2.396-4.299,2.396-6.908
							c0-6.187-5.015-11.202-11.202-11.202h-10.033c-0.445,0.765-0.718,1.642-0.718,2.591c0,1.794,0.911,3.374,2.295,4.304h-4.594
							c-1.918,0-3.473,1.555-3.473,3.473c0,0.184,0.027,0.362,0.054,0.538h-5.19c-2.674,0-4.842,2.168-4.842,4.842
							c0,2.674,2.168,4.842,4.842,4.842h2.561c-2.141,1.221-3.588,3.52-3.588,6.162c0,2.102,0.92,3.985,2.373,5.284h-15.628
							c-2.512,0-4.549,2.037-4.549,4.549s2.037,4.549,4.549,4.549h8.457c-1.555,1.396-2.538,3.415-2.538,5.669v0
							c0,1.076,0.225,2.098,0.627,3.027h22.772C445.431,234.371,448.531,231.271,448.531,227.447z"/>
					</g>
					<g>
						<path style="fill:#47A94E;" d="M298.534,201.873h-22.394c-2.071-6.742-8.345-11.644-15.766-11.644h-7.584
							c-1.007-1.487-2.71-2.464-4.64-2.464h-40.593c-3.093,0-5.601,2.507-5.601,5.601h-7.093c-6.426,0-11.635,5.209-11.635,11.635
							l0,0c0,6.426,5.209,11.635,11.635,11.635h14.819c-0.127,0.824-0.213,1.662-0.213,2.522v0c0,0.739,0.065,1.461,0.16,2.175
							c-3.643,1.16-6.283,4.569-6.283,8.596c0,4.983,4.04,9.023,9.023,9.023h30.968c1.287,0,2.509-0.274,3.617-0.76
							c0.355,4.659,4.239,8.331,8.988,8.331h30.968c4.983,0,9.023-4.04,9.023-9.023l0,0c0-4.983-4.04-9.023-9.023-9.023h-3.034
							c0.598-1.085,0.941-2.33,0.941-3.657v0c0-1.87-0.68-3.579-1.802-4.901h15.519c4.983,0,9.023-4.04,9.023-9.023l0,0
							C307.558,205.912,303.518,201.873,298.534,201.873z"/>
						<g>
							<path style="fill:#3DA545;" d="M270.268,243.379c0-4.321-3.503-7.824-7.824-7.824h-27.616
								c0.407-1.127,0.641-2.336,0.641-3.603c0-0.338-0.02-0.67-0.05-1h21.477c2.386,0,4.321-1.934,4.321-4.321
								s-1.934-4.321-4.321-4.321h-16.617c1.201-0.895,1.989-2.313,1.989-3.925c0-2.71-2.197-4.907-4.907-4.907h-21.201
								c0.209-0.464,0.332-0.976,0.332-1.518c0-2.047-1.659-3.706-3.706-3.706H183.7c1.409,4.84,5.869,8.381,11.164,8.381h14.819
								c-0.127,0.824-0.213,1.662-0.213,2.522v0c0,0.739,0.065,1.461,0.16,2.175c-3.643,1.16-6.283,4.569-6.283,8.596
								c0,4.983,4.04,9.023,9.023,9.023h30.968c1.287,0,2.509-0.274,3.617-0.76c0.355,4.659,4.239,8.331,8.988,8.331h13.662
								C270.029,245.56,270.268,244.498,270.268,243.379z"/>
							<path style="fill:#3DA545;" d="M276.141,201.873c-2.071-6.742-8.345-11.644-15.766-11.644h-7.584
								c-1.007-1.487-2.71-2.464-4.64-2.464h-17.059c-0.198,0.389-0.32,0.824-0.32,1.29c0,1.585,1.285,2.87,2.87,2.87h6.63
								c-0.379,0.73-0.614,1.547-0.614,2.426v0c0,2.925,2.371,5.296,5.296,5.296h12.431c-0.008,0.105-0.031,0.205-0.031,0.312
								c0,2.343,1.899,4.242,4.242,4.242h24.853c1.65,0,3.064-0.952,3.765-2.327H276.141z"/>
						</g>
					</g>
				</g>
				<g style="clip-path:url(#SVGID_00000153688523395041728680000006207783039208912259_);">
					<g>
						<rect x="9.882" y="351.502" style="fill:#5E5D6A;" width="482.087" height="139.379"/>
						<g>
							<path style="fill:#4C4B59;" d="M340.848,439.817c0-4.814-3.903-8.717-8.717-8.717h-25.509
								c0.031-0.332,0.051-0.666,0.051-1.006c0-5.976-4.845-10.821-10.821-10.821h-29.827c0.231-0.784,0.361-1.612,0.361-2.471
								c0-0.696-0.09-1.37-0.244-2.018h32.681c3.334,0,6.038-2.703,6.038-6.038c0-3.334-2.703-6.038-6.038-6.038h-51.825
								c-3.111,0-5.67,2.353-6,5.377h-33.061c-4.814,0-8.717,3.903-8.717,8.717c0,4.188,2.954,7.683,6.892,8.522
								c-0.71,1.44-1.119,3.055-1.119,4.77c0,2.373,0.773,4.56,2.068,6.344h-7.269c-6.68,0-12.096,5.416-12.096,12.096
								c0,6.68,5.416,12.096,12.096,12.096h21.31c-0.125,0.589-0.194,1.198-0.194,1.824v0c0,4.814,3.903,8.717,8.717,8.717h36.204
								c-0.642,1.214-1.009,2.596-1.009,4.066c0,4.814,3.903,8.717,8.717,8.717h49.732c4.814,0,8.717-3.903,8.717-8.717
								s-3.903-8.717-8.717-8.717h-36.204c0.642-1.214,1.009-2.596,1.009-4.065v0c0-0.626-0.069-1.236-0.195-1.824h34.484
								c6.68,0,12.096-5.416,12.096-12.096c0-0.108-0.013-0.212-0.016-0.32C338.133,447.201,340.848,443.83,340.848,439.817z"/>
							<path style="fill:#4C4B59;" d="M317.056,357.252h-8.182c0.098-0.328,0.167-0.668,0.167-1.028
								c0-1.988-1.612-3.601-3.601-3.601H179.004c-1.989,0-3.601,1.612-3.601,3.601c0,1.989,1.612,3.601,3.601,3.601h2.445
								c-0.965,1.191-1.546,2.708-1.546,4.361c0,3.829,3.104,6.934,6.933,6.934h3.632c0,3.134,2.541,5.674,5.674,5.674h39.072
								c-0.34,0.797-0.529,1.674-0.529,2.596l0,0c0,3.658,2.965,6.623,6.623,6.623h52.885c3.658,0,6.623-2.965,6.623-6.623l0,0
								c0-3.658-2.965-6.623-6.623-6.623h-10.057c0.158-0.522,0.245-1.074,0.245-1.648c0-0.326-0.034-0.644-0.086-0.955h32.761
								c3.566,0,6.456-2.89,6.456-6.456C323.512,360.142,320.622,357.252,317.056,357.252z"/>
							<path style="fill:#4C4B59;" d="M174.691,381.745h-9.751c2.188-1.584,3.617-4.152,3.617-7.059v0
								c0-4.211-2.985-7.724-6.955-8.539c0.001-0.06,0.009-0.118,0.009-0.178v0c0-4.814-3.903-8.717-8.717-8.717h-6.158
								c0.002-0.062,0.009-0.122,0.009-0.184c0-3.931-3.186-7.117-7.117-7.117H89.781c-1.675,0-3.212,0.583-4.428,1.551H29.778
								c-5.153,0-9.331,4.178-9.331,9.331v0c0,5.153,4.177,9.331,9.331,9.331H47.29c-0.804,1.32-1.275,2.864-1.275,4.522v0
								c0,4.814,3.903,8.717,8.717,8.717h9.751c-2.188,1.584-3.617,4.152-3.617,7.059v0c0,4.814,3.903,8.717,8.717,8.717h22.016
								c0.448,4.395,4.159,7.823,8.672,7.823h16.319c-0.24,0.732-0.373,1.512-0.373,2.324c0,4.129,3.347,7.476,7.476,7.476h41.799
								c4.129,0,7.476-3.347,7.476-7.476s-3.347-7.476-7.476-7.476h-7.539c0.373-0.831,0.627-1.727,0.723-2.672h16.016
								c4.814,0,8.717-3.903,8.717-8.717v0C183.408,385.647,179.505,381.745,174.691,381.745z"/>
							<path style="fill:#4C4B59;" d="M485.397,348.999h-93.06c-3.755,0-6.947,2.378-8.176,5.706h-42.228
								c-3.098,0-5.609,2.511-5.609,5.609c0,0.746,0.149,1.457,0.413,2.108c-4.261,0.571-7.551,4.212-7.551,8.63l0,0
								c0,4.814,3.903,8.717,8.717,8.717h7.084c-0.017,0.221-0.034,0.442-0.034,0.667c0,4.814,3.903,8.717,8.717,8.717h22.606
								c-0.01,0.138-0.021,0.275-0.021,0.416c0,1.568,0.645,2.984,1.682,4.002h-16.534c-3.098,0-5.609,2.511-5.609,5.609v0
								c0,3.098,2.511,5.609,5.609,5.609h21.442c-0.782,0.964-1.252,2.192-1.252,3.53c0,3.098,2.511,5.609,5.609,5.609h36.811
								c3.098,0,5.609-2.511,5.609-5.609s-2.511-5.609-5.609-5.609h-15.591c0.782-0.964,1.252-2.191,1.252-3.53v0
								c0-1.568-0.645-2.984-1.682-4.002h21.872c3.098,0,5.609-2.511,5.609-5.609c0-0.282-0.028-0.557-0.068-0.828
								c3.52-1.121,6.07-4.414,6.07-8.305c0-0.355-0.027-0.703-0.069-1.047h3.917c3.574,0,6.471-2.897,6.471-6.471
								c0-0.051-0.007-0.1-0.008-0.151h26.359c2.448,0,4.432-1.984,4.432-4.432c0-0.678-0.165-1.314-0.437-1.888h3.257
								c4.818,0,8.724-3.906,8.724-8.724C494.121,352.905,490.215,348.999,485.397,348.999z"/>
						</g>
					</g>
					<g>
						<rect x="60.744" y="344.682" style="fill:#B9C8D6;" width="415.098" height="8.164"/>
						<g>
							
								<line style="fill:none;stroke:#01265A;stroke-width:0.7;stroke-linecap:round;stroke-linejoin:round;stroke-miterlimit:10;" x1="441.49" y1="344.682" x2="441.49" y2="352.931"/>
							
								<line style="fill:none;stroke:#01265A;stroke-width:0.7;stroke-linecap:round;stroke-linejoin:round;stroke-miterlimit:10;" x1="400.498" y1="344.682" x2="400.498" y2="352.931"/>
							
								<line style="fill:none;stroke:#01265A;stroke-width:0.7;stroke-linecap:round;stroke-linejoin:round;stroke-miterlimit:10;" x1="359.507" y1="344.682" x2="359.507" y2="352.931"/>
							
								<line style="fill:none;stroke:#01265A;stroke-width:0.7;stroke-linecap:round;stroke-linejoin:round;stroke-miterlimit:10;" x1="318.515" y1="344.682" x2="318.515" y2="352.931"/>
							
								<line style="fill:none;stroke:#01265A;stroke-width:0.7;stroke-linecap:round;stroke-linejoin:round;stroke-miterlimit:10;" x1="277.523" y1="344.682" x2="277.523" y2="352.931"/>
							
								<line style="fill:none;stroke:#01265A;stroke-width:0.7;stroke-linecap:round;stroke-linejoin:round;stroke-miterlimit:10;" x1="236.531" y1="344.682" x2="236.531" y2="352.931"/>
							
								<line style="fill:none;stroke:#01265A;stroke-width:0.7;stroke-linecap:round;stroke-linejoin:round;stroke-miterlimit:10;" x1="195.539" y1="344.682" x2="195.539" y2="352.931"/>
							
								<line style="fill:none;stroke:#01265A;stroke-width:0.7;stroke-linecap:round;stroke-linejoin:round;stroke-miterlimit:10;" x1="154.547" y1="344.682" x2="154.547" y2="352.931"/>
							
								<line style="fill:none;stroke:#01265A;stroke-width:0.7;stroke-linecap:round;stroke-linejoin:round;stroke-miterlimit:10;" x1="113.555" y1="344.682" x2="113.555" y2="352.931"/>
							
								<line style="fill:none;stroke:#01265A;stroke-width:0.7;stroke-linecap:round;stroke-linejoin:round;stroke-miterlimit:10;" x1="72.563" y1="344.682" x2="72.563" y2="352.931"/>
						</g>
					</g>
				</g>
				<g style="clip-path:url(#SVGID_00000153688523395041728680000006207783039208912259_);">
					<g>
						<path style="fill:#01265A;" d="M200.714,370.74c-1.105,0-2-0.896-2-2v-83.365c0-1.104,0.895-2,2-2c1.104,0,2,0.896,2,2v83.365
							C202.714,369.844,201.818,370.74,200.714,370.74z"/>
						<path style="fill:#01265A;" d="M302.18,370.74c-1.104,0-2-0.896-2-2v-83.365c0-1.104,0.896-2,2-2s2,0.896,2,2v83.365
							C304.18,369.844,303.285,370.74,302.18,370.74z"/>
						<path style="fill:#01265A;" d="M187.299,347.018c-1.379,0-2.499-1.117-2.5-2.497c-0.001-1.381,1.117-2.502,2.497-2.503
							l128.294-0.127c0.001,0,0.002,0,0.003,0c1.38,0,2.499,1.117,2.5,2.497c0.001,1.381-1.117,2.502-2.497,2.503l-128.295,0.127
							C187.301,347.018,187.3,347.018,187.299,347.018z"/>
						<g>
							<path style="fill:#4C37A5;" d="M315.595,344.518H187.299c-3.184,0-5.765-2.581-5.765-5.765l0,0
								c0-3.184,2.581-5.765,5.765-5.765h128.295c3.184,0,5.765,2.581,5.765,5.765l0,0
								C321.36,341.936,318.779,344.518,315.595,344.518z"/>
							<path style="fill:#8F8BEA;" d="M315.595,332.987h-56.962l11.531,11.531h45.431c3.184,0,5.765-2.581,5.765-5.765v0
								C321.36,335.568,318.779,332.987,315.595,332.987z"/>
						</g>
						<path style="fill:#01265A;" d="M302.18,359.824H200.714c-0.552,0-1-0.447-1-1c0-0.553,0.448-1,1-1H302.18c0.553,0,1,0.447,1,1
							C303.18,359.377,302.733,359.824,302.18,359.824z"/>
						<g>
							<g>
								<g>
									<path style="fill:#4C37A5;" d="M305.421,292.263H197.473c-3.184,0-5.765-2.581-5.765-5.765l0,0
										c0-3.184,2.581-5.765,5.765-5.765h107.947c3.184,0,5.765,2.581,5.765,5.765l0,0
										C311.186,289.682,308.605,292.263,305.421,292.263z"/>
									<path style="fill:#8F8BEA;" d="M311.186,286.498c0-3.184-2.581-5.765-5.765-5.765h-88.414l13.991,11.531h74.422
										C308.605,292.263,311.186,289.682,311.186,286.498z"/>
								</g>
								<path style="fill:#01265A;" d="M199.59,286.498c0-0.62,0.503-1.124,1.124-1.124c0.621,0,1.124,0.503,1.124,1.124
									c0,0.621-0.503,1.124-1.124,1.124C200.093,287.621,199.59,287.118,199.59,286.498z"/>
								<path style="fill:#01265A;" d="M301.057,286.498c0-0.62,0.503-1.124,1.124-1.124s1.124,0.503,1.124,1.124
									c0,0.621-0.503,1.124-1.124,1.124S301.057,287.118,301.057,286.498z"/>
							</g>
							<g>
								<g>
									<path style="fill:#4C37A5;" d="M305.421,306.973H197.473c-3.184,0-5.765-2.581-5.765-5.765l0,0
										c0-3.184,2.581-5.765,5.765-5.765h107.947c3.184,0,5.765,2.581,5.765,5.765l0,0
										C311.186,304.392,308.605,306.973,305.421,306.973z"/>
									<path style="fill:#8F8BEA;" d="M311.186,301.208c0-3.184-2.581-5.765-5.765-5.765h-70.565l13.991,11.531h56.573
										C308.605,306.973,311.186,304.392,311.186,301.208z"/>
								</g>
								<path style="fill:#01265A;" d="M199.59,301.208c0-0.621,0.503-1.124,1.124-1.124c0.621,0,1.124,0.503,1.124,1.124
									c0,0.62-0.503,1.124-1.124,1.124C200.093,302.331,199.59,301.828,199.59,301.208z"/>
								<path style="fill:#01265A;" d="M301.057,301.208c0-0.621,0.503-1.124,1.124-1.124s1.124,0.503,1.124,1.124
									c0,0.62-0.503,1.124-1.124,1.124S301.057,301.828,301.057,301.208z"/>
							</g>
							<g>
								<g>
									<path style="fill:#4C37A5;" d="M305.421,321.683H197.473c-3.184,0-5.765-2.581-5.765-5.765l0,0
										c0-3.184,2.581-5.765,5.765-5.765h107.947c3.184,0,5.765,2.581,5.765,5.765l0,0
										C311.186,319.102,308.605,321.683,305.421,321.683z"/>
									<path style="fill:#8F8BEA;" d="M311.186,315.918c0-3.184-2.581-5.765-5.765-5.765h-52.715l13.991,11.531h38.724
										C308.605,321.683,311.186,319.102,311.186,315.918z"/>
								</g>
								<path style="fill:#01265A;" d="M199.59,315.918c0-0.621,0.503-1.124,1.124-1.124c0.621,0,1.124,0.503,1.124,1.124
									s-0.503,1.124-1.124,1.124C200.093,317.041,199.59,316.538,199.59,315.918z"/>
								<path style="fill:#01265A;" d="M301.057,315.918c0-0.621,0.503-1.124,1.124-1.124s1.124,0.503,1.124,1.124
									s-0.503,1.124-1.124,1.124S301.057,316.538,301.057,315.918z"/>
							</g>
						</g>
					</g>
					<g>
						<path style="fill:#01265A;" d="M16.125,370.74c-1.104,0-2-0.896-2-2v-83.365c0-1.104,0.896-2,2-2s2,0.896,2,2v83.365
							C18.125,369.844,17.23,370.74,16.125,370.74z"/>
						<path style="fill:#01265A;" d="M117.592,370.74c-1.104,0-2-0.896-2-2v-83.365c0-1.104,0.896-2,2-2s2,0.896,2,2v83.365
							C119.592,369.844,118.697,370.74,117.592,370.74z"/>
						<path style="fill:#01265A;" d="M2.711,347.018c-1.379,0-2.499-1.117-2.5-2.497c-0.001-1.381,1.117-2.502,2.498-2.503
							l128.294-0.127c0.001,0,0.002,0,0.003,0c1.38,0,2.499,1.117,2.5,2.497c0.001,1.381-1.117,2.502-2.497,2.503L2.714,347.018
							C2.713,347.018,2.712,347.018,2.711,347.018z"/>
						<g>
							<path style="fill:#4C37A5;" d="M131.007,344.518H2.711c-3.184,0-5.765-2.581-5.765-5.765l0,0
								c0-3.184,2.581-5.765,5.765-5.765h128.295c3.184,0,5.765,2.581,5.765,5.765l0,0
								C136.772,341.936,134.191,344.518,131.007,344.518z"/>
							<path style="fill:#8F8BEA;" d="M131.007,332.987H74.045l11.531,11.531h45.431c3.184,0,5.765-2.581,5.765-5.765v0
								C136.772,335.568,134.191,332.987,131.007,332.987z"/>
						</g>
						<path style="fill:#01265A;" d="M117.592,359.824H16.125c-0.552,0-1-0.447-1-1c0-0.553,0.448-1,1-1h101.467
							c0.553,0,1,0.447,1,1C118.592,359.377,118.145,359.824,117.592,359.824z"/>
						<g>
							<g>
								<g>
									<path style="fill:#4C37A5;" d="M120.833,292.263H12.885c-3.184,0-5.765-2.581-5.765-5.765l0,0
										c0-3.184,2.581-5.765,5.765-5.765h107.947c3.184,0,5.765,2.581,5.765,5.765l0,0
										C126.598,289.682,124.017,292.263,120.833,292.263z"/>
									<path style="fill:#8F8BEA;" d="M126.598,286.498c0-3.184-2.581-5.765-5.765-5.765H32.419l13.991,11.531h74.422
										C124.017,292.263,126.598,289.682,126.598,286.498z"/>
								</g>
								<path style="fill:#01265A;" d="M15.002,286.498c0-0.62,0.503-1.124,1.124-1.124s1.124,0.503,1.124,1.124
									c0,0.621-0.503,1.124-1.124,1.124S15.002,287.118,15.002,286.498z"/>
								<path style="fill:#01265A;" d="M116.469,286.498c0-0.62,0.503-1.124,1.124-1.124c0.621,0,1.124,0.503,1.124,1.124
									c0,0.621-0.503,1.124-1.124,1.124C116.972,287.621,116.469,287.118,116.469,286.498z"/>
							</g>
							<g>
								<g>
									<path style="fill:#4C37A5;" d="M120.833,306.973H12.885c-3.184,0-5.765-2.581-5.765-5.765l0,0
										c0-3.184,2.581-5.765,5.765-5.765h107.947c3.184,0,5.765,2.581,5.765,5.765l0,0
										C126.598,304.392,124.017,306.973,120.833,306.973z"/>
									<path style="fill:#8F8BEA;" d="M126.598,301.208c0-3.184-2.581-5.765-5.765-5.765H50.268l13.991,11.531h56.573
										C124.017,306.973,126.598,304.392,126.598,301.208z"/>
								</g>
								<path style="fill:#01265A;" d="M15.002,301.208c0-0.621,0.503-1.124,1.124-1.124s1.124,0.503,1.124,1.124
									c0,0.62-0.503,1.124-1.124,1.124S15.002,301.828,15.002,301.208z"/>
								<path style="fill:#01265A;" d="M116.469,301.208c0-0.621,0.503-1.124,1.124-1.124c0.621,0,1.124,0.503,1.124,1.124
									c0,0.62-0.503,1.124-1.124,1.124C116.972,302.331,116.469,301.828,116.469,301.208z"/>
							</g>
							<g>
								<g>
									<path style="fill:#4C37A5;" d="M120.833,321.683H12.885c-3.184,0-5.765-2.581-5.765-5.765l0,0
										c0-3.184,2.581-5.765,5.765-5.765h107.947c3.184,0,5.765,2.581,5.765,5.765l0,0
										C126.598,319.102,124.017,321.683,120.833,321.683z"/>
									<path style="fill:#8F8BEA;" d="M126.598,315.918c0-3.184-2.581-5.765-5.765-5.765H68.117l13.991,11.531h38.724
										C124.017,321.683,126.598,319.102,126.598,315.918z"/>
								</g>
								<path style="fill:#01265A;" d="M15.002,315.918c0-0.621,0.503-1.124,1.124-1.124s1.124,0.503,1.124,1.124
									s-0.503,1.124-1.124,1.124S15.002,316.538,15.002,315.918z"/>
								<path style="fill:#01265A;" d="M116.469,315.918c0-0.621,0.503-1.124,1.124-1.124c0.621,0,1.124,0.503,1.124,1.124
									s-0.503,1.124-1.124,1.124C116.972,317.041,116.469,316.538,116.469,315.918z"/>
							</g>
						</g>
					</g>
					<g>
						<path style="fill:#01265A;" d="M428.18,370.74c-1.104,0-2-0.896-2-2v-83.365c0-1.104,0.896-2,2-2c1.105,0,2,0.896,2,2v83.365
							C430.18,369.844,429.285,370.74,428.18,370.74z"/>
						<path style="fill:#01265A;" d="M529.647,370.74c-1.104,0-2-0.896-2-2v-83.365c0-1.104,0.896-2,2-2s2,0.896,2,2v83.365
							C531.647,369.844,530.752,370.74,529.647,370.74z"/>
						<path style="fill:#01265A;" d="M414.766,347.018c-1.379,0-2.499-1.117-2.5-2.497c-0.001-1.381,1.117-2.502,2.498-2.503
							l128.294-0.127c0.001,0,0.002,0,0.003,0c1.38,0,2.499,1.117,2.5,2.497c0.001,1.381-1.117,2.502-2.497,2.503l-128.295,0.127
							C414.768,347.018,414.767,347.018,414.766,347.018z"/>
						<g>
							<path style="fill:#4C37A5;" d="M543.062,344.518H414.766c-3.184,0-5.765-2.581-5.765-5.765l0,0
								c0-3.184,2.581-5.765,5.765-5.765h128.295c3.184,0,5.765,2.581,5.765,5.765l0,0
								C548.827,341.936,546.246,344.518,543.062,344.518z"/>
							<path style="fill:#8F8BEA;" d="M543.062,332.987H486.1l11.531,11.531h45.431c3.184,0,5.765-2.581,5.765-5.765v0
								C548.827,335.568,546.246,332.987,543.062,332.987z"/>
						</g>
						<path style="fill:#01265A;" d="M529.647,359.824H428.18c-0.552,0-1-0.447-1-1c0-0.553,0.448-1,1-1h101.467
							c0.553,0,1,0.447,1,1C530.647,359.377,530.2,359.824,529.647,359.824z"/>
						<g>
							<g>
								<g>
									<path style="fill:#4C37A5;" d="M532.888,292.263H424.94c-3.184,0-5.765-2.581-5.765-5.765l0,0
										c0-3.184,2.581-5.765,5.765-5.765h107.948c3.184,0,5.765,2.581,5.765,5.765l0,0
										C538.653,289.682,536.072,292.263,532.888,292.263z"/>
									<path style="fill:#8F8BEA;" d="M538.653,286.498c0-3.184-2.581-5.765-5.765-5.765h-88.414l13.991,11.531h74.422
										C536.072,292.263,538.653,289.682,538.653,286.498z"/>
								</g>
								<path style="fill:#01265A;" d="M427.057,286.498c0-0.62,0.503-1.124,1.124-1.124s1.124,0.503,1.124,1.124
									c0,0.621-0.503,1.124-1.124,1.124S427.057,287.118,427.057,286.498z"/>
								<path style="fill:#01265A;" d="M528.524,286.498c0-0.62,0.503-1.124,1.124-1.124s1.124,0.503,1.124,1.124
									c0,0.621-0.503,1.124-1.124,1.124S528.524,287.118,528.524,286.498z"/>
							</g>
							<g>
								<g>
									<path style="fill:#4C37A5;" d="M532.888,306.973H424.94c-3.184,0-5.765-2.581-5.765-5.765l0,0
										c0-3.184,2.581-5.765,5.765-5.765h107.948c3.184,0,5.765,2.581,5.765,5.765l0,0
										C538.653,304.392,536.072,306.973,532.888,306.973z"/>
									<path style="fill:#8F8BEA;" d="M538.653,301.208c0-3.184-2.581-5.765-5.765-5.765h-70.565l13.991,11.531h56.573
										C536.072,306.973,538.653,304.392,538.653,301.208z"/>
								</g>
								<path style="fill:#01265A;" d="M427.057,301.208c0-0.621,0.503-1.124,1.124-1.124s1.124,0.503,1.124,1.124
									c0,0.62-0.503,1.124-1.124,1.124S427.057,301.828,427.057,301.208z"/>
								<path style="fill:#01265A;" d="M528.524,301.208c0-0.621,0.503-1.124,1.124-1.124s1.124,0.503,1.124,1.124
									c0,0.62-0.503,1.124-1.124,1.124S528.524,301.828,528.524,301.208z"/>
							</g>
							<g>
								<g>
									<path style="fill:#4C37A5;" d="M532.888,321.683H424.94c-3.184,0-5.765-2.581-5.765-5.765l0,0
										c0-3.184,2.581-5.765,5.765-5.765h107.948c3.184,0,5.765,2.581,5.765,5.765l0,0
										C538.653,319.102,536.072,321.683,532.888,321.683z"/>
									<path style="fill:#8F8BEA;" d="M538.653,315.918c0-3.184-2.581-5.765-5.765-5.765h-52.716l13.991,11.531h38.724
										C536.072,321.683,538.653,319.102,538.653,315.918z"/>
								</g>
								<path style="fill:#01265A;" d="M427.057,315.918c0-0.621,0.503-1.124,1.124-1.124s1.124,0.503,1.124,1.124
									s-0.503,1.124-1.124,1.124S427.057,316.538,427.057,315.918z"/>
								<path style="fill:#01265A;" d="M528.524,315.918c0-0.621,0.503-1.124,1.124-1.124s1.124,0.503,1.124,1.124
									s-0.503,1.124-1.124,1.124S528.524,316.538,528.524,315.918z"/>
							</g>
						</g>
					</g>
				</g>
			</g>
		</g>
		<g>
			<g>
				<path style="fill:#CFCBEF;" d="M262.215,305.589l-35.646,3.537c-4.801,0.476-9.079-3.03-9.556-7.831l-3.651-36.798
					c-0.476-4.801,3.029-9.079,7.831-9.556l35.646-3.537c4.801-0.476,9.079,3.029,9.556,7.831l3.651,36.798
					C270.522,300.835,267.017,305.113,262.215,305.589z"/>
				<g>
					<g>
						<path style="fill:#4A9CFF;" d="M342.475,444.362c-0.292-0.438-0.751-0.783-1.238-0.929l-23.352-6.996
							c-0.552-0.165-1.101-0.272-1.639-0.331c0.159-0.417,0.177-0.921,0.022-1.469l-6.794-24.013h-20.286l9.49,24.013
							c0.28,0.71,0.802,1.341,1.429,1.809c-0.331,0.331-0.461,0.841-0.299,1.433l1.977,7.183c0.232,0.844,1.148,1.556,1.991,1.549
							l37.975-0.341C342.733,446.262,343.099,445.298,342.475,444.362z"/>
						<path style="fill:#4A9CFF;" d="M277.312,443.434l-18.474-6.996c-0.437-0.165-0.911-0.272-1.408-0.331
							c0.449-0.417,0.819-0.921,1.046-1.469l9.949-24.013h-20.286l-7.254,24.013c-0.214,0.71-0.133,1.341,0.167,1.809
							c-0.562,0.331-1.048,0.841-1.298,1.433l-3.031,7.183c-0.356,0.844,0.063,1.556,0.911,1.549l38.213-0.341
							c0.988-0.009,2.025-0.972,2.054-1.908C277.916,443.924,277.697,443.579,277.312,443.434z"/>
						<g>
							<path style="fill:#F4E52A;" d="M262.604,243.996l-16.121,1.594c0,0-2.836,4.255-6.568,6.779
								c-3.732,2.523-10.598,11.629-10.598,11.629s2.538,16.377,5.224,23.787s2.239,12.588,2.09,15.373
								c-0.149,2.784-4.777,22.935-2.09,35.325c2.687,12.389,15.076,35.675,14.33,37.914c-0.746,2.239-5.374,20.897-5.075,28.361
								c0.299,7.463,0.851,8.644,1.903,9.553c1.052,0.909,2.351,0.224,2.351,0.224s3.694,4.739,7.874,4.739
								c4.18,0,5.187-0.56,5.187-0.56s2.351,1.493,5.486-0.149c3.135-1.642,3.508-5.784,4.441-8.844
								c0.933-3.06,1.381-4.329,3.694-10.598c2.314-6.269,4.142-12.912,4.142-12.912s2.289,4.615,2.786,7.401
								c0.498,2.786,1.194,14.578,5.125,19.554c3.931,4.976,7.812,3.334,7.812,3.334s4.627,1.194,9.056-0.099
								c4.428-1.294,4.777-3.085,4.777-3.085s2.886-1.301,3.781-2.69c0.896-1.39,2.139-4.325,0.597-9.052
								c-1.542-4.727-8.11-22.564-8.334-25.55c-0.224-2.985-0.075-4.777-1.493-10.076c-1.418-5.299-9.105-23.808-12.986-32.316
								c-3.881-8.508-10.374-29.951-11.643-32.402c-1.269-2.451-2.538-3.198-2.538-3.198s2.463-2.015,3.209-6.344
								c0.746-4.329,0.298-6.941,0.597-10.523c0.299-3.582,2.538-7.837,2.388-13.359c-0.149-5.523-4.926-18.658-4.926-18.658
								s-5.777-1.583-8.658-2.065c-2.542-0.425-3.856-1.02-4.354-1.567C263.574,244.966,262.604,243.996,262.604,243.996z"/>
							<g>
								<g>
									
										<path style="fill:none;stroke:#01265A;stroke-width:0.7;stroke-linecap:round;stroke-linejoin:round;stroke-miterlimit:10;" d="
										M248.82,376.793c2.37-4.552,7.214-7.714,12.335-8.053"/>
									
										<path style="fill:none;stroke:#01265A;stroke-width:0.7;stroke-linecap:round;stroke-linejoin:round;stroke-miterlimit:10;" d="
										M248.891,376.659c-0.079-4.185,2.108-8.905,5.599-11.215"/>
								</g>
								
									<path style="fill:none;stroke:#01265A;stroke-width:0.7;stroke-linecap:round;stroke-linejoin:round;stroke-miterlimit:10;" d="
									M260.676,418.83c1.877-0.57,3.41-2.16,3.911-4.056"/>
								
									<path style="fill:none;stroke:#01265A;stroke-width:0.7;stroke-linecap:round;stroke-linejoin:round;stroke-miterlimit:10;" d="
									M248.424,414.954c-1.052-1.171-1.635-2.753-1.593-4.326"/>
								
									<path style="fill:none;stroke:#01265A;stroke-width:0.7;stroke-linecap:round;stroke-linejoin:round;stroke-miterlimit:10;" d="
									M295.11,416.616c-2.003-0.458-3.796-1.771-4.839-3.542"/>
								<g>
									
										<path style="fill:none;stroke:#01265A;stroke-width:0.7;stroke-linecap:round;stroke-linejoin:round;stroke-miterlimit:10;" d="
										M308.17,413.704c0.397-0.671,0.399-1.529,0.119-2.256c-0.28-0.727-0.816-1.333-1.43-1.812
										c-0.614-0.479-1.309-0.843-1.999-1.204"/>
									
										<path style="fill:none;stroke:#01265A;stroke-width:0.7;stroke-linecap:round;stroke-linejoin:round;stroke-miterlimit:10;" d="
										M309.041,410.568c-0.504-0.66-1.012-1.326-1.36-2.08c-0.348-0.754-0.527-1.612-0.341-2.421"/>
								</g>
								<g>
									
										<path style="fill:none;stroke:#01265A;stroke-width:0.7;stroke-linecap:round;stroke-linejoin:round;stroke-miterlimit:10;" d="
										M277.382,391.254c0,0,1.642-5.902,2.314-7.469c0.672-1.567,1.343-3.732,0.896-8.21c-0.448-4.478-2.761-7.723-3.508-10.131
										c-0.746-2.408-3.922-13.155-5.655-18.678c-1.733-5.523-3.077-8.657-3.077-8.657c2.401-3.015,3.099-7.132,3.077-11.715"/>
									
										<path style="fill:none;stroke:#01265A;stroke-width:0.7;stroke-linecap:round;stroke-linejoin:round;stroke-miterlimit:10;" d="
										M268.351,338.109c1.706-0.221,3.202-0.98,4.511-2.096c1.309-1.116,2.39-2.471,3.462-3.818"/>
								</g>
								<g>
									
										<path style="fill:none;stroke:#01265A;stroke-width:0.7;stroke-linecap:round;stroke-linejoin:round;stroke-miterlimit:10;" d="
										M266.386,299.918c3.272,0.013,6.847-0.058,9.572-1.869c1.15-0.764,1.892-1.885,2.703-4.814
										c0.811-2.929,0.782-5.169,0.801-5.84"/>
									
										<path style="fill:none;stroke:#01265A;stroke-width:0.7;stroke-linecap:round;stroke-linejoin:round;stroke-miterlimit:10;" d="
										M270.198,302.578c0.573,0.066,1.128-0.206,1.622-0.504c1.652-0.995,3.075-2.369,4.127-3.985"/>
								</g>
							</g>
						</g>
					</g>
					<g>
						<g>
							<path style="fill:#F4E52A;" d="M244.872,247.708c0,0,1.238-0.204,0.566-3.712c-0.672-3.508-8.658-14.628-5.523-21.868
								c3.135-7.239,13.732-5.821,17.688-4.105c3.956,1.717,6.195,1.866,8.21,7.911s0.583,16.195,1.94,18.733
								c1.358,2.538,3.047,2.896,3.047,2.896s-1.8,5.794-7.674,7.255C248.424,258.475,244.872,247.708,244.872,247.708z"/>
							<g>
								<g>
									
										<path style="fill:none;stroke:#01265A;stroke-width:0.7;stroke-linecap:round;stroke-linejoin:round;stroke-miterlimit:10;" d="
										M270.268,247.492c-2.453,3.775-6.002,6.83-10.101,8.694"/>
									
										<path style="fill:none;stroke:#01265A;stroke-width:0.7;stroke-linecap:round;stroke-linejoin:round;stroke-miterlimit:10;" d="
										M263.418,254.539c1.331,3.005,2.68,6.078,2.97,9.352c0.274,3.094-0.417,6.188-1.232,9.185
										c-0.815,2.997-1.764,5.985-2.025,9.08c-0.261,3.095,0.235,6.374,2.071,8.879"/>
								</g>
								<g>
									
										<path style="fill:none;stroke:#01265A;stroke-width:0.7;stroke-linecap:round;stroke-linejoin:round;stroke-miterlimit:10;" d="
										M244.567,247.819c-0.214,2.59,1.157,5.246,3.392,6.572"/>
									
										<path style="fill:none;stroke:#01265A;stroke-width:0.7;stroke-linecap:round;stroke-linejoin:round;stroke-miterlimit:10;" d="
										M244.567,247.819c0.248,1.272,1.205,2.059,2.301,2.751c1.096,0.692,2.48,0.909,3.735,0.587"/>
								</g>
							</g>
						</g>
						<path style="fill:#FFD592;" d="M256.982,224.193c5.476-0.623,8.458,3.931,8.906,8.558c0.448,4.627,1.045,14.728-2.388,16.917
							c-3.433,2.189-7.911,0.408-10.349-1.961c-2.438-2.368-4.677-10.578-4.677-13.961
							C248.473,230.363,250.862,224.89,256.982,224.193z"/>
						<path style="fill:#B1E7FC;" d="M250.505,243.643c-0.094-0.284-0.013-0.59,0.207-0.792c1.422-1.308,6.861-6.135,9.989-6.393
							c3.048-0.251,5.037,1.878,5.59,2.558c0.102,0.126,0.163,0.274,0.172,0.435c0.089,1.524,0.386,10.094-4.158,11.21
							C254.086,252.68,251.142,245.568,250.505,243.643z"/>
						<path style="fill:#4A9CFF;stroke:#01265A;stroke-linecap:round;stroke-linejoin:round;stroke-miterlimit:10;" d="
							M247.902,234.791c-0.053-0.389,0.191-0.751,0.572-0.844c2.034-0.493,8.4-1.968,12.525-2.154
							c3.587-0.162,5.654-0.09,6.524-0.037c0.305,0.018,0.563,0.213,0.665,0.501c0.588,1.648,2.282,7.167-1.091,7.861
							c-3.972,0.818-5.054-2.317-6.323-2.093c-1.269,0.224-1.478,2.945-5.739,4.03C249.549,243.454,248.198,236.958,247.902,234.791
							z"/>
					</g>
				</g>
				<g>
					<g>
						<g>
							<path style="fill:#F4E52A;" d="M271.428,247.708c0,0,7.098,0.965,12.074,3.951c4.976,2.985,12.041,13.932,15.623,22.987
								c2.827,7.147,5.035,14.975,5.84,17.958c0.228,0.843,0.297,1.713,0.211,2.582c-0.331,3.351-1.414,12.159-3.961,16.467
								c-2.588,4.376-5.767,9.336-6.867,11.041c-0.222,0.345-0.675,0.448-1.028,0.239l-12.093-7.17
								c-0.2-0.119-0.335-0.318-0.366-0.549c-0.202-1.501-0.787-7.444,1.447-13.986c2.111-6.182,2.897-9.373,3.115-10.339
								c0.046-0.206,0.006-0.411-0.115-0.584c-0.692-0.991-3.177-4.644-4.791-8.297c-1.891-4.279-3.682-12.14-3.682-12.14
								L271.428,247.708z"/>
							<g>
								<g>
									
										<path style="fill:none;stroke:#01265A;stroke-width:0.7;stroke-linecap:round;stroke-linejoin:round;stroke-miterlimit:10;" d="
										M293.319,322.933l-12.093-7.17c-0.2-0.119-0.335-0.318-0.366-0.549c-0.202-1.501-0.787-7.444,1.447-13.986
										c2.111-6.182,2.897-9.373,3.115-10.339c2.123-2.076,5.365-2.911,8.197-2.019"/>
									
										<path style="fill:none;stroke:#01265A;stroke-width:0.7;stroke-linecap:round;stroke-linejoin:round;stroke-miterlimit:10;" d="
										M285.415,290.922c1.422-3.152,3.94-5.892,7.051-7.403"/>
									
										<path style="fill:none;stroke:#01265A;stroke-width:0.7;stroke-linecap:round;stroke-linejoin:round;stroke-miterlimit:10;" d="
										M291.458,290.276c1.551-0.076,3.124,0.461,4.305,1.469"/>
								</g>
								<g>
									
										<path style="fill:none;stroke:#01265A;stroke-width:0.7;stroke-linecap:round;stroke-linejoin:round;stroke-miterlimit:10;" d="
										M275.464,288.796c0.983-0.967,1.362-2.386,1.568-3.75c0.206-1.364,0.286-2.772,0.831-4.039
										c0.472-1.097,1.265-2.019,1.92-3.018c1.455-2.218,2.238-4.871,2.222-7.524"/>
									
										<path style="fill:none;stroke:#01265A;stroke-width:0.7;stroke-linecap:round;stroke-linejoin:round;stroke-miterlimit:10;" d="
										M279.505,278.4c2.67-0.344,5.539-1.782,7.091-3.981"/>
								</g>
							</g>
						</g>
						<g>
							<path style="fill:#4A9CFF;" d="M289.564,317.346c0,0-3.991-2.946-4.678-3.792c-0.687-0.846-4.419-2.139-6.658-0.398
								c-2.239,1.741-1.045,5.274-1.692,6.617c-0.647,1.343-0.05,5.523,1.891,6.369c1.94,0.846,3.757-0.597,4.627-2.015
								S289.564,317.346,289.564,317.346z"/>
							<g>
								
									<path style="fill:none;stroke:#01265A;stroke-width:1.5;stroke-linecap:round;stroke-linejoin:round;stroke-miterlimit:10;" d="
									M260.44,306.837c0,0-5.069-4.478-13.469-1.94c-8.399,2.538,2.87,35.75-6.384,38.81c-9.255,3.06-12.091-4.398-13.135-17.312
									c-1.045-12.914-3.358-22.978-3.358-22.978"/>
								<g>
									<path style="fill:none;stroke:#B1E7FC;stroke-linecap:round;stroke-linejoin:round;stroke-miterlimit:10;" d="
										M324.621,359.924c7.632,7.334,13.634,16.355,17.451,26.228"/>
									<path style="fill:none;stroke:#B1E7FC;stroke-linecap:round;stroke-linejoin:round;stroke-miterlimit:10;" d="
										M326.359,358.706c9.991,9.523,20.988,17.991,32.747,25.218"/>
									<path style="fill:none;stroke:#B1E7FC;stroke-linecap:round;stroke-linejoin:round;stroke-miterlimit:10;" d="
										M328.248,357.625c18.545,9.508,37.639,17.946,57.154,25.258"/>
									<path style="fill:none;stroke:#B1E7FC;stroke-linecap:round;stroke-linejoin:round;stroke-miterlimit:10;" d="
										M362.309,385.499c2.093,1.654,4.324,3.136,6.66,4.424"/>
									<path style="fill:none;stroke:#B1E7FC;stroke-linecap:round;stroke-linejoin:round;stroke-miterlimit:10;" d="
										M343.446,391.154c0.8,1.615,1.608,3.253,1.967,5.019c0.36,1.766,0.226,3.705-0.754,5.217"/>
									<path style="fill:none;stroke:#B1E7FC;stroke-linecap:round;stroke-linejoin:round;stroke-miterlimit:10;" d="
										M389.713,385.329c1.955,0.316,3.909,0.631,5.864,0.947"/>
									<path style="fill:none;stroke:#B1E7FC;stroke-linecap:round;stroke-linejoin:round;stroke-miterlimit:10;" d="
										M376.139,386.93c3.208,1.86,6.631,3.347,10.179,4.423"/>
									<path style="fill:none;stroke:#B1E7FC;stroke-linecap:round;stroke-linejoin:round;stroke-miterlimit:10;" d="
										M362.708,379.49c0.87,0.609,1.739,1.217,2.609,1.826"/>
									<path style="fill:none;stroke:#B1E7FC;stroke-linecap:round;stroke-linejoin:round;stroke-miterlimit:10;" d="
										M346.925,383.272c0.913,0.826,1.826,1.652,2.739,2.478"/>
									<path style="fill:none;stroke:#B1E7FC;stroke-linecap:round;stroke-linejoin:round;stroke-miterlimit:10;" d="
										M357.369,393.048c1.957,2.636,3.461,5.608,4.424,8.746"/>
									<path style="fill:none;stroke:#B1E7FC;stroke-linecap:round;stroke-linejoin:round;stroke-miterlimit:10;" d="
										M371.084,399.805c2.332,2.45,4.312,5.234,5.86,8.241"/>
									<path style="fill:none;stroke:#B1E7FC;stroke-linecap:round;stroke-linejoin:round;stroke-miterlimit:10;" d="
										M380.555,376.76c4.791,0.766,9.648,1.122,14.499,1.064"/>
									<path style="fill:none;stroke:#B1E7FC;stroke-linecap:round;stroke-linejoin:round;stroke-miterlimit:10;" d="
										M379.653,399.594c2.277,1.546,4.118,3.726,5.26,6.23"/>
									<path style="fill:none;stroke:#B1E7FC;stroke-linecap:round;stroke-linejoin:round;stroke-miterlimit:10;" d="
										M392.577,396.446c2.18,0.634,4.405,1.114,6.652,1.435"/>
									<path style="fill:none;stroke:#B1E7FC;stroke-linecap:round;stroke-linejoin:round;stroke-miterlimit:10;" d="
										M402.751,392.245c1.522-0.042,3.044-0.084,4.565-0.125"/>
								</g>
								<g>
									
										<rect x="287.041" y="290.295" transform="matrix(0.6226 -0.7825 0.7825 0.6226 -148.7247 349.6944)" style="fill:#CFCBEF;" width="2.289" height="77.488"/>
									
										<rect x="310.771" y="346.261" transform="matrix(0.6226 -0.7825 0.7825 0.6226 -154.6961 376.0635)" style="fill:#01265A;" width="3.533" height="4.304"/>
									
										<rect x="284.735" y="325.997" transform="matrix(0.6226 -0.7825 0.7825 0.6226 -148.3122 347.8625)" style="fill:#5F686D;" width="3.533" height="3.404"/>
									<polygon style="fill:#01265A;" points="323.195,360.314 326.528,356.124 315.44,348.222 313.003,351.285 									"/>
								</g>
							</g>
							<g>
								<path style="fill:#4A9CFF;" d="M280.703,316.353c-0.84,1.616-3.059,2.58-0.727,7.615c2.332,5.035,4.198,5.656,6.063,7.697
									c1.866,2.04,3.284,3.682,5.448,4.205c2.164,0.522,3.284-3.036,4.254-4.205c0.97-1.169,1.194-1.622,1.045-2.627
									c-0.149-1.005-1.567-2.946-2.164-4.886s-2.612-5.299-5.896-7.389C285.442,314.674,283.166,311.614,280.703,316.353z"/>
								
									<path style="fill:none;stroke:#01265A;stroke-width:0.7;stroke-linecap:round;stroke-linejoin:round;stroke-miterlimit:10;" d="
									M280.703,316.353c-0.84,1.616-3.059,2.58-0.727,7.615c2.332,5.035,4.198,5.656,6.063,7.697
									c1.866,2.04,3.284,3.682,5.448,4.205c2.164,0.522,3.284-3.036,4.254-4.205"/>
							</g>
						</g>
					</g>
					<g>
						<g>
							<path style="fill:#F4E52A;" d="M241.445,251.204c0,0-3.52,2.747-5.808,4.188c-2.289,1.441-9.553,7.909-10.449,18.955
								c-0.896,11.046,1.393,26.175,3.483,28.81c2.09,2.635,10.648,8.307,16.618,10.397c5.971,2.09,8.657,2.687,10.648,1.194
								c1.99-1.493,3.085-3.825,4.378-6.44c1.294-2.615,2.388-8.238-2.886-12.168c-4.114-3.066-8.288-4.528-9.926-5.022
								c-0.385-0.116-0.61-0.507-0.516-0.898c0.403-1.676,1.143-6.661-0.206-17.913C245.04,257.778,241.445,251.204,241.445,251.204
								z"/>
							<g>
								
									<path style="fill:none;stroke:#01265A;stroke-width:0.7;stroke-linecap:round;stroke-linejoin:round;stroke-miterlimit:10;" d="
									M228.671,303.158c2.09,2.635,10.648,8.307,16.618,10.397c5.971,2.09,8.657,2.687,10.648,1.194
									c1.99-1.493,3.085-3.825,4.378-6.44c1.294-2.615,2.388-8.238-2.886-12.168c-4.114-3.066-8.288-4.528-9.926-5.022
									c-0.385-0.116-0.61-0.507-0.516-0.898c0.403-1.676,1.143-6.661-0.206-17.913"/>
								<g>
									
										<path style="fill:none;stroke:#01265A;stroke-width:0.7;stroke-linecap:round;stroke-linejoin:round;stroke-miterlimit:10;" d="
										M247.49,291.09c-3.089,0.03-6.169,0.792-8.915,2.208"/>
									
										<path style="fill:none;stroke:#01265A;stroke-width:0.7;stroke-linecap:round;stroke-linejoin:round;stroke-miterlimit:10;" d="
										M246.971,290.47c-2.267-0.845-4.91-1.161-7.313-0.875"/>
								</g>
								
									<path style="fill:none;stroke:#01265A;stroke-width:0.7;stroke-linecap:round;stroke-linejoin:round;stroke-miterlimit:10;" d="
									M251.049,274.373c-0.629,2.17-2.009,4.266-3.576,5.893"/>
							</g>
						</g>
						<g>
							<path style="fill:#4A9CFF;" d="M252.255,303.554c0,0,0.473-0.05,3.085-1.194c2.612-1.144,2.671-1.379,4.105-1.542
								c1.434-0.164,2.961,1.667,5.224,2.538c2.264,0.871,6.493,1.766,5.299,3.309c-1.194,1.542-3.956,2.662-6.294,2.289
								c-2.339-0.373-4.752-0.771-5.598-0.249c-0.846,0.522-2.115,2.09-2.115,2.09L252.255,303.554z"/>
							<path style="fill:#4A9CFF;" d="M255.34,302.359c0,0-0.572,0.522-2.102-0.522c-0.148-0.101-0.286-0.198-0.413-0.289
								c-0.922-0.662-2.235-0.418-2.793,0.571c-1.315,2.33-1.705,5.015-1.26,8.02c0.075,0.503,0.365,0.947,0.777,1.245
								c0.975,0.705,2.902,2.229,4.622,4.373c2.426,3.023,4.627,7.762,8.434,7.874c3.806,0.112,6.717-1.194,8.172-1.418
								c1.455-0.224,1.94-0.784,1.903-1.343c-0.037-0.56,0.672-1.418,1.381-3.956c0.709-2.538,1.53-4.627-0.373-5.15
								c-1.903-0.522-4.553-0.224-6.157-1.231c-1.605-1.008-3.641-2.985-5.645-4.142S255.34,302.359,255.34,302.359z"/>
							<g>
								
									<path style="fill:none;stroke:#01265A;stroke-width:0.7;stroke-linecap:round;stroke-linejoin:round;stroke-miterlimit:10;" d="
									M260.578,305.457c1.912,1.055,3.399,2.723,5.097,4.096c1.698,1.374,3.825,2.502,5.98,2.153"/>
								
									<path style="fill:none;stroke:#01265A;stroke-width:0.7;stroke-linecap:round;stroke-linejoin:round;stroke-miterlimit:10;" d="
									M274.499,315.019c-3.459,1.955-7.732,2.411-11.525,1.23"/>
								
									<path style="fill:none;stroke:#01265A;stroke-width:0.7;stroke-linecap:round;stroke-linejoin:round;stroke-miterlimit:10;" d="
									M272.574,320.427c-1.478,0.554-3.151,0.569-4.639,0.04"/>
							</g>
						</g>
					</g>
				</g>
			</g>
			<g>
				<g>
					<path style="fill:#FFD592;" d="M378.063,209.085c-0.556-3.226-1.112-7.675-1.112-7.675l-7.342,1.613
						c0,0-3.282,2.781-3.226,6.118c0.012,0.744,0.204,1.847,0.495,3.113c0.07,0.305,0.043,0.625-0.081,0.912l-1.365,3.149
						c-0.235,0.541,0.138,1.16,0.727,1.195c0.841,0.049,1.547-0.034,2.067-0.298c0,0,0,0,0-0.001
						c0.516,1.714,1.034,3.308,1.396,4.395c0.28,0.843,1.185,1.307,2.03,1.034c1.463-0.473,3.615-1.414,4.853-3.099
						C378.508,216.816,378.619,212.311,378.063,209.085z"/>
					<path style="fill:#B1E7FC;" d="M366.211,213.88l10.794-0.401c0.294-0.011,0.548,0.205,0.585,0.497l0.706,5.578
						c0.032,0.255-0.11,0.5-0.348,0.597l-7.535,3.099c-0.172,0.071-0.365,0.054-0.522-0.046c-0.518-0.331-1.722-1.161-2.601-2.245
						c-0.848-1.047-2.101-2.149-2.698-2.654c-0.201-0.17-0.251-0.45-0.135-0.686c0.519-1.052,0.894-2.161,1.229-3.325
						C365.755,214.057,365.965,213.889,366.211,213.88z"/>
					<path style="fill:#F4E52A;" d="M385.938,223.704c0.272-0.13,0.396-0.446,0.283-0.725c-0.589-1.446-2.234-5.683-2.021-7.331
						c0.26-2.002,0.37-7.564-0.019-11.532c-0.389-3.967-1.946-6.229-2.836-6.711c-0.89-0.482-7.379,0.148-11.531,3.597
						c-3.357,2.788-4.448,4.824-4.743,5.502c-0.089,0.205-0.047,0.44,0.104,0.605c0.298,0.324,1.042,0.823,2.897,1.309
						c3.115,0.816,5.08,1.186,6.34,2.744c1.261,1.557,1.534,4.986,1.289,6.155c-0.726,3.461-4.136,4.742-5.53,5.127
						c-0.31,0.085-0.479,0.402-0.394,0.712c0.444,1.623,0.355,4.437,0.283,7.213c-0.011,0.424,0.43,0.711,0.813,0.528
						L385.938,223.704z"/>
					<path style="fill:#4A9CFF;stroke:#01265A;stroke-linecap:round;stroke-linejoin:round;stroke-miterlimit:10;" d="
						M366.438,209.455h7.362c0.301,0,0.551,0.235,0.568,0.536l0.118,2.072c0,0,0.157,4.066-2.628,3.881
						c-2.785-0.185-4.471-3.183-4.945-3.241s-0.622,0-0.622,0l-0.414-2.589C365.822,209.768,366.088,209.455,366.438,209.455z"/>
				</g>
				<path style="fill:#CFCBEF;" d="M407.947,257.661L407.947,257.661c-3.225,1.589-7.128,0.264-8.717-2.961l-12.182-24.718
					c-1.589-3.225-0.264-7.128,2.961-8.717l0,0c3.225-1.589,7.128-0.264,8.717,2.961l12.182,24.718
					C412.498,252.168,411.172,256.071,407.947,257.661z"/>
				<g>
					<path style="fill:#4A9CFF;" d="M416.232,360.022c-0.148-0.194-0.119-0.462,0.01-0.669c0.176-0.283,0.286-0.612,0.306-0.968
						l1.004-17.895h-15.118l1.004,17.895c0.009,0.165,0.038,0.324,0.083,0.475c0.098,0.33-0.081,0.665-0.416,0.746
						c-0.14,0.034-0.28,0.074-0.417,0.12l-15.635,5.213c-0.426,0.142-0.732,0.538-0.742,1.012c-0.014,0.613,0.528,1.098,1.142,1.103
						l28.32,0.254c0.63,0.006,1.133-0.525,1.092-1.154l-0.342-5.353C416.506,360.507,416.399,360.24,416.232,360.022z"/>
					<path style="fill:#4A9CFF;" d="M378.48,360.022c-0.098-0.194,0.001-0.462,0.184-0.669c0.25-0.283,0.445-0.612,0.558-0.968
						l5.666-17.895h-15.118l-3.657,17.895c-0.034,0.165-0.047,0.324-0.041,0.475c0.012,0.33-0.255,0.665-0.61,0.746
						c-0.149,0.034-0.299,0.074-0.448,0.12l-16.993,5.213c-0.464,0.142-0.872,0.538-1.006,1.012
						c-0.173,0.613,0.242,1.098,0.854,1.103l28.254,0.254c0.629,0.006,1.269-0.525,1.393-1.154l1.053-5.353
						C378.628,360.507,378.591,360.24,378.48,360.022z"/>
					<g>
						<g>
							<path style="fill:#F4E52A;" d="M399.068,264.221c0,0,5.032,14.053,6.78,23.953c1.748,9.9,1.859,14.906,4.084,19.021
								c2.225,4.116,7.786,15.573,9.121,21.469c1.335,5.895,0.445,19.911-1.446,21.469c-1.891,1.557-4.338,0-4.338,0
								s-2.113,0.853-4.116,0.334c-2.002-0.519-3.305-1.483-3.305-1.483s-0.959,0.704-2.257,0.037
								c-1.298-0.667-1.817-3.856-1.78-6.081c0.037-2.225-1.947-8.992-3.504-12.496c-1.557-3.504-5.061-7.953-6.007-10.401
								s-6.396-15.796-6.396-15.796L399.068,264.221z"/>
							<g>
								
									<path style="fill:none;stroke:#01265A;stroke-width:0.7;stroke-linecap:round;stroke-linejoin:round;stroke-miterlimit:10;" d="
									M407.235,298.157c0.745,3.752,0.313,7.621,0.072,11.438c-0.24,3.817-0.263,7.778,1.225,11.302"/>
								
									<path style="fill:none;stroke:#01265A;stroke-width:0.7;stroke-linecap:round;stroke-linejoin:round;stroke-miterlimit:10;" d="
									M408.734,307.367c0.186,2.159,0.379,4.349,1.133,6.381c0.995,2.678,2.897,4.904,4.762,7.069"/>
							</g>
							
								<path style="fill:none;stroke:#01265A;stroke-width:0.7;stroke-linecap:round;stroke-linejoin:round;stroke-miterlimit:10;" d="
								M405.864,348.999c-1.071-0.235-1.829-1.213-2.238-2.231c-0.409-1.018-0.564-2.122-0.963-3.144"/>
							<g>
								
									<path style="fill:none;stroke:#01265A;stroke-width:0.7;stroke-linecap:round;stroke-linejoin:round;stroke-miterlimit:10;" d="
									M412.966,350.208c0.215,0.01,0.421-0.107,0.565-0.267c0.144-0.16,0.235-0.36,0.318-0.558
									c0.391-0.932,0.655-1.918,0.781-2.922"/>
								
									<path style="fill:none;stroke:#01265A;stroke-width:0.7;stroke-linecap:round;stroke-linejoin:round;stroke-miterlimit:10;" d="
									M415.092,348.559c0.952-1.202,1.436-2.764,1.332-4.293"/>
							</g>
							
								<path style="fill:none;stroke:#01265A;stroke-width:0.7;stroke-linecap:round;stroke-linejoin:round;stroke-miterlimit:10;" d="
								M395.328,325.156c3.028,3.172,6.14,6.407,10.061,8.37"/>
						</g>
						<g>
							<path style="fill:#F4E52A;" d="M385.72,221.654c0,0,5.339,1.483,8.157,11.865c2.818,10.382,2.67,17.056,6.081,22.84
								c3.411,5.784,7.564,10.827,5.191,19.281c-2.373,8.454-6.674,17.501-10.975,26.993c-4.301,9.492-9.047,13.793-8.454,16.315
								c0.593,2.521,4.153,5.933,2.076,15.277c-2.076,9.344-3.003,9.511-3.337,11.124c-0.334,1.613-0.945,6.674-3.838,7.008
								c-2.892,0.334-2.948,0-2.948,0s-0.389,1.187-4.171,0.148c-3.782-1.038-5.673-3.096-5.673-3.096s-1.78-0.278-2.558-3.949
								c-0.779-3.671,0.167-13.515,0.667-15.629c0.501-2.113-0.667-10.79,0-15.351s2.559-8.343,3.671-12.903
								c1.112-4.561,5.877-18.743,7.731-23.934c1.854-5.191,2.818-8.899,2.818-8.899s-3.56-4.005-6.007-9.566
								c-2.447-5.562-7.342-20.616-5.265-26.623C370.962,226.549,376.228,218.54,385.72,221.654z"/>
							<g>
								
									<path style="fill:none;stroke:#01265A;stroke-width:0.7;stroke-linecap:round;stroke-linejoin:round;stroke-miterlimit:10;" d="
									M385.411,257.584c-3.938,6.1-6.786,14.185-9.152,23.148"/>
								<g>
									
										<path style="fill:none;stroke:#01265A;stroke-width:0.7;stroke-linecap:round;stroke-linejoin:round;stroke-miterlimit:10;" d="
										M393.214,304.657c-3.467,6.546-9.05,12.031-15.566,15.553"/>
									
										<path style="fill:none;stroke:#01265A;stroke-width:0.7;stroke-linecap:round;stroke-linejoin:round;stroke-miterlimit:10;" d="
										M380.065,326.105c2.863-1.923,4.916-5.204,5.766-8.547c0.689-2.712,4.744-6.98,8.343-14.924
										c3.449-7.612,6.899-14.939,9.354-21.902"/>
								</g>
								<g>
									
										<path style="fill:none;stroke:#01265A;stroke-width:0.7;stroke-linecap:round;stroke-linejoin:round;stroke-miterlimit:10;" d="
										M365.932,324.214c0.06,1.261,0.062,5.711,1.026,9.938c0.964,4.227,2.002,4.894,2.299,7.49
										c0.297,2.596,0.297,3.04,0.297,3.04"/>
									
										<path style="fill:none;stroke:#01265A;stroke-width:0.7;stroke-linecap:round;stroke-linejoin:round;stroke-miterlimit:10;" d="
										M367.056,339.564c0.378,1.53,0.597,3.099,0.651,4.674"/>
								</g>
								
									<path style="fill:none;stroke:#01265A;stroke-width:0.7;stroke-linecap:round;stroke-linejoin:round;stroke-miterlimit:10;" d="
									M377.332,352.623c1.392-1.2,2.515-2.71,3.265-4.388"/>
								
									<path style="fill:none;stroke:#01265A;stroke-width:0.7;stroke-linecap:round;stroke-linejoin:round;stroke-miterlimit:10;" d="
									M367.868,349.482c-0.645-0.628-0.987-1.553-0.906-2.45"/>
							</g>
						</g>
					</g>
				</g>
				<g>
					<g>
						<g>
							<path style="fill:#4A9CFF;" d="M334.959,242.537c0,0-2.002-1.583-2.67-2.863c-0.667-1.279-3.086-3.782-3.99-4.116
								c-0.904-0.334-3.518,0.334-5.131,0.389c-1.613,0.056-3.226,0.167-2.392,1.391c0.834,1.224,4.338,2.614,5.729,2.447
								c1.39-0.167,1.794-0.167,1.794-0.167s-0.82,2.559,0,3.56c0.82,1.001,4.046,3.56,4.046,3.56L334.959,242.537z"/>
							<g>
								<g>
									
										<rect x="326.143" y="212.723" transform="matrix(0.6044 -0.7967 0.7967 0.6044 -63.1204 356.0697)" style="fill:#CFCBEF;" width="1.706" height="57.745"/>
									
										<rect x="307.205" y="225.975" transform="matrix(-0.6044 0.7967 -0.7967 -0.6044 676.3027 119.3439)" style="fill:#01265A;" width="2.633" height="3.207"/>
									
										<rect x="326.957" y="241.297" transform="matrix(-0.6044 0.7967 -0.7967 -0.6044 719.9351 127.6617)" style="fill:#5F686D;" width="2.633" height="2.537"/>
									<polygon style="fill:#01265A;" points="300.377,218.896 297.966,222.074 306.362,227.771 308.125,225.447 									"/>
								</g>
								<g>
									<path style="fill:none;stroke:#B1E7FC;stroke-linecap:round;stroke-linejoin:round;stroke-miterlimit:10;" d="
										M258.516,208.254c-2.054,0.133-4.106,0.303-6.155,0.51"/>
									<path style="fill:none;stroke:#B1E7FC;stroke-linecap:round;stroke-linejoin:round;stroke-miterlimit:10;" d="
										M296.278,219.631c-11.156-4.936-22.844-8.669-34.794-11.121"/>
									<path style="fill:none;stroke:#B1E7FC;stroke-linecap:round;stroke-linejoin:round;stroke-miterlimit:10;" d="
										M297.147,218.383c-6.442-4.781-12.725-9.776-18.835-14.975"/>
									<path style="fill:none;stroke:#B1E7FC;stroke-linecap:round;stroke-linejoin:round;stroke-miterlimit:10;" d="
										M298.838,217.204c-6.559-5.411-12.114-12.036-16.297-19.439"/>
									<path style="fill:none;stroke:#B1E7FC;stroke-linecap:round;stroke-linejoin:round;stroke-miterlimit:10;" d="
										M281.948,195.717c-0.696-1.565-1.391-3.131-2.087-4.696"/>
									<path style="fill:none;stroke:#B1E7FC;stroke-linecap:round;stroke-linejoin:round;stroke-miterlimit:10;" d="
										M275.447,201.707c-0.87-1.044-1.739-2.087-2.609-3.13"/>
									<path style="fill:none;stroke:#B1E7FC;stroke-linecap:round;stroke-linejoin:round;stroke-miterlimit:10;" d="
										M269.447,202.62c-1.295-0.546-2.525-1.248-3.652-2.087"/>
									<path style="fill:none;stroke:#B1E7FC;stroke-linecap:round;stroke-linejoin:round;stroke-miterlimit:10;" d="
										M261.483,199.646c-1.573-0.416-3.102-0.998-4.553-1.733"/>
									<path style="fill:none;stroke:#B1E7FC;stroke-linecap:round;stroke-linejoin:round;stroke-miterlimit:10;" d="
										M265.252,214.733c1.043-0.146,2.101-0.181,3.151-0.103"/>
									<path style="fill:none;stroke:#B1E7FC;stroke-linecap:round;stroke-linejoin:round;stroke-miterlimit:10;" d="
										M275.561,193.366c-0.58-1.556-0.966-3.183-1.147-4.833"/>
									<path style="fill:none;stroke:#B1E7FC;stroke-linecap:round;stroke-linejoin:round;stroke-miterlimit:10;" d="
										M284.838,190.229c-0.128-1.35-0.039-2.721,0.261-4.044"/>
									<path style="fill:none;stroke:#B1E7FC;stroke-linecap:round;stroke-linejoin:round;stroke-miterlimit:10;" d="
										M276.868,215.674c1.282-0.046,2.572,0.128,3.796,0.511"/>
								</g>
							</g>
							<g>
								<path style="fill:#4A9CFF;" d="M331.288,248.796c0,0-2.392-2.002-3.782-2.002c-1.39,0-3.893,2.002-5.228,1.335
									c-1.335-0.667-1.947-2.28-3.115-3.337c-1.168-1.057-2.28-3.17-2.781-4.171c-0.501-1.001-2.002-1.669-1.112-3.17
									c0.89-1.502,6.285-1.39,9.177-0.612c2.892,0.779,3.768,1.335,4.776,2.113c1.008,0.779,5.235,4.839,5.235,4.839
									L331.288,248.796z"/>
								
									<path style="fill:none;stroke:#01265A;stroke-width:0.7;stroke-linecap:round;stroke-linejoin:round;stroke-miterlimit:10;" d="
									M315.061,238.747c-0.12-0.366-0.096-0.782,0.209-1.297c0.89-1.502,6.285-1.39,9.177-0.612
									c2.892,0.779,3.768,1.335,4.776,2.113"/>
							</g>
						</g>
						
							<path style="fill:none;stroke:#01265A;stroke-width:1.5;stroke-linecap:round;stroke-linejoin:round;stroke-miterlimit:10;" d="
							M350.513,258.368c0,0,9.172,10.918,13.884,22.364c4.712,11.446,14.13,20.79,21.991,11.446
							c7.861-9.344,5.191-15.796,10.753-20.245c5.562-4.449,10.046-8.682,11.392-12.206c1.346-3.524-4.269-13.478-4.269-13.478"/>
					</g>
					<g>
						<path style="fill:#F4E52A;" d="M385.572,226.104c-7.202-5.172-20.097,6.526-24.843,13.052c-3.219,4.426-4.323,6.328-4.7,7.093
							c-0.129,0.261-0.427,0.384-0.701,0.284c-1.81-0.661-8.113-2.909-13.138-4.04c-4.589-1.033-6.922-1.273-7.744-1.33
							c-0.216-0.015-0.411,0.094-0.52,0.281c-1.138,1.942-3.106,4.088-5.447,6.326c-0.213,0.204-0.241,0.534-0.057,0.764
							c1.631,2.038,9.083,11.205,13.62,14.427c5.117,3.634,8.899,5.71,13.423,5.191c4.524-0.519,14.98-9.566,21.506-15.573
							C383.495,246.571,393.729,231.962,385.572,226.104z"/>
						<g>
							
								<path style="fill:none;stroke:#01265A;stroke-width:0.7;stroke-linecap:round;stroke-linejoin:round;stroke-miterlimit:10;" d="
								M385.572,226.104c-5.045-3.623-12.884,1.032-18.758,6.389"/>
							<g>
								
									<path style="fill:none;stroke:#01265A;stroke-width:0.7;stroke-linecap:round;stroke-linejoin:round;stroke-miterlimit:10;" d="
									M334.446,241.163c0.822,0.056,3.155,0.297,7.744,1.33c5.026,1.131,11.329,3.379,13.138,4.04
									c2.611,0.954,4.925,2.742,6.858,4.74"/>
								
									<path style="fill:none;stroke:#01265A;stroke-width:0.7;stroke-linecap:round;stroke-linejoin:round;stroke-miterlimit:10;" d="
									M380.521,248.841c-1.219,1.438-2.439,2.713-3.552,3.737c-6.526,6.007-16.982,15.054-21.506,15.573
									c-4.524,0.519-8.306-1.557-13.423-5.191c-4.537-3.222-11.988-12.39-13.62-14.427c-0.184-0.23-0.156-0.561,0.057-0.764
									c2.341-2.237,4.309-4.383,5.447-6.326c0.109-0.187,0.304-0.295,0.52-0.281"/>
								
									<path style="fill:none;stroke:#01265A;stroke-width:0.7;stroke-linecap:round;stroke-linejoin:round;stroke-miterlimit:10;" d="
									M375.459,253.957c4.306-1.167,8.054-3.132,10.928-6.348"/>
								
									<path style="fill:none;stroke:#01265A;stroke-width:0.7;stroke-linecap:round;stroke-linejoin:round;stroke-miterlimit:10;" d="
									M355.688,246.572c0.308-0.377,0.819-0.508,1.296-0.606c3.142-0.642,6.397-0.73,9.569-0.261"/>
							</g>
						</g>
					</g>
				</g>
			</g>
			<g>
				<g>
					<g>
						<g>
							<path style="fill:#4A9CFF;" d="M165.279,372.574c-0.239-0.209-0.315-0.498-0.26-0.722c0.075-0.306,0.06-0.661-0.062-1.044
								l-6.161-19.306h-16.31l8.328,19.306c0.077,0.177,0.172,0.349,0.282,0.513c0.239,0.356,0.181,0.718-0.146,0.805
								c-0.138,0.037-0.272,0.08-0.402,0.129l-14.757,5.624c-0.403,0.153-0.572,0.58-0.391,1.091
								c0.233,0.661,1.014,1.184,1.678,1.19l30.656,0.274c0.682,0.006,1.009-0.566,0.712-1.245l-2.536-5.776
								C165.771,373.098,165.548,372.81,165.279,372.574z"/>
							<g>
								<path style="fill:#F4E52A;" d="M129.268,271.372c0,0,7.24,13.84,10.395,23.831c3.155,9.991,3.914,15.145,6.848,19.098
									c2.933,3.953,10.415,15.042,12.613,20.952c2.197,5.91,3.022,20.504,1.174,22.365c-1.848,1.861-4.696,0.58-4.696,0.58
									s-2.179,1.163-4.412,0.895c-2.233-0.268-3.767-1.09-3.767-1.09s-0.948,0.856-2.438,0.34c-1.49-0.516-2.459-3.74-2.702-6.042
									c-0.244-2.302-3.254-9.026-5.387-12.436c-2.133-3.41-6.493-7.537-7.829-9.938c-1.336-2.401-8.939-15.457-8.939-15.457
									L129.268,271.372z"/>
								<g>
									
										<path style="fill:none;stroke:#01265A;stroke-width:0.7;stroke-linecap:round;stroke-linejoin:round;stroke-miterlimit:10;" d="
										M142.438,305.327c1.285,3.775,1.311,7.828,1.538,11.803c0.227,3.974,0.708,8.068,2.768,11.508"/>
									
										<path style="fill:none;stroke:#01265A;stroke-width:0.7;stroke-linecap:round;stroke-linejoin:round;stroke-miterlimit:10;" d="
										M145.236,314.638c0.477,2.205,0.965,4.441,2.041,6.439c1.419,2.633,3.762,4.677,6.057,6.663"/>
								</g>
								
									<path style="fill:none;stroke:#01265A;stroke-width:0.7;stroke-linecap:round;stroke-linejoin:round;stroke-miterlimit:10;" d="
									M147.442,358.018c-1.189-0.1-2.135-1.009-2.707-2.005c-0.573-0.996-0.881-2.117-1.444-3.118"/>
								<g>
									
										<path style="fill:none;stroke:#01265A;stroke-width:0.7;stroke-linecap:round;stroke-linejoin:round;stroke-miterlimit:10;" d="
										M155.283,358.316c0.234-0.018,0.442-0.167,0.577-0.351s0.209-0.403,0.273-0.619c0.305-1.015,0.464-2.069,0.473-3.122"/>
									
										<path style="fill:none;stroke:#01265A;stroke-width:0.7;stroke-linecap:round;stroke-linejoin:round;stroke-miterlimit:10;" d="
										M157.374,356.33c0.877-1.368,1.202-3.046,0.894-4.612"/>
								</g>
								
									<path style="fill:none;stroke:#01265A;stroke-width:0.7;stroke-linecap:round;stroke-linejoin:round;stroke-miterlimit:10;" d="
									M132.996,334.803c3.683,2.871,7.463,5.796,11.958,7.299"/>
							</g>
						</g>
						<g>
							<path style="fill:#4A9CFF;" d="M99.384,372.153c-0.111-0.221,0.002-0.525,0.21-0.761c0.284-0.322,0.506-0.696,0.634-1.1
								l6.44-20.341H89.483l-4.157,20.341c-0.038,0.187-0.053,0.368-0.047,0.54c0.014,0.375-0.29,0.756-0.693,0.849
								c-0.17,0.039-0.34,0.084-0.51,0.136l-19.315,5.926c-0.527,0.162-0.991,0.611-1.143,1.15
								c-0.197,0.697,0.276,1.248,0.971,1.254l32.116,0.288c0.715,0.006,1.443-0.597,1.584-1.312l1.197-6.085
								C99.551,372.704,99.509,372.401,99.384,372.153z"/>
							<g>
								<path style="fill:#F4E52A;" d="M131.625,226.61c0,0,5.679,2.556,6.961,13.746c1.282,11.19-0.076,18.003,2.688,24.595
									c2.764,6.592,6.486,12.567,2.334,20.773c-4.152,8.206-10.557,16.647-17.041,25.543
									c-6.484,8.896-12.536,12.385-12.326,15.085c0.21,2.7,3.563,6.888-0.418,16.064c-3.981,9.176-5.043,9.167-5.702,10.756
									c-0.66,1.589-2.245,6.659-5.524,6.44c-3.279-0.219-3.282-0.572-3.282-0.572s-0.645,1.141-4.67-0.657
									c-4.025-1.798-5.762-4.275-5.762-4.275s-1.932-0.63-2.143-4.545c-0.211-3.914,2.601-13.823,3.535-15.892
									c0.935-2.07,1.185-11.191,2.743-15.737c1.558-4.546,4.339-8.056,6.392-12.516c2.053-4.46,9.891-18.074,12.882-23.036
									c2.991-4.962,4.727-8.576,4.727-8.576s-3.247-4.796-4.978-10.972c-1.73-6.176-4.489-22.559-1.104-28.314
									C114.322,228.764,121.614,221.575,131.625,226.61z"/>
								<g>
									
										<path style="fill:none;stroke:#01265A;stroke-width:0.7;stroke-linecap:round;stroke-linejoin:round;stroke-miterlimit:10;" d="
										M124.862,263.383c-5.473,5.489-10.089,13.225-14.324,21.955"/>
									<g>
										
											<path style="fill:none;stroke:#01265A;stroke-width:0.7;stroke-linecap:round;stroke-linejoin:round;stroke-miterlimit:10;" d="
											M125.137,313.154c-5.029,6.038-12.224,10.577-20.107,12.925"/>
										
											<path style="fill:none;stroke:#01265A;stroke-width:0.7;stroke-linecap:round;stroke-linejoin:round;stroke-miterlimit:10;" d="
											M106.667,332.591c3.53-1.416,6.403-4.382,7.945-7.643c1.252-2.647,6.528-6.235,11.954-13.68
											c5.2-7.135,10.349-13.976,14.326-20.638"/>
									</g>
									<g>
										
											<path style="fill:none;stroke:#01265A;stroke-width:0.7;stroke-linecap:round;stroke-linejoin:round;stroke-miterlimit:10;" d="
											M91.272,327.91c-0.158,1.305-0.951,5.866-0.634,10.387c0.318,4.52,1.354,5.406,1.221,8.124
											c-0.133,2.718-0.213,3.174-0.213,3.174"/>
										
											<path style="fill:none;stroke:#01265A;stroke-width:0.7;stroke-linecap:round;stroke-linejoin:round;stroke-miterlimit:10;" d="
											M89.781,343.864c0.148,1.641,0.111,3.292-0.11,4.917"/>
									</g>
									
										<path style="fill:none;stroke:#01265A;stroke-width:0.7;stroke-linecap:round;stroke-linejoin:round;stroke-miterlimit:10;" d="
										M98.886,359.245c1.764-0.96,3.284-2.29,4.419-3.865"/>
									
										<path style="fill:none;stroke:#01265A;stroke-width:0.7;stroke-linecap:round;stroke-linejoin:round;stroke-miterlimit:10;" d="
										M88.912,354.189c-0.605-0.769-0.821-1.784-0.571-2.687"/>
								</g>
							</g>
						</g>
					</g>
					<g>
						<path style="fill:#F4E52A;" d="M102.951,248.99c0,0-1.622,7.992-0.83,12.777c0.792,4.784,3.001,12.609,8.417,12.594
							c5.416-0.015,7.596-4.491,7.596-4.491l-4.066-18.586L102.951,248.99z"/>
						<path style="fill:#4A9CFF;" d="M103.621,259.375c-2.062-4.962-0.886-10.264-0.026-12.656c0.86-2.392,2.79-4.707,3.639-5.17
							c0.849-0.463,3.519-2.469,4.576-1.389c1.057,1.08,1.134,2.624,0.903,5.325c-0.231,2.701,0.736,4.553,0.484,6.251
							c-0.253,1.698-0.822,3.314-1.796,4.862C110.427,258.144,105.642,264.236,103.621,259.375z"/>
					</g>
					<g>
						<g>
							<path style="fill:#FFD592;" d="M115.461,213.444c-1.558-3.029-3.498-7.273-3.498-7.273l-6.786,3.891
								c0,0-2.391,3.784-1.295,7.08c0.244,0.735,0.779,1.77,1.463,2.936c0.165,0.281,0.238,0.607,0.204,0.931l-0.373,3.552
								c-0.064,0.611,0.499,1.109,1.094,0.959c0.85-0.214,1.525-0.516,1.96-0.94c0,0,0,0,0-0.001
								c1.047,1.541,2.058,2.962,2.756,3.929c0.541,0.749,1.584,0.928,2.338,0.393c1.305-0.926,3.148-2.531,3.851-4.59
								C118.314,220.981,117.019,216.473,115.461,213.444z"/>
							<path style="fill:#B1E7FC;" d="M105.19,221.901l10.591-3.764c0.289-0.103,0.608,0.032,0.736,0.311l2.441,5.318
								c0.112,0.243,0.046,0.53-0.159,0.701l-6.514,5.426c-0.149,0.124-0.346,0.167-0.532,0.117
								c-0.618-0.167-2.072-0.615-3.282-1.417c-1.169-0.775-2.756-1.478-3.507-1.794c-0.252-0.106-0.39-0.369-0.348-0.639
								c0.188-1.207,0.214-2.424,0.183-3.684C104.793,222.219,104.949,221.987,105.19,221.901z"/>
							<path style="fill:#F4E52A;" d="M127.838,225.502c0.229-0.214,0.254-0.566,0.054-0.808c-1.035-1.252-3.99-4.945-4.292-6.648
								c-0.367-2.069-1.992-7.625-3.615-11.442c-1.623-3.818-3.875-5.577-4.909-5.778c-1.034-0.201-7.279,2.448-10.327,7.167
								c-2.464,3.814-2.912,6.176-2.993,6.942c-0.025,0.232,0.09,0.451,0.292,0.568c0.397,0.229,1.291,0.492,3.284,0.396
								c3.347-0.161,5.413-0.406,7.15,0.747c1.737,1.153,3.078,4.472,3.199,5.709c0.358,3.662-2.627,5.998-3.891,6.815
								c-0.281,0.182-0.35,0.549-0.169,0.83c0.947,1.473,1.736,4.295,2.53,7.072c0.121,0.425,0.649,0.571,0.972,0.27
								L127.838,225.502z"/>
							<path style="fill:#4A9CFF;stroke:#01265A;stroke-linecap:round;stroke-linejoin:round;stroke-miterlimit:10;" d="
								M104.036,217.438l7.308-2.296c0.299-0.094,0.62,0.062,0.731,0.355l0.763,2.02c0,0,1.424,3.988-1.399,4.672
								c-2.823,0.684-5.432-1.765-5.92-1.676c-0.488,0.089-0.617,0.194-0.617,0.194l-1.218-2.441
								C103.521,217.941,103.688,217.547,104.036,217.438z"/>
						</g>
						<g>
							
								<path style="fill:none;stroke:#01265A;stroke-width:0.7;stroke-linecap:round;stroke-linejoin:round;stroke-miterlimit:10;" d="
								M128.697,225.543c-1.33-0.307-2.744,0.114-3.896,0.845c-1.152,0.731-2.089,1.75-3.01,2.756"/>
							<g>
								
									<path style="fill:none;stroke:#01265A;stroke-width:0.7;stroke-linecap:round;stroke-linejoin:round;stroke-miterlimit:10;" d="
									M123.653,217.702c-0.035-0.061-0.069-0.122-0.104-0.184c1.198,2.395,0.885,5.469-0.771,7.574"/>
								
									<path style="fill:none;stroke:#01265A;stroke-width:0.7;stroke-linecap:round;stroke-linejoin:round;stroke-miterlimit:10;" d="
									M124.081,218.713c0.888,1.243,1.688,3.722,1.695,5.25"/>
							</g>
							
								<path style="fill:none;stroke:#01265A;stroke-width:0.7;stroke-linecap:round;stroke-linejoin:round;stroke-miterlimit:10;" d="
								M112.464,232.466c1.079-0.449,2.229-0.698,3.325-1.103c1.096-0.405,2.172-0.998,2.843-1.955"/>
						</g>
					</g>
				</g>
				<g>
					<g>
						<path style="fill:#4A9CFF;" d="M106.286,300.362c0,0-1.133,2.754-2.354,3.913c-1.221,1.159-3.252,4.675-3.336,5.796
							c-0.084,1.121,1.503,3.839,2.083,5.631c0.58,1.791,1.222,3.565,2.327,2.236c1.105-1.328,1.54-5.705,0.907-7.211
							c-0.633-1.506-0.763-1.959-0.763-1.959s3.133,0.099,3.993-1.142c0.86-1.241,2.694-5.68,2.694-5.68L106.286,300.362z"/>
						<g>
							
								<path style="fill:none;stroke:#01265A;stroke-width:1.5;stroke-linecap:round;stroke-linejoin:round;stroke-miterlimit:10;" d="
								M137.594,308.435c4.845-0.636,11.543,6.732,12.238-1.37c0.695-8.103-5.255-9.646-4.595-15.82
								c0.66-6.173,3.901-9.26,2.357-16.514c-1.543-7.254-3.002-11.348-3.002-11.348"/>
							<g>
								
									<rect x="78.683" y="312.575" transform="matrix(0.9853 -0.1709 0.1709 0.9853 -51.9827 23.1996)" style="fill:#CFCBEF;" width="60.09" height="1.775"/>
								
									<rect x="83.581" y="315.918" transform="matrix(0.1709 0.9853 -0.9853 0.1709 383.3466 179.6077)" style="fill:#01265A;" width="2.74" height="3.338"/>
								
									<rect x="109.002" y="311.857" transform="matrix(0.1709 0.9853 -0.9853 0.1709 400.0719 150.894)" style="fill:#5F686D;" width="2.739" height="2.64"/>
								<polygon style="fill:#01265A;" points="72.563,317.629 73.273,321.72 83.566,319.368 83.047,316.377 								"/>
							</g>
							<g>
								<path style="fill:none;stroke:#B1E7FC;stroke-linecap:round;stroke-linejoin:round;stroke-miterlimit:10;" d="
									M72.285,321.459c-1.889,0.881-3.69,1.951-5.368,3.188"/>
								<path style="fill:none;stroke:#B1E7FC;stroke-linecap:round;stroke-linejoin:round;stroke-miterlimit:10;" d="
									M71.513,319.789c-1.292,0.3-2.584,0.599-3.876,0.899"/>
								<path style="fill:none;stroke:#B1E7FC;stroke-linecap:round;stroke-linejoin:round;stroke-miterlimit:10;" d="
									M70.436,318.449c-0.737,0.067-1.478,0.087-2.218,0.059"/>
							</g>
						</g>
						<g>
							<path style="fill:#4A9CFF;" d="M114.484,302.471c0,0-1.478,3.325-1.032,4.885c0.446,1.56,3.495,3.724,3.175,5.436
								s-1.933,2.915-2.744,4.564c-0.811,1.649-2.824,3.575-3.786,4.458c-0.962,0.883-1.229,2.781-3.199,2.265
								c-1.97-0.516-3.576-6.603-3.631-10.097c-0.055-3.494,0.288-4.655,0.838-6.035c0.55-1.381,3.748-7.425,3.748-7.425
								L114.484,302.471z"/>
							
								<path style="fill:none;stroke:#01265A;stroke-width:0.7;stroke-linecap:round;stroke-linejoin:round;stroke-miterlimit:10;" d="
								M108.728,323.634c-0.414,0.425-0.953,0.675-1.831,0.445c-1.97-0.516-3.576-6.603-3.631-10.097
								c-0.045-2.856,0.176-4.153,0.559-5.285"/>
						</g>
					</g>
					<g>
						<path style="fill:#F4E52A;" d="M120.129,231.671c-9.813,0.339-10.249,20.45-9.527,29.556
							c0.613,7.727,1.056,10.897,1.176,11.681c0.021,0.134-0.004,0.264-0.073,0.382c-0.668,1.139-4.319,7.511-5.474,12.709
							c-1.14,5.13-3.595,16.193-4.096,18.455c-0.055,0.247,0.052,0.501,0.269,0.632c1.097,0.663,4.549,2.613,8.191,3.234
							c3.243,0.553,4.829,0.669,5.443,0.691c0.201,0.007,0.386-0.086,0.501-0.251c0.664-0.954,3.116-4.765,7.242-14.389
							c4.888-11.402,6.451-15.828,7.319-20.01c0.868-4.182,0.579-23.513,0-30.227C130.52,237.42,129.068,231.362,120.129,231.671z"
							/>
						<g>
							<g>
								
									<path style="fill:none;stroke:#01265A;stroke-width:0.7;stroke-linecap:round;stroke-linejoin:round;stroke-miterlimit:10;" d="
									M104.314,294.631c-0.958,4.316-1.891,8.522-2.179,9.822c-0.055,0.247,0.052,0.501,0.269,0.632
									c1.097,0.663,4.549,2.613,8.191,3.234c3.243,0.553,4.829,0.669,5.443,0.691c0.201,0.007,0.386-0.086,0.501-0.251
									c0.664-0.954,3.116-4.765,7.242-14.389c4.888-11.402,6.451-15.828,7.319-20.01c0.748-3.605,0.637-18.468,0.221-26.801"/>
								
									<path style="fill:none;stroke:#01265A;stroke-width:0.7;stroke-linecap:round;stroke-linejoin:round;stroke-miterlimit:10;" d="
									M131.646,256.039c1.658-1.445,2.49-3.629,2.483-5.828"/>
							</g>
							<g>
								
									<path style="fill:none;stroke:#01265A;stroke-width:0.7;stroke-linecap:round;stroke-linejoin:round;stroke-miterlimit:10;" d="
									M122.137,231.717c-0.624-0.054-1.292-0.07-2.008-0.046c-9.813,0.339-10.249,20.45-9.527,29.556
									c0.613,7.727,1.056,10.897,1.176,11.681c0.465,3.031,4.355,4.558,7.347,5.23"/>
								
									<path style="fill:none;stroke:#01265A;stroke-width:0.7;stroke-linecap:round;stroke-linejoin:round;stroke-miterlimit:10;" d="
									M111.875,273.359c1.333,3.373,3.502,6.715,6.259,9.073"/>
							</g>
						</g>
					</g>
				</g>
				<path style="fill:#CFCBEF;" d="M146.17,268.983L146.17,268.983c-3.642,0.857-7.289-1.4-8.147-5.042l-6.571-27.913
					c-0.857-3.642,1.4-7.289,5.042-8.146v0c3.642-0.857,7.289,1.4,8.146,5.042l6.571,27.913
					C152.069,264.479,149.811,268.126,146.17,268.983z"/>
			</g>
		</g>
		<g>
			<path style="fill:#D8F3FD;" d="M228.25,53.095h-68.36c-4.451,0-8.06,3.608-8.06,8.06c0,1.482,0.407,2.865,1.104,4.058h-16.9
				c2.36-1.406,3.945-3.975,3.945-6.921c0-4.451-3.609-8.06-8.06-8.06h-2.631c2.685-1.66,4.48-4.622,4.48-8.011
				c0-5.204-4.219-9.423-9.423-9.423H80.959c-5.204,0-9.423,4.219-9.423,9.423c0,3.389,1.795,6.351,4.48,8.011h-17.91
				c-4.451,0-8.06,3.608-8.06,8.06c0,2.946,1.586,5.515,3.945,6.921h-5.49c-4.451,0-8.06,3.609-8.06,8.06v0
				c0,4.451,3.608,8.06,8.06,8.06h42.704c-0.157,0.566-0.248,1.159-0.248,1.774c0,3.658,2.965,6.623,6.623,6.623h67.129
				c3.658,0,6.623-2.965,6.623-6.623c0-0.616-0.09-1.209-0.247-1.774h10.686c4.451,0,8.06-3.608,8.06-8.06v0
				c0-1.481-0.407-2.865-1.104-4.058h39.523c4.451,0,8.06-3.608,8.06-8.06S232.701,53.095,228.25,53.095z"/>
			<path style="fill:#D8F3FD;" d="M480.395,70.845h-11.904c0.368-0.923,0.576-1.926,0.576-2.98v0c0-4.451-3.608-8.06-8.06-8.06
				h-26.11c0.944-1.32,1.506-2.932,1.506-4.679c0-3.025-1.668-5.657-4.133-7.035h20.662c3.658,0,6.623-2.965,6.623-6.623
				s-2.965-6.623-6.623-6.623h-37.063c-3.658,0-6.623,2.965-6.623,6.623c0,2.36,1.238,4.426,3.096,5.599h-46.036
				c-4.451,0-8.06,3.608-8.06,8.06c0,1.747,0.562,3.359,1.506,4.679h-17.004c-4.451,0-8.06,3.608-8.06,8.06v0
				c0,2.232,0.908,4.251,2.373,5.71h-13.996c-3.658,0-6.623,2.965-6.623,6.623s2.965,6.623,6.623,6.623h62.498
				c3.658,0,6.623-2.965,6.623-6.623c0-1.63-0.591-3.12-1.568-4.274h38.032c-0.677,1.3-1.066,2.775-1.066,4.343
				c0,2.119,0.708,4.068,1.889,5.642h-5.974c-3.658,0-6.623,2.965-6.623,6.623c0,3.658,2.965,6.623,6.623,6.623h37.063
				c3.658,0,6.623-2.965,6.623-6.623c0-1.019-0.237-1.98-0.648-2.843h13.857c5.204,0,9.423-4.219,9.423-9.423
				S485.599,70.845,480.395,70.845z"/>
		</g>
	</g>
</g>
</svg>
