<svg width="424" height="304" viewBox="0 0 424 304" fill="none" xmlns="http://www.w3.org/2000/svg">
<g clip-path="url(#clip0_117_6150)">
<g style="mix-blend-mode:multiply" opacity="0.9">
<path opacity="0.0196078" d="M292.717 283.998C226.385 282.413 172.926 268.046 173.314 251.91C173.702 235.773 227.79 223.976 294.122 225.562C360.454 227.147 413.913 241.513 413.525 257.65C413.137 273.787 359.05 285.583 292.717 283.998Z" fill="#FCFBFB"/>
<path opacity="0.0392157" d="M293.313 283.608C227.82 282.042 175.038 267.845 175.421 251.897C175.805 235.95 229.208 224.29 294.702 225.855C360.195 227.42 412.977 241.617 412.594 257.565C412.211 273.513 358.807 285.173 293.313 283.608Z" fill="#FAF7F7"/>
<path opacity="0.0588235" d="M293.86 283.216C229.179 281.67 177.051 267.642 177.43 251.883C177.809 236.124 230.551 224.602 295.232 226.147C359.914 227.693 412.042 241.722 411.663 257.481C411.284 273.24 358.542 284.762 293.86 283.216Z" fill="#F7F3F3"/>
<path opacity="0.0784314" d="M294.457 282.825C230.588 281.299 179.114 267.439 179.489 251.869C179.863 236.299 231.943 224.915 295.813 226.441C359.682 227.967 411.156 241.827 410.781 257.397C410.407 272.967 358.327 284.352 294.457 282.825Z" fill="#F4EFEF"/>
<path opacity="0.0980392" d="M295.054 282.386C232.024 280.879 181.227 267.189 181.597 251.808C181.966 236.427 233.363 225.179 296.393 226.686C359.424 228.192 410.221 241.882 409.851 257.264C409.481 272.645 358.085 283.893 295.054 282.386Z" fill="#F2EBEB"/>
<path opacity="0.1176" d="M295.602 281.994C233.383 280.507 183.241 266.986 183.607 251.793C183.972 236.601 234.706 225.491 296.925 226.978C359.144 228.465 409.286 241.987 408.921 257.179C408.555 272.371 357.821 283.482 295.602 281.994Z" fill="#EFE7E7"/>
<path opacity="0.1373" d="M296.199 281.555C234.793 280.087 185.304 266.756 185.664 251.78C186.025 236.803 236.097 225.853 297.503 227.32C358.91 228.788 408.399 242.119 408.038 257.096C407.678 272.072 357.606 283.023 296.199 281.555Z" fill="#ECE3E3"/>
<path opacity="0.1569" d="M296.795 281.164C236.228 279.717 187.416 266.555 187.771 251.768C188.127 236.98 237.515 226.166 298.083 227.614C358.651 229.062 407.463 242.223 407.107 257.011C406.752 271.798 357.363 282.612 296.795 281.164Z" fill="#EADFDF"/>
<path opacity="0.1765" d="M297.342 280.773C237.586 279.344 189.429 266.352 189.78 251.753C190.131 237.154 238.858 226.478 298.614 227.906C358.37 229.335 406.527 242.328 406.176 256.926C405.825 271.525 357.098 282.201 297.342 280.773Z" fill="#E7DADA"/>
<path opacity="0.1961" d="M297.938 280.382C239.021 278.974 191.541 266.15 191.887 251.741C192.234 237.331 240.276 226.791 299.193 228.2C358.11 229.608 405.591 242.432 405.245 256.842C404.898 271.251 356.856 281.791 297.938 280.382Z" fill="#E4D6D6"/>
<path opacity="0.2157" d="M298.535 279.992C240.43 278.603 193.604 265.948 193.946 251.727C194.288 237.506 241.669 227.104 299.774 228.493C357.879 229.883 404.705 242.537 404.363 256.758C404.021 270.979 356.64 281.381 298.535 279.992Z" fill="#E2D2D2"/>
<path opacity="0.2353" d="M299.082 279.6C241.789 278.23 195.617 265.745 195.955 251.713C196.292 237.681 243.011 227.416 300.304 228.786C357.598 230.156 403.769 242.642 403.432 256.674C403.094 270.706 356.376 280.97 299.082 279.6Z" fill="#DFCECE"/>
<path opacity="0.2549" d="M299.679 279.161C243.225 277.811 197.73 265.495 198.063 251.651C198.396 237.808 244.431 227.681 300.885 229.031C357.339 230.381 402.835 242.697 402.502 256.54C402.169 270.383 356.134 280.511 299.679 279.161Z" fill="#DCCACA"/>
<path opacity="0.2745" d="M300.277 278.722C244.635 277.391 199.794 265.265 200.122 251.638C200.449 238.011 245.822 228.042 301.464 229.373C357.107 230.704 401.948 242.829 401.62 256.457C401.293 270.084 355.92 280.052 300.277 278.722Z" fill="#DAC6C6"/>
<path opacity="0.2941" d="M300.824 278.33C245.994 277.019 201.807 265.062 202.13 251.623C202.454 238.185 247.165 228.354 301.995 229.665C356.826 230.977 401.012 242.934 400.689 256.372C400.366 269.81 355.655 279.641 300.824 278.33Z" fill="#D7C2C2"/>
<path opacity="0.3137" d="M301.42 277.939C247.429 276.648 203.919 264.861 204.237 251.611C204.556 238.362 248.583 228.668 302.575 229.959C356.566 231.25 400.077 243.038 399.758 256.287C399.439 269.537 355.412 279.231 301.42 277.939Z" fill="#D4BEBE"/>
<path opacity="0.3333" d="M302.016 277.549C248.837 276.277 205.981 264.658 206.295 251.598C206.609 238.537 249.975 228.981 303.154 230.253C356.334 231.525 399.19 243.143 398.875 256.204C398.561 269.264 355.196 278.821 302.016 277.549Z" fill="#D2BABA"/>
<path opacity="0.3529" d="M302.564 277.157C250.197 275.905 207.995 264.455 208.305 251.583C208.615 238.711 251.318 229.292 303.686 230.545C356.053 231.798 398.255 243.248 397.945 256.119C397.635 268.991 354.932 278.41 302.564 277.157Z" fill="#CFB6B6"/>
<path opacity="0.3725" d="M303.16 276.767C251.632 275.534 210.107 264.253 210.412 251.571C210.717 238.888 252.737 229.606 304.265 230.838C355.794 232.071 397.319 243.352 397.014 256.035C396.709 268.717 354.689 277.999 303.16 276.767Z" fill="#CCB2B2"/>
<path opacity="0.3922" d="M303.758 276.327C253.041 275.114 212.171 264.002 212.471 251.508C212.772 239.014 254.13 229.87 304.847 231.083C355.564 232.296 396.434 243.408 396.133 255.902C395.833 268.396 354.475 277.541 303.758 276.327Z" fill="#CAAEAE"/>
<path opacity="0.4118" d="M304.306 275.887C254.401 274.693 214.185 263.772 214.481 251.494C214.776 239.216 255.472 230.23 305.376 231.424C355.281 232.618 395.498 243.54 395.202 255.818C394.907 268.096 354.211 277.081 304.306 275.887Z" fill="#C7AAAA"/>
<path opacity="0.4314" d="M304.902 275.496C255.836 274.322 216.296 263.57 216.587 251.481C216.878 239.392 256.89 230.544 305.956 231.718C355.022 232.892 394.562 243.644 394.271 255.733C393.98 267.822 353.968 276.67 304.902 275.496Z" fill="#C4A6A6"/>
<path opacity="0.451" d="M305.498 275.106C257.244 273.951 218.359 263.368 218.645 251.468C218.932 239.568 258.281 230.857 306.536 232.011C354.79 233.166 393.675 243.749 393.389 255.65C393.102 267.55 353.752 276.261 305.498 275.106Z" fill="#C2A2A2"/>
<path opacity="0.4706" d="M306.045 274.714C258.63 273.58 220.421 263.166 220.703 251.454C220.985 239.743 259.651 231.169 307.066 232.304C354.481 233.439 392.69 243.852 392.408 255.564C392.127 267.275 353.46 275.849 306.045 274.714Z" fill="#BF9E9E"/>
<path opacity="0.4902" d="M306.642 274.324C260.039 273.208 222.485 262.963 222.762 251.441C223.039 239.919 261.044 231.482 307.647 232.597C354.25 233.713 391.804 243.958 391.527 255.48C391.25 267.003 353.245 275.439 306.642 274.324Z" fill="#BC9A9A"/>
<path opacity="0.5098" d="M307.238 273.933C261.447 272.837 224.547 262.761 224.82 251.427C225.093 240.094 262.435 231.795 308.226 232.891C354.018 233.987 390.917 244.063 390.645 255.397C390.372 266.73 353.029 275.029 307.238 273.933Z" fill="#BA9595"/>
<path opacity="0.5294" d="M307.785 273.542C262.833 272.466 226.609 262.559 226.878 251.414C227.146 240.269 263.805 232.107 308.757 233.183C353.709 234.259 389.933 244.166 389.664 255.311C389.396 266.456 352.738 274.618 307.785 273.542Z" fill="#B79191"/>
<path opacity="0.549" d="M308.383 273.053C264.243 271.997 228.673 262.28 228.937 251.352C229.2 240.423 265.196 232.42 309.336 233.477C353.477 234.534 389.046 244.25 388.783 255.179C388.52 266.107 352.524 274.11 308.383 273.053Z" fill="#B48D8D"/>
<path opacity="0.5686" d="M308.98 272.663C265.652 271.625 230.737 262.078 230.995 251.338C231.254 240.598 266.588 232.733 309.917 233.77C353.245 234.808 388.16 244.355 387.902 255.095C387.643 265.835 352.309 273.7 308.98 272.663Z" fill="#B28989"/>
<path opacity="0.5882" d="M309.527 272.271C267.038 271.254 232.799 261.876 233.053 251.325C233.308 240.774 267.958 233.045 310.448 234.063C352.937 235.08 387.176 244.458 386.922 255.009C386.668 265.56 352.017 273.289 309.527 272.271Z" fill="#AF8585"/>
<path opacity="0.6078" d="M310.123 271.881C268.446 270.883 234.862 261.673 235.111 251.311C235.361 240.949 269.35 233.358 311.027 234.356C352.705 235.355 386.289 244.564 386.039 254.926C385.79 265.288 351.801 272.879 310.123 271.881Z" fill="#AC8181"/>
<path opacity="0.6275" d="M310.72 271.49C269.854 270.512 236.925 261.471 237.17 251.298C237.415 241.125 270.742 233.671 311.608 234.65C352.473 235.629 385.403 244.669 385.158 254.843C384.913 265.016 351.586 272.469 310.72 271.49Z" fill="#AA7D7D"/>
<path opacity="0.6471" d="M311.267 271.099C271.24 270.14 238.987 261.269 239.228 251.284C239.468 241.3 272.112 233.984 312.138 234.942C352.165 235.901 384.418 244.772 384.178 254.757C383.937 264.741 351.294 272.058 311.267 271.099Z" fill="#A77979"/>
<path opacity="0.6667" d="M311.863 270.708C272.648 269.769 241.05 261.066 241.286 251.271C241.522 241.475 273.503 234.296 312.718 235.236C351.933 236.175 383.531 244.878 383.295 254.673C383.059 264.469 351.078 271.648 311.863 270.708Z" fill="#A47575"/>
<path opacity="0.6863" d="M312.461 270.22C274.085 269.3 243.163 260.789 243.394 251.21C243.625 241.63 274.922 234.61 313.297 235.529C351.673 236.449 382.596 244.96 382.365 254.54C382.134 264.119 350.837 271.14 312.461 270.22Z" fill="#A27171"/>
<path opacity="0.7059" d="M313.009 269.828C275.445 268.928 245.177 260.586 245.404 251.195C245.63 241.804 276.265 234.922 313.829 235.822C351.393 236.722 381.661 245.065 381.435 254.455C381.208 263.846 350.573 270.729 313.009 269.828Z" fill="#9F6D6D"/>
<path opacity="0.7255" d="M313.605 269.438C276.853 268.557 247.239 260.383 247.461 251.182C247.683 241.98 277.656 235.234 314.409 236.115C351.161 236.996 380.774 245.17 380.552 254.372C380.331 263.573 350.357 270.319 313.605 269.438Z" fill="#9C6969"/>
<path opacity="0.7451" d="M314.201 269.047C278.288 268.186 249.351 260.182 249.568 251.169C249.785 242.156 279.075 235.548 314.988 236.409C350.901 237.27 379.838 245.274 379.621 254.287C379.404 263.3 350.114 269.908 314.201 269.047Z" fill="#9A6565"/>
<path opacity="0.7647" d="M314.748 268.656C279.647 267.814 251.364 259.979 251.577 251.155C251.79 242.331 280.418 235.86 315.519 236.701C350.62 237.543 378.903 245.378 378.69 254.202C378.477 263.026 349.849 269.497 314.748 268.656Z" fill="#976161"/>
<path opacity="0.7843" d="M315.345 268.265C281.056 267.443 253.427 259.776 253.636 251.141C253.844 242.506 281.81 236.173 316.099 236.995C350.389 237.817 378.017 245.484 377.808 254.119C377.6 262.754 349.634 269.088 315.345 268.265Z" fill="#945D5D"/>
<path opacity="0.8039" d="M315.941 267.875C282.491 267.072 255.539 259.575 255.743 251.129C255.946 242.683 283.228 236.486 316.679 237.288C350.129 238.091 377.081 245.588 376.877 254.034C376.673 262.481 349.391 268.677 315.941 267.875Z" fill="#925959"/>
<path opacity="0.8235" d="M316.489 267.434C283.851 266.651 257.553 259.345 257.752 251.114C257.95 242.884 284.57 236.847 317.208 237.63C349.847 238.413 376.145 245.719 375.946 253.95C375.747 262.18 349.128 268.217 316.489 267.434Z" fill="#8F5555"/>
<path opacity="0.8431" d="M317.087 266.995C285.26 266.231 259.617 259.093 259.811 251.052C260.005 243.011 285.963 237.111 317.79 237.874C349.616 238.638 375.26 245.776 375.066 253.817C374.871 261.859 348.914 267.759 317.087 266.995Z" fill="#8C5050"/>
<path opacity="0.8627" d="M317.683 266.605C286.695 265.861 261.729 258.892 261.918 251.04C262.108 243.187 287.382 237.424 318.37 238.168C349.357 238.912 374.324 245.88 374.134 253.733C373.945 261.585 348.671 267.348 317.683 266.605Z" fill="#8A4C4C"/>
<path opacity="0.8824" d="M318.23 266.213C288.054 265.489 263.742 258.689 263.927 251.025C264.112 243.361 288.724 237.736 318.9 238.46C349.076 239.185 373.388 245.985 373.203 253.648C373.018 261.312 348.406 266.937 318.23 266.213Z" fill="#874848"/>
<path opacity="0.902" d="M318.827 265.822C289.463 265.117 265.805 258.486 265.986 251.012C266.166 243.537 290.117 238.049 319.481 238.754C348.844 239.459 372.502 246.09 372.322 253.565C372.141 261.04 348.191 266.527 318.827 265.822Z" fill="#844444"/>
<path opacity="0.9216" d="M319.423 265.432C290.898 264.747 267.917 258.285 268.093 250.999C268.269 243.713 291.535 238.363 320.06 239.048C348.585 239.733 371.566 246.194 371.39 253.48C371.214 260.766 347.948 266.117 319.423 265.432Z" fill="#824040"/>
<path opacity="0.9412" d="M319.971 264.991C292.258 264.326 269.931 258.055 270.102 250.985C270.273 243.915 292.877 238.723 320.59 239.389C348.303 240.055 370.63 246.326 370.459 253.396C370.288 260.466 347.684 265.657 319.971 264.991Z" fill="#7F3C3C"/>
<path opacity="0.9608" d="M320.567 264.601C293.693 263.955 272.042 257.853 272.209 250.972C272.375 244.091 294.296 239.037 321.169 239.682C348.043 240.328 369.694 246.43 369.528 253.311C369.362 260.192 347.441 265.247 320.567 264.601Z" fill="#7C3838"/>
<path opacity="0.9804" d="M321.165 264.162C295.103 263.535 274.107 257.602 274.268 250.91C274.43 244.218 295.689 239.301 321.751 239.927C347.813 240.554 368.809 246.487 368.647 253.179C368.486 259.871 347.227 264.788 321.165 264.162Z" fill="#7A3434"/>
<path opacity="0.9" d="M321.712 263.77C296.462 263.163 276.12 257.399 276.277 250.895C276.435 244.392 297.031 239.612 322.282 240.22C347.532 240.827 367.873 246.591 367.716 253.094C367.559 259.597 346.962 264.377 321.712 263.77Z" fill="#773030"/>
</g>
<path d="M423.902 166.125L424 247.452L384.541 273.209L384.443 189.829L423.902 166.125Z" fill="url(#paint0_linear_117_6150)"/>
<path d="M276.311 255.321L384.541 273.209L384.443 189.829L276.262 175.704L276.311 255.321Z" fill="url(#paint1_linear_117_6150)"/>
<path d="M423.902 166.125L327.583 151.951L276.262 175.704L384.443 189.829L423.902 166.125Z" fill="#D09E6B"/>
<path opacity="0.1" d="M313.123 158.647L411.256 173.7V189.829L404.197 194.277L404.148 177.952L301.604 163.974L313.123 158.647Z" fill="black"/>
<g style="mix-blend-mode:multiply" opacity="0.9">
<path opacity="0.0196078" d="M121.453 184.686C55.1204 183.101 1.66179 168.734 2.04966 152.597C2.43753 136.461 56.525 124.664 122.857 126.249C189.19 127.834 242.648 142.201 242.261 158.338C241.873 174.474 187.785 186.271 121.453 184.686Z" fill="#FCFBFB"/>
<path opacity="0.0392157" d="M122.049 184.295C56.5554 182.73 3.77322 168.533 4.15657 152.585C4.53992 136.637 57.9436 124.978 123.437 126.543C188.931 128.108 241.713 142.305 241.329 158.253C240.946 174.201 187.542 185.86 122.049 184.295Z" fill="#FAF7F7"/>
<path opacity="0.0588235" d="M122.646 183.905C57.9641 182.359 5.83643 168.331 6.21526 152.572C6.59408 136.813 59.3359 125.291 124.017 126.836C188.699 128.382 240.827 142.411 240.448 158.17C240.069 173.929 187.327 185.451 122.646 183.905Z" fill="#F7F3F3"/>
<path opacity="0.0784314" d="M123.193 183.513C59.323 181.987 7.84985 168.127 8.22415 152.557C8.59846 136.987 60.6785 125.602 124.548 127.129C188.418 128.655 239.891 142.515 239.517 158.085C239.142 173.655 187.062 185.04 123.193 183.513Z" fill="#F4EFEF"/>
<path opacity="0.0980392" d="M123.789 183.123C60.758 181.616 9.96126 167.926 10.331 152.545C10.7008 137.164 62.0971 125.916 125.128 127.422C188.158 128.929 238.955 142.619 238.585 158C238.216 173.382 186.819 184.629 123.789 183.123Z" fill="#F2EBEB"/>
<path opacity="0.1176" d="M124.386 182.683C62.1676 181.196 12.0255 167.675 12.3907 152.482C12.756 137.29 63.4904 126.18 125.709 127.667C187.928 129.154 238.07 142.676 237.705 157.868C237.34 173.06 186.605 184.17 124.386 182.683Z" fill="#EFE7E7"/>
<path opacity="0.1373" d="M124.935 182.243C63.5279 180.775 14.0397 167.444 14.3998 152.468C14.7599 137.491 64.8319 126.54 126.239 128.008C187.646 129.476 237.134 142.807 236.774 157.783C236.414 172.76 186.342 183.711 124.935 182.243Z" fill="#ECE3E3"/>
<path opacity="0.1569" d="M125.531 181.852C64.9629 180.404 16.1511 167.243 16.5067 152.455C16.8623 137.668 66.2505 126.854 126.818 128.302C187.386 129.75 236.198 142.911 235.843 157.699C235.487 172.486 186.099 183.3 125.531 181.852Z" fill="#EADFDF"/>
<path opacity="0.1765" d="M126.127 181.462C66.3706 180.033 18.2134 167.041 18.5644 152.442C18.9155 137.843 67.6419 127.167 127.398 128.595C187.154 130.024 235.311 143.017 234.96 157.615C234.609 172.214 185.883 182.89 126.127 181.462Z" fill="#E7DADA"/>
<path opacity="0.1961" d="M126.674 181.07C67.7568 179.662 20.276 166.838 20.6225 152.428C20.969 138.019 69.0116 127.479 127.929 128.888C186.846 130.296 234.327 143.12 233.98 157.529C233.633 171.939 185.591 182.479 126.674 181.07Z" fill="#E4D6D6"/>
<path opacity="0.2157" d="M127.271 180.68C69.1655 179.29 22.3392 166.636 22.6812 152.415C23.0232 138.194 70.404 127.792 128.509 129.181C186.614 130.571 233.441 143.225 233.099 157.446C232.757 171.667 185.376 182.069 127.271 180.68Z" fill="#E2D2D2"/>
<path opacity="0.2353" d="M127.866 180.289C70.5732 178.919 24.4015 166.433 24.7389 152.401C25.0764 138.37 71.7953 128.105 129.089 129.475C186.382 130.845 232.554 143.33 232.216 157.362C231.879 171.394 185.16 181.659 127.866 180.289Z" fill="#DFCECE"/>
<path opacity="0.2549" d="M128.415 179.849C71.9603 178.499 26.465 166.182 26.798 152.339C27.1309 138.496 73.1661 128.368 129.62 129.718C186.075 131.068 231.57 143.385 231.237 157.228C230.904 171.071 184.869 181.199 128.415 179.849Z" fill="#DCCACA"/>
<path opacity="0.2745" d="M129.013 179.409C73.3704 178.079 28.5291 165.953 28.8569 152.326C29.1847 138.698 74.5575 128.73 130.2 130.061C185.842 131.391 230.683 143.517 230.356 157.144C230.028 170.772 184.655 180.74 129.013 179.409Z" fill="#DAC6C6"/>
<path opacity="0.2941" d="M129.609 179.019C74.7781 177.707 30.5913 165.751 30.9146 152.312C31.2379 138.874 75.9488 129.043 130.779 130.354C185.61 131.666 229.797 143.622 229.473 157.061C229.15 170.499 184.439 180.33 129.609 179.019Z" fill="#D7C2C2"/>
<path opacity="0.3137" d="M130.156 178.627C76.1643 177.336 32.6539 165.548 32.9727 152.299C33.2914 139.049 77.3186 129.355 131.31 130.647C185.302 131.938 228.812 143.726 228.493 156.975C228.174 170.224 184.147 179.918 130.156 178.627Z" fill="#D4BEBE"/>
<path opacity="0.3333" d="M130.752 178.237C77.572 176.965 34.7162 165.346 35.0304 152.285C35.3446 139.225 78.7099 129.668 131.89 130.94C185.069 132.212 227.925 143.831 227.611 156.892C227.297 169.952 183.931 179.509 130.752 178.237Z" fill="#D2BABA"/>
<path opacity="0.3529" d="M131.348 177.846C78.9807 176.593 36.7794 165.143 37.0891 152.272C37.3988 139.4 80.1022 129.981 132.47 131.234C184.838 132.486 227.039 143.936 226.729 156.808C226.42 169.68 183.716 179.099 131.348 177.846Z" fill="#CFB6B6"/>
<path opacity="0.3725" d="M131.896 177.454C80.3669 176.222 38.842 164.941 39.1471 152.258C39.4523 139.576 81.472 130.293 133.001 131.526C184.529 132.759 226.054 144.04 225.749 156.722C225.444 169.405 183.424 178.687 131.896 177.454Z" fill="#CCB2B2"/>
<path opacity="0.3922" d="M132.491 177.064C81.7746 175.851 40.9042 164.739 41.2049 152.245C41.5055 139.751 82.8634 130.606 133.58 131.82C184.297 133.033 225.167 144.145 224.867 156.639C224.566 169.133 183.208 178.277 132.491 177.064Z" fill="#CAAEAE"/>
<path opacity="0.4118" d="M133.091 176.576C83.1856 175.382 42.9693 164.46 43.2647 152.183C43.5602 139.905 84.2557 130.919 134.161 132.113C184.066 133.307 224.282 144.228 223.986 156.506C223.691 168.784 182.995 177.77 133.091 176.576Z" fill="#C7AAAA"/>
<path opacity="0.4314" d="M133.638 176.184C84.5718 175.01 45.0319 164.258 45.3228 152.169C45.6138 140.08 85.6255 131.232 134.691 132.406C183.757 133.58 223.297 144.332 223.006 156.421C222.715 168.51 182.704 177.358 133.638 176.184Z" fill="#C4A6A6"/>
<path opacity="0.451" d="M134.234 175.794C85.9795 174.639 47.0941 164.056 47.3805 152.156C47.667 140.255 87.0168 131.544 135.271 132.699C183.525 133.854 222.41 144.437 222.124 156.337C221.837 168.237 182.488 176.948 134.234 175.794Z" fill="#C2A2A2"/>
<path opacity="0.4706" d="M134.83 175.403C87.4145 174.268 49.2055 163.855 49.4874 152.143C49.7694 140.432 88.4354 131.858 135.851 132.993C183.266 134.127 221.475 144.541 221.193 156.253C220.911 167.964 182.245 176.538 134.83 175.403Z" fill="#BF9E9E"/>
<path opacity="0.4902" d="M135.377 175.011C88.7734 173.896 51.2189 163.651 51.4963 152.129C51.7737 140.606 89.7779 132.17 136.381 133.285C182.984 134.401 220.539 144.646 220.261 156.168C219.984 167.69 181.98 176.127 135.377 175.011Z" fill="#BC9A9A"/>
<path opacity="0.5098" d="M135.973 174.621C90.1821 173.525 53.2821 163.449 53.555 152.115C53.8279 140.782 91.1703 132.483 136.962 133.579C182.753 134.675 219.653 144.751 219.38 156.084C219.107 167.418 181.765 175.717 135.973 174.621Z" fill="#BA9595"/>
<path opacity="0.5294" d="M136.569 174.23C91.617 173.154 55.3935 163.247 55.6619 152.103C55.9303 140.958 92.5889 132.796 137.541 133.872C182.493 134.948 218.717 144.855 218.449 156C218.18 167.144 181.522 175.307 136.569 174.23Z" fill="#B79191"/>
<path opacity="0.549" d="M137.119 173.741C92.9783 172.684 57.4088 162.968 57.672 152.039C57.9351 141.111 93.9314 133.108 138.072 134.165C182.212 135.221 217.782 144.938 217.519 155.866C217.255 166.795 181.259 174.798 137.119 173.741Z" fill="#B48D8D"/>
<path opacity="0.5686" d="M137.716 173.351C94.387 172.313 59.472 162.766 59.7307 152.026C59.9893 141.286 95.3237 133.421 138.652 134.458C181.981 135.496 216.896 145.043 216.637 155.783C216.378 166.523 181.044 174.388 137.716 173.351Z" fill="#B28989"/>
<path opacity="0.5882" d="M138.312 172.96C95.822 171.943 61.5834 162.565 61.8376 152.014C62.0917 141.463 96.7423 133.734 139.232 134.752C181.721 135.769 215.96 145.147 215.706 155.698C215.452 166.249 180.801 173.978 138.312 172.96Z" fill="#AF8585"/>
<path opacity="0.6078" d="M138.859 172.568C97.1809 171.57 63.5968 162.361 63.8465 151.999C64.0961 141.637 98.0849 134.046 139.763 135.044C181.44 136.042 215.024 145.252 214.775 155.614C214.525 165.976 180.536 173.567 138.859 172.568Z" fill="#AC8181"/>
<path opacity="0.6275" d="M139.454 172.178C98.5886 171.199 65.6591 162.159 65.9042 151.985C66.1493 141.812 99.4762 134.359 140.342 135.338C181.208 136.316 214.137 145.357 213.892 155.53C213.647 165.703 180.32 173.157 139.454 172.178Z" fill="#AA7D7D"/>
<path opacity="0.6471" d="M140.051 171.787C100.025 170.829 67.7715 161.957 68.0121 151.973C68.2526 141.989 100.896 134.672 140.923 135.631C180.949 136.59 213.202 145.461 212.962 155.445C212.721 165.43 180.078 172.746 140.051 171.787Z" fill="#A77979"/>
<path opacity="0.6667" d="M140.598 171.396C101.383 170.456 69.7849 161.754 70.0209 151.958C70.257 142.163 102.238 134.984 141.453 135.923C180.668 136.863 212.267 145.565 212.031 155.361C211.795 165.156 179.813 172.335 140.598 171.396Z" fill="#A47575"/>
<path opacity="0.6863" d="M141.196 170.956C102.82 170.037 71.8971 161.526 72.128 151.946C72.3589 142.367 103.656 135.346 142.032 136.266C180.408 137.186 211.33 145.697 211.1 155.276C210.869 164.856 179.572 171.876 141.196 170.956Z" fill="#A27171"/>
<path opacity="0.7059" d="M141.793 170.517C104.229 169.617 73.9604 161.274 74.1867 151.884C74.4131 142.493 105.048 135.61 142.612 136.511C180.176 137.411 210.444 145.753 210.218 155.144C209.992 164.535 179.357 171.417 141.793 170.517Z" fill="#9F6D6D"/>
<path opacity="0.7255" d="M142.34 170.125C105.588 169.245 75.9748 161.071 76.1966 151.869C76.4185 142.667 106.392 135.922 143.144 136.803C179.896 137.684 209.51 145.858 209.288 155.059C209.066 164.261 179.093 171.006 142.34 170.125Z" fill="#9C6969"/>
<path opacity="0.7451" d="M142.936 169.735C107.023 168.874 78.0861 160.87 78.3035 151.857C78.5208 142.844 107.81 136.236 143.724 137.097C179.637 137.958 208.574 145.962 208.356 154.975C208.139 163.988 178.85 170.596 142.936 169.735Z" fill="#9A6565"/>
<path opacity="0.7647" d="M143.532 169.344C108.431 168.503 80.1484 160.667 80.3612 151.843C80.574 143.019 109.202 136.548 144.303 137.39C179.404 138.232 207.687 146.067 207.474 154.891C207.261 163.715 178.634 170.186 143.532 169.344Z" fill="#976161"/>
<path opacity="0.7843" d="M144.079 168.953C109.79 168.131 82.1618 160.464 82.3701 151.829C82.5784 143.194 110.544 136.86 144.834 137.682C179.123 138.505 206.751 146.171 206.543 154.807C206.334 163.442 178.369 169.775 144.079 168.953Z" fill="#945D5D"/>
<path opacity="0.8039" d="M144.676 168.562C111.226 167.76 84.2742 160.263 84.4779 151.816C84.6817 143.37 111.964 137.174 145.414 137.976C178.865 138.778 205.816 146.276 205.612 154.722C205.409 163.168 178.127 169.365 144.676 168.562Z" fill="#925959"/>
<path opacity="0.8235" d="M145.273 168.123C112.635 167.34 86.3373 160.033 86.5359 151.803C86.7345 143.573 113.354 137.536 145.993 138.319C178.631 139.102 204.929 146.408 204.73 154.639C204.532 162.869 177.912 168.906 145.273 168.123Z" fill="#8F5555"/>
<path opacity="0.8431" d="M145.821 167.683C113.995 166.919 88.3517 159.781 88.5457 151.739C88.7398 143.698 114.698 137.798 146.524 138.562C178.351 139.326 203.994 146.464 203.8 154.505C203.606 162.546 177.648 168.446 145.821 167.683Z" fill="#8C5050"/>
<path opacity="0.8627" d="M146.417 167.292C115.43 166.548 90.4631 159.58 90.6526 151.727C90.8422 143.875 116.116 138.112 147.104 138.856C178.092 139.599 203.058 146.568 202.869 154.42C202.679 162.273 177.405 168.036 146.417 167.292Z" fill="#8A4C4C"/>
<path opacity="0.8824" d="M147.014 166.902C116.838 166.177 92.5263 159.377 92.7113 151.714C92.8964 144.05 117.509 138.425 147.684 139.149C177.86 139.874 202.172 146.673 201.987 154.337C201.802 162.001 177.19 167.626 147.014 166.902Z" fill="#874848"/>
<path opacity="0.902" d="M147.561 166.51C118.197 165.805 94.5397 159.174 94.7202 151.699C94.9007 144.224 118.851 138.736 148.215 139.441C177.579 140.147 201.236 146.778 201.056 154.252C200.875 161.727 176.925 167.215 147.561 166.51Z" fill="#844444"/>
<path opacity="0.9216" d="M148.157 166.119C119.632 165.434 96.6511 158.973 96.8271 151.687C97.0031 144.401 120.27 139.05 148.795 139.735C177.319 140.42 200.301 146.882 200.125 154.168C199.949 161.454 176.682 166.805 148.157 166.119Z" fill="#824040"/>
<path opacity="0.9412" d="M148.754 165.68C121.041 165.014 98.7142 158.743 98.885 151.673C99.0559 144.603 121.66 139.412 149.373 140.077C177.086 140.743 199.413 147.014 199.242 154.084C199.072 161.154 176.467 166.346 148.754 165.68Z" fill="#7F3C3C"/>
<path opacity="0.9608" d="M149.302 165.288C122.428 164.643 100.777 158.541 100.943 151.66C101.109 144.779 123.03 139.724 149.904 140.37C176.778 141.016 198.429 147.117 198.262 153.998C198.096 160.88 176.175 165.934 149.302 165.288Z" fill="#7C3838"/>
<path opacity="0.9804" d="M149.898 164.898C123.836 164.271 102.84 158.339 103.002 151.646C103.164 144.954 124.422 140.037 150.484 140.663C176.546 141.29 197.543 147.223 197.381 153.915C197.219 160.607 175.96 165.525 149.898 164.898Z" fill="#7A3434"/>
<path opacity="0.9" d="M150.446 164.457C125.196 163.85 104.854 158.086 105.012 151.583C105.169 145.079 125.766 140.3 151.016 140.907C176.266 141.514 196.608 147.278 196.451 153.782C196.293 160.285 175.696 165.065 150.446 164.457Z" fill="#773030"/>
</g>
<path d="M252.635 66.8116L252.733 148.139L213.274 173.896L213.176 90.5158L252.635 66.8116Z" fill="url(#paint2_linear_117_6150)"/>
<path d="M105.093 156.008L213.274 173.896L213.176 90.5157L104.995 76.391L105.093 156.008Z" fill="url(#paint3_linear_117_6150)"/>
<path d="M252.636 66.8116L156.317 52.6379L104.996 76.391L213.177 90.5158L252.636 66.8116Z" fill="#D09E6B"/>
<path opacity="0.1" d="M141.857 59.3337L239.989 74.436V90.5157L232.931 94.9633V78.6392L130.337 64.6611L141.857 59.3337Z" fill="black"/>
<g style="mix-blend-mode:multiply" opacity="0.9">
<path opacity="0.0196078" d="M269.052 191.159C202.724 187.452 149.464 175.403 150.091 164.246C150.718 153.089 204.996 147.049 271.323 150.756C337.65 154.463 390.911 166.512 390.283 177.669C389.656 188.827 335.379 194.866 269.052 191.159Z" fill="#FCFBFB"/>
<path opacity="0.0392157" d="M269.507 190.915C203.855 187.245 151.136 175.336 151.756 164.313C152.376 153.291 206.099 147.33 271.75 150.999C337.402 154.668 390.121 166.578 389.501 177.6C388.882 188.623 335.158 194.584 269.507 190.915Z" fill="#FAF7F7"/>
<path opacity="0.0588235" d="M270.013 190.624C205.064 186.994 152.909 175.225 153.521 164.338C154.133 153.45 207.28 147.566 272.229 151.196C337.178 154.826 389.333 166.594 388.721 177.482C388.109 188.37 334.961 194.253 270.013 190.624Z" fill="#F7F3F3"/>
<path opacity="0.0784314" d="M270.467 190.379C206.194 186.787 154.58 175.158 155.184 164.405C155.789 153.653 208.382 147.847 272.655 151.439C336.929 155.031 388.542 166.66 387.938 177.413C387.333 188.166 334.74 193.971 270.467 190.379Z" fill="#F4EFEF"/>
<path opacity="0.0980392" d="M270.921 190.134C207.35 186.581 156.3 175.094 156.897 164.476C157.494 153.858 209.512 148.13 273.082 151.682C336.653 155.235 387.703 166.723 387.106 177.341C386.509 187.959 334.491 193.687 270.921 190.134Z" fill="#F2EBEB"/>
<path opacity="0.1176" d="M271.425 189.892C208.53 186.377 158.022 175.03 158.611 164.546C159.2 154.063 210.664 148.414 273.559 151.928C336.453 155.443 386.962 166.791 386.372 177.274C385.783 187.757 334.319 193.407 271.425 189.892Z" fill="#EFE7E7"/>
<path opacity="0.1373" d="M271.879 189.647C209.687 186.172 159.742 174.965 160.324 164.617C160.905 154.268 211.793 148.696 273.985 152.171C336.177 155.647 386.122 166.853 385.541 177.202C384.959 187.551 334.071 193.122 271.879 189.647Z" fill="#ECE3E3"/>
<path opacity="0.1569" d="M272.336 189.354C210.82 185.916 161.416 174.849 161.99 164.635C162.564 154.422 212.899 148.928 274.415 152.366C335.931 155.803 385.334 166.87 384.76 177.084C384.186 187.298 333.852 192.791 272.336 189.354Z" fill="#EADFDF"/>
<path opacity="0.1765" d="M272.79 189.109C211.977 185.71 163.137 174.785 163.703 164.706C164.27 154.627 214.028 149.211 274.842 152.609C335.655 156.007 384.495 166.933 383.928 177.012C383.362 187.091 333.604 192.507 272.79 189.109Z" fill="#E7DADA"/>
<path opacity="0.1961" d="M273.294 188.867C213.156 185.506 164.858 174.721 165.417 164.776C165.976 154.832 215.18 149.494 275.318 152.855C335.456 156.215 383.754 167.001 383.195 176.945C382.636 186.89 333.432 192.227 273.294 188.867Z" fill="#E4D6D6"/>
<path opacity="0.2157" d="M273.748 188.622C214.313 185.301 166.578 174.656 167.13 164.847C167.681 155.037 216.31 149.777 275.745 153.098C335.18 156.419 382.914 167.063 382.363 176.873C381.812 186.683 333.183 191.943 273.748 188.622Z" fill="#E2D2D2"/>
<path opacity="0.2353" d="M274.2 188.426C215.44 185.142 168.248 174.616 168.794 164.914C169.339 155.212 217.415 150.009 276.174 153.292C334.934 156.575 382.125 167.102 381.58 176.804C381.035 186.506 332.959 191.709 274.2 188.426Z" fill="#DFCECE"/>
<path opacity="0.2549" d="M274.704 188.184C216.647 184.94 170.019 174.554 170.556 164.987C171.094 155.42 218.594 150.294 276.651 153.538C334.707 156.782 381.336 167.167 380.798 176.734C380.26 186.302 332.76 191.428 274.704 188.184Z" fill="#DCCACA"/>
<path opacity="0.2745" d="M275.161 187.89C217.78 184.684 171.693 174.438 172.223 165.006C172.753 155.574 219.699 150.526 277.08 153.732C334.461 156.938 380.548 167.184 380.018 176.616C379.488 186.049 332.541 191.096 275.161 187.89Z" fill="#DAC6C6"/>
<path opacity="0.2941" d="M275.615 187.645C218.937 184.478 173.413 174.374 173.936 165.077C174.458 155.779 220.829 150.809 277.507 153.976C334.185 157.142 379.708 167.247 379.186 176.544C378.663 185.842 332.293 190.812 275.615 187.645Z" fill="#D7C2C2"/>
<path opacity="0.3137" d="M276.118 187.403C220.115 184.274 175.134 174.31 175.649 165.147C176.164 155.984 221.98 151.093 277.982 154.222C333.985 157.35 378.966 167.315 378.451 176.478C377.937 185.64 332.12 190.532 276.118 187.403Z" fill="#D4BEBE"/>
<path opacity="0.3333" d="M276.573 187.158C221.273 184.069 176.855 174.245 177.362 165.217C177.87 156.189 223.11 151.375 278.41 154.465C333.71 157.554 378.128 167.377 377.62 176.406C377.113 185.434 331.873 190.248 276.573 187.158Z" fill="#D2BABA"/>
<path opacity="0.3529" d="M277.027 186.913C222.403 183.862 178.526 174.178 179.026 165.285C179.526 156.392 224.213 151.656 278.837 154.708C333.461 157.759 377.337 167.443 376.837 176.336C376.338 185.23 331.651 189.965 277.027 186.913Z" fill="#CFB6B6"/>
<path opacity="0.3725" d="M277.484 186.62C223.563 183.607 180.25 174.065 180.742 165.306C181.234 156.548 225.345 151.89 279.266 154.902C333.188 157.914 376.5 167.457 376.008 176.215C375.516 184.974 331.405 189.632 277.484 186.62Z" fill="#CCB2B2"/>
<path opacity="0.3922" d="M277.988 186.378C224.742 183.403 181.971 174.001 182.456 165.377C182.94 156.753 226.497 152.173 279.743 155.148C332.988 158.123 375.76 167.525 375.275 176.149C374.79 184.773 331.233 189.352 277.988 186.378Z" fill="#CAAEAE"/>
<path opacity="0.4118" d="M278.442 186.133C225.899 183.198 183.691 173.936 184.168 165.447C184.645 156.958 227.627 152.456 280.169 155.391C332.712 158.326 374.92 167.588 374.443 176.077C373.966 184.566 330.985 189.068 278.442 186.133Z" fill="#C7AAAA"/>
<path opacity="0.4314" d="M278.896 185.888C227.029 182.991 185.363 173.869 185.832 165.515C186.302 157.161 228.729 152.737 280.596 155.634C332.463 158.532 374.129 167.653 373.66 176.007C373.19 184.362 330.763 188.785 278.896 185.888Z" fill="#C4A6A6"/>
<path opacity="0.451" d="M279.399 185.646C228.235 182.788 187.132 173.808 187.594 165.588C188.056 157.368 229.907 153.022 281.072 155.88C332.236 158.738 373.339 167.718 372.877 175.938C372.415 184.158 330.563 188.504 279.399 185.646Z" fill="#C2A2A2"/>
<path opacity="0.4706" d="M279.857 185.352C229.368 182.532 188.807 173.692 189.262 165.607C189.716 157.522 231.013 153.254 281.502 156.074C331.991 158.895 372.552 167.735 372.097 175.82C371.643 183.905 330.346 188.173 279.857 185.352Z" fill="#BF9E9E"/>
<path opacity="0.4902" d="M280.311 185.107C230.525 182.327 190.528 173.627 190.974 165.677C191.421 157.727 232.143 153.537 281.929 156.318C331.715 159.098 371.712 167.798 371.265 175.748C370.819 183.698 330.097 187.888 280.311 185.107Z" fill="#BC9A9A"/>
<path opacity="0.5098" d="M280.765 184.863C231.655 182.12 192.199 173.56 192.638 165.745C193.077 157.93 233.245 153.818 282.355 156.561C331.466 159.304 370.921 167.863 370.482 175.678C370.043 183.494 329.876 187.606 280.765 184.863Z" fill="#BA9595"/>
<path opacity="0.5294" d="M281.269 184.621C232.862 181.917 193.969 173.499 194.401 165.818C194.832 158.137 234.424 154.103 282.832 156.807C331.239 159.51 370.132 167.929 369.7 175.609C369.269 183.29 329.677 187.324 281.269 184.621Z" fill="#B79191"/>
<path opacity="0.549" d="M281.723 184.376C233.992 181.71 195.641 173.431 196.065 165.886C196.489 158.34 235.527 154.384 283.258 157.05C330.99 159.716 369.341 167.994 368.917 175.54C368.493 183.086 329.455 187.042 281.723 184.376Z" fill="#B48D8D"/>
<path opacity="0.5686" d="M282.177 184.131C235.148 181.504 197.361 173.367 197.778 165.956C198.194 158.545 236.656 154.666 283.685 157.293C330.714 159.919 368.501 168.057 368.085 175.468C367.669 182.879 329.207 186.757 282.177 184.131Z" fill="#B28989"/>
<path opacity="0.5882" d="M282.681 183.889C236.327 181.3 199.083 173.281 199.493 165.978C199.904 158.674 237.813 154.852 284.166 157.441C330.52 160.03 367.764 168.049 367.354 175.352C366.944 182.656 329.034 186.477 282.681 183.889Z" fill="#AF8585"/>
<path opacity="0.6078" d="M283.135 183.644C237.484 181.095 200.804 173.217 201.206 166.048C201.609 158.879 238.943 155.135 284.593 157.684C330.244 160.234 366.925 168.112 366.522 175.28C366.119 182.449 328.786 186.193 283.135 183.644Z" fill="#AC8181"/>
<path opacity="0.6275" d="M283.59 183.399C238.615 180.887 202.476 173.149 202.871 166.116C203.266 159.082 240.046 155.416 285.021 157.927C329.996 160.439 366.135 168.177 365.74 175.211C365.345 182.245 328.565 185.911 283.59 183.399Z" fill="#AA7D7D"/>
<path opacity="0.6471" d="M284.093 183.157C239.821 180.685 204.245 173.088 204.633 166.189C205.02 159.29 241.224 155.701 285.496 158.173C329.768 160.645 365.344 168.242 364.957 175.142C364.569 182.041 328.365 185.629 284.093 183.157Z" fill="#A77979"/>
<path opacity="0.6667" d="M284.547 182.912C240.951 180.478 205.917 173.021 206.297 166.256C206.676 159.492 242.326 155.982 285.923 158.416C329.519 160.851 364.553 168.308 364.173 175.072C363.793 181.837 328.144 185.347 284.547 182.912Z" fill="#A47575"/>
<path opacity="0.6863" d="M285.005 182.619C242.084 180.222 207.592 172.905 207.964 166.275C208.337 159.646 243.433 156.214 286.353 158.611C329.274 161.007 363.767 168.325 363.394 174.954C363.022 181.584 327.926 185.015 285.005 182.619Z" fill="#A27171"/>
<path opacity="0.7059" d="M285.459 182.374C243.241 180.016 209.312 172.84 209.677 166.346C210.042 159.851 244.562 156.497 286.78 158.854C328.998 161.211 362.927 168.387 362.562 174.882C362.197 181.377 327.677 184.731 285.459 182.374Z" fill="#9F6D6D"/>
<path opacity="0.7255" d="M285.962 182.132C244.42 179.812 211.032 172.776 211.39 166.416C211.747 160.056 245.713 156.78 287.256 159.1C328.798 161.419 362.185 168.455 361.828 174.815C361.471 181.175 327.504 184.451 285.962 182.132Z" fill="#9C6969"/>
<path opacity="0.7451" d="M286.417 181.887C245.578 179.607 212.754 172.712 213.103 166.486C213.453 160.261 246.844 157.063 287.683 159.343C328.523 161.623 361.346 168.518 360.997 174.743C360.647 180.969 327.257 184.167 286.417 181.887Z" fill="#9A6565"/>
<path opacity="0.7647" d="M286.871 181.642C246.707 179.4 214.425 172.644 214.767 166.554C215.109 160.463 247.946 157.344 288.11 159.586C328.274 161.828 360.556 168.583 360.214 174.674C359.872 180.765 327.035 183.884 286.871 181.642Z" fill="#976161"/>
<path opacity="0.7843" d="M287.374 181.4C247.913 179.197 216.195 172.583 216.529 166.627C216.863 160.671 249.124 157.629 288.585 159.832C328.047 162.035 359.765 168.649 359.431 174.605C359.096 180.561 326.835 183.603 287.374 181.4Z" fill="#945D5D"/>
<path opacity="0.8039" d="M287.832 181.106C249.047 178.941 217.87 172.467 218.197 166.646C218.524 160.825 250.23 157.861 289.016 160.026C327.801 162.191 358.978 168.665 358.651 174.487C358.324 180.308 326.618 183.271 287.832 181.106Z" fill="#925959"/>
<path opacity="0.8235" d="M288.286 180.861C250.204 178.736 219.59 172.402 219.91 166.716C220.229 161.03 251.36 158.143 289.443 160.269C327.525 162.395 358.139 168.728 357.819 174.414C357.5 180.101 326.369 182.987 288.286 180.861Z" fill="#8F5555"/>
<path opacity="0.8431" d="M288.789 180.619C251.382 178.531 221.31 172.338 221.622 166.786C221.934 161.235 252.511 158.427 289.918 160.515C327.325 162.603 357.397 168.796 357.085 174.348C356.773 179.899 326.196 182.707 288.789 180.619Z" fill="#8C5050"/>
<path opacity="0.8627" d="M289.243 180.374C252.539 178.326 223.031 172.274 223.335 166.857C223.639 161.44 253.64 158.709 290.345 160.758C327.049 162.807 356.557 168.859 356.253 174.276C355.949 179.693 325.948 182.423 289.243 180.374Z" fill="#8A4C4C"/>
<path opacity="0.8824" d="M289.698 180.13C253.67 178.119 224.703 172.207 225 166.924C225.296 161.642 254.744 158.99 290.772 161.001C326.801 163.012 355.767 168.924 355.471 174.206C355.174 179.489 325.727 182.14 289.698 180.13Z" fill="#874848"/>
<path opacity="0.902" d="M290.155 179.836C254.83 177.864 226.427 172.093 226.716 166.946C227.004 161.799 255.876 159.224 291.202 161.196C326.528 163.167 354.931 168.938 354.642 174.086C354.353 179.233 325.481 181.807 290.155 179.836Z" fill="#844444"/>
<path opacity="0.9216" d="M290.656 179.643C256.006 177.709 228.145 172.056 228.428 167.016C228.711 161.977 257.03 159.459 291.68 161.393C326.33 163.326 354.191 168.979 353.908 174.019C353.625 179.059 325.306 181.576 290.656 179.643Z" fill="#824040"/>
<path opacity="0.9412" d="M291.11 179.398C257.163 177.503 229.866 171.991 230.141 167.087C230.416 162.182 258.16 159.741 292.107 161.636C326.054 163.53 353.351 169.042 353.076 173.947C352.8 178.852 325.057 181.292 291.11 179.398Z" fill="#7F3C3C"/>
<path opacity="0.9608" d="M291.565 179.153C258.293 177.296 231.538 171.924 231.806 167.154C232.074 162.384 259.263 160.022 292.535 161.879C325.806 163.736 352.561 169.107 352.294 173.878C352.026 178.648 324.837 181.009 291.565 179.153Z" fill="#7C3838"/>
<path opacity="0.9804" d="M292.068 178.911C259.499 177.094 233.307 171.863 233.568 167.227C233.828 162.592 260.441 160.308 293.01 162.125C325.579 163.942 351.771 169.173 351.51 173.808C351.25 178.444 324.637 180.728 292.068 178.911Z" fill="#7A3434"/>
<path opacity="0.9" d="M292.525 178.617C260.632 176.838 234.982 171.747 235.234 167.246C235.487 162.746 261.546 160.54 293.44 162.319C325.333 164.099 350.983 169.19 350.73 173.69C350.478 178.191 324.418 180.397 292.525 178.617Z" fill="#773030"/>
</g>
<g style="mix-blend-mode:multiply" opacity="0.9">
<path opacity="0.0196078" d="M178.117 303.401C111.784 301.816 58.3258 287.449 58.7137 271.313C59.1016 255.176 113.189 243.379 179.521 244.964C245.854 246.55 299.313 260.916 298.925 277.053C298.537 293.19 244.449 304.986 178.117 303.401Z" fill="#FCFBFB"/>
<path opacity="0.0392157" d="M178.713 303.01C113.219 301.445 60.4373 287.248 60.8206 271.3C61.204 255.352 114.608 243.693 180.101 245.258C245.595 246.823 298.377 261.02 297.993 276.968C297.61 292.916 244.206 304.576 178.713 303.01Z" fill="#FAF7F7"/>
<path opacity="0.0588235" d="M179.31 302.62C114.628 301.074 62.5005 287.046 62.8793 271.287C63.2581 255.528 116 244.006 180.682 245.551C245.363 247.097 297.491 261.126 297.112 276.885C296.733 292.644 243.991 304.166 179.31 302.62Z" fill="#F7F3F3"/>
<path opacity="0.0784314" d="M179.857 302.228C115.987 300.702 64.5139 286.842 64.8882 271.272C65.2625 255.702 117.343 244.317 181.212 245.844C245.082 247.37 296.555 261.23 296.181 276.8C295.806 292.37 243.726 303.755 179.857 302.228Z" fill="#F4EFEF"/>
<path opacity="0.0980392" d="M180.453 301.838C117.422 300.331 66.6253 286.641 66.9951 271.26C67.3649 255.879 118.761 244.631 181.792 246.137C244.822 247.644 295.619 261.334 295.249 276.715C294.88 292.097 243.483 303.344 180.453 301.838Z" fill="#F2EBEB"/>
<path opacity="0.1176" d="M181.049 301.447C118.83 299.96 68.6876 286.439 69.0528 271.246C69.4181 256.054 120.152 244.944 182.371 246.431C244.59 247.918 294.732 261.44 294.367 276.632C294.002 291.824 243.267 302.934 181.049 301.447Z" fill="#EFE7E7"/>
<path opacity="0.1373" d="M181.599 300.958C120.192 299.49 70.7038 286.159 71.0639 271.183C71.424 256.206 121.496 245.255 182.903 246.723C244.31 248.191 293.798 261.522 293.438 276.498C293.078 291.475 243.006 302.426 181.599 300.958Z" fill="#ECE3E3"/>
<path opacity="0.1569" d="M182.195 300.567C121.627 299.12 72.8152 285.958 73.1708 271.171C73.5264 256.383 122.915 245.569 183.483 247.017C244.05 248.465 292.862 261.626 292.507 276.414C292.151 291.201 242.763 302.015 182.195 300.567Z" fill="#EADFDF"/>
<path opacity="0.1765" d="M182.791 300.177C123.035 298.748 74.8775 285.756 75.2285 271.157C75.5796 256.558 124.306 245.882 184.062 247.31C243.818 248.739 291.975 261.732 291.624 276.33C291.273 290.929 242.547 301.605 182.791 300.177Z" fill="#E7DADA"/>
<path opacity="0.1961" d="M183.338 299.785C124.421 298.377 76.94 285.553 77.2865 271.144C77.6331 256.734 125.676 246.194 184.593 247.603C243.51 249.011 290.991 261.835 290.644 276.245C290.298 290.654 242.255 301.194 183.338 299.785Z" fill="#E4D6D6"/>
<path opacity="0.2157" d="M183.935 299.395C125.83 298.005 79.0032 285.351 79.3452 271.13C79.6872 256.909 127.068 246.507 185.173 247.896C243.278 249.286 290.105 261.94 289.763 276.161C289.421 290.382 242.04 300.784 183.935 299.395Z" fill="#E2D2D2"/>
<path opacity="0.2353" d="M184.531 299.004C127.237 297.634 81.0655 285.149 81.403 271.117C81.7404 257.085 128.459 246.82 185.753 248.19C243.046 249.56 289.218 262.046 288.88 276.078C288.543 290.11 241.824 300.374 184.531 299.004Z" fill="#DFCECE"/>
<path opacity="0.2549" d="M185.078 298.613C128.623 297.263 83.1281 284.946 83.4611 271.103C83.794 257.26 129.829 247.132 186.283 248.482C242.738 249.832 288.233 262.149 287.9 275.992C287.567 289.835 241.532 299.963 185.078 298.613Z" fill="#DCCACA"/>
<path opacity="0.2745" d="M185.675 298.173C130.033 296.843 85.1912 284.717 85.519 271.09C85.8468 257.462 131.22 247.494 186.862 248.825C242.504 250.155 287.346 262.281 287.018 275.908C286.69 289.535 241.317 299.504 185.675 298.173Z" fill="#DAC6C6"/>
<path opacity="0.2941" d="M186.273 297.734C131.442 296.423 87.2554 284.466 87.5786 271.027C87.9019 257.589 132.613 247.758 187.443 249.069C242.274 250.381 286.461 262.338 286.137 275.776C285.814 289.214 241.103 299.045 186.273 297.734Z" fill="#D7C2C2"/>
<path opacity="0.3137" d="M186.82 297.342C132.828 296.051 89.318 284.263 89.6367 271.014C89.9555 257.764 133.983 248.07 187.974 249.362C241.966 250.653 285.476 262.441 285.157 275.69C284.838 288.94 240.811 298.634 186.82 297.342Z" fill="#D4BEBE"/>
<path opacity="0.3333" d="M187.416 296.952C134.236 295.68 91.3802 284.061 91.6945 271C92.0087 257.94 135.374 248.383 188.554 249.655C241.733 250.927 284.589 262.546 284.275 275.607C283.961 288.667 240.595 298.224 187.416 296.952Z" fill="#D2BABA"/>
<path opacity="0.3529" d="M188.012 296.561C135.645 295.309 93.4435 283.859 93.7532 270.987C94.0629 258.115 136.766 248.696 189.134 249.949C241.502 251.202 283.703 262.652 283.393 275.523C283.084 288.395 240.38 297.814 188.012 296.561Z" fill="#CFB6B6"/>
<path opacity="0.3725" d="M188.56 296.17C137.031 294.937 95.506 283.656 95.8112 270.973C96.1164 258.291 138.136 249.009 189.665 250.241C241.194 251.474 282.718 262.755 282.413 275.437C282.108 288.12 240.088 297.402 188.56 296.17Z" fill="#CCB2B2"/>
<path opacity="0.3922" d="M189.155 295.779C138.439 294.566 97.5683 283.454 97.8689 270.96C98.1696 258.466 139.527 249.321 190.244 250.535C240.961 251.748 281.831 262.86 281.531 275.354C281.23 287.848 239.872 296.992 189.155 295.779Z" fill="#CAAEAE"/>
<path opacity="0.4118" d="M189.704 295.339C139.799 294.145 99.5825 283.223 99.878 270.945C100.174 258.667 140.869 249.682 190.774 250.876C240.679 252.07 280.895 262.991 280.6 275.269C280.304 287.547 239.609 296.533 189.704 295.339Z" fill="#C7AAAA"/>
<path opacity="0.4314" d="M190.302 294.899C141.236 293.725 101.696 282.973 101.987 270.884C102.278 258.795 142.29 249.947 191.355 251.121C240.421 252.295 279.961 263.047 279.67 275.136C279.379 287.225 239.368 296.073 190.302 294.899Z" fill="#C4A6A6"/>
<path opacity="0.451" d="M190.898 294.509C142.644 293.354 103.758 282.771 104.045 270.871C104.331 258.971 143.681 250.26 191.935 251.414C240.189 252.569 279.074 263.152 278.788 275.052C278.502 286.953 239.152 295.664 190.898 294.509Z" fill="#C2A2A2"/>
<path opacity="0.4706" d="M191.445 294.117C144.03 292.982 105.821 282.569 106.103 270.857C106.385 259.146 145.051 250.572 192.466 251.707C239.881 252.841 278.09 263.255 277.808 274.967C277.526 286.678 238.86 295.252 191.445 294.117Z" fill="#BF9E9E"/>
<path opacity="0.4902" d="M192.042 293.727C145.438 292.611 107.884 282.366 108.161 270.844C108.439 259.321 146.443 250.885 193.046 252C239.649 253.116 277.204 263.361 276.926 274.883C276.649 286.406 238.645 294.842 192.042 293.727Z" fill="#BC9A9A"/>
<path opacity="0.5098" d="M192.637 293.336C146.846 292.24 109.946 282.164 110.219 270.83C110.492 259.497 147.834 251.198 193.626 252.294C239.417 253.39 276.317 263.466 276.044 274.8C275.771 286.133 238.429 294.432 192.637 293.336Z" fill="#BA9595"/>
<path opacity="0.5294" d="M193.185 292.945C148.232 291.868 112.009 281.962 112.277 270.817C112.545 259.672 149.204 251.51 194.156 252.586C239.109 253.662 275.332 263.569 275.064 274.714C274.796 285.859 238.137 294.021 193.185 292.945Z" fill="#B79191"/>
<path opacity="0.549" d="M193.782 292.505C149.641 291.448 114.072 281.732 114.335 270.803C114.598 259.875 150.594 251.872 194.735 252.929C238.875 253.985 274.445 263.702 274.182 274.63C273.918 285.559 237.922 293.562 193.782 292.505Z" fill="#B48D8D"/>
<path opacity="0.5686" d="M194.379 292.115C151.05 291.077 116.135 281.53 116.394 270.79C116.652 260.05 151.987 252.185 195.315 253.222C238.644 254.26 273.559 263.807 273.3 274.547C273.042 285.287 237.707 293.152 194.379 292.115Z" fill="#B28989"/>
<path opacity="0.5882" d="M194.927 291.674C152.437 290.657 118.199 281.279 118.453 270.728C118.707 260.177 153.358 252.448 195.847 253.466C238.337 254.483 272.575 263.861 272.321 274.412C272.067 284.963 237.416 292.692 194.927 291.674Z" fill="#AF8585"/>
<path opacity="0.6078" d="M195.523 291.284C153.845 290.286 120.261 281.076 120.511 270.714C120.76 260.352 154.749 252.761 196.427 253.759C238.104 254.757 271.688 263.967 271.439 274.329C271.189 284.691 237.2 292.282 195.523 291.284Z" fill="#AC8181"/>
<path opacity="0.6275" d="M196.119 290.893C155.254 289.914 122.324 280.874 122.569 270.701C122.814 260.527 156.141 253.074 197.007 254.053C237.873 255.032 270.802 264.072 270.557 274.245C270.312 284.419 236.985 291.872 196.119 290.893Z" fill="#AA7D7D"/>
<path opacity="0.6471" d="M196.667 290.502C156.64 289.543 124.387 280.671 124.627 270.687C124.868 260.703 157.511 253.386 197.538 254.345C237.565 255.304 269.818 264.175 269.577 274.16C269.336 284.144 236.693 291.46 196.667 290.502Z" fill="#A77979"/>
<path opacity="0.6667" d="M197.262 290.111C158.047 289.171 126.449 280.469 126.685 270.674C126.921 260.878 158.902 253.699 198.117 254.639C237.332 255.578 268.931 264.281 268.695 274.076C268.459 283.872 236.477 291.051 197.262 290.111Z" fill="#A47575"/>
<path opacity="0.6863" d="M197.86 289.672C159.484 288.752 128.561 280.241 128.792 270.661C129.023 261.082 160.32 254.062 198.696 254.981C237.072 255.901 267.994 264.412 267.764 273.992C267.533 283.571 236.236 290.591 197.86 289.672Z" fill="#A27171"/>
<path opacity="0.7059" d="M198.407 289.28C160.843 288.38 130.575 280.037 130.801 270.647C131.027 261.256 161.663 254.373 199.227 255.274C236.791 256.174 267.059 264.516 266.832 273.907C266.606 283.298 235.971 290.18 198.407 289.28Z" fill="#9F6D6D"/>
<path opacity="0.7255" d="M199.005 288.841C162.252 287.96 132.639 279.786 132.861 270.584C133.083 261.383 163.056 254.637 199.808 255.518C236.56 256.399 266.174 264.573 265.952 273.775C265.73 282.976 235.757 289.722 199.005 288.841Z" fill="#9C6969"/>
<path opacity="0.7451" d="M199.601 288.45C163.687 287.589 134.75 279.585 134.968 270.572C135.185 261.559 164.474 254.951 200.388 255.812C236.301 256.673 265.238 264.677 265.021 273.69C264.803 282.703 235.514 289.311 199.601 288.45Z" fill="#9A6565"/>
<path opacity="0.7647" d="M200.148 288.059C165.046 287.217 136.764 279.381 136.976 270.558C137.189 261.734 165.817 255.263 200.918 256.104C236.019 256.946 264.302 264.781 264.089 273.605C263.876 282.429 235.249 288.9 200.148 288.059Z" fill="#976161"/>
<path opacity="0.7843" d="M200.744 287.668C166.455 286.846 138.827 279.179 139.035 270.544C139.243 261.909 167.209 255.575 201.499 256.398C235.788 257.22 263.416 264.887 263.208 273.522C263 282.157 235.034 288.49 200.744 287.668Z" fill="#945D5D"/>
<path opacity="0.8039" d="M201.34 287.278C167.89 286.475 140.938 278.978 141.142 270.532C141.346 262.086 168.628 255.889 202.078 256.691C235.529 257.494 262.48 264.991 262.277 273.437C262.073 281.883 234.791 288.08 201.34 287.278Z" fill="#925959"/>
<path opacity="0.8235" d="M201.889 286.837C169.25 286.054 142.952 278.747 143.151 270.517C143.35 262.287 169.969 256.25 202.608 257.033C235.246 257.816 261.544 265.122 261.345 273.353C261.147 281.583 234.527 287.62 201.889 286.837Z" fill="#8F5555"/>
<path opacity="0.8431" d="M202.484 286.447C170.658 285.683 145.015 278.545 145.209 270.504C145.403 262.462 171.361 256.562 203.187 257.326C235.014 258.09 260.657 265.228 260.463 273.269C260.269 281.311 234.311 287.21 202.484 286.447Z" fill="#8C5050"/>
<path opacity="0.8627" d="M203.08 286.056C172.093 285.313 147.126 278.344 147.316 270.491C147.505 262.639 172.779 256.876 203.767 257.62C234.755 258.364 259.721 265.332 259.532 273.185C259.342 281.037 234.068 286.8 203.08 286.056Z" fill="#8A4C4C"/>
<path opacity="0.8824" d="M203.629 285.616C173.454 284.891 149.141 278.091 149.327 270.428C149.512 262.764 174.124 257.139 204.3 257.863C234.475 258.588 258.787 265.388 258.602 273.051C258.417 280.715 233.805 286.34 203.629 285.616Z" fill="#874848"/>
<path opacity="0.902" d="M204.225 285.225C174.861 284.52 151.204 277.889 151.384 270.414C151.565 262.94 175.515 257.452 204.879 258.157C234.243 258.862 257.901 265.493 257.72 272.968C257.539 280.443 233.589 285.93 204.225 285.225Z" fill="#844444"/>
<path opacity="0.9216" d="M204.821 284.835C176.296 284.15 153.315 277.688 153.491 270.402C153.667 263.116 176.934 257.765 205.459 258.451C233.983 259.136 256.965 265.597 256.789 272.883C256.613 280.169 233.346 285.52 204.821 284.835Z" fill="#824040"/>
<path opacity="0.9412" d="M205.37 284.394C177.657 283.729 155.329 277.458 155.5 270.388C155.671 263.318 178.275 258.126 205.988 258.792C233.701 259.458 256.028 265.729 255.858 272.799C255.687 279.869 233.083 285.06 205.37 284.394Z" fill="#7F3C3C"/>
<path opacity="0.9608" d="M205.967 284.004C179.093 283.358 157.442 277.256 157.608 270.375C157.774 263.494 179.695 258.44 206.569 259.085C233.443 259.731 255.094 265.833 254.927 272.714C254.761 279.595 232.841 284.65 205.967 284.004Z" fill="#7C3838"/>
<path opacity="0.9804" d="M206.562 283.613C180.5 282.987 159.504 277.054 159.666 270.362C159.828 263.67 181.086 258.752 207.148 259.379C233.21 260.005 254.207 265.938 254.045 272.631C253.883 279.323 232.624 284.24 206.562 283.613Z" fill="#7A3434"/>
<path opacity="0.9" d="M207.109 283.222C181.859 282.615 161.517 276.85 161.675 270.347C161.832 263.844 182.429 259.064 207.679 259.671C232.929 260.279 253.271 266.043 253.114 272.546C252.956 279.049 232.36 283.829 207.109 283.222Z" fill="#773030"/>
</g>
<path d="M309.299 185.528L309.397 266.855L269.939 292.612L269.84 209.281L309.299 185.528Z" fill="url(#paint4_linear_117_6150)"/>
<path d="M161.757 274.724L269.938 292.612L269.84 209.281L161.659 195.107L161.757 274.724Z" fill="url(#paint5_linear_117_6150)"/>
<path d="M309.3 185.528L212.981 171.354L161.66 195.107L269.841 209.281L309.3 185.528Z" fill="#D09E6B"/>
<path opacity="0.1" d="M198.521 178.05L296.653 193.152V209.232L289.595 213.68L289.546 197.405L187.002 183.378L198.521 178.05Z" fill="black"/>
<path d="M359.296 181.667L383.217 168.813L383.119 90.7601L359.198 103.614L359.296 181.667Z" fill="url(#paint6_linear_117_6150)"/>
<path d="M383.119 90.7601L265.821 87.4366L236.018 99.2643L359.199 103.614L383.119 90.7601Z" fill="#D09E6B"/>
<path d="M359.296 181.667L359.198 103.614L236.017 99.2643L236.066 174.385L359.296 181.667Z" fill="url(#paint7_linear_117_6150)"/>
<path opacity="0.1" d="M376.796 94.1813V108.159L371.159 111.239V97.2115L250.772 93.3993L258.174 90.4669L376.796 94.1813Z" fill="black"/>
<g style="mix-blend-mode:multiply" opacity="0.9">
<path opacity="0.0196078" d="M230.495 103.662C179.063 99.8622 138.039 87.769 138.866 76.6512C139.692 65.5333 182.055 59.6008 233.487 63.4005C284.919 67.2003 325.944 79.2934 325.117 90.4113C324.291 101.529 281.927 107.462 230.495 103.662Z" fill="#FCFBFB"/>
<path opacity="0.0392157" d="M230.86 103.369C179.968 99.6091 139.374 87.6577 140.19 76.6744C141.006 65.6911 182.924 59.8351 233.816 63.5946C284.708 67.3542 325.302 79.3056 324.486 90.2889C323.67 101.272 281.752 107.128 230.86 103.369Z" fill="#FAF7F7"/>
<path opacity="0.0588235" d="M231.217 103.173C180.865 99.4535 140.701 87.6219 141.509 76.7463C142.317 65.8707 183.791 60.0694 234.143 63.7888C284.495 67.5081 324.658 79.3397 323.85 90.2153C323.042 101.091 281.569 106.892 231.217 103.173Z" fill="#F7F3F3"/>
<path opacity="0.0784314" d="M231.578 102.928C181.765 99.2492 142.032 87.5593 142.83 76.8183C143.628 66.0773 184.655 60.3525 234.467 64.0317C284.279 67.7108 324.013 79.4007 323.215 90.1417C322.417 100.883 281.39 106.607 231.578 102.928Z" fill="#F4EFEF"/>
<path opacity="0.0980392" d="M231.938 102.684C182.666 99.0448 143.362 87.4967 144.15 76.8903C144.938 66.2839 185.52 60.6356 234.792 64.2746C284.064 67.9135 323.368 79.4617 322.58 90.0681C321.792 100.674 281.211 106.323 231.938 102.684Z" fill="#F2EBEB"/>
<path opacity="0.1176" d="M232.349 102.443C183.59 98.8421 144.693 87.434 145.471 76.9622C146.249 66.4904 186.407 60.9203 235.166 64.521C283.925 68.1218 322.822 79.5299 322.044 90.0017C321.266 100.473 281.108 106.044 232.349 102.443Z" fill="#EFE7E7"/>
<path opacity="0.1373" d="M232.709 102.198C184.49 98.6378 146.023 87.3714 146.79 77.0342C147.558 66.697 187.27 61.2034 235.489 64.7639C283.708 68.3245 322.175 79.5908 321.408 89.9281C320.64 100.265 280.928 105.759 232.709 102.198Z" fill="#ECE3E3"/>
<path opacity="0.1569" d="M233.074 101.905C185.394 98.3846 147.357 87.26 148.115 77.0574C148.872 66.8548 188.138 61.4377 235.818 64.9581C283.497 68.4784 321.534 79.6031 320.776 89.8057C320.019 100.008 280.753 105.425 233.074 101.905Z" fill="#EADFDF"/>
<path opacity="0.1765" d="M233.434 101.661C186.295 98.1804 148.687 87.1974 149.435 77.1294C150.183 67.0614 189.003 61.7209 236.142 65.201C283.281 68.6812 320.889 79.6641 320.141 89.7321C319.394 99.8001 280.574 105.141 233.434 101.661Z" fill="#E7DADA"/>
<path opacity="0.1961" d="M233.795 101.416C187.169 97.974 149.969 87.1311 150.706 77.1977C151.444 67.2643 189.84 62.0019 236.466 65.4438C283.093 68.8858 320.293 79.7286 319.555 89.6621C318.818 99.5955 280.422 104.858 233.795 101.416Z" fill="#E4D6D6"/>
<path opacity="0.2157" d="M234.205 101.175C188.119 97.7733 151.348 87.0721 152.075 77.2733C152.803 67.4745 190.753 62.2886 236.839 65.6904C282.926 69.0921 319.696 79.7933 318.969 89.5921C318.241 99.3909 280.291 104.577 234.205 101.175Z" fill="#E2D2D2"/>
<path opacity="0.2353" d="M234.566 100.93C189.019 97.5689 152.678 87.0095 153.396 77.3452C154.113 67.681 191.617 62.5717 237.164 65.9333C282.71 69.2948 319.051 79.8543 318.334 89.5185C317.616 99.1827 280.112 104.292 234.566 100.93Z" fill="#DFCECE"/>
<path opacity="0.2549" d="M234.93 100.637C189.924 97.3159 154.013 86.8981 154.72 77.3685C155.427 67.8389 192.486 62.8061 237.492 66.1274C282.499 69.4488 318.41 79.8666 317.703 89.3962C316.995 98.9258 279.937 103.959 234.93 100.637Z" fill="#DCCACA"/>
<path opacity="0.2745" d="M235.291 100.393C190.825 97.1115 155.343 86.8354 156.04 77.4404C156.738 68.0454 193.35 63.0891 237.816 66.3703C282.283 69.6514 317.765 79.9275 317.067 89.3225C316.37 98.7175 279.758 103.674 235.291 100.393Z" fill="#DAC6C6"/>
<path opacity="0.2941" d="M235.652 100.148C191.699 96.9052 156.624 86.7692 157.312 77.5088C157.999 68.2483 194.187 63.3702 238.141 66.6132C282.094 69.8562 317.168 79.9922 316.481 89.2526C315.794 98.513 279.606 103.391 235.652 100.148Z" fill="#D7C2C2"/>
<path opacity="0.3137" d="M236.062 99.9072C192.648 96.7044 158.004 86.7101 158.681 77.5843C159.358 68.4585 195.101 63.6569 238.514 66.8597C281.928 70.0625 316.572 80.0568 315.895 89.1826C315.218 98.3084 279.475 103.11 236.062 99.9072Z" fill="#D4BEBE"/>
<path opacity="0.3333" d="M236.423 99.6626C193.549 96.5001 159.334 86.6475 160.001 77.6562C160.668 68.665 195.965 63.94 238.838 67.1026C281.712 70.2651 315.927 80.1177 315.26 89.109C314.593 98.1002 279.296 102.825 236.423 99.6626Z" fill="#D2BABA"/>
<path opacity="0.3529" d="M236.787 99.3694C194.454 96.247 160.668 86.5361 161.325 77.6794C161.982 68.8228 196.833 64.1743 239.167 67.2967C281.5 70.4191 315.286 80.13 314.629 88.9866C313.972 97.8433 279.121 102.492 236.787 99.3694Z" fill="#CFB6B6"/>
<path opacity="0.3725" d="M237.145 99.1735C195.324 96.0893 161.948 86.4967 162.597 77.7477C163.246 68.9988 197.674 64.4066 239.495 67.4908C281.316 70.575 314.692 80.1677 314.043 88.9166C313.394 97.6656 278.965 102.258 237.145 99.1735Z" fill="#CCB2B2"/>
<path opacity="0.3922" d="M237.554 98.9326C196.274 95.8886 163.327 86.4377 163.966 77.8233C164.605 69.209 198.588 64.6933 239.868 67.7374C281.149 70.7814 314.095 80.2323 313.456 88.8467C312.817 97.461 278.835 101.977 237.554 98.9326Z" fill="#CAAEAE"/>
<path opacity="0.4118" d="M237.915 98.688C197.175 95.6842 164.658 86.3749 165.286 77.8952C165.915 69.4154 199.452 64.9763 240.193 67.9802C280.933 70.984 313.45 80.2933 312.821 88.773C312.192 97.2527 278.656 101.692 237.915 98.688Z" fill="#C7AAAA"/>
<path opacity="0.4314" d="M238.276 98.4435C198.075 95.4799 165.988 86.3123 166.607 77.9672C167.225 69.622 200.316 65.2594 240.517 68.2231C280.718 71.1867 312.805 80.3543 312.186 88.6995C311.567 97.0446 278.477 101.407 238.276 98.4435Z" fill="#C4A6A6"/>
<path opacity="0.451" d="M238.637 98.199C198.976 95.2755 167.318 86.2496 167.927 78.0391C168.536 69.8285 201.181 65.5425 240.841 68.466C280.502 71.3894 312.16 80.4153 311.551 88.6258C310.942 96.8364 278.297 101.122 238.637 98.199Z" fill="#C2A2A2"/>
<path opacity="0.4706" d="M239.001 97.9056C199.854 95.0204 168.604 86.1345 169.202 78.0586C169.801 69.9827 202.022 65.7748 241.169 68.66C280.317 71.5453 311.567 80.4311 310.969 88.5071C310.37 96.583 278.149 100.791 239.001 97.9056Z" fill="#BF9E9E"/>
<path opacity="0.4902" d="M239.411 97.6647C200.803 94.8196 169.983 86.0755 170.571 78.1342C171.16 70.1928 202.935 66.0615 241.543 68.9066C280.15 71.7516 310.971 80.4958 310.382 88.4371C309.794 96.3785 278.019 100.51 239.411 97.6647Z" fill="#BC9A9A"/>
<path opacity="0.5098" d="M239.772 97.4201C201.704 94.6152 171.313 86.0128 171.892 78.2061C172.47 70.3993 203.799 66.3445 241.867 69.1494C279.935 71.9543 310.326 80.5568 309.747 88.3635C309.169 96.1703 277.84 100.225 239.772 97.4201Z" fill="#BA9595"/>
<path opacity="0.5294" d="M240.133 97.1756C202.605 94.4108 172.643 85.9501 173.212 78.2779C173.78 70.6058 204.664 66.6275 242.191 69.3923C279.719 72.157 309.681 80.6178 309.112 88.2899C308.544 95.9621 277.66 99.9403 240.133 97.1756Z" fill="#B79191"/>
<path opacity="0.549" d="M240.493 96.931C203.479 94.2045 173.925 85.8838 174.483 78.3462C175.042 70.8087 205.501 66.9086 242.516 69.6351C279.531 72.3617 309.084 80.6824 308.526 88.2199C307.967 95.7574 277.508 99.6575 240.493 96.931Z" fill="#B48D8D"/>
<path opacity="0.5686" d="M240.858 96.6377C204.383 93.9514 175.259 85.7723 175.807 78.3694C176.356 70.9665 206.369 67.1429 242.844 69.8293C279.319 72.5156 308.443 80.6946 307.895 88.0976C307.346 95.5005 277.333 99.3241 240.858 96.6377Z" fill="#B28989"/>
<path opacity="0.5882" d="M241.268 96.3968C205.333 93.7506 176.638 85.7133 177.177 78.4449C177.715 71.1766 207.282 67.4296 243.217 70.0758C279.152 72.722 307.847 80.7593 307.308 88.0276C306.77 95.296 277.203 99.043 241.268 96.3968Z" fill="#AF8585"/>
<path opacity="0.6078" d="M241.628 96.1522C206.234 93.5462 177.969 85.6505 178.497 78.5168C179.025 71.383 208.147 67.7126 243.542 70.3186C278.937 72.9246 307.202 80.8203 306.673 87.954C306.145 95.0878 277.023 98.7582 241.628 96.1522Z" fill="#AC8181"/>
<path opacity="0.6275" d="M241.989 95.9076C207.134 93.3418 179.299 85.5878 179.817 78.5887C180.335 71.5895 209.011 67.9956 243.866 70.5615C278.721 73.1273 306.556 80.8813 306.038 87.8804C305.52 94.8796 276.844 98.4735 241.989 95.9076Z" fill="#AA7D7D"/>
<path opacity="0.6471" d="M242.35 95.663C208.008 93.1354 180.58 85.5215 181.088 78.6569C181.597 71.7924 209.848 68.2766 244.19 70.8043C278.532 73.332 305.96 80.9459 305.452 87.8104C304.944 94.675 276.692 98.1907 242.35 95.663Z" fill="#A77979"/>
<path opacity="0.6667" d="M242.711 95.4186C208.909 92.9311 181.911 85.4588 182.409 78.7289C182.907 71.9989 210.713 68.5597 244.515 71.0472C278.317 73.5348 305.315 81.007 304.817 87.7369C304.319 94.4669 276.513 97.9061 242.711 95.4186Z" fill="#A47575"/>
<path opacity="0.6863" d="M243.121 95.1776C209.859 92.7302 183.292 85.3779 183.782 78.7556C184.272 72.1333 211.634 68.7489 244.896 71.1962C278.158 73.6435 304.725 80.9959 304.235 87.6182C303.745 94.2405 276.383 97.6249 243.121 95.1776Z" fill="#A27171"/>
<path opacity="0.7059" d="M243.482 94.933C210.76 92.5258 184.622 85.3151 185.102 78.8274C185.582 72.3397 212.498 69.0319 245.22 71.439C277.942 73.8462 304.08 81.0569 303.6 87.5446C303.119 94.0323 276.204 97.3402 243.482 94.933Z" fill="#9F6D6D"/>
<path opacity="0.7255" d="M243.842 94.6884C211.633 92.3194 185.904 85.2487 186.374 78.8957C186.844 72.5426 213.335 69.3129 245.544 71.6819C277.754 74.0509 303.483 81.1215 303.013 87.4746C302.543 93.8276 276.052 97.0574 243.842 94.6884Z" fill="#9C6969"/>
<path opacity="0.7451" d="M244.203 94.4438C212.534 92.115 187.234 85.186 187.694 78.9675C188.154 72.749 214.2 69.5959 245.869 71.9247C277.538 74.2536 302.838 81.1825 302.378 87.401C301.918 93.6195 275.872 96.7727 244.203 94.4438Z" fill="#9A6565"/>
<path opacity="0.7647" d="M244.564 94.1993C213.435 91.9106 188.564 85.1233 189.014 79.0394C189.464 72.9555 215.064 69.8789 246.193 72.1676C277.322 74.4563 302.193 81.2436 301.743 87.3275C301.293 93.4114 275.693 96.488 244.564 94.1993Z" fill="#976161"/>
<path opacity="0.7843" d="M244.977 93.9095C214.388 91.661 189.947 85.0153 190.387 79.066C190.827 73.1168 215.981 70.1167 246.57 72.3652C277.16 74.6138 301.6 81.2594 301.161 87.2087C300.721 93.158 275.567 96.158 244.977 93.9095Z" fill="#945D5D"/>
<path opacity="0.8039" d="M245.338 93.6649C215.289 91.4565 191.278 84.9526 191.707 79.1379C192.137 73.3232 216.845 70.3997 246.895 72.6081C276.944 74.8165 300.955 81.3205 300.525 87.1352C300.096 92.9498 275.387 95.8733 245.338 93.6649Z" fill="#925959"/>
<path opacity="0.8235" d="M245.699 93.4204C216.163 91.2501 192.559 84.8862 192.979 79.2061C193.399 73.5261 217.683 70.6807 247.219 72.851C276.755 75.0212 300.359 81.3851 299.939 87.0652C299.519 92.7453 275.235 95.5906 245.699 93.4204Z" fill="#8F5555"/>
<path opacity="0.8431" d="M246.061 93.1757C217.064 91.0456 193.89 84.8234 194.3 79.2779C194.71 73.7324 218.548 70.9637 247.544 73.0938C276.541 75.2238 299.715 81.4461 299.305 86.9916C298.895 92.5371 275.057 95.3058 246.061 93.1757Z" fill="#8C5050"/>
<path opacity="0.8627" d="M246.47 92.9348C218.014 90.8448 195.269 84.7642 195.669 79.3533C196.069 73.9424 219.461 71.2503 247.918 73.3402C276.374 75.4302 299.118 81.5108 298.719 86.9217C298.319 92.3325 274.926 95.0247 246.47 92.9348Z" fill="#8A4C4C"/>
<path opacity="0.8824" d="M246.831 92.6902C218.914 90.6404 196.6 84.7014 196.989 79.4251C197.379 74.1488 220.326 71.5333 248.242 73.5831C276.158 75.6329 298.473 81.5718 298.083 86.8481C297.694 92.1244 274.747 94.74 246.831 92.6902Z" fill="#874848"/>
<path opacity="0.902" d="M247.195 92.3968C219.792 90.3852 197.885 84.5862 198.265 79.4446C198.644 74.3029 221.167 71.7655 248.57 73.7771C275.974 75.7888 297.881 81.5877 297.501 86.7294C297.121 91.8711 274.599 94.4085 247.195 92.3968Z" fill="#844444"/>
<path opacity="0.9216" d="M247.556 92.1522C220.693 90.1807 199.215 84.5234 199.585 79.5163C199.954 74.5093 222.031 72.0484 248.895 74.02C275.758 75.9915 297.236 81.6488 296.866 86.6559C296.496 91.6629 274.42 94.1238 247.556 92.1522Z" fill="#824040"/>
<path opacity="0.9412" d="M247.917 91.9076C221.593 89.9762 200.545 84.4606 200.905 79.5881C201.265 74.7156 222.895 72.3314 249.219 74.2628C275.542 76.1942 296.59 81.7098 296.231 86.5823C295.871 91.4548 274.24 93.839 247.917 91.9076Z" fill="#7F3C3C"/>
<path opacity="0.9608" d="M248.327 91.6666C222.544 89.7753 201.925 84.4013 202.275 79.6635C202.625 74.9256 223.81 72.6179 249.593 74.5092C275.377 76.4005 295.995 81.7745 295.645 86.5124C295.296 91.2502 274.111 93.5579 248.327 91.6666Z" fill="#7C3838"/>
<path opacity="0.9804" d="M248.688 91.422C223.444 89.5708 203.256 84.3385 203.595 79.7352C203.935 75.1319 224.674 72.9008 249.918 74.752C275.161 76.6032 295.35 81.8355 295.01 86.4388C294.671 91.0421 273.931 93.2732 248.688 91.422Z" fill="#7A3434"/>
<path opacity="0.9" d="M249.048 91.1774C224.318 89.3644 204.538 84.2502 204.87 79.7546C205.201 75.259 225.518 73.0843 250.249 74.8973C274.979 76.7104 294.759 81.8245 294.427 86.3201C294.096 90.8157 273.779 92.9904 249.048 91.1774Z" fill="#773030"/>
</g>
<path d="M301.065 94.2302L319.594 81.3762L319.545 3.32349L300.967 16.2264L301.065 94.2302Z" fill="url(#paint8_linear_117_6150)"/>
<path d="M319.545 3.32347L228.569 0L205.433 11.7788L300.967 16.2264L319.545 3.32347Z" fill="#D09E6B"/>
<path d="M301.065 94.2303L300.967 16.2264L205.433 11.7788L205.531 86.9479L301.065 94.2303Z" fill="url(#paint9_linear_117_6150)"/>
<path opacity="0.1" d="M314.594 6.74468V20.7228L310.28 23.8019L310.231 9.77491L216.902 5.96269L222.637 3.03021L314.594 6.74468Z" fill="black"/>
</g>
<defs>
<linearGradient id="paint0_linear_117_6150" x1="373.842" y1="264.038" x2="423.252" y2="189.764" gradientUnits="userSpaceOnUse">
<stop offset="0.00360363" stop-color="#DEB386"/>
<stop offset="1" stop-color="#F0C79B"/>
</linearGradient>
<linearGradient id="paint1_linear_117_6150" x1="288.256" y1="263.178" x2="341.976" y2="213.493" gradientUnits="userSpaceOnUse">
<stop offset="0.00360363" stop-color="#976741"/>
<stop offset="1" stop-color="#AE7D54"/>
</linearGradient>
<linearGradient id="paint2_linear_117_6150" x1="202.588" y1="164.73" x2="251.998" y2="90.4552" gradientUnits="userSpaceOnUse">
<stop offset="0.00360363" stop-color="#DEB386"/>
<stop offset="1" stop-color="#F0C79B"/>
</linearGradient>
<linearGradient id="paint3_linear_117_6150" x1="117.003" y1="163.869" x2="170.722" y2="114.184" gradientUnits="userSpaceOnUse">
<stop offset="0.00360363" stop-color="#976741"/>
<stop offset="1" stop-color="#AE7D54"/>
</linearGradient>
<linearGradient id="paint4_linear_117_6150" x1="259.244" y1="283.455" x2="308.654" y2="209.181" gradientUnits="userSpaceOnUse">
<stop offset="0.00360363" stop-color="#DEB386"/>
<stop offset="1" stop-color="#F0C79B"/>
</linearGradient>
<linearGradient id="paint5_linear_117_6150" x1="173.658" y1="282.595" x2="227.378" y2="232.909" gradientUnits="userSpaceOnUse">
<stop offset="0.00360363" stop-color="#976741"/>
<stop offset="1" stop-color="#AE7D54"/>
</linearGradient>
<linearGradient id="paint6_linear_117_6150" x1="383.197" y1="136.201" x2="359.223" y2="136.23" gradientUnits="userSpaceOnUse">
<stop offset="0.00360363" stop-color="#DEB386"/>
<stop offset="1" stop-color="#F0C79B"/>
</linearGradient>
<linearGradient id="paint7_linear_117_6150" x1="324.258" y1="95.0492" x2="287.309" y2="158.438" gradientUnits="userSpaceOnUse">
<stop offset="0.00360363" stop-color="#976741"/>
<stop offset="1" stop-color="#AE7D54"/>
</linearGradient>
<linearGradient id="paint8_linear_117_6150" x1="319.581" y1="48.7867" x2="300.995" y2="48.8091" gradientUnits="userSpaceOnUse">
<stop offset="0.00360363" stop-color="#DEB386"/>
<stop offset="1" stop-color="#F0C79B"/>
</linearGradient>
<linearGradient id="paint9_linear_117_6150" x1="276.924" y1="12.6425" x2="244.167" y2="68.8397" gradientUnits="userSpaceOnUse">
<stop offset="0.00360363" stop-color="#976741"/>
<stop offset="1" stop-color="#AE7D54"/>
</linearGradient>
<clipPath id="clip0_117_6150">
<rect width="424" height="304" fill="white" transform="matrix(-1 0 0 1 424 0)"/>
</clipPath>
</defs>
</svg>
