<svg width="68" height="68" viewBox="0 0 68 68" fill="none" xmlns="http://www.w3.org/2000/svg">
<path d="M55.1998 58.8H17.6998C12.9998 58.8 9.2998 55 9.2998 50.4V28.2C9.2998 23.5 13.0998 19.8 17.6998 19.8H55.1998C59.8998 19.8 63.5998 23.6 63.5998 28.2V50.4C63.5998 55.1 59.8998 58.8 55.1998 58.8Z" stroke="#433434" stroke-width="2" stroke-miterlimit="10" stroke-linejoin="round"/>
<path d="M14.8998 30.3C20.754 30.3 25.4998 25.5542 25.4998 19.7C25.4998 13.8458 20.754 9.09998 14.8998 9.09998C9.04559 9.09998 4.2998 13.8458 4.2998 19.7C4.2998 25.5542 9.04559 30.3 14.8998 30.3Z" fill="#433434"/>
<path d="M14.8998 30.3C20.754 30.3 25.4998 25.5542 25.4998 19.7C25.4998 13.8458 20.754 9.09998 14.8998 9.09998C9.04559 9.09998 4.2998 13.8458 4.2998 19.7C4.2998 25.5542 9.04559 30.3 14.8998 30.3Z" fill="url(#paint0_radial_104_1726)"/>
<path d="M11.0996 15.9L18.6996 23.5" stroke="white" stroke-width="2" stroke-miterlimit="10" stroke-linecap="round"/>
<path d="M18.6996 15.9L11.0996 23.5" stroke="white" stroke-width="2" stroke-miterlimit="10" stroke-linecap="round"/>
<path d="M46.2 39.3H10" stroke="#433434" stroke-width="2" stroke-miterlimit="10" stroke-linecap="round" stroke-linejoin="round"/>
<path d="M63.5996 45.3H52.7996C49.3996 45.3 46.5996 42.5 46.5996 39.1C46.5996 35.7 49.3996 32.9 52.7996 32.9H63.6996V45.3H63.5996Z" fill="url(#paint1_radial_104_1726)"/>
<path d="M52.4997 40.9C53.4938 40.9 54.2997 40.0941 54.2997 39.1C54.2997 38.1059 53.4938 37.3 52.4997 37.3C51.5056 37.3 50.6997 38.1059 50.6997 39.1C50.6997 40.0941 51.5056 40.9 52.4997 40.9Z" fill="white"/>
<defs>
<radialGradient id="paint0_radial_104_1726" cx="0" cy="0" r="1" gradientUnits="userSpaceOnUse" gradientTransform="translate(15.3039 4.73042) rotate(25.2544) scale(16.0574 24.9904)">
<stop stop-color="#2789E4"/>
<stop offset="0.2245" stop-color="#217CD4"/>
<stop offset="0.6624" stop-color="#1059AA"/>
<stop offset="1" stop-color="#013B85"/>
</radialGradient>
<radialGradient id="paint1_radial_104_1726" cx="0" cy="0" r="1" gradientUnits="userSpaceOnUse" gradientTransform="translate(55.4756 30.3442) rotate(18.8842) scale(12.3804 15.2918)">
<stop stop-color="#2789E4"/>
<stop offset="0.2245" stop-color="#217CD4"/>
<stop offset="0.6624" stop-color="#1059AA"/>
<stop offset="1" stop-color="#013B85"/>
</radialGradient>
</defs>
</svg>
