<svg width="100" height="100" viewBox="0 0 100 100" fill="none" xmlns="http://www.w3.org/2000/svg">
<path d="M71.765 45.1061C81.0377 45.1061 88.6362 37.5076 88.6362 28.2349C88.6362 18.9621 81.0377 11.3636 71.765 11.3636C62.4923 11.3636 54.8938 18.9621 54.8938 28.2349C54.8938 37.5076 62.4923 45.1061 71.765 45.1061Z" fill="url(#paint0_radial_43_26)"/>
<path d="M82.5833 44.591C81.9394 44.591 81.4242 45.1061 81.4242 45.7501V75.5001H77.6894C76.7879 74.2122 75.5 73.1819 74.0833 72.6667V62.8789C74.0833 62.2349 73.5682 61.7198 72.9243 61.7198H67.644V49.0986C67.644 48.4546 67.1288 47.9395 66.4849 47.9395H53.2197C52.5758 47.9395 52.0606 48.4546 52.0606 49.0986V61.7198H46.7803C46.1364 61.7198 45.6212 62.2349 45.6212 62.8789V75.5001H38.2803V41.3713H55.1515C55.7955 41.3713 56.3106 40.7273 56.3106 40.0834C56.3106 39.4395 55.7955 38.9243 55.1515 38.9243H36.9924C36.3485 38.9243 35.8333 39.4395 35.8333 40.0834V47.038C35.8333 47.038 35.8333 47.038 35.7046 47.038H30.4243C19.8636 47.1667 11.3636 55.6667 11.3636 66.2273V75.5001C11.3636 76.9167 12.5227 77.947 13.8106 77.947H17.1591C16.3864 81.1667 17.9318 84.644 21.0227 86.0607H12.5227C11.8788 86.0607 11.3636 86.5758 11.3636 87.2198C11.3636 88.1213 11.8788 88.6364 12.5227 88.6364H82.4546C83.0985 88.6364 83.6136 88.1213 83.6136 87.4773C83.6136 86.8334 83.0985 86.3183 82.4546 86.3183H74.7273C77.6894 84.7728 79.3636 81.4243 78.5909 78.2046H82.4546C83.0985 78.2046 83.6136 77.6895 83.6136 77.0455V45.8789C83.7424 45.2349 83.2273 44.591 82.5833 44.591ZM71.6364 72.4092C69.5758 72.4092 67.5152 73.3107 66.2273 74.8561H61.0758V64.1667H71.6364V72.4092ZM54.5076 50.3864H65.0682V60.947H54.5076V50.3864ZM47.9394 64.1667H58.5V74.7273H47.9394V64.1667ZM13.8106 75.6289C13.8106 75.5001 13.8106 75.5001 13.8106 75.6289L13.6818 66.2273C13.6818 57.0834 21.1515 49.6137 30.2955 49.6137H35.5758C35.5758 49.6137 35.7046 49.6137 35.7046 49.7425V75.6289C35.7046 75.6289 35.7046 75.7577 35.5758 75.7577H30.2955C28.1061 72.4092 23.4697 71.5077 20.1212 73.697C19.3485 74.2122 18.5758 74.9849 18.0606 75.7577L13.8106 75.6289ZM19.4773 79.7501C19.4773 79.1061 19.6061 78.4622 19.8636 77.8183C20.1212 77.6895 20.25 77.3031 20.25 77.0455C21.7955 74.8561 24.7576 74.2122 27.0758 75.6289C29.2652 77.1743 29.9091 80.1364 28.4924 82.4546C26.947 84.644 23.9849 85.288 21.6667 83.8713C20.25 82.841 19.4773 81.2955 19.4773 79.7501ZM27.7197 86.1895C30.6818 84.644 32.3561 81.2955 31.5833 78.0758H35.8333C36.0909 78.0758 36.3485 78.0758 36.6061 77.947C36.7349 78.0758 36.9924 78.0758 37.1212 78.0758H64.553C63.7803 81.2955 65.3258 84.7728 68.4167 86.1895H27.7197ZM71.6364 84.644C68.9318 84.644 66.7424 82.4546 66.7424 79.7501C66.7424 77.0455 68.9318 74.8561 71.6364 74.8561C74.3409 74.8561 76.5303 77.0455 76.5303 79.7501C76.5303 82.4546 74.3409 84.644 71.6364 84.644C71.5076 84.644 71.5076 84.644 71.6364 84.644Z" fill="#433434"/>
<path d="M71.765 29.3939H80.5226C81.1666 29.3939 81.6817 28.8787 81.6817 28.2348C81.6817 27.5908 81.1666 27.0757 80.5226 27.0757H73.0529V19.4772C73.0529 18.8333 72.5378 18.1893 71.8938 18.1893C71.2499 18.1893 70.606 18.7045 70.606 19.3484C70.606 19.3484 70.606 19.3484 70.606 19.4772V28.2348C70.606 28.8787 71.1211 29.3939 71.765 29.3939Z" fill="white"/>
<path d="M31.0682 54.5076V65.0682C31.0682 65.7122 30.5531 66.2273 29.9091 66.2273H19.7349C19.091 66.2273 18.5758 65.7122 18.5758 65.0682C18.5758 64.9394 18.5758 64.8106 18.5758 64.6818C18.5758 58.3712 23.7273 53.3485 29.9091 53.3485C30.5531 53.3485 31.0682 53.8637 31.0682 54.5076Z" fill="#383838"/>
<path d="M31.0682 54.5076V65.0682C31.0682 65.7122 30.5531 66.2273 29.9091 66.2273H19.7349C19.091 66.2273 18.5758 65.7122 18.5758 65.0682C18.5758 64.9394 18.5758 64.8106 18.5758 64.6818C18.5758 58.3712 23.7273 53.3485 29.9091 53.3485C30.5531 53.3485 31.0682 53.8637 31.0682 54.5076Z" fill="url(#paint1_radial_43_26)"/>
<defs>
<radialGradient id="paint0_radial_43_26" cx="0" cy="0" r="1" gradientUnits="userSpaceOnUse" gradientTransform="translate(72.4082 4.40896) rotate(25.2544) scale(25.5573 39.7753)">
<stop stop-color="#2789E4"/>
<stop offset="0.2245" stop-color="#217CD4"/>
<stop offset="0.6624" stop-color="#1059AA"/>
<stop offset="1" stop-color="#013B85"/>
</radialGradient>
<radialGradient id="paint1_radial_43_26" cx="0" cy="0" r="1" gradientUnits="userSpaceOnUse" gradientTransform="translate(25.0602 50.694) rotate(25.9343) scale(9.51598 15.0954)">
<stop stop-color="#2789E4"/>
<stop offset="0.2245" stop-color="#217CD4"/>
<stop offset="0.6624" stop-color="#1059AA"/>
<stop offset="1" stop-color="#013B85"/>
</radialGradient>
</defs>
</svg>
