<svg width="24" height="24" viewBox="0 0 24 24" fill="none" xmlns="http://www.w3.org/2000/svg">
<rect width="24" height="24" rx="5" fill="white" fill-opacity="0.15"/>
<path d="M18.6466 16.2202C18.6466 16.4602 18.5933 16.7068 18.4799 16.9468C18.3666 17.1868 18.2199 17.4135 18.0266 17.6268C17.6999 17.9868 17.3399 18.2468 16.9333 18.4135C16.5333 18.5802 16.0999 18.6668 15.6333 18.6668C14.9533 18.6668 14.2266 18.5068 13.4599 18.1802C12.6933 17.8535 11.9266 17.4135 11.1666 16.8602C10.3999 16.3002 9.67325 15.6802 8.97992 14.9935C8.29325 14.3002 7.67325 13.5735 7.11992 12.8135C6.57325 12.0535 6.13325 11.2935 5.81325 10.5402C5.49325 9.78016 5.33325 9.0535 5.33325 8.36016C5.33325 7.90683 5.41325 7.4735 5.57325 7.0735C5.73325 6.66683 5.98659 6.2935 6.33992 5.96016C6.76659 5.54016 7.23325 5.3335 7.72659 5.3335C7.91325 5.3335 8.09992 5.3735 8.26659 5.4535C8.43992 5.5335 8.59325 5.6535 8.71325 5.82683L10.2599 8.00683C10.3799 8.1735 10.4666 8.32683 10.5266 8.4735C10.5866 8.6135 10.6199 8.7535 10.6199 8.88016C10.6199 9.04016 10.5733 9.20016 10.4799 9.3535C10.3933 9.50683 10.2666 9.66683 10.1066 9.82683L9.59992 10.3535C9.52658 10.4268 9.49325 10.5135 9.49325 10.6202C9.49325 10.6735 9.49992 10.7202 9.51325 10.7735C9.53325 10.8268 9.55325 10.8668 9.56659 10.9068C9.68659 11.1268 9.89325 11.4135 10.1866 11.7602C10.4866 12.1068 10.8066 12.4602 11.1533 12.8135C11.5133 13.1668 11.8599 13.4935 12.2133 13.7935C12.5599 14.0868 12.8466 14.2868 13.0733 14.4068C13.1066 14.4202 13.1466 14.4402 13.1933 14.4602C13.2466 14.4802 13.2999 14.4868 13.3599 14.4868C13.4733 14.4868 13.5599 14.4468 13.6333 14.3735L14.1399 13.8735C14.3066 13.7068 14.4666 13.5802 14.6199 13.5002C14.7733 13.4068 14.9266 13.3602 15.0933 13.3602C15.2199 13.3602 15.3533 13.3868 15.4999 13.4468C15.6466 13.5068 15.7999 13.5935 15.9666 13.7068L18.1733 15.2735C18.3466 15.3935 18.4666 15.5335 18.5399 15.7002C18.6066 15.8668 18.6466 16.0335 18.6466 16.2202Z" stroke="white" stroke-miterlimit="10"/>
<path opacity="0.4" d="M16.3333 9.99984C16.3333 9.59984 16.02 8.9865 15.5533 8.4865C15.1267 8.0265 14.56 7.6665 14 7.6665" stroke="white" stroke-linecap="round" stroke-linejoin="round"/>
<path opacity="0.4" d="M18.6667 10.0002C18.6667 7.42016 16.58 5.3335 14 5.3335" stroke="white" stroke-linecap="round" stroke-linejoin="round"/>
</svg>
