<svg width="1598" height="854" viewBox="0 0 1598 854" fill="none" xmlns="http://www.w3.org/2000/svg">
<g clip-path="url(#clip0_197_2915)">
<circle cx="499" cy="241" r="240.5" stroke="white" stroke-opacity="0.04"/>
<circle cx="499" cy="241" r="317.5" stroke="white" stroke-opacity="0.02"/>
<circle cx="499" cy="241" r="165.5" stroke="white" stroke-opacity="0.08"/>
<path opacity="0.6" d="M1582.4 838.382C1582.55 838.387 1582.7 838.362 1582.84 838.309C1582.97 838.256 1583.1 838.176 1583.21 838.073C1583.31 837.971 1583.4 837.848 1583.45 837.712C1583.51 837.577 1583.54 837.431 1583.54 837.283V820.452C1583.54 820.305 1583.51 820.159 1583.45 820.023C1583.4 819.887 1583.31 819.765 1583.21 819.662C1583.1 819.56 1582.97 819.48 1582.84 819.427C1582.7 819.373 1582.55 819.349 1582.4 819.353C1582.26 819.349 1582.11 819.373 1581.97 819.426C1581.83 819.479 1581.7 819.558 1581.59 819.66C1581.48 819.762 1581.4 819.885 1581.33 820.021C1581.27 820.156 1581.24 820.303 1581.23 820.452V837.283C1581.24 837.432 1581.27 837.579 1581.33 837.715C1581.4 837.851 1581.48 837.973 1581.59 838.075C1581.7 838.177 1581.83 838.257 1581.97 838.309C1582.11 838.362 1582.26 838.387 1582.4 838.382V838.382Z" fill="white"/>
<path opacity="0.6" d="M1573.65 829.949H1591.16C1591.31 829.953 1591.46 829.928 1591.59 829.875C1591.73 829.822 1591.86 829.742 1591.96 829.64C1592.07 829.537 1592.15 829.414 1592.21 829.279C1592.27 829.143 1592.3 828.997 1592.3 828.85C1592.3 828.703 1592.27 828.557 1592.21 828.421C1592.15 828.286 1592.07 828.163 1591.96 828.06C1591.86 827.958 1591.73 827.878 1591.59 827.825C1591.46 827.772 1591.31 827.747 1591.16 827.752H1573.65C1573.5 827.747 1573.35 827.771 1573.21 827.824C1573.07 827.877 1572.94 827.956 1572.83 828.058C1572.73 828.16 1572.64 828.283 1572.58 828.419C1572.51 828.555 1572.48 828.701 1572.48 828.85C1572.48 828.999 1572.51 829.146 1572.58 829.281C1572.64 829.417 1572.73 829.54 1572.83 829.642C1572.94 829.744 1573.07 829.823 1573.21 829.876C1573.35 829.929 1573.5 829.953 1573.65 829.949V829.949Z" fill="white"/>
<path opacity="0.6" d="M0.986053 854.363C0.650036 854.364 0.326663 854.235 0.0825568 854.005C-0.16155 853.774 -0.307765 853.458 -0.325928 853.123V853.123C-0.316687 852.781 -0.1744 852.457 0.0706533 852.219C0.315706 851.98 0.644147 851.847 0.986053 851.847V851.847C1.16906 851.817 1.35659 851.826 1.53556 851.875C1.71454 851.924 1.88065 852.011 2.02235 852.131C2.16405 852.251 2.27793 852.4 2.35604 852.568C2.43414 852.737 2.47464 852.92 2.47464 853.105C2.47464 853.291 2.43414 853.474 2.35604 853.642C2.27793 853.81 2.16405 853.96 2.02235 854.079C1.88065 854.199 1.71454 854.287 1.53556 854.336C1.35659 854.385 1.16906 854.394 0.986053 854.363V854.363ZM7.5815 854.363C7.41384 854.368 7.24694 854.34 7.09025 854.28C6.93356 854.22 6.79019 854.13 6.66835 854.015C6.5465 853.9 6.44854 853.762 6.38011 853.609C6.31168 853.455 6.27411 853.291 6.26952 853.123V853.123C6.26945 852.952 6.30362 852.784 6.36998 852.626C6.43634 852.469 6.53352 852.327 6.65584 852.208C6.77816 852.089 6.92312 851.996 7.08211 851.934C7.24111 851.872 7.4109 851.843 7.5815 851.847V851.847C7.7645 851.817 7.95203 851.826 8.13101 851.875C8.30998 851.924 8.47613 852.011 8.61784 852.131C8.75954 852.251 8.87337 852.4 8.95148 852.568C9.02959 852.737 9.07008 852.92 9.07008 853.105C9.07008 853.291 9.02959 853.474 8.95148 853.642C8.87337 853.81 8.75954 853.96 8.61784 854.079C8.47613 854.199 8.30998 854.287 8.13101 854.336C7.95203 854.385 7.7645 854.394 7.5815 854.363V854.363ZM14.1415 854.363C13.9738 854.368 13.8069 854.34 13.6502 854.28C13.4936 854.22 13.3502 854.13 13.2283 854.015C13.1065 853.9 13.0085 853.762 12.9401 853.609C12.8717 853.455 12.8341 853.291 12.8295 853.123V853.123C12.8294 852.952 12.8636 852.784 12.93 852.626C12.9963 852.469 13.0935 852.327 13.2158 852.208C13.3381 852.089 13.4831 851.996 13.6421 851.934C13.8011 851.872 13.9709 851.843 14.1415 851.847C14.3245 851.817 14.512 851.826 14.691 851.875C14.87 851.924 15.0361 852.011 15.1778 852.131C15.3195 852.251 15.4334 852.4 15.5115 852.568C15.5896 852.737 15.6301 852.92 15.6301 853.105C15.6301 853.291 15.5896 853.474 15.5115 853.642C15.4334 853.81 15.3195 853.96 15.1778 854.079C15.0361 854.199 14.87 854.287 14.691 854.336C14.512 854.385 14.3245 854.394 14.1415 854.363V854.363ZM20.7015 854.363C20.3655 854.364 20.0421 854.235 19.798 854.005C19.5539 853.774 19.4077 853.458 19.3895 853.123V853.123C19.3987 852.781 19.541 852.457 19.7861 852.219C20.0311 851.98 20.3596 851.847 20.7015 851.847V851.847C20.8845 851.817 21.072 851.826 21.251 851.875C21.43 851.924 21.5961 852.011 21.7378 852.131C21.8795 852.251 21.9934 852.4 22.0715 852.568C22.1496 852.737 22.1901 852.92 22.1901 853.105C22.1901 853.291 22.1496 853.474 22.0715 853.642C21.9934 853.81 21.8795 853.96 21.7378 854.079C21.5961 854.199 21.43 854.287 21.251 854.336C21.072 854.385 20.8845 854.394 20.7015 854.363V854.363ZM27.2615 854.363C26.9255 854.364 26.6021 854.235 26.358 854.005C26.1139 853.774 25.9677 853.458 25.9495 853.123V853.123C25.9587 852.781 26.101 852.457 26.3461 852.219C26.5911 851.98 26.9196 851.847 27.2615 851.847V851.847C27.4445 851.817 27.632 851.826 27.811 851.875C27.99 851.924 28.1561 852.011 28.2978 852.131C28.4395 852.251 28.5534 852.4 28.6315 852.568C28.7096 852.737 28.7501 852.92 28.7501 853.105C28.7501 853.291 28.7096 853.474 28.6315 853.642C28.5534 853.81 28.4395 853.96 28.2978 854.079C28.1561 854.199 27.99 854.287 27.811 854.336C27.632 854.385 27.4445 854.394 27.2615 854.363V854.363ZM33.8215 854.363C33.4854 854.364 33.1621 854.235 32.918 854.005C32.6739 853.774 32.5276 853.458 32.5095 853.123V853.123C32.5187 852.781 32.661 852.457 32.9061 852.219C33.1511 851.98 33.4796 851.847 33.8215 851.847V851.847C34.0045 851.817 34.192 851.826 34.371 851.875C34.55 851.924 34.7161 852.011 34.8578 852.131C34.9995 852.251 35.1133 852.4 35.1915 852.568C35.2696 852.737 35.3101 852.92 35.3101 853.105C35.3101 853.291 35.2696 853.474 35.1915 853.642C35.1133 853.81 34.9995 853.96 34.8578 854.079C34.7161 854.199 34.55 854.287 34.371 854.336C34.192 854.385 34.0045 854.394 33.8215 854.363V854.363ZM40.417 854.363C40.2493 854.368 40.0824 854.34 39.9257 854.28C39.769 854.22 39.6256 854.13 39.5038 854.015C39.3819 853.9 39.284 853.762 39.2156 853.609C39.1471 853.455 39.1095 853.291 39.1049 853.123V853.123C39.1049 852.952 39.139 852.784 39.2054 852.626C39.2718 852.469 39.369 852.327 39.4913 852.208C39.6136 852.089 39.7585 851.996 39.9175 851.934C40.0765 851.872 40.2464 851.843 40.417 851.847C40.6 851.817 40.7874 851.826 40.9664 851.875C41.1454 851.924 41.3115 852.011 41.4533 852.131C41.595 852.251 41.7088 852.4 41.7869 852.568C41.865 852.737 41.9055 852.92 41.9055 853.105C41.9055 853.291 41.865 853.474 41.7869 853.642C41.7088 853.81 41.595 853.96 41.4533 854.079C41.3115 854.199 41.1454 854.287 40.9664 854.336C40.7874 854.385 40.6 854.394 40.417 854.363V854.363ZM46.9769 854.363C46.8093 854.368 46.6423 854.34 46.4857 854.28C46.329 854.22 46.1856 854.13 46.0638 854.015C45.9419 853.9 45.844 853.762 45.7756 853.609C45.7071 853.455 45.6695 853.291 45.6649 853.123V853.123C45.6649 852.952 45.699 852.784 45.7654 852.626C45.8317 852.469 45.929 852.327 46.0513 852.208C46.1736 852.089 46.3185 851.996 46.4775 851.934C46.6365 851.872 46.8063 851.843 46.9769 851.847V851.847C47.1599 851.817 47.3474 851.826 47.5264 851.875C47.7054 851.924 47.8715 852.011 48.0132 852.131C48.1549 852.251 48.2688 852.4 48.3469 852.568C48.425 852.737 48.4655 852.92 48.4655 853.105C48.4655 853.291 48.425 853.474 48.3469 853.642C48.2688 853.81 48.1549 853.96 48.0132 854.079C47.8715 854.199 47.7054 854.287 47.5264 854.336C47.3474 854.385 47.1599 854.394 46.9769 854.363V854.363ZM53.5369 854.363C53.2009 854.364 52.8775 854.235 52.6334 854.005C52.3893 853.774 52.2431 853.458 52.2249 853.123V853.123C52.2342 852.781 52.3764 852.457 52.6215 852.219C52.8665 851.98 53.195 851.847 53.5369 851.847V851.847C53.7199 851.817 53.9074 851.826 54.0864 851.875C54.2654 851.924 54.4315 852.011 54.5732 852.131C54.7149 852.251 54.8288 852.4 54.9069 852.568C54.985 852.737 55.0255 852.92 55.0255 853.105C55.0255 853.291 54.985 853.474 54.9069 853.642C54.8288 853.81 54.7149 853.96 54.5732 854.079C54.4315 854.199 54.2654 854.287 54.0864 854.336C53.9074 854.385 53.7199 854.394 53.5369 854.363V854.363ZM60.0969 854.363C59.7609 854.364 59.4375 854.235 59.1934 854.005C58.9493 853.774 58.8031 853.458 58.7849 853.123V853.123C58.7941 852.781 58.9364 852.457 59.1815 852.219C59.4265 851.98 59.755 851.847 60.0969 851.847V851.847C60.2799 851.817 60.4674 851.826 60.6464 851.875C60.8254 851.924 60.9915 852.011 61.1332 852.131C61.2749 852.251 61.3888 852.4 61.4669 852.568C61.545 852.737 61.5855 852.92 61.5855 853.105C61.5855 853.291 61.545 853.474 61.4669 853.642C61.3888 853.81 61.2749 853.96 61.1332 854.079C60.9915 854.199 60.8254 854.287 60.6464 854.336C60.4674 854.385 60.2799 854.394 60.0969 854.363V854.363ZM66.6924 854.363C66.3503 854.373 66.0179 854.249 65.7662 854.017C65.5144 853.785 65.3633 853.465 65.3449 853.123V853.123C65.3495 852.951 65.388 852.781 65.4582 852.624C65.5284 852.467 65.629 852.325 65.7541 852.206C65.8793 852.088 66.0265 851.995 66.1875 851.933C66.3485 851.872 66.5201 851.843 66.6924 851.847V851.847C66.8754 851.817 67.0629 851.826 67.2419 851.875C67.4209 851.924 67.587 852.011 67.7287 852.131C67.8704 852.251 67.9843 852.4 68.0624 852.568C68.1405 852.737 68.1809 852.92 68.1809 853.105C68.1809 853.291 68.1405 853.474 68.0624 853.642C67.9843 853.81 67.8704 853.96 67.7287 854.079C67.587 854.199 67.4209 854.287 67.2419 854.336C67.0629 854.385 66.8754 854.394 66.6924 854.363V854.363ZM73.2524 854.363C73.0847 854.368 72.9178 854.34 72.7611 854.28C72.6044 854.22 72.461 854.13 72.3392 854.015C72.2173 853.9 72.1194 853.762 72.051 853.609C71.9825 853.455 71.9449 853.291 71.9403 853.123V853.123C71.9403 852.952 71.9745 852.784 72.0408 852.626C72.1072 852.469 72.2044 852.327 72.3267 852.208C72.449 852.089 72.5939 851.996 72.7529 851.934C72.9119 851.872 73.0818 851.843 73.2524 851.847V851.847C73.4354 851.817 73.6229 851.826 73.8019 851.875C73.9809 851.924 74.147 852.011 74.2887 852.131C74.4304 852.251 74.5442 852.4 74.6224 852.568C74.7005 852.737 74.7409 852.92 74.7409 853.105C74.7409 853.291 74.7005 853.474 74.6224 853.642C74.5442 853.81 74.4304 853.96 74.2887 854.079C74.147 854.199 73.9809 854.287 73.8019 854.336C73.6229 854.385 73.4354 854.394 73.2524 854.363V854.363ZM79.8124 854.363C79.6447 854.368 79.4778 854.34 79.3211 854.28C79.1644 854.22 79.021 854.13 78.8992 854.015C78.7773 853.9 78.6794 853.762 78.611 853.609C78.5425 853.455 78.5049 853.291 78.5003 853.123V853.123C78.5003 852.952 78.5344 852.784 78.6008 852.626C78.6672 852.469 78.7644 852.327 78.8867 852.208C79.009 852.089 79.1539 851.996 79.3129 851.934C79.4719 851.872 79.6418 851.843 79.8124 851.847C79.9954 851.817 80.1829 851.826 80.3619 851.875C80.5408 851.924 80.707 852.011 80.8487 852.131C80.9904 852.251 81.1042 852.4 81.1823 852.568C81.2605 852.737 81.3009 852.92 81.3009 853.105C81.3009 853.291 81.2605 853.474 81.1823 853.642C81.1042 853.81 80.9904 853.96 80.8487 854.079C80.707 854.199 80.5408 854.287 80.3619 854.336C80.1829 854.385 79.9954 854.394 79.8124 854.363V854.363ZM86.3724 854.363C86.0363 854.364 85.7129 854.235 85.4688 854.005C85.2247 853.774 85.0785 853.458 85.0603 853.123V853.123C85.0696 852.781 85.2119 852.457 85.457 852.219C85.702 851.98 86.0304 851.847 86.3724 851.847V851.847C86.5554 851.817 86.7429 851.826 86.9219 851.875C87.1008 851.924 87.2669 852.011 87.4087 852.131C87.5504 852.251 87.6642 852.4 87.7423 852.568C87.8204 852.737 87.8609 852.92 87.8609 853.105C87.8609 853.291 87.8204 853.474 87.7423 853.642C87.6642 853.81 87.5504 853.96 87.4087 854.079C87.2669 854.199 87.1008 854.287 86.9219 854.336C86.7429 854.385 86.5554 854.394 86.3724 854.363V854.363ZM92.9323 854.363C92.5963 854.364 92.2729 854.235 92.0288 854.005C91.7847 853.774 91.6385 853.458 91.6203 853.123V853.123C91.6296 852.781 91.7719 852.457 92.0169 852.219C92.262 851.98 92.5904 851.847 92.9323 851.847V851.847C93.1153 851.817 93.3029 851.826 93.4819 851.875C93.6608 851.924 93.8269 852.011 93.9686 852.131C94.1103 852.251 94.2242 852.4 94.3023 852.568C94.3804 852.737 94.4209 852.92 94.4209 853.105C94.4209 853.291 94.3804 853.474 94.3023 853.642C94.2242 853.81 94.1103 853.96 93.9686 854.079C93.8269 854.199 93.6608 854.287 93.4819 854.336C93.3029 854.385 93.1153 854.394 92.9323 854.363V854.363Z" fill="white"/>
<path opacity="0.6" d="M0.986053 843.733C0.644147 843.733 0.315706 843.6 0.0706533 843.361C-0.1744 843.123 -0.316687 842.799 -0.325928 842.457V842.457C-0.307765 842.122 -0.16155 841.806 0.0825568 841.575C0.326663 841.345 0.650036 841.216 0.986053 841.217C1.16906 841.186 1.35659 841.195 1.53556 841.244C1.71454 841.294 1.88065 841.381 2.02235 841.501C2.16405 841.62 2.27793 841.77 2.35604 841.938C2.43414 842.106 2.47464 842.289 2.47464 842.475C2.47464 842.66 2.43414 842.843 2.35604 843.012C2.27793 843.18 2.16405 843.329 2.02235 843.449C1.88065 843.569 1.71454 843.656 1.53556 843.705C1.35659 843.754 1.16906 843.764 0.986053 843.733V843.733ZM7.5815 843.733C7.4109 843.737 7.24111 843.708 7.08211 843.646C6.92312 843.584 6.77816 843.491 6.65584 843.372C6.53352 843.253 6.43634 843.111 6.36998 842.954C6.30362 842.796 6.26945 842.628 6.26952 842.457V842.457C6.27411 842.289 6.31168 842.124 6.38011 841.971C6.44854 841.818 6.5465 841.68 6.66835 841.565C6.79019 841.45 6.93356 841.36 7.09025 841.3C7.24694 841.24 7.41384 841.212 7.5815 841.217C7.7645 841.186 7.95203 841.195 8.13101 841.244C8.30998 841.294 8.47613 841.381 8.61784 841.501C8.75954 841.62 8.87337 841.77 8.95148 841.938C9.02959 842.106 9.07008 842.289 9.07008 842.475C9.07008 842.66 9.02959 842.843 8.95148 843.012C8.87337 843.18 8.75954 843.329 8.61784 843.449C8.47613 843.569 8.30998 843.656 8.13101 843.705C7.95203 843.754 7.7645 843.764 7.5815 843.733V843.733ZM14.1415 843.733C13.9709 843.737 13.8011 843.708 13.6421 843.646C13.4831 843.584 13.3381 843.491 13.2158 843.372C13.0935 843.253 12.9963 843.111 12.93 842.954C12.8636 842.796 12.8294 842.628 12.8295 842.457V842.457C12.8341 842.289 12.8717 842.124 12.9401 841.971C13.0085 841.818 13.1065 841.68 13.2283 841.565C13.3502 841.45 13.4936 841.36 13.6502 841.3C13.8069 841.24 13.9738 841.212 14.1415 841.217C14.3245 841.186 14.512 841.195 14.691 841.244C14.87 841.294 15.0361 841.381 15.1778 841.501C15.3195 841.62 15.4334 841.77 15.5115 841.938C15.5896 842.106 15.6301 842.289 15.6301 842.475C15.6301 842.66 15.5896 842.843 15.5115 843.012C15.4334 843.18 15.3195 843.329 15.1778 843.449C15.0361 843.569 14.87 843.656 14.691 843.705C14.512 843.754 14.3245 843.764 14.1415 843.733V843.733ZM20.7015 843.733C20.3596 843.733 20.0311 843.6 19.7861 843.361C19.541 843.123 19.3987 842.799 19.3895 842.457V842.457C19.4077 842.122 19.5539 841.806 19.798 841.575C20.0421 841.345 20.3655 841.216 20.7015 841.217V841.217C20.8845 841.186 21.072 841.195 21.251 841.244C21.43 841.294 21.5961 841.381 21.7378 841.501C21.8795 841.62 21.9934 841.77 22.0715 841.938C22.1496 842.106 22.1901 842.289 22.1901 842.475C22.1901 842.66 22.1496 842.843 22.0715 843.012C21.9934 843.18 21.8795 843.329 21.7378 843.449C21.5961 843.569 21.43 843.656 21.251 843.705C21.072 843.754 20.8845 843.764 20.7015 843.733V843.733ZM27.2615 843.733C26.9196 843.733 26.5911 843.6 26.3461 843.361C26.101 843.123 25.9587 842.799 25.9495 842.457V842.457C25.9677 842.122 26.1139 841.806 26.358 841.575C26.6021 841.345 26.9255 841.216 27.2615 841.217V841.217C27.4445 841.186 27.632 841.195 27.811 841.244C27.99 841.294 28.1561 841.381 28.2978 841.501C28.4395 841.62 28.5534 841.77 28.6315 841.938C28.7096 842.106 28.7501 842.289 28.7501 842.475C28.7501 842.66 28.7096 842.843 28.6315 843.012C28.5534 843.18 28.4395 843.329 28.2978 843.449C28.1561 843.569 27.99 843.656 27.811 843.705C27.632 843.754 27.4445 843.764 27.2615 843.733V843.733ZM33.8215 843.733C33.4796 843.733 33.1511 843.6 32.9061 843.361C32.661 843.123 32.5187 842.799 32.5095 842.457V842.457C32.5276 842.122 32.6739 841.806 32.918 841.575C33.1621 841.345 33.4854 841.216 33.8215 841.217V841.217C34.0045 841.186 34.192 841.195 34.371 841.244C34.55 841.294 34.7161 841.381 34.8578 841.501C34.9995 841.62 35.1133 841.77 35.1915 841.938C35.2696 842.106 35.3101 842.289 35.3101 842.475C35.3101 842.66 35.2696 842.843 35.1915 843.012C35.1133 843.18 34.9995 843.329 34.8578 843.449C34.7161 843.569 34.55 843.656 34.371 843.705C34.192 843.754 34.0045 843.764 33.8215 843.733V843.733ZM40.417 843.733C40.2464 843.737 40.0765 843.708 39.9175 843.646C39.7585 843.584 39.6136 843.491 39.4913 843.372C39.369 843.253 39.2718 843.111 39.2054 842.954C39.139 842.796 39.1049 842.628 39.1049 842.457V842.457C39.1095 842.289 39.1471 842.124 39.2156 841.971C39.284 841.818 39.3819 841.68 39.5038 841.565C39.6256 841.45 39.769 841.36 39.9257 841.3C40.0824 841.24 40.2493 841.212 40.417 841.217C40.6 841.186 40.7874 841.195 40.9664 841.244C41.1454 841.294 41.3115 841.381 41.4533 841.501C41.595 841.62 41.7088 841.77 41.7869 841.938C41.865 842.106 41.9055 842.289 41.9055 842.475C41.9055 842.66 41.865 842.843 41.7869 843.012C41.7088 843.18 41.595 843.329 41.4533 843.449C41.3115 843.569 41.1454 843.656 40.9664 843.705C40.7874 843.754 40.6 843.764 40.417 843.733V843.733ZM46.9769 843.733C46.8063 843.737 46.6365 843.708 46.4775 843.646C46.3185 843.584 46.1736 843.491 46.0513 843.372C45.929 843.253 45.8317 843.111 45.7654 842.954C45.699 842.796 45.6649 842.628 45.6649 842.457V842.457C45.6695 842.289 45.7071 842.124 45.7756 841.971C45.844 841.818 45.9419 841.68 46.0638 841.565C46.1856 841.45 46.329 841.36 46.4857 841.3C46.6423 841.24 46.8093 841.212 46.9769 841.217C47.1599 841.186 47.3474 841.195 47.5264 841.244C47.7054 841.294 47.8715 841.381 48.0132 841.501C48.1549 841.62 48.2688 841.77 48.3469 841.938C48.425 842.106 48.4655 842.289 48.4655 842.475C48.4655 842.66 48.425 842.843 48.3469 843.012C48.2688 843.18 48.1549 843.329 48.0132 843.449C47.8715 843.569 47.7054 843.656 47.5264 843.705C47.3474 843.754 47.1599 843.764 46.9769 843.733V843.733ZM53.5369 843.733C53.195 843.733 52.8665 843.6 52.6215 843.361C52.3764 843.123 52.2342 842.799 52.2249 842.457V842.457C52.2431 842.122 52.3893 841.806 52.6334 841.575C52.8775 841.345 53.2009 841.216 53.5369 841.217C53.7199 841.186 53.9074 841.195 54.0864 841.244C54.2654 841.294 54.4315 841.381 54.5732 841.501C54.7149 841.62 54.8288 841.77 54.9069 841.938C54.985 842.106 55.0255 842.289 55.0255 842.475C55.0255 842.66 54.985 842.843 54.9069 843.012C54.8288 843.18 54.7149 843.329 54.5732 843.449C54.4315 843.569 54.2654 843.656 54.0864 843.705C53.9074 843.754 53.7199 843.764 53.5369 843.733V843.733ZM60.0969 843.733C59.755 843.733 59.4265 843.6 59.1815 843.361C58.9364 843.123 58.7941 842.799 58.7849 842.457V842.457C58.8031 842.122 58.9493 841.806 59.1934 841.575C59.4375 841.345 59.7609 841.216 60.0969 841.217C60.2799 841.186 60.4674 841.195 60.6464 841.244C60.8254 841.294 60.9915 841.381 61.1332 841.501C61.2749 841.62 61.3888 841.77 61.4669 841.938C61.545 842.106 61.5855 842.289 61.5855 842.475C61.5855 842.66 61.545 842.843 61.4669 843.012C61.3888 843.18 61.2749 843.329 61.1332 843.449C60.9915 843.569 60.8254 843.656 60.6464 843.705C60.4674 843.754 60.2799 843.764 60.0969 843.733V843.733ZM66.6924 843.733C66.5201 843.737 66.3485 843.708 66.1875 843.647C66.0265 843.585 65.8793 843.492 65.7541 843.374C65.629 843.255 65.5284 843.113 65.4582 842.956C65.388 842.799 65.3495 842.629 65.3449 842.457V842.457C65.3633 842.116 65.5144 841.795 65.7662 841.563C66.0179 841.331 66.3503 841.207 66.6924 841.217C66.8754 841.186 67.0629 841.195 67.2419 841.244C67.4209 841.294 67.587 841.381 67.7287 841.501C67.8704 841.62 67.9843 841.77 68.0624 841.938C68.1405 842.106 68.1809 842.289 68.1809 842.475C68.1809 842.66 68.1405 842.843 68.0624 843.012C67.9843 843.18 67.8704 843.329 67.7287 843.449C67.587 843.569 67.4209 843.656 67.2419 843.705C67.0629 843.754 66.8754 843.764 66.6924 843.733V843.733ZM73.2524 843.733C73.0818 843.737 72.9119 843.708 72.7529 843.646C72.5939 843.584 72.449 843.491 72.3267 843.372C72.2044 843.253 72.1072 843.111 72.0408 842.954C71.9745 842.796 71.9403 842.628 71.9403 842.457V842.457C71.9449 842.289 71.9825 842.124 72.051 841.971C72.1194 841.818 72.2173 841.68 72.3392 841.565C72.461 841.45 72.6044 841.36 72.7611 841.3C72.9178 841.24 73.0847 841.212 73.2524 841.217C73.4354 841.186 73.6229 841.195 73.8019 841.244C73.9809 841.294 74.147 841.381 74.2887 841.501C74.4304 841.62 74.5442 841.77 74.6224 841.938C74.7005 842.106 74.7409 842.289 74.7409 842.475C74.7409 842.66 74.7005 842.843 74.6224 843.012C74.5442 843.18 74.4304 843.329 74.2887 843.449C74.147 843.569 73.9809 843.656 73.8019 843.705C73.6229 843.754 73.4354 843.764 73.2524 843.733V843.733ZM79.8124 843.733C79.6418 843.737 79.4719 843.708 79.3129 843.646C79.1539 843.584 79.009 843.491 78.8867 843.372C78.7644 843.253 78.6672 843.111 78.6008 842.954C78.5344 842.796 78.5003 842.628 78.5003 842.457V842.457C78.5049 842.289 78.5425 842.124 78.611 841.971C78.6794 841.818 78.7773 841.68 78.8992 841.565C79.021 841.45 79.1644 841.36 79.3211 841.3C79.4778 841.24 79.6447 841.212 79.8124 841.217C79.9954 841.186 80.1829 841.195 80.3619 841.244C80.5408 841.294 80.707 841.381 80.8487 841.501C80.9904 841.62 81.1042 841.77 81.1823 841.938C81.2605 842.106 81.3009 842.289 81.3009 842.475C81.3009 842.66 81.2605 842.843 81.1823 843.012C81.1042 843.18 80.9904 843.329 80.8487 843.449C80.707 843.569 80.5408 843.656 80.3619 843.705C80.1829 843.754 79.9954 843.764 79.8124 843.733V843.733ZM86.3724 843.733C86.0304 843.733 85.702 843.6 85.457 843.361C85.2119 843.123 85.0696 842.799 85.0603 842.457V842.457C85.0785 842.122 85.2247 841.806 85.4688 841.575C85.7129 841.345 86.0363 841.216 86.3724 841.217V841.217C86.5554 841.186 86.7429 841.195 86.9219 841.244C87.1008 841.294 87.2669 841.381 87.4087 841.501C87.5504 841.62 87.6642 841.77 87.7423 841.938C87.8204 842.106 87.8609 842.289 87.8609 842.475C87.8609 842.66 87.8204 842.843 87.7423 843.012C87.6642 843.18 87.5504 843.329 87.4087 843.449C87.2669 843.569 87.1008 843.656 86.9219 843.705C86.7429 843.754 86.5554 843.764 86.3724 843.733V843.733ZM92.9323 843.733C92.5904 843.733 92.262 843.6 92.0169 843.361C91.7719 843.123 91.6296 842.799 91.6203 842.457V842.457C91.6385 842.122 91.7847 841.806 92.0288 841.575C92.2729 841.345 92.5963 841.216 92.9323 841.217V841.217C93.1153 841.186 93.3029 841.195 93.4819 841.244C93.6608 841.294 93.8269 841.381 93.9686 841.501C94.1103 841.62 94.2242 841.77 94.3023 841.938C94.3804 842.106 94.4209 842.289 94.4209 842.475C94.4209 842.66 94.3804 842.843 94.3023 843.012C94.2242 843.18 94.1103 843.329 93.9686 843.449C93.8269 843.569 93.6608 843.656 93.4819 843.705C93.3029 843.754 93.1153 843.764 92.9323 843.733V843.733Z" fill="white"/>
<path opacity="0.6" d="M0.986053 833.102C0.644147 833.102 0.315706 832.969 0.0706533 832.731C-0.1744 832.493 -0.316687 832.168 -0.325928 831.826V831.826C-0.316687 831.485 -0.1744 831.16 0.0706533 830.922C0.315706 830.684 0.644147 830.551 0.986053 830.551V830.551C1.32461 830.551 1.64933 830.685 1.88873 830.924C2.12813 831.164 2.26258 831.488 2.26258 831.826C2.26258 832.165 2.12813 832.489 1.88873 832.729C1.64933 832.968 1.32461 833.102 0.986053 833.102V833.102ZM7.5815 833.102C7.4109 833.107 7.24111 833.077 7.08211 833.015C6.92312 832.953 6.77816 832.86 6.65584 832.741C6.53352 832.622 6.43634 832.48 6.36998 832.323C6.30362 832.166 6.26945 831.997 6.26952 831.826V831.826C6.26945 831.656 6.30362 831.487 6.36998 831.33C6.43634 831.173 6.53352 831.031 6.65584 830.912C6.77816 830.793 6.92312 830.7 7.08211 830.638C7.24111 830.576 7.4109 830.546 7.5815 830.551V830.551C7.92006 830.551 8.24477 830.685 8.48417 830.924C8.72357 831.164 8.85807 831.488 8.85807 831.826C8.85807 832.165 8.72357 832.489 8.48417 832.729C8.24477 832.968 7.92006 833.102 7.5815 833.102V833.102ZM14.1415 833.102C13.9709 833.107 13.8011 833.077 13.6421 833.015C13.4831 832.953 13.3381 832.86 13.2158 832.741C13.0935 832.622 12.9963 832.48 12.93 832.323C12.8636 832.166 12.8294 831.997 12.8295 831.826V831.826C12.8294 831.656 12.8636 831.487 12.93 831.33C12.9963 831.173 13.0935 831.031 13.2158 830.912C13.3381 830.793 13.4831 830.7 13.6421 830.638C13.8011 830.576 13.9709 830.546 14.1415 830.551C14.48 830.551 14.8048 830.685 15.0442 830.924C15.2836 831.164 15.4181 831.488 15.4181 831.826C15.4181 832.165 15.2836 832.489 15.0442 832.729C14.8048 832.968 14.48 833.102 14.1415 833.102V833.102ZM20.7015 833.102C20.3596 833.102 20.0311 832.969 19.7861 832.731C19.541 832.493 19.3987 832.168 19.3895 831.826V831.826C19.3987 831.485 19.541 831.16 19.7861 830.922C20.0311 830.684 20.3596 830.551 20.7015 830.551V830.551C21.04 830.551 21.3648 830.685 21.6042 830.924C21.8436 831.164 21.9781 831.488 21.9781 831.826C21.9781 832.165 21.8436 832.489 21.6042 832.729C21.3648 832.968 21.04 833.102 20.7015 833.102V833.102ZM27.2615 833.102C26.9196 833.102 26.5911 832.969 26.3461 832.731C26.101 832.493 25.9587 832.168 25.9495 831.826V831.826C25.9587 831.485 26.101 831.16 26.3461 830.922C26.5911 830.684 26.9196 830.551 27.2615 830.551V830.551C27.6 830.551 27.9247 830.685 28.1641 830.924C28.4035 831.164 28.538 831.488 28.538 831.826C28.538 832.165 28.4035 832.489 28.1641 832.729C27.9247 832.968 27.6 833.102 27.2615 833.102V833.102ZM33.8215 833.102C33.4796 833.102 33.1511 832.969 32.9061 832.731C32.661 832.493 32.5187 832.168 32.5095 831.826V831.826C32.5187 831.485 32.661 831.16 32.9061 830.922C33.1511 830.684 33.4796 830.551 33.8215 830.551V830.551C34.16 830.551 34.4847 830.685 34.7241 830.924C34.9635 831.164 35.098 831.488 35.098 831.826C35.098 832.165 34.9635 832.489 34.7241 832.729C34.4847 832.968 34.16 833.102 33.8215 833.102V833.102ZM40.417 833.102C40.2464 833.107 40.0765 833.077 39.9175 833.015C39.7585 832.953 39.6136 832.86 39.4913 832.741C39.369 832.622 39.2718 832.48 39.2054 832.323C39.139 832.166 39.1049 831.997 39.1049 831.826V831.826C39.1049 831.656 39.139 831.487 39.2054 831.33C39.2718 831.173 39.369 831.031 39.4913 830.912C39.6136 830.793 39.7585 830.7 39.9175 830.638C40.0765 830.576 40.2464 830.546 40.417 830.551C40.7555 830.551 41.0802 830.685 41.3196 830.924C41.559 831.164 41.6935 831.488 41.6935 831.826C41.6935 832.165 41.559 832.489 41.3196 832.729C41.0802 832.968 40.7555 833.102 40.417 833.102V833.102ZM46.9769 833.102C46.8063 833.107 46.6365 833.077 46.4775 833.015C46.3185 832.953 46.1736 832.86 46.0513 832.741C45.929 832.622 45.8317 832.48 45.7654 832.323C45.699 832.166 45.6649 831.997 45.6649 831.826V831.826C45.6649 831.656 45.699 831.487 45.7654 831.33C45.8317 831.173 45.929 831.031 46.0513 830.912C46.1736 830.793 46.3185 830.7 46.4775 830.638C46.6365 830.576 46.8063 830.546 46.9769 830.551V830.551C47.3155 830.551 47.6402 830.685 47.8796 830.924C48.119 831.164 48.2535 831.488 48.2535 831.826C48.2535 832.165 48.119 832.489 47.8796 832.729C47.6402 832.968 47.3155 833.102 46.9769 833.102V833.102ZM53.5369 833.102C53.195 833.102 52.8665 832.969 52.6215 832.731C52.3764 832.493 52.2342 832.168 52.2249 831.826V831.826C52.2342 831.485 52.3764 831.16 52.6215 830.922C52.8665 830.684 53.195 830.551 53.5369 830.551V830.551C53.8755 830.551 54.2002 830.685 54.4396 830.924C54.679 831.164 54.8135 831.488 54.8135 831.826C54.8135 832.165 54.679 832.489 54.4396 832.729C54.2002 832.968 53.8755 833.102 53.5369 833.102V833.102ZM60.0969 833.102C59.755 833.102 59.4265 832.969 59.1815 832.731C58.9364 832.493 58.7941 832.168 58.7849 831.826V831.826C58.7941 831.485 58.9364 831.16 59.1815 830.922C59.4265 830.684 59.755 830.551 60.0969 830.551V830.551C60.4355 830.551 60.7602 830.685 60.9996 830.924C61.239 831.164 61.3735 831.488 61.3735 831.826C61.3735 832.165 61.239 832.489 60.9996 832.729C60.7602 832.968 60.4355 833.102 60.0969 833.102V833.102ZM66.6924 833.102C66.5201 833.107 66.3485 833.078 66.1875 833.016C66.0265 832.954 65.8793 832.862 65.7541 832.743C65.629 832.625 65.5284 832.483 65.4582 832.326C65.388 832.168 65.3495 831.999 65.3449 831.826V831.826C65.3495 831.654 65.388 831.485 65.4582 831.327C65.5284 831.17 65.629 831.028 65.7541 830.91C65.8793 830.791 66.0265 830.699 66.1875 830.637C66.3485 830.575 66.5201 830.546 66.6924 830.551V830.551C67.0309 830.551 67.3556 830.685 67.595 830.924C67.8344 831.164 67.9689 831.488 67.9689 831.826C67.9689 832.165 67.8344 832.489 67.595 832.729C67.3556 832.968 67.0309 833.102 66.6924 833.102V833.102ZM73.2524 833.102C73.0818 833.107 72.9119 833.077 72.7529 833.015C72.5939 832.953 72.449 832.86 72.3267 832.741C72.2044 832.622 72.1072 832.48 72.0408 832.323C71.9744 832.166 71.9403 831.997 71.9403 831.826V831.826C71.9403 831.656 71.9744 831.487 72.0408 831.33C72.1072 831.173 72.2044 831.031 72.3267 830.912C72.449 830.793 72.5939 830.7 72.7529 830.638C72.9119 830.576 73.0818 830.546 73.2524 830.551V830.551C73.5909 830.551 73.9156 830.685 74.155 830.924C74.3944 831.164 74.5289 831.488 74.5289 831.826C74.5289 832.165 74.3944 832.489 74.155 832.729C73.9156 832.968 73.5909 833.102 73.2524 833.102V833.102ZM79.8124 833.102C79.6418 833.107 79.4719 833.077 79.3129 833.015C79.1539 832.953 79.009 832.86 78.8867 832.741C78.7644 832.622 78.6672 832.48 78.6008 832.323C78.5344 832.166 78.5003 831.997 78.5003 831.826V831.826C78.5003 831.656 78.5344 831.487 78.6008 831.33C78.6672 831.173 78.7644 831.031 78.8867 830.912C79.009 830.793 79.1539 830.7 79.3129 830.638C79.4719 830.576 79.6418 830.546 79.8124 830.551C80.1509 830.551 80.4756 830.685 80.715 830.924C80.9544 831.164 81.0889 831.488 81.0889 831.826C81.0889 832.165 80.9544 832.489 80.715 832.729C80.4756 832.968 80.1509 833.102 79.8124 833.102V833.102ZM86.3723 833.102C86.0304 833.102 85.702 832.969 85.4569 832.731C85.2119 832.493 85.0696 832.168 85.0603 831.826V831.826C85.0696 831.485 85.2119 831.16 85.4569 830.922C85.702 830.684 86.0304 830.551 86.3723 830.551V830.551C86.7109 830.551 87.0356 830.685 87.275 830.924C87.5144 831.164 87.6489 831.488 87.6489 831.826C87.6489 832.165 87.5144 832.489 87.275 832.729C87.0356 832.968 86.7109 833.102 86.3723 833.102V833.102ZM92.9323 833.102C92.5904 833.102 92.262 832.969 92.0169 832.731C91.7719 832.493 91.6296 832.168 91.6203 831.826V831.826C91.6296 831.485 91.7719 831.16 92.0169 830.922C92.262 830.684 92.5904 830.551 92.9323 830.551V830.551C93.2709 830.551 93.5956 830.685 93.835 830.924C94.0744 831.164 94.2089 831.488 94.2089 831.826C94.2089 832.165 94.0744 832.489 93.835 832.729C93.5956 832.968 93.2709 833.102 92.9323 833.102V833.102Z" fill="white"/>
<path opacity="0.6" d="M0.986053 822.436C0.650036 822.437 0.326663 822.308 0.0825568 822.078C-0.16155 821.847 -0.307765 821.531 -0.325928 821.196V821.196C-0.316687 820.854 -0.1744 820.53 0.0706533 820.292C0.315706 820.053 0.644147 819.92 0.986053 819.92V819.92C1.16906 819.889 1.35659 819.899 1.53556 819.948C1.71454 819.997 1.88065 820.084 2.02235 820.204C2.16405 820.324 2.27793 820.473 2.35604 820.641C2.43414 820.809 2.47464 820.993 2.47464 821.178C2.47464 821.364 2.43414 821.547 2.35604 821.715C2.27793 821.883 2.16405 822.033 2.02235 822.152C1.88065 822.272 1.71454 822.359 1.53556 822.408C1.35659 822.457 1.16906 822.467 0.986053 822.436V822.436ZM7.5815 822.436C7.41384 822.441 7.24694 822.412 7.09025 822.353C6.93356 822.293 6.79019 822.203 6.66835 822.088C6.5465 821.972 6.44854 821.834 6.38011 821.681C6.31168 821.528 6.27411 821.363 6.26952 821.196V821.196C6.26945 821.025 6.30362 820.857 6.36998 820.699C6.43634 820.542 6.53352 820.4 6.65584 820.281C6.77816 820.162 6.92312 820.069 7.08211 820.007C7.24111 819.945 7.4109 819.915 7.5815 819.92V819.92C7.7645 819.889 7.95203 819.899 8.13101 819.948C8.30998 819.997 8.47613 820.084 8.61784 820.204C8.75954 820.324 8.87337 820.473 8.95148 820.641C9.02959 820.809 9.07008 820.993 9.07008 821.178C9.07008 821.364 9.02959 821.547 8.95148 821.715C8.87337 821.883 8.75954 822.033 8.61784 822.152C8.47613 822.272 8.30998 822.359 8.13101 822.408C7.95203 822.457 7.7645 822.467 7.5815 822.436V822.436ZM14.1415 822.436C13.9738 822.441 13.8069 822.412 13.6502 822.353C13.4936 822.293 13.3502 822.203 13.2283 822.088C13.1065 821.972 13.0085 821.834 12.9401 821.681C12.8717 821.528 12.8341 821.363 12.8295 821.196C12.8294 821.025 12.8636 820.857 12.93 820.699C12.9963 820.542 13.0935 820.4 13.2158 820.281C13.3381 820.162 13.4831 820.069 13.6421 820.007C13.8011 819.945 13.9709 819.915 14.1415 819.92V819.92C14.3245 819.889 14.512 819.899 14.691 819.948C14.87 819.997 15.0361 820.084 15.1778 820.204C15.3195 820.324 15.4334 820.473 15.5115 820.641C15.5896 820.809 15.6301 820.993 15.6301 821.178C15.6301 821.364 15.5896 821.547 15.5115 821.715C15.4334 821.883 15.3195 822.033 15.1778 822.152C15.0361 822.272 14.87 822.359 14.691 822.408C14.512 822.457 14.3245 822.467 14.1415 822.436V822.436ZM20.7015 822.436C20.3655 822.437 20.0421 822.308 19.798 822.078C19.5539 821.847 19.4077 821.531 19.3895 821.196C19.3987 820.854 19.541 820.53 19.7861 820.292C20.0311 820.053 20.3596 819.92 20.7015 819.92V819.92C20.8845 819.889 21.072 819.899 21.251 819.948C21.43 819.997 21.5961 820.084 21.7378 820.204C21.8795 820.324 21.9934 820.473 22.0715 820.641C22.1496 820.809 22.1901 820.993 22.1901 821.178C22.1901 821.364 22.1496 821.547 22.0715 821.715C21.9934 821.883 21.8795 822.033 21.7378 822.152C21.5961 822.272 21.43 822.359 21.251 822.408C21.072 822.457 20.8845 822.467 20.7015 822.436V822.436ZM27.2615 822.436C26.9255 822.437 26.6021 822.308 26.358 822.078C26.1139 821.847 25.9677 821.531 25.9495 821.196C25.9587 820.854 26.101 820.53 26.3461 820.292C26.5911 820.053 26.9196 819.92 27.2615 819.92V819.92C27.4445 819.889 27.632 819.899 27.811 819.948C27.99 819.997 28.1561 820.084 28.2978 820.204C28.4395 820.324 28.5534 820.473 28.6315 820.641C28.7096 820.809 28.7501 820.993 28.7501 821.178C28.7501 821.364 28.7096 821.547 28.6315 821.715C28.5534 821.883 28.4395 822.033 28.2978 822.152C28.1561 822.272 27.99 822.359 27.811 822.408C27.632 822.457 27.4445 822.467 27.2615 822.436V822.436ZM33.8215 822.436C33.4854 822.437 33.1621 822.308 32.918 822.078C32.6739 821.847 32.5276 821.531 32.5095 821.196C32.5187 820.854 32.661 820.53 32.9061 820.292C33.1511 820.053 33.4796 819.92 33.8215 819.92V819.92C34.0045 819.889 34.192 819.899 34.371 819.948C34.55 819.997 34.7161 820.084 34.8578 820.204C34.9995 820.324 35.1133 820.473 35.1915 820.641C35.2696 820.809 35.3101 820.993 35.3101 821.178C35.3101 821.364 35.2696 821.547 35.1915 821.715C35.1133 821.883 34.9995 822.033 34.8578 822.152C34.7161 822.272 34.55 822.359 34.371 822.408C34.192 822.457 34.0045 822.467 33.8215 822.436V822.436ZM40.417 822.436C40.2493 822.441 40.0824 822.412 39.9257 822.353C39.769 822.293 39.6256 822.203 39.5038 822.088C39.3819 821.972 39.284 821.834 39.2156 821.681C39.1471 821.528 39.1095 821.363 39.1049 821.196V821.196C39.1049 821.025 39.139 820.857 39.2054 820.699C39.2718 820.542 39.369 820.4 39.4913 820.281C39.6136 820.162 39.7585 820.069 39.9175 820.007C40.0765 819.945 40.2464 819.915 40.417 819.92V819.92C40.6 819.889 40.7874 819.899 40.9664 819.948C41.1454 819.997 41.3115 820.084 41.4533 820.204C41.595 820.324 41.7088 820.473 41.7869 820.641C41.865 820.809 41.9055 820.993 41.9055 821.178C41.9055 821.364 41.865 821.547 41.7869 821.715C41.7088 821.883 41.595 822.033 41.4533 822.152C41.3115 822.272 41.1454 822.359 40.9664 822.408C40.7874 822.457 40.6 822.467 40.417 822.436V822.436ZM46.9769 822.436C46.8093 822.441 46.6423 822.412 46.4857 822.353C46.329 822.293 46.1856 822.203 46.0638 822.088C45.9419 821.972 45.844 821.834 45.7756 821.681C45.7071 821.528 45.6695 821.363 45.6649 821.196V821.196C45.6649 821.025 45.699 820.857 45.7654 820.699C45.8317 820.542 45.929 820.4 46.0513 820.281C46.1736 820.162 46.3185 820.069 46.4775 820.007C46.6365 819.945 46.8063 819.915 46.9769 819.92V819.92C47.1599 819.889 47.3474 819.899 47.5264 819.948C47.7054 819.997 47.8715 820.084 48.0132 820.204C48.1549 820.324 48.2688 820.473 48.3469 820.641C48.425 820.809 48.4655 820.993 48.4655 821.178C48.4655 821.364 48.425 821.547 48.3469 821.715C48.2688 821.883 48.1549 822.033 48.0132 822.152C47.8715 822.272 47.7054 822.359 47.5264 822.408C47.3474 822.457 47.1599 822.467 46.9769 822.436V822.436ZM53.5369 822.436C53.2009 822.437 52.8775 822.308 52.6334 822.078C52.3893 821.847 52.2431 821.531 52.2249 821.196V821.196C52.2342 820.854 52.3764 820.53 52.6215 820.292C52.8665 820.053 53.195 819.92 53.5369 819.92V819.92C53.7199 819.889 53.9074 819.899 54.0864 819.948C54.2654 819.997 54.4315 820.084 54.5732 820.204C54.7149 820.324 54.8288 820.473 54.9069 820.641C54.985 820.809 55.0255 820.993 55.0255 821.178C55.0255 821.364 54.985 821.547 54.9069 821.715C54.8288 821.883 54.7149 822.033 54.5732 822.152C54.4315 822.272 54.2654 822.359 54.0864 822.408C53.9074 822.457 53.7199 822.467 53.5369 822.436V822.436ZM60.0969 822.436C59.7609 822.437 59.4375 822.308 59.1934 822.078C58.9493 821.847 58.8031 821.531 58.7849 821.196V821.196C58.7941 820.854 58.9364 820.53 59.1815 820.292C59.4265 820.053 59.755 819.92 60.0969 819.92V819.92C60.2799 819.889 60.4674 819.899 60.6464 819.948C60.8254 819.997 60.9915 820.084 61.1332 820.204C61.2749 820.324 61.3888 820.473 61.4669 820.641C61.545 820.809 61.5855 820.993 61.5855 821.178C61.5855 821.364 61.545 821.547 61.4669 821.715C61.3888 821.883 61.2749 822.033 61.1332 822.152C60.9915 822.272 60.8254 822.359 60.6464 822.408C60.4674 822.457 60.2799 822.467 60.0969 822.436V822.436ZM66.6924 822.436C66.3503 822.446 66.0179 822.322 65.7662 822.09C65.5144 821.858 65.3633 821.537 65.3449 821.196C65.3495 821.024 65.388 820.854 65.4582 820.697C65.5284 820.539 65.629 820.397 65.7541 820.279C65.8793 820.161 66.0265 820.068 66.1875 820.006C66.3485 819.945 66.5201 819.915 66.6924 819.92V819.92C66.8754 819.889 67.0629 819.899 67.2419 819.948C67.4209 819.997 67.587 820.084 67.7287 820.204C67.8704 820.324 67.9843 820.473 68.0624 820.641C68.1405 820.809 68.1809 820.993 68.1809 821.178C68.1809 821.364 68.1405 821.547 68.0624 821.715C67.9843 821.883 67.8704 822.033 67.7287 822.152C67.587 822.272 67.4209 822.359 67.2419 822.408C67.0629 822.457 66.8754 822.467 66.6924 822.436V822.436ZM73.2524 822.436C73.0847 822.441 72.9178 822.412 72.7611 822.353C72.6044 822.293 72.461 822.203 72.3392 822.088C72.2173 821.972 72.1194 821.834 72.051 821.681C71.9825 821.528 71.9449 821.363 71.9403 821.196V821.196C71.9403 821.025 71.9745 820.857 72.0408 820.699C72.1072 820.542 72.2044 820.4 72.3267 820.281C72.449 820.162 72.5939 820.069 72.7529 820.007C72.9119 819.945 73.0818 819.915 73.2524 819.92V819.92C73.4354 819.889 73.6229 819.899 73.8019 819.948C73.9809 819.997 74.147 820.084 74.2887 820.204C74.4304 820.324 74.5442 820.473 74.6224 820.641C74.7005 820.809 74.7409 820.993 74.7409 821.178C74.7409 821.364 74.7005 821.547 74.6224 821.715C74.5442 821.883 74.4304 822.033 74.2887 822.152C74.147 822.272 73.9809 822.359 73.8019 822.408C73.6229 822.457 73.4354 822.467 73.2524 822.436V822.436ZM79.8124 822.436C79.6447 822.441 79.4778 822.412 79.3211 822.353C79.1644 822.293 79.021 822.203 78.8992 822.088C78.7773 821.972 78.6794 821.834 78.611 821.681C78.5425 821.528 78.5049 821.363 78.5003 821.196V821.196C78.5003 821.025 78.5344 820.857 78.6008 820.699C78.6672 820.542 78.7644 820.4 78.8867 820.281C79.009 820.162 79.1539 820.069 79.3129 820.007C79.4719 819.945 79.6418 819.915 79.8124 819.92V819.92C79.9954 819.889 80.1829 819.899 80.3619 819.948C80.5408 819.997 80.707 820.084 80.8487 820.204C80.9904 820.324 81.1042 820.473 81.1823 820.641C81.2605 820.809 81.3009 820.993 81.3009 821.178C81.3009 821.364 81.2605 821.547 81.1823 821.715C81.1042 821.883 80.9904 822.033 80.8487 822.152C80.707 822.272 80.5408 822.359 80.3619 822.408C80.1829 822.457 79.9954 822.467 79.8124 822.436V822.436ZM86.3724 822.436C86.0363 822.437 85.7129 822.308 85.4688 822.078C85.2247 821.847 85.0785 821.531 85.0603 821.196C85.0696 820.854 85.2119 820.53 85.457 820.292C85.702 820.053 86.0304 819.92 86.3724 819.92V819.92C86.5554 819.889 86.7429 819.899 86.9219 819.948C87.1008 819.997 87.2669 820.084 87.4087 820.204C87.5504 820.324 87.6642 820.473 87.7423 820.641C87.8204 820.809 87.8609 820.993 87.8609 821.178C87.8609 821.364 87.8204 821.547 87.7423 821.715C87.6642 821.883 87.5504 822.033 87.4087 822.152C87.2669 822.272 87.1008 822.359 86.9219 822.408C86.7429 822.457 86.5554 822.467 86.3724 822.436V822.436ZM92.9323 822.436C92.5963 822.437 92.2729 822.308 92.0288 822.078C91.7847 821.847 91.6385 821.531 91.6203 821.196C91.6296 820.854 91.7719 820.53 92.0169 820.292C92.262 820.053 92.5904 819.92 92.9323 819.92V819.92C93.1153 819.889 93.3029 819.899 93.4819 819.948C93.6608 819.997 93.8269 820.084 93.9686 820.204C94.1103 820.324 94.2242 820.473 94.3023 820.641C94.3804 820.809 94.4209 820.993 94.4209 821.178C94.4209 821.364 94.3804 821.547 94.3023 821.715C94.2242 821.883 94.1103 822.033 93.9686 822.152C93.8269 822.272 93.6608 822.359 93.4819 822.408C93.3029 822.457 93.1153 822.467 92.9323 822.436V822.436Z" fill="white"/>
<path opacity="0.6" d="M102.613 743.38C102.613 737.108 107.932 732.006 114.456 732.006C120.981 732.006 126.3 737.108 126.3 743.38C126.3 749.652 120.981 754.755 114.456 754.755C107.932 754.755 102.613 749.652 102.613 743.38ZM104.918 743.38C104.918 748.412 109.208 752.523 114.456 752.523C119.704 752.523 123.995 748.412 123.995 743.38C123.995 738.348 119.74 734.203 114.456 734.203C109.173 734.203 104.918 738.313 104.918 743.38Z" fill="white"/>
<path opacity="0.6" d="M161.014 457.915C161.166 457.919 161.318 457.894 161.459 457.839C161.601 457.784 161.731 457.701 161.84 457.595C161.949 457.49 162.036 457.363 162.095 457.223C162.154 457.083 162.185 456.933 162.185 456.781V439.985C162.18 439.836 162.146 439.689 162.085 439.553C162.023 439.417 161.936 439.295 161.827 439.193C161.719 439.091 161.591 439.011 161.451 438.959C161.312 438.906 161.163 438.881 161.014 438.886C160.867 438.881 160.72 438.906 160.583 438.959C160.445 439.012 160.32 439.093 160.214 439.195C160.108 439.297 160.024 439.42 159.967 439.556C159.909 439.691 159.88 439.837 159.88 439.985V456.781C159.88 457.082 159.999 457.37 160.212 457.583C160.425 457.795 160.713 457.915 161.014 457.915Z" fill="white"/>
<path opacity="0.6" d="M152.256 449.481H169.773C170.064 449.481 170.344 449.365 170.55 449.159C170.756 448.953 170.872 448.674 170.872 448.383C170.872 448.091 170.756 447.812 170.55 447.606C170.344 447.4 170.064 447.284 169.773 447.284H152.256C151.964 447.284 151.685 447.4 151.479 447.606C151.273 447.812 151.157 448.091 151.157 448.383C151.157 448.674 151.273 448.953 151.479 449.159C151.685 449.365 151.964 449.481 152.256 449.481V449.481Z" fill="white"/>
<path opacity="0.6" d="M1387.16 461.423C1386.83 461.423 1386.51 461.295 1386.26 461.064C1386.02 460.833 1385.87 460.518 1385.85 460.183C1385.86 459.841 1386 459.517 1386.25 459.278C1386.49 459.04 1386.82 458.907 1387.16 458.907V458.907C1387.35 458.876 1387.54 458.885 1387.71 458.934C1387.89 458.984 1388.06 459.071 1388.2 459.191C1388.34 459.31 1388.46 459.46 1388.53 459.628C1388.61 459.796 1388.65 459.979 1388.65 460.165C1388.65 460.35 1388.61 460.534 1388.53 460.702C1388.46 460.87 1388.34 461.019 1388.2 461.139C1388.06 461.259 1387.89 461.346 1387.71 461.395C1387.54 461.444 1387.35 461.454 1387.16 461.423ZM1393.76 461.423C1393.59 461.427 1393.43 461.399 1393.27 461.339C1393.11 461.28 1392.97 461.19 1392.85 461.074C1392.73 460.959 1392.63 460.821 1392.56 460.668C1392.49 460.515 1392.45 460.35 1392.45 460.183C1392.45 460.012 1392.48 459.843 1392.55 459.686C1392.62 459.529 1392.71 459.387 1392.83 459.268C1392.96 459.149 1393.1 459.056 1393.26 458.994C1393.42 458.932 1393.59 458.902 1393.76 458.907C1393.94 458.876 1394.13 458.885 1394.31 458.934C1394.49 458.984 1394.66 459.071 1394.8 459.191C1394.94 459.31 1395.05 459.46 1395.13 459.628C1395.21 459.796 1395.25 459.979 1395.25 460.165C1395.25 460.35 1395.21 460.534 1395.13 460.702C1395.05 460.87 1394.94 461.019 1394.8 461.139C1394.66 461.259 1394.49 461.346 1394.31 461.395C1394.13 461.444 1393.94 461.454 1393.76 461.423ZM1400.32 461.423C1400.15 461.427 1399.99 461.399 1399.83 461.339C1399.67 461.28 1399.53 461.19 1399.41 461.074C1399.29 460.959 1399.19 460.821 1399.12 460.668C1399.05 460.515 1399.01 460.35 1399.01 460.183C1399.01 460.012 1399.04 459.843 1399.11 459.686C1399.18 459.529 1399.27 459.387 1399.39 459.268C1399.52 459.149 1399.66 459.056 1399.82 458.994C1399.98 458.932 1400.15 458.902 1400.32 458.907V458.907C1400.5 458.876 1400.69 458.885 1400.87 458.934C1401.05 458.984 1401.22 459.071 1401.36 459.191C1401.5 459.31 1401.61 459.46 1401.69 459.628C1401.77 459.796 1401.81 459.979 1401.81 460.165C1401.81 460.35 1401.77 460.534 1401.69 460.702C1401.61 460.87 1401.5 461.019 1401.36 461.139C1401.22 461.259 1401.05 461.346 1400.87 461.395C1400.69 461.444 1400.5 461.454 1400.32 461.423ZM1406.88 461.423C1406.54 461.423 1406.22 461.295 1405.98 461.064C1405.73 460.833 1405.59 460.518 1405.57 460.183C1405.58 459.841 1405.72 459.517 1405.96 459.278C1406.21 459.04 1406.54 458.907 1406.88 458.907C1407.06 458.876 1407.25 458.885 1407.43 458.934C1407.61 458.984 1407.78 459.071 1407.92 459.191C1408.06 459.31 1408.17 459.46 1408.25 459.628C1408.33 459.796 1408.37 459.979 1408.37 460.165C1408.37 460.35 1408.33 460.534 1408.25 460.702C1408.17 460.87 1408.06 461.019 1407.92 461.139C1407.78 461.259 1407.61 461.346 1407.43 461.395C1407.25 461.444 1407.06 461.454 1406.88 461.423ZM1413.44 461.423C1413.1 461.423 1412.78 461.295 1412.54 461.064C1412.29 460.833 1412.15 460.518 1412.13 460.183C1412.14 459.841 1412.28 459.517 1412.52 459.278C1412.77 459.04 1413.1 458.907 1413.44 458.907C1413.62 458.876 1413.81 458.885 1413.99 458.934C1414.17 458.984 1414.34 459.071 1414.48 459.191C1414.62 459.31 1414.73 459.46 1414.81 459.628C1414.89 459.796 1414.93 459.979 1414.93 460.165C1414.93 460.35 1414.89 460.534 1414.81 460.702C1414.73 460.87 1414.62 461.019 1414.48 461.139C1414.34 461.259 1414.17 461.346 1413.99 461.395C1413.81 461.444 1413.62 461.454 1413.44 461.423ZM1420.04 461.423C1419.69 461.432 1419.36 461.308 1419.11 461.077C1418.86 460.845 1418.71 460.524 1418.69 460.183C1418.69 460.01 1418.73 459.841 1418.8 459.683C1418.87 459.526 1418.97 459.384 1419.1 459.266C1419.22 459.147 1419.37 459.055 1419.53 458.993C1419.69 458.931 1419.86 458.902 1420.04 458.907V458.907C1420.22 458.876 1420.41 458.885 1420.59 458.934C1420.76 458.984 1420.93 459.071 1421.07 459.191C1421.21 459.31 1421.33 459.46 1421.41 459.628C1421.48 459.796 1421.52 459.979 1421.52 460.165C1421.52 460.35 1421.48 460.534 1421.41 460.702C1421.33 460.87 1421.21 461.019 1421.07 461.139C1420.93 461.259 1420.76 461.346 1420.59 461.395C1420.41 461.444 1420.22 461.454 1420.04 461.423ZM1426.6 461.423C1426.43 461.427 1426.26 461.399 1426.1 461.339C1425.95 461.28 1425.8 461.19 1425.68 461.074C1425.56 460.959 1425.46 460.821 1425.39 460.668C1425.33 460.515 1425.29 460.35 1425.28 460.183C1425.28 460.012 1425.32 459.843 1425.38 459.686C1425.45 459.529 1425.55 459.387 1425.67 459.268C1425.79 459.149 1425.94 459.056 1426.1 458.994C1426.26 458.932 1426.43 458.902 1426.6 458.907V458.907C1426.78 458.876 1426.97 458.885 1427.15 458.934C1427.32 458.984 1427.49 459.071 1427.63 459.191C1427.77 459.31 1427.89 459.46 1427.97 459.628C1428.04 459.796 1428.08 459.979 1428.08 460.165C1428.08 460.35 1428.04 460.534 1427.97 460.702C1427.89 460.87 1427.77 461.019 1427.63 461.139C1427.49 461.259 1427.32 461.346 1427.15 461.395C1426.97 461.444 1426.78 461.454 1426.6 461.423ZM1433.16 461.423C1432.99 461.427 1432.82 461.399 1432.66 461.339C1432.51 461.28 1432.36 461.19 1432.24 461.074C1432.12 460.959 1432.02 460.821 1431.95 460.668C1431.89 460.515 1431.85 460.35 1431.84 460.183V460.183C1431.84 460.012 1431.88 459.843 1431.94 459.686C1432.01 459.529 1432.11 459.387 1432.23 459.268C1432.35 459.149 1432.5 459.056 1432.66 458.994C1432.82 458.932 1432.99 458.902 1433.16 458.907V458.907C1433.34 458.876 1433.53 458.885 1433.71 458.934C1433.88 458.984 1434.05 459.071 1434.19 459.191C1434.33 459.31 1434.45 459.46 1434.53 459.628C1434.6 459.796 1434.64 459.979 1434.64 460.165C1434.64 460.35 1434.6 460.534 1434.53 460.702C1434.45 460.87 1434.33 461.019 1434.19 461.139C1434.05 461.259 1433.88 461.346 1433.71 461.395C1433.53 461.444 1433.34 461.454 1433.16 461.423ZM1439.72 461.423C1439.38 461.423 1439.06 461.295 1438.81 461.064C1438.57 460.833 1438.42 460.518 1438.4 460.183C1438.41 459.841 1438.56 459.517 1438.8 459.278C1439.05 459.04 1439.37 458.907 1439.72 458.907C1439.9 458.876 1440.09 458.885 1440.27 458.934C1440.44 458.984 1440.61 459.071 1440.75 459.191C1440.89 459.31 1441.01 459.46 1441.09 459.628C1441.16 459.796 1441.2 459.979 1441.2 460.165C1441.2 460.35 1441.16 460.534 1441.09 460.702C1441.01 460.87 1440.89 461.019 1440.75 461.139C1440.61 461.259 1440.44 461.346 1440.27 461.395C1440.09 461.444 1439.9 461.454 1439.72 461.423ZM1446.28 461.423C1445.94 461.423 1445.62 461.295 1445.37 461.064C1445.13 460.833 1444.98 460.518 1444.96 460.183C1444.97 459.841 1445.12 459.517 1445.36 459.278C1445.61 459.04 1445.93 458.907 1446.28 458.907C1446.46 458.876 1446.65 458.885 1446.83 458.934C1447 458.984 1447.17 459.071 1447.31 459.191C1447.45 459.31 1447.57 459.46 1447.65 459.628C1447.72 459.796 1447.76 459.979 1447.76 460.165C1447.76 460.35 1447.72 460.534 1447.65 460.702C1447.57 460.87 1447.45 461.019 1447.31 461.139C1447.17 461.259 1447 461.346 1446.83 461.395C1446.65 461.444 1446.46 461.454 1446.28 461.423V461.423ZM1452.87 461.423C1452.53 461.432 1452.2 461.308 1451.95 461.077C1451.69 460.845 1451.54 460.524 1451.52 460.183V460.183C1451.53 460.01 1451.57 459.841 1451.64 459.683C1451.71 459.526 1451.81 459.384 1451.93 459.266C1452.06 459.147 1452.21 459.055 1452.37 458.993C1452.53 458.931 1452.7 458.902 1452.87 458.907C1453.05 458.876 1453.24 458.885 1453.42 458.934C1453.6 458.984 1453.77 459.071 1453.91 459.191C1454.05 459.31 1454.16 459.46 1454.24 459.628C1454.32 459.796 1454.36 459.979 1454.36 460.165C1454.36 460.35 1454.32 460.534 1454.24 460.702C1454.16 460.87 1454.05 461.019 1453.91 461.139C1453.77 461.259 1453.6 461.346 1453.42 461.395C1453.24 461.444 1453.05 461.454 1452.87 461.423ZM1459.43 461.423C1459.26 461.427 1459.1 461.399 1458.94 461.339C1458.78 461.28 1458.64 461.19 1458.52 461.074C1458.4 460.959 1458.3 460.821 1458.23 460.668C1458.16 460.515 1458.12 460.35 1458.12 460.183V460.183C1458.12 460.012 1458.15 459.843 1458.22 459.686C1458.29 459.529 1458.38 459.387 1458.51 459.268C1458.63 459.149 1458.77 459.056 1458.93 458.994C1459.09 458.932 1459.26 458.902 1459.43 458.907V458.907C1459.61 458.876 1459.8 458.885 1459.98 458.934C1460.16 458.984 1460.33 459.071 1460.47 459.191C1460.61 459.31 1460.72 459.46 1460.8 459.628C1460.88 459.796 1460.92 459.979 1460.92 460.165C1460.92 460.35 1460.88 460.534 1460.8 460.702C1460.72 460.87 1460.61 461.019 1460.47 461.139C1460.33 461.259 1460.16 461.346 1459.98 461.395C1459.8 461.444 1459.61 461.454 1459.43 461.423ZM1465.99 461.423C1465.82 461.427 1465.66 461.399 1465.5 461.339C1465.34 461.28 1465.2 461.19 1465.08 461.074C1464.96 460.959 1464.86 460.821 1464.79 460.668C1464.72 460.515 1464.68 460.35 1464.68 460.183C1464.68 460.012 1464.71 459.843 1464.78 459.686C1464.85 459.529 1464.94 459.387 1465.07 459.268C1465.19 459.149 1465.33 459.056 1465.49 458.994C1465.65 458.932 1465.82 458.902 1465.99 458.907C1466.17 458.876 1466.36 458.885 1466.54 458.934C1466.72 458.984 1466.89 459.071 1467.03 459.191C1467.17 459.31 1467.28 459.46 1467.36 459.628C1467.44 459.796 1467.48 459.979 1467.48 460.165C1467.48 460.35 1467.44 460.534 1467.36 460.702C1467.28 460.87 1467.17 461.019 1467.03 461.139C1466.89 461.259 1466.72 461.346 1466.54 461.395C1466.36 461.444 1466.17 461.454 1465.99 461.423V461.423ZM1472.55 461.423C1472.22 461.423 1471.89 461.295 1471.65 461.064C1471.4 460.833 1471.26 460.518 1471.24 460.183C1471.25 459.841 1471.39 459.517 1471.64 459.278C1471.88 459.04 1472.21 458.907 1472.55 458.907V458.907C1472.73 458.876 1472.92 458.885 1473.1 458.934C1473.28 458.984 1473.45 459.071 1473.59 459.191C1473.73 459.31 1473.84 459.46 1473.92 459.628C1474 459.796 1474.04 459.979 1474.04 460.165C1474.04 460.35 1474 460.534 1473.92 460.702C1473.84 460.87 1473.73 461.019 1473.59 461.139C1473.45 461.259 1473.28 461.346 1473.1 461.395C1472.92 461.444 1472.73 461.454 1472.55 461.423ZM1479.11 461.423C1478.78 461.423 1478.45 461.295 1478.21 461.064C1477.96 460.833 1477.82 460.518 1477.8 460.183C1477.81 459.841 1477.95 459.517 1478.2 459.278C1478.44 459.04 1478.77 458.907 1479.11 458.907V458.907C1479.29 458.876 1479.48 458.885 1479.66 458.934C1479.84 458.984 1480.01 459.071 1480.15 459.191C1480.29 459.31 1480.4 459.46 1480.48 459.628C1480.56 459.796 1480.6 459.979 1480.6 460.165C1480.6 460.35 1480.56 460.534 1480.48 460.702C1480.4 460.87 1480.29 461.019 1480.15 461.139C1480.01 461.259 1479.84 461.346 1479.66 461.395C1479.48 461.444 1479.29 461.454 1479.11 461.423Z" fill="white"/>
<path opacity="0.6" d="M1410.5 471.203C1410.33 471.208 1410.16 471.178 1410 471.116C1409.84 471.054 1409.69 470.961 1409.57 470.842C1409.45 470.723 1409.35 470.581 1409.29 470.424C1409.22 470.266 1409.19 470.098 1409.19 469.927V469.927C1409.19 469.757 1409.22 469.588 1409.29 469.431C1409.35 469.273 1409.45 469.131 1409.57 469.012C1409.69 468.893 1409.84 468.8 1410 468.738C1410.16 468.676 1410.33 468.647 1410.5 468.651V468.651C1410.84 468.651 1411.16 468.786 1411.4 469.025C1411.64 469.264 1411.77 469.589 1411.77 469.927C1411.77 470.265 1411.64 470.59 1411.4 470.829C1411.16 471.068 1410.84 471.203 1410.5 471.203V471.203ZM1417.06 471.203C1416.89 471.208 1416.72 471.178 1416.56 471.116C1416.4 471.054 1416.25 470.961 1416.13 470.842C1416.01 470.723 1415.91 470.581 1415.85 470.424C1415.78 470.266 1415.75 470.098 1415.75 469.927V469.927C1415.75 469.757 1415.78 469.588 1415.85 469.431C1415.91 469.273 1416.01 469.131 1416.13 469.012C1416.25 468.893 1416.4 468.8 1416.56 468.738C1416.72 468.676 1416.89 468.647 1417.06 468.651V468.651C1417.4 468.651 1417.72 468.786 1417.96 469.025C1418.2 469.264 1418.33 469.589 1418.33 469.927C1418.33 470.265 1418.2 470.59 1417.96 470.829C1417.72 471.068 1417.4 471.203 1417.06 471.203V471.203ZM1423.62 471.203C1423.28 471.203 1422.95 471.07 1422.7 470.831C1422.46 470.593 1422.31 470.269 1422.31 469.927V469.927C1422.31 469.586 1422.46 469.261 1422.7 469.023C1422.95 468.785 1423.28 468.651 1423.62 468.651C1423.96 468.651 1424.28 468.786 1424.52 469.025C1424.76 469.264 1424.89 469.589 1424.89 469.927C1424.89 470.265 1424.76 470.59 1424.52 470.829C1424.28 471.068 1423.96 471.203 1423.62 471.203V471.203ZM1430.18 471.203C1429.84 471.203 1429.51 471.07 1429.26 470.831C1429.02 470.593 1428.87 470.269 1428.87 469.927V469.927C1428.87 469.586 1429.02 469.261 1429.26 469.023C1429.51 468.785 1429.84 468.651 1430.18 468.651C1430.52 468.651 1430.84 468.786 1431.08 469.025C1431.32 469.264 1431.45 469.589 1431.45 469.927C1431.45 470.265 1431.32 470.59 1431.08 470.829C1430.84 471.068 1430.52 471.203 1430.18 471.203V471.203ZM1436.74 471.203C1436.4 471.203 1436.07 471.07 1435.82 470.831C1435.58 470.593 1435.43 470.269 1435.43 469.927V469.927C1435.43 469.586 1435.58 469.261 1435.82 469.023C1436.07 468.785 1436.4 468.651 1436.74 468.651C1437.08 468.651 1437.4 468.786 1437.64 469.025C1437.88 469.264 1438.01 469.589 1438.01 469.927C1438.01 470.265 1437.88 470.59 1437.64 470.829C1437.4 471.068 1437.08 471.203 1436.74 471.203V471.203ZM1443.33 471.203C1443.16 471.208 1442.99 471.178 1442.83 471.116C1442.67 471.054 1442.53 470.961 1442.41 470.842C1442.28 470.723 1442.19 470.581 1442.12 470.424C1442.06 470.266 1442.02 470.098 1442.02 469.927V469.927C1442.02 469.757 1442.06 469.588 1442.12 469.431C1442.19 469.273 1442.28 469.131 1442.41 469.012C1442.53 468.893 1442.67 468.8 1442.83 468.738C1442.99 468.676 1443.16 468.647 1443.33 468.651V468.651C1443.67 468.651 1444 468.786 1444.24 469.025C1444.48 469.264 1444.61 469.589 1444.61 469.927C1444.61 470.265 1444.48 470.59 1444.24 470.829C1444 471.068 1443.67 471.203 1443.33 471.203V471.203ZM1449.89 471.203C1449.72 471.208 1449.55 471.178 1449.39 471.116C1449.23 471.054 1449.09 470.961 1448.97 470.842C1448.84 470.723 1448.75 470.581 1448.68 470.424C1448.62 470.266 1448.58 470.098 1448.58 469.927V469.927C1448.58 469.757 1448.62 469.588 1448.68 469.431C1448.75 469.273 1448.84 469.131 1448.97 469.012C1449.09 468.893 1449.23 468.8 1449.39 468.738C1449.55 468.676 1449.72 468.647 1449.89 468.651V468.651C1450.23 468.651 1450.56 468.786 1450.8 469.025C1451.04 469.264 1451.17 469.589 1451.17 469.927C1451.17 470.265 1451.04 470.59 1450.8 470.829C1450.56 471.068 1450.23 471.203 1449.89 471.203V471.203ZM1456.45 471.203C1456.11 471.203 1455.78 471.07 1455.54 470.831C1455.29 470.593 1455.15 470.269 1455.14 469.927V469.927C1455.15 469.586 1455.29 469.261 1455.54 469.023C1455.78 468.785 1456.11 468.651 1456.45 468.651C1456.79 468.651 1457.12 468.786 1457.36 469.025C1457.6 469.264 1457.73 469.589 1457.73 469.927C1457.73 470.265 1457.6 470.59 1457.36 470.829C1457.12 471.068 1456.79 471.203 1456.45 471.203V471.203ZM1463.01 471.203C1462.67 471.203 1462.34 471.07 1462.1 470.831C1461.85 470.593 1461.71 470.269 1461.7 469.927V469.927C1461.71 469.586 1461.85 469.261 1462.1 469.023C1462.34 468.785 1462.67 468.651 1463.01 468.651C1463.35 468.651 1463.68 468.786 1463.92 469.025C1464.16 469.264 1464.29 469.589 1464.29 469.927C1464.29 470.265 1464.16 470.59 1463.92 470.829C1463.68 471.068 1463.35 471.203 1463.01 471.203V471.203ZM1469.57 471.203C1469.23 471.203 1468.9 471.07 1468.66 470.831C1468.41 470.593 1468.27 470.269 1468.26 469.927V469.927C1468.27 469.586 1468.41 469.261 1468.66 469.023C1468.9 468.785 1469.23 468.651 1469.57 468.651C1469.91 468.651 1470.24 468.786 1470.48 469.025C1470.72 469.264 1470.85 469.589 1470.85 469.927C1470.85 470.265 1470.72 470.59 1470.48 470.829C1470.24 471.068 1469.91 471.203 1469.57 471.203V471.203ZM1476.17 471.203C1476 471.208 1475.83 471.178 1475.67 471.116C1475.51 471.054 1475.37 470.961 1475.24 470.842C1475.12 470.723 1475.02 470.581 1474.96 470.424C1474.89 470.266 1474.86 470.098 1474.86 469.927V469.927C1474.86 469.757 1474.89 469.588 1474.96 469.431C1475.02 469.273 1475.12 469.131 1475.24 469.012C1475.37 468.893 1475.51 468.8 1475.67 468.738C1475.83 468.676 1476 468.647 1476.17 468.651C1476.51 468.651 1476.83 468.786 1477.07 469.025C1477.31 469.264 1477.44 469.589 1477.44 469.927C1477.44 470.265 1477.31 470.59 1477.07 470.829C1476.83 471.068 1476.51 471.203 1476.17 471.203V471.203ZM1482.73 471.203C1482.56 471.208 1482.39 471.178 1482.23 471.116C1482.07 471.054 1481.93 470.961 1481.8 470.842C1481.68 470.723 1481.58 470.581 1481.52 470.424C1481.45 470.266 1481.42 470.098 1481.42 469.927V469.927C1481.42 469.757 1481.45 469.588 1481.52 469.431C1481.58 469.273 1481.68 469.131 1481.8 469.012C1481.93 468.893 1482.07 468.8 1482.23 468.738C1482.39 468.676 1482.56 468.647 1482.73 468.651V468.651C1483.07 468.651 1483.39 468.786 1483.63 469.025C1483.87 469.264 1484 469.589 1484 469.927C1484 470.265 1483.87 470.59 1483.63 470.829C1483.39 471.068 1483.07 471.203 1482.73 471.203V471.203ZM1489.29 471.203C1488.95 471.203 1488.62 471.07 1488.37 470.831C1488.13 470.593 1487.99 470.269 1487.98 469.927V469.927C1487.99 469.586 1488.13 469.261 1488.37 469.023C1488.62 468.785 1488.95 468.651 1489.29 468.651C1489.63 468.651 1489.95 468.786 1490.19 469.025C1490.43 469.264 1490.56 469.589 1490.56 469.927C1490.56 470.265 1490.43 470.59 1490.19 470.829C1489.95 471.068 1489.63 471.203 1489.29 471.203V471.203ZM1495.85 471.203C1495.51 471.203 1495.18 471.07 1494.93 470.831C1494.69 470.593 1494.55 470.269 1494.54 469.927V469.927C1494.55 469.586 1494.69 469.261 1494.93 469.023C1495.18 468.785 1495.51 468.651 1495.85 468.651C1496.19 468.651 1496.51 468.786 1496.75 469.025C1496.99 469.264 1497.12 469.589 1497.12 469.927C1497.12 470.265 1496.99 470.59 1496.75 470.829C1496.51 471.068 1496.19 471.203 1495.85 471.203V471.203ZM1502.41 471.203C1502.07 471.203 1501.74 471.07 1501.49 470.831C1501.25 470.593 1501.11 470.269 1501.1 469.927V469.927C1501.11 469.586 1501.25 469.261 1501.49 469.023C1501.74 468.785 1502.07 468.651 1502.41 468.651C1502.75 468.651 1503.07 468.786 1503.31 469.025C1503.55 469.264 1503.68 469.589 1503.68 469.927C1503.68 470.265 1503.55 470.59 1503.31 470.829C1503.07 471.068 1502.75 471.203 1502.41 471.203V471.203Z" fill="white"/>
<path opacity="0.6" d="M1422.84 563.972C1422.84 557.736 1428.16 552.633 1434.68 552.633C1441.21 552.633 1446.52 557.736 1446.52 563.972C1446.52 570.209 1441.21 575.347 1434.68 575.347C1428.16 575.347 1422.84 570.244 1422.84 563.972ZM1425.14 563.972C1425.14 569.039 1429.43 573.15 1434.68 573.15C1439.93 573.15 1444.22 569.039 1444.22 563.972C1444.22 558.905 1439.93 554.83 1434.68 554.83C1429.43 554.83 1425.14 558.94 1425.14 563.972Z" fill="white"/>
<path opacity="0.6" d="M1598.33 619.393C1598.33 625.027 1593.57 629.563 1587.72 629.563C1585.68 629.586 1583.68 629.02 1581.96 627.933C1580.23 626.845 1578.86 625.282 1578.01 623.432C1576.52 629.527 1570.81 634.063 1564.04 634.063C1560.45 634.075 1556.98 632.777 1554.29 630.413C1552.8 638.988 1545.03 645.544 1535.63 645.544C1527.05 645.544 1519.82 640.051 1517.51 632.539C1515.55 633.336 1513.46 633.745 1511.34 633.744C1503.83 633.744 1497.59 628.712 1495.99 621.98C1495.04 623.095 1493.86 623.99 1492.53 624.603C1491.21 625.215 1489.76 625.529 1488.29 625.523C1482.83 625.523 1478.4 621.271 1478.4 616.026C1478.4 610.782 1482.83 606.565 1488.29 606.565C1488.29 601.321 1492.69 597.069 1498.15 597.069C1500.26 597.049 1502.32 597.702 1504.03 598.932C1505.73 600.162 1507.01 601.905 1507.66 603.908C1508.82 603.657 1510.01 603.515 1511.2 603.482C1511.13 603.037 1511.09 602.587 1511.1 602.136C1511.1 596.537 1515.85 591.966 1521.7 591.966C1522.32 591.971 1522.93 592.03 1523.54 592.143C1527.09 583.993 1535.46 578.288 1545.21 578.288C1554.96 578.288 1563.79 584.312 1567.16 592.781C1567.67 592.699 1568.19 592.651 1568.72 592.639C1574.18 592.639 1578.61 596.891 1578.61 602.136C1578.61 603.013 1578.48 603.884 1578.22 604.723C1579.55 604.944 1580.76 605.619 1581.65 606.634C1582.53 607.649 1583.04 608.94 1583.08 610.286C1584.53 609.585 1586.11 609.222 1587.72 609.223C1593.57 609.223 1598.33 613.794 1598.33 619.393ZM1577.69 616.133C1577.7 616.118 1577.71 616.102 1577.72 616.083C1577.72 616.065 1577.73 616.046 1577.72 616.026H1577.65C1577.65 616.062 1577.69 616.097 1577.69 616.133Z" fill="url(#paint0_linear_197_2915)"/>
<path opacity="0.6" d="M1171.07 416.181C1171.22 398.686 1142.31 384.25 1106.49 383.938C1070.68 383.626 1041.52 397.555 1041.36 415.05C1041.21 432.545 1070.12 446.981 1105.94 447.294C1141.76 447.606 1170.92 433.676 1171.07 416.181Z" fill="url(#paint1_radial_197_2915)"/>
<path opacity="0.6" d="M1165.86 406.164C1165.86 411.408 1161 415.625 1154.97 415.625C1150.5 415.625 1146.64 413.286 1144.97 409.92C1143.45 415.589 1137.6 419.771 1130.61 419.771C1126.99 419.809 1123.47 418.622 1120.61 416.404C1119.09 424.377 1111.07 430.472 1101.46 430.472C1092.63 430.472 1085.19 425.37 1082.81 418.353C1080.78 419.114 1078.63 419.498 1076.46 419.487C1068.73 419.487 1062.32 414.81 1060.69 408.573C1059.66 409.638 1058.42 410.48 1057.06 411.047C1055.69 411.614 1054.22 411.894 1052.74 411.869C1047.14 411.869 1042.6 407.9 1042.6 403.045C1042.6 398.191 1047.14 394.222 1052.74 394.222C1052.74 389.367 1057.32 385.434 1062.92 385.434C1067.56 385.434 1071.46 388.127 1072.67 391.777C1073.87 391.538 1075.1 391.408 1076.32 391.387C1076.25 390.978 1076.21 390.563 1076.22 390.147C1076.22 384.938 1081.11 380.686 1087.1 380.686C1087.73 380.696 1088.36 380.744 1088.98 380.828C1092.63 373.28 1101.25 368 1111.29 368C1121.32 368 1130.36 373.563 1133.84 381.43C1134.37 381.359 1134.9 381.324 1135.43 381.324C1141.07 381.324 1145.61 385.257 1145.61 390.147C1145.6 390.965 1145.47 391.778 1145.22 392.557C1148.02 393.017 1150.15 395.108 1150.18 397.695C1151.7 397.065 1153.33 396.74 1154.97 396.738C1161 396.738 1165.86 400.955 1165.86 406.164ZM1144.65 403.116L1144.72 403.01H1144.62C1144.63 403.024 1144.64 403.041 1144.65 403.059C1144.65 403.078 1144.65 403.097 1144.65 403.116Z" fill="url(#paint2_linear_197_2915)"/>
<path opacity="0.6" d="M211.802 254.17C211.802 257.857 208.362 260.801 204.143 260.801C200.987 260.801 198.256 259.169 197.086 256.794C196.022 260.765 191.874 263.744 186.945 263.744C185.069 263.748 183.219 263.297 181.555 262.432C180.703 263.15 179.79 263.79 178.825 264.347C176.661 268.424 171.91 271.261 166.378 271.261C160.847 271.261 156.521 268.673 154.251 264.914C151.273 274.311 141.344 281.225 129.536 281.225C117.728 281.225 108.083 274.523 104.963 265.339C102.285 266.333 99.4502 266.837 96.5941 266.829C84.8216 266.829 75.2476 258.567 75.2476 248.354C75.2476 238.142 84.7152 230.022 96.4168 229.915C96.3449 229.375 96.3094 228.83 96.3105 228.284C96.3105 221.441 102.729 215.874 110.636 215.874C113.514 215.859 116.343 216.619 118.827 218.072C123.362 214.725 128.864 212.945 134.5 213.001C147.656 213.001 158.329 222.256 158.329 233.639C158.329 234.135 158.294 234.632 158.258 235.093C161.13 230.483 166.804 227.327 173.293 227.327C180.562 227.327 186.767 231.227 189.214 236.759L190.349 236.688C194.32 236.688 197.547 239.454 197.547 242.894C197.542 243.472 197.446 244.047 197.263 244.596C199.249 244.915 200.738 246.404 200.774 248.213C201.84 247.765 202.986 247.536 204.143 247.539C208.362 247.539 211.802 250.517 211.802 254.17ZM196.909 251.971H196.838V252.042C196.873 252.007 196.873 251.971 196.909 251.971V251.971Z" fill="url(#paint3_linear_197_2915)"/>
<path opacity="0.6" d="M1521.07 133.181C1521.22 115.686 1492.31 101.25 1456.49 100.938C1420.68 100.626 1391.52 114.555 1391.36 132.05C1391.21 149.545 1420.12 163.981 1455.94 164.294C1491.76 164.606 1520.92 150.676 1521.07 133.181Z" fill="url(#paint4_radial_197_2915)"/>
<path opacity="0.6" d="M1515.61 123.19C1515.61 128.438 1510.71 132.658 1504.72 132.658C1500.22 132.658 1496.39 130.317 1494.72 126.949C1493.2 132.622 1487.35 136.806 1480.36 136.806C1476.74 136.844 1473.22 135.657 1470.36 133.438C1468.84 141.416 1460.82 147.515 1451.18 147.515C1442.35 147.515 1434.9 142.409 1432.53 135.388C1430.5 136.152 1428.35 136.536 1426.18 136.523C1418.48 136.523 1412.07 131.842 1410.4 125.601C1408.56 127.622 1405.68 128.899 1402.49 128.899C1396.89 128.899 1392.35 124.927 1392.35 120.069C1392.35 115.211 1396.89 111.24 1402.49 111.24C1402.49 106.382 1407.03 102.446 1412.67 102.446C1417.28 102.446 1421.18 105.141 1422.42 108.793C1423.62 108.553 1424.85 108.422 1426.07 108.403C1426 107.993 1425.96 107.578 1425.97 107.162C1425.97 101.95 1430.82 97.6945 1436.85 97.6945C1437.48 97.7051 1438.11 97.7525 1438.73 97.8364C1442.38 90.2835 1451 85 1461.03 85C1471.07 85 1480.11 90.5672 1483.59 98.4392C1484.12 98.3684 1484.65 98.3329 1485.18 98.3328C1490.79 98.3328 1495.36 102.269 1495.36 107.162C1495.35 107.981 1495.22 108.794 1494.97 109.573C1497.77 110.034 1499.9 112.126 1499.93 114.715C1501.45 114.082 1503.08 113.757 1504.72 113.758C1510.71 113.758 1515.61 117.977 1515.61 123.19ZM1494.4 120.14C1494.42 120.126 1494.42 120.109 1494.43 120.091C1494.44 120.073 1494.44 120.053 1494.44 120.034H1494.37C1494.37 120.069 1494.4 120.105 1494.4 120.14Z" fill="url(#paint5_linear_197_2915)"/>
</g>
<defs>
<linearGradient id="paint0_linear_197_2915" x1="1490.78" y1="659.683" x2="1560.79" y2="597.531" gradientUnits="userSpaceOnUse">
<stop stop-color="#CEC0A6"/>
<stop offset="1" stop-color="white"/>
</linearGradient>
<radialGradient id="paint1_radial_197_2915" cx="0" cy="0" r="1" gradientUnits="userSpaceOnUse" gradientTransform="translate(1106.22 415.616) rotate(0.499658) scale(64.8553 31.679)">
<stop stop-color="#022652" stop-opacity="0.62"/>
<stop offset="1" stop-color="#022652" stop-opacity="0"/>
</radialGradient>
<linearGradient id="paint2_linear_197_2915" x1="1079.43" y1="436.252" x2="1128.79" y2="373.382" gradientUnits="userSpaceOnUse">
<stop stop-color="#CEC0A6"/>
<stop offset="1" stop-color="white"/>
</linearGradient>
<linearGradient id="paint3_linear_197_2915" x1="92.7042" y1="283.537" x2="159.449" y2="236.025" gradientUnits="userSpaceOnUse">
<stop stop-color="#CEC0A6"/>
<stop offset="1" stop-color="white"/>
</linearGradient>
<radialGradient id="paint4_radial_197_2915" cx="0" cy="0" r="1" gradientUnits="userSpaceOnUse" gradientTransform="translate(1456.22 132.616) rotate(0.499658) scale(64.8553 31.679)">
<stop stop-color="#022652" stop-opacity="0.62"/>
<stop offset="1" stop-color="#022652" stop-opacity="0"/>
</radialGradient>
<linearGradient id="paint5_linear_197_2915" x1="1429.17" y1="153.298" x2="1478.57" y2="90.4182" gradientUnits="userSpaceOnUse">
<stop stop-color="#CEC0A6"/>
<stop offset="1" stop-color="white"/>
</linearGradient>
<clipPath id="clip0_197_2915">
<rect width="1598" height="854" fill="white"/>
</clipPath>
</defs>
</svg>
