<svg width="58" height="42" viewBox="0 0 58 42" fill="none" xmlns="http://www.w3.org/2000/svg">
<g clip-path="url(#clip0_199_2864)">
<path d="M50.3837 38.1266C50.0749 37.7318 49.7402 37.434 49.3347 37.0133C49.264 36.8903 49.1933 36.7674 49.0259 36.6185C47.3334 34.8126 45.667 32.9097 43.8778 31.0779C43.0669 30.2364 41.8065 31.4591 42.6174 32.3006C43.7371 33.5369 44.786 34.6502 45.9057 35.8864C37.0284 33.8199 28.6713 29.8121 21.0131 24.7432C12.4659 19.1241 3.64601 8.33447 10.6794 -2.05637C11.0028 -2.48985 10.2812 -2.89125 9.95781 -2.45776C4.05812 5.63611 8.20336 15.6933 14.8466 21.8426C23.1637 29.4807 34.459 34.8999 45.4376 37.6335C43.2623 38.403 41.0423 38.9525 38.7256 39.4761C37.7253 39.7282 37.9414 41.2425 38.9864 41.2104C42.7981 41.2955 46.2565 40.7658 49.8709 39.6537C50.6518 39.4468 50.8598 38.6703 50.3837 38.1266Z" fill="url(#paint0_linear_199_2864)"/>
</g>
<defs>
<linearGradient id="paint0_linear_199_2864" x1="10.5" y1="-3.12139e-08" x2="16" y2="23.5" gradientUnits="userSpaceOnUse">
<stop stop-color="white" stop-opacity="0"/>
<stop offset="1" stop-color="white"/>
</linearGradient>
<clipPath id="clip0_199_2864">
<rect width="58" height="42" fill="white"/>
</clipPath>
</defs>
</svg>
