<svg width="259" height="259" viewBox="0 0 259 259" fill="none" xmlns="http://www.w3.org/2000/svg">
<g filter="url(#filter0_d_60_4637)">
<path d="M211 113.5C211 183.208 199.208 195 129.5 195C59.7918 195 48 183.208 48 113.5C48 43.7918 59.7918 32 129.5 32C199.208 32 211 43.7918 211 113.5Z" fill="url(#paint0_radial_60_4637)"/>
</g>
<path d="M97.8089 137.258C97.482 137.084 97.2782 136.743 97.2792 136.373L97.3677 104.319C97.3697 103.565 98.174 103.084 98.8391 103.44L129.126 119.628C129.451 119.802 129.654 120.141 129.654 120.51V152.564C129.654 153.318 128.85 153.801 128.184 153.446L97.8089 137.258Z" fill="#9B9A9A"/>
<path d="M129.654 120.51C129.654 120.141 129.451 119.802 129.126 119.628L98.8391 103.44C98.174 103.084 97.3697 103.565 97.3677 104.319L97.2792 136.373C97.2782 136.743 97.482 137.084 97.8089 137.258L128.184 153.446C128.85 153.801 129.654 153.318 129.654 152.564V120.51Z" fill="#115BAC" fill-opacity="0.65"/>
<path d="M161.945 104.314C161.941 103.561 161.138 103.082 160.474 103.437L130.183 119.628C129.857 119.802 129.654 120.141 129.654 120.51V152.566C129.654 153.32 130.457 153.803 131.123 153.449L161.591 137.259C161.92 137.084 162.124 136.742 162.122 136.37L161.945 104.314Z" fill="white"/>
<path d="M88 86.8308V140.693L115.832 155.564L119.525 157.566L129.182 162.747C129.477 162.905 129.831 162.905 130.126 162.748L170.172 141.36V89.3094L130.411 110.568L91.6921 89.1187L88 86.8308ZM166.48 139.453L130.22 158.84C129.925 158.997 129.572 158.997 129.278 158.84L123.311 155.66L119.619 153.658L91.6921 138.786V93.5993L129.654 114.667L129.938 114.858L133.819 112.761L166.48 95.3152V139.453Z" fill="white"/>
<path d="M142.34 72.4358L138.648 70.4339L128.99 65.253C128.695 65.095 128.341 65.0946 128.046 65.2522L88.5289 86.3576C88.2033 86.5315 88 86.8706 88 87.2397V94.5525L91.6921 92.5506V88.642L128.048 69.2548C128.342 69.098 128.694 69.098 128.989 69.2547L134.955 72.4358L138.648 74.4377L166.48 89.3093V93.2179L170.172 95.2199V87.9069C170.172 87.5378 169.969 87.1988 169.643 87.0249L142.34 72.4358Z" fill="white"/>
<path d="M100.497 89.1204C100.497 89.0021 100.562 88.8934 100.666 88.8375L128.142 74.1183C128.436 73.9606 128.79 73.9602 129.085 74.1173L157.241 89.1226C157.567 89.2963 157.771 89.6357 157.771 90.0051V90.3308C157.771 90.6998 157.568 91.0388 157.242 91.2127L130.607 105.45C130.308 105.61 129.949 105.607 129.652 105.443L100.662 89.4011C100.56 89.3446 100.497 89.2371 100.497 89.1204V89.1204Z" fill="#417ABA"/>
<path d="M119.524 140.788L118.009 128.3H117.915L113.655 138.119L112.424 137.451L108.353 123.342H108.259L106.555 134.21L102.863 132.303L105.987 114.477L108.543 115.811L113.181 130.683L117.631 120.482L120.282 121.817L123.122 142.694L119.524 140.788Z" fill="white"/>
<path d="M152.374 118.48L150.67 121.912C149.913 121.245 148.966 121.245 147.83 121.817C147.262 122.103 146.694 122.58 146.221 123.247C145.747 123.914 145.558 124.486 145.558 125.154C145.558 125.535 145.653 125.916 145.937 126.107C146.221 126.298 146.599 126.393 146.978 126.393C147.451 126.393 147.925 126.298 148.398 126.298C148.966 126.202 149.44 126.202 150.008 126.298C150.576 126.298 151.049 126.393 151.428 126.584C151.901 126.774 152.185 127.06 152.469 127.632C152.753 128.109 152.848 128.871 152.848 129.729C152.848 131.636 152.28 133.543 151.144 135.259C150.008 137.07 148.493 138.405 146.599 139.358C144.233 140.597 142.245 140.311 140.825 138.595L143.191 135.068C143.475 135.735 143.949 136.117 144.517 136.307C145.085 136.498 145.842 136.403 146.599 136.021C147.357 135.64 147.925 135.068 148.398 134.305C148.872 133.543 149.061 132.78 149.061 132.017C149.061 130.969 148.493 130.397 147.262 130.492C147.073 130.492 146.599 130.587 145.842 130.587C144.422 130.683 143.381 130.587 142.718 130.206C142.055 129.825 141.677 128.967 141.677 127.537C141.677 125.916 142.245 124.296 143.286 122.675C144.327 121.054 145.653 119.815 147.167 119.052C148.019 118.576 148.966 118.29 150.008 118.194C151.049 118.099 151.806 118.194 152.374 118.48Z" fill="#1B60AB"/>
<defs>
<filter id="filter0_d_60_4637" x="0" y="0" width="259" height="259" filterUnits="userSpaceOnUse" color-interpolation-filters="sRGB">
<feFlood flood-opacity="0" result="BackgroundImageFix"/>
<feColorMatrix in="SourceAlpha" type="matrix" values="0 0 0 0 0 0 0 0 0 0 0 0 0 0 0 0 0 0 127 0" result="hardAlpha"/>
<feOffset dy="16"/>
<feGaussianBlur stdDeviation="24"/>
<feComposite in2="hardAlpha" operator="out"/>
<feColorMatrix type="matrix" values="0 0 0 0 0.427451 0 0 0 0 0.552941 0 0 0 0 0.678431 0 0 0 0.25 0"/>
<feBlend mode="normal" in2="BackgroundImageFix" result="effect1_dropShadow_60_4637"/>
<feBlend mode="normal" in="SourceGraphic" in2="effect1_dropShadow_60_4637" result="shape"/>
</filter>
<radialGradient id="paint0_radial_60_4637" cx="0" cy="0" r="1" gradientUnits="userSpaceOnUse" gradientTransform="translate(132.607 -1.5961) rotate(25.2544) scale(123.46 192.143)">
<stop stop-color="#2789E4"/>
<stop offset="0.2245" stop-color="#217CD4"/>
<stop offset="0.6624" stop-color="#1059AA"/>
<stop offset="1" stop-color="#013B85"/>
</radialGradient>
</defs>
</svg>
