<?xml version="1.0" encoding="utf-8"?>
<!-- Generator: Adobe Illustrator 27.5.0, SVG Export Plug-In . SVG Version: 6.00 Build 0)  -->
<svg version="1.1" xmlns="http://www.w3.org/2000/svg" xmlns:xlink="http://www.w3.org/1999/xlink" x="0px" y="0px"
	 viewBox="0 0 600 600" style="enable-background:new 0 0 600 600;" xml:space="preserve">
<g id="background">
	<rect style="fill:#FFFFFF;" width="600" height="600"/>
</g>
<g id="objects">
	<g>
		<path style="fill:#3EADFF;" d="M118.876,163.11c1.63,39.101,13.19,132.364,82.991,202.178
			c69.814,69.801,163.076,81.361,202.178,82.991c11.358,0.467,22.387-3.815,30.422-11.863l39.506-39.493
			c9.576-9.576,9.576-25.103,0-34.68l-66.264-66.277c-9.576-9.576-25.103-9.576-34.68,0l-51.445,51.457
			c0,0-30.384-10.726-60.756-41.098c-30.372-30.371-41.098-60.756-41.098-60.756l51.457-51.445c9.576-9.576,9.576-25.103,0-34.68
			l-66.277-66.264c-9.576-9.576-25.103-9.576-34.68,0l-39.493,39.506C122.692,140.723,118.409,151.752,118.876,163.11z"/>
		<path style="fill:#258DCE;" d="M473.976,396.916l-39.506,39.506c-8.035,8.048-19.064,12.331-30.422,11.863
			c-39.101-1.642-132.364-13.19-202.178-82.991c-69.801-69.814-81.361-163.076-82.991-202.191
			c-0.468-11.358,3.815-22.374,11.863-30.422l10.625-10.625c6.127,53.226,44.799,284.335,252.89,260.836
			c29.588-3.335,52.733-13.884,70.61-29.765l9.109,9.109C483.553,371.826,483.553,387.34,473.976,396.916z"/>
		<path style="fill:#92D6FF;" d="M177.587,103.929l-18.317,17.445c0,0,35.374-2.527,68.222,13.897l-33.424-31.399
			C189.429,99.516,182.195,99.541,177.587,103.929z"/>
		<path style="fill:#92D6FF;" d="M381.26,307.602l-18.317,17.445c0,0,35.374-2.527,68.222,13.897l-33.424-31.399
			C393.102,303.189,385.868,303.213,381.26,307.602z"/>
		<g>
			<ellipse style="fill:#DBDBDB;" cx="300" cy="494.931" rx="159.972" ry="19.069"/>
		</g>
	</g>
</g>
</svg>
