<svg width="1059" height="434" viewBox="0 0 1059 434" fill="none" xmlns="http://www.w3.org/2000/svg">
<g clip-path="url(#clip0_1_2)">
<path opacity="0.4" d="M994.785 271.744V363.72H872.272V183.914H723.823V-3H647.683V252.8H631.449V47.6336V47.6096V-2.53514L561.571 47.6096H561.538V242.873H544.567V180.939H488.245V343.145H444V409H1046V271.744H994.785Z" fill="#78ADD9"/>
<path opacity="0.3" d="M854.306 194.343H755.957V380.602H854.306V194.343Z" fill="white"/>
<path opacity="0.3" d="M711.533 194.343H664.9V380.602H711.533V194.343Z" fill="white"/>
<path opacity="0.3" d="M619.972 194.343H573.339V380.602H619.972V194.343Z" fill="white"/>
<g opacity="0.3">
<path d="M711.533 61.0141H664.9V66.8068H711.533V61.0141Z" fill="white"/>
<path d="M711.533 71.8453H664.9V77.6381H711.533V71.8453Z" fill="white"/>
<path d="M711.533 82.8835H664.9V88.6762H711.533V82.8835Z" fill="white"/>
<path d="M711.533 93.9471H664.9V99.7399H711.533V93.9471Z" fill="white"/>
<path d="M711.533 104.778H664.9V110.571H711.533V104.778Z" fill="white"/>
<path d="M711.533 115.816H664.9V121.609H711.533V115.816Z" fill="white"/>
<path d="M711.533 127.802H664.9V133.595H711.533V127.802Z" fill="white"/>
<path d="M711.533 138.634H664.9V144.426H711.533V138.634Z" fill="white"/>
<path d="M711.533 149.672H664.9V155.464H711.533V149.672Z" fill="white"/>
<path d="M711.533 160.735H664.9V166.528H711.533V160.735Z" fill="white"/>
<path d="M711.533 171.567H664.9V177.359H711.533V171.567Z" fill="white"/>
<path d="M711.533 182.605H664.9V188.397H711.533V182.605Z" fill="white"/>
</g>
<g opacity="0.3">
<path d="M533.551 195.457H499.297V201.25H533.551V195.457Z" fill="white"/>
<path d="M533.551 206.288H499.297V212.081H533.551V206.288Z" fill="white"/>
<path d="M533.551 217.327H499.297V223.119H533.551V217.327Z" fill="white"/>
<path d="M533.551 228.392H499.297V234.185H533.551V228.392Z" fill="white"/>
<path d="M533.551 239.223H499.297V245.016H533.551V239.223Z" fill="white"/>
<path d="M533.551 250.261H499.297V256.054H533.551V250.261Z" fill="white"/>
<path d="M533.551 262.246H499.297V268.038H533.551V262.246Z" fill="white"/>
<path d="M533.551 273.077H499.297V278.869H533.551V273.077Z" fill="white"/>
<path d="M533.551 284.115H499.297V289.908H533.551V284.115Z" fill="white"/>
<path d="M533.551 295.179H499.297V300.971H533.551V295.179Z" fill="white"/>
<path d="M533.551 306.01H499.297V311.803H533.551V306.01Z" fill="white"/>
<path d="M533.551 317.049H499.297V322.842H533.551V317.049Z" fill="white"/>
</g>
<g opacity="0.3">
<path d="M619.972 61.0141H573.339V66.8068H619.972V61.0141Z" fill="white"/>
<path d="M619.972 71.8453H573.339V77.6381H619.972V71.8453Z" fill="white"/>
<path d="M619.972 82.8835H573.339V88.6762H619.972V82.8835Z" fill="white"/>
<path d="M619.972 93.9471H573.339V99.7399H619.972V93.9471Z" fill="white"/>
<path d="M619.972 104.778H573.339V110.571H619.972V104.778Z" fill="white"/>
<path d="M619.972 115.816H573.339V121.609H619.972V115.816Z" fill="white"/>
<path d="M619.972 127.802H573.339V133.595H619.972V127.802Z" fill="white"/>
<path d="M619.972 138.634H573.339V144.426H619.972V138.634Z" fill="white"/>
<path d="M619.972 149.672H573.339V155.464H619.972V149.672Z" fill="white"/>
<path d="M619.972 160.735H573.339V166.528H619.972V160.735Z" fill="white"/>
<path d="M619.972 171.567H573.339V177.359H619.972V171.567Z" fill="white"/>
<path d="M619.972 182.605H573.339V188.397H619.972V182.605Z" fill="white"/>
</g>
<path opacity="0.2" d="M447 59.786H661.592C661.592 59.786 663.796 38.178 647.105 43.218C647.105 43.218 648.05 -7.803 602.383 21.802C602.383 21.802 587.896 14.243 585.376 29.361C585.376 29.361 576.873 24.97 574.038 35.984C574.038 35.984 577.187 7 543.489 7C517.664 7 520.813 33.393 520.813 33.393C520.813 33.393 510.105 32.825 510.105 41.643C510.105 41.643 497.822 39.247 497.822 49.517L447 59.786Z" fill="#78ADD9"/>
<path opacity="0.6" d="M684.724 72.2143C684.876 72.2196 685.027 72.1906 685.169 72.1293C685.311 72.0679 685.44 71.9754 685.549 71.8571C685.658 71.7387 685.745 71.5971 685.804 71.4405C685.864 71.2841 685.894 71.1158 685.894 70.9459V52.1583C685.846 51.8554 685.705 51.581 685.494 51.3833C685.283 51.1855 685.017 51.0771 684.742 51.0771C684.466 51.0771 684.2 51.1855 683.989 51.3833C683.778 51.581 683.637 51.8554 683.589 52.1583V70.9459C683.589 71.2823 683.709 71.6049 683.921 71.8428C684.134 72.0806 684.423 72.2143 684.724 72.2143Z" fill="white"/>
<path opacity="0.6" d="M675.965 62.7808H693.518C693.809 62.7808 694.089 62.6514 694.295 62.4209C694.501 62.1904 694.617 61.8779 694.617 61.5521C694.617 61.2261 694.501 60.9137 694.295 60.6833C694.089 60.4528 693.809 60.3233 693.518 60.3233H675.965C675.674 60.3233 675.394 60.4528 675.188 60.6833C674.982 60.9137 674.866 61.2261 674.866 61.5521C674.866 61.8779 674.982 62.1904 675.188 62.4209C675.394 62.6514 675.674 62.7808 675.965 62.7808Z" fill="white"/>
<path opacity="0.28" d="M327.839 339.196C328.735 338.422 329.595 337.635 330.432 336.841C330.705 336.583 330.968 336.323 331.234 336.063C331.862 335.449 332.473 334.832 333.065 334.21C333.316 333.948 333.568 333.687 333.813 333.423C334.599 332.572 335.361 331.717 336.079 330.856C336.123 330.803 336.162 330.75 336.206 330.696C336.883 329.879 337.52 329.056 338.133 328.233C338.338 327.958 338.53 327.685 338.726 327.41C339.182 326.774 339.615 326.14 340.031 325.504C340.206 325.234 340.386 324.966 340.555 324.696C341.104 323.821 341.625 322.947 342.094 322.075C346.534 313.824 347.399 305.866 343.6 300.104C329.168 278.211 300.779 291.157 300.293 291.378C300.563 291.01 333.166 246.889 275.9 231.957C267.445 229.751 260.353 229.027 254.406 229.395C219.945 231.526 224.084 270.392 224.084 270.392C224.084 270.392 219.482 256.492 206.016 262.213C192.713 267.867 204.978 288.147 205.272 288.645C204.798 288.326 190.81 278.934 177.537 277.249C167.396 275.964 157.675 279.181 154.716 294.379C147.828 329.813 192.91 339.079 192.91 339.079C192.91 339.079 179.445 344.53 190.036 355.979C198.493 365.123 227.203 359.667 238.436 357.097L233.212 411.629H233.215H239.91H254.399L254.249 410.078L254.189 409.427L252.103 387.695L251.909 385.594L249.597 361.524L251.774 358.421C252.899 358.674 254.018 358.896 255.133 359.101C255.455 359.159 255.775 359.216 256.096 359.272C257.279 359.475 258.46 359.66 259.633 359.811C259.675 359.816 259.718 359.824 259.76 359.829C260.966 359.983 262.164 360.1 263.359 360.202C263.679 360.228 263.997 360.254 264.317 360.277C265.46 360.361 266.601 360.428 267.732 360.466C267.788 360.468 267.845 360.472 267.901 360.473C269.078 360.51 270.245 360.513 271.408 360.501C271.721 360.498 272.031 360.493 272.343 360.486C273.453 360.463 274.559 360.424 275.656 360.358C275.716 360.355 275.776 360.353 275.834 360.349C276.979 360.278 278.113 360.176 279.242 360.06C279.545 360.029 279.845 359.996 280.146 359.963C281.221 359.841 282.29 359.706 283.347 359.547C283.408 359.537 283.47 359.531 283.53 359.521C284.638 359.351 285.734 359.154 286.824 358.943C287.114 358.888 287.403 358.83 287.69 358.772C288.725 358.561 289.753 358.339 290.769 358.094C290.829 358.079 290.891 358.067 290.951 358.052C292.016 357.793 293.069 357.508 294.115 357.213C294.391 357.135 294.667 357.056 294.941 356.975C295.925 356.687 296.901 356.386 297.866 356.067C297.931 356.046 298 356.026 298.066 356.004C299.084 355.665 300.087 355.303 301.083 354.932C301.343 354.835 301.602 354.736 301.86 354.638C302.796 354.278 303.723 353.909 304.638 353.523C304.702 353.496 304.766 353.47 304.831 353.444C305.795 353.034 306.744 352.605 307.682 352.166C307.93 352.051 308.175 351.935 308.42 351.817C309.294 351.4 310.16 350.974 311.01 350.533C311.077 350.498 311.147 350.466 311.214 350.431C312.117 349.961 313.002 349.474 313.876 348.981C314.112 348.848 314.345 348.715 314.579 348.58C315.382 348.117 316.175 347.647 316.954 347.165C317.029 347.119 317.106 347.074 317.182 347.027C318.014 346.509 318.827 345.978 319.631 345.439C319.857 345.289 320.08 345.137 320.304 344.984C320.515 344.839 320.731 344.699 320.94 344.553C321.131 344.421 321.306 344.28 321.496 344.146C322.304 343.573 323.096 342.991 323.872 342.401C324.162 342.18 324.454 341.961 324.74 341.737C325.752 340.946 326.742 340.144 327.692 339.327C327.743 339.284 327.789 339.239 327.839 339.196Z" fill="#78ADD9"/>
<path d="M324 411.629H2V268.929C3.44953 268.317 4.95207 267.765 6.50759 267.311C24.7213 261.728 47.4168 266.266 68.3448 286.468C86.1102 269.324 105.142 263.465 121.617 265.477C121.801 265.496 121.96 265.536 122.118 265.556C128.258 266.365 134.058 268.278 139.277 271.119C139.541 271.258 139.805 271.415 140.068 271.573C143.073 273.23 145.868 275.203 148.424 277.452C149.557 278.459 150.665 279.504 151.693 280.608L151.72 280.627C153.117 282.107 154.436 283.666 155.648 285.304C156.016 285.778 156.36 286.251 156.675 286.724C159.31 290.512 161.446 294.715 163.001 299.232C164.372 303.099 165.295 307.223 165.743 311.524C165.743 311.524 171.594 307.025 180.924 302.862C181.109 302.803 181.294 302.705 181.504 302.625C182.795 302.053 184.166 301.501 185.59 300.949C185.615 300.968 185.615 300.949 185.615 300.949C196.08 297.002 209.682 294.201 224.021 297.535C230.584 299.054 237.28 301.856 243.896 306.413C252.384 312.273 254.941 319.415 254.414 326.497C253.861 334.527 249.326 342.478 245.03 348.317C244.556 349.008 244.055 349.659 243.554 350.29C240.891 353.683 238.546 356.13 237.544 357.136C237.333 357.373 237.175 357.511 237.095 357.59C237.201 357.57 237.569 357.472 238.202 357.353C241.471 356.642 251.513 354.768 263.64 355.045C264.509 355.064 265.378 355.104 266.275 355.143C272.97 355.479 280.166 356.505 287.124 358.754C303.44 364.021 318.491 375.958 322.867 401.309C323.42 404.526 323.815 407.959 324 411.629Z" fill="#3E6041"/>
<path d="M370 411.629H71C73.2447 368.325 120.761 379.605 121.818 379.865C121.026 379.082 102.172 360.636 117.839 349.779C136.512 336.872 156.291 347.941 161.937 351.667L162.35 351.94C162.862 352.288 163.225 352.549 163.407 352.686L163.538 352.785C164.282 345.642 167.253 339.356 171.744 334.624L171.761 334.611C173.858 332.375 176.302 330.499 179.01 329.033C190.335 322.871 206.119 324.102 220.5 338.064C234.881 324.102 250.664 322.871 261.99 329.033C264.698 330.499 267.142 332.375 269.239 334.611L269.255 334.624C273.746 339.357 276.717 345.643 277.46 352.785C277.46 352.785 301.087 334.512 323.161 349.779C338.828 360.636 319.974 379.083 319.182 379.865C320.239 379.605 367.738 368.326 370 411.629Z" fill="#4C754E"/>
<path d="M160 411.629H2V331.962C4.05137 333.443 6.10417 335.141 8.12982 337.095C20.6253 324.995 34.173 322.35 45.0374 325.745C46.8529 326.317 48.6155 327.067 50.2737 327.955C53.0084 329.435 55.5087 331.331 57.6387 333.6V333.62C61.4012 337.568 64.1373 342.581 65.3724 348.286C65.6354 349.489 65.847 350.753 65.9785 352.016L66.11 351.917C66.293 351.779 66.6618 351.502 67.1879 351.147L67.6082 350.872C67.8183 350.733 68.0556 350.595 68.2929 350.437C68.3987 350.378 68.4773 350.318 68.5831 350.259C69.5037 349.667 70.6874 348.996 72.0554 348.286C80.3953 343.944 96.153 338.515 111.385 348.286C111.726 348.502 112.068 348.739 112.41 348.976C112.726 349.193 113.041 349.411 113.33 349.647C113.593 349.844 113.856 350.062 114.092 350.259C114.567 350.673 114.987 351.108 115.382 351.523C121.195 357.839 118.354 365.775 114.724 371.558C113.382 373.689 111.909 375.545 110.726 376.907V376.927C110.174 377.558 109.699 378.091 109.305 378.486C108.804 379.039 108.463 379.355 108.357 379.454C108.488 379.414 109.252 379.236 110.514 379C110.514 379 110.514 379 110.541 379C111.12 378.901 111.831 378.782 112.62 378.664C114.461 378.387 116.828 378.112 119.511 377.993C120.275 377.953 121.064 377.934 121.88 377.934C123.064 377.894 124.326 377.914 125.616 377.973C126.536 378.032 127.484 378.092 128.457 378.19C128.852 378.23 129.272 378.268 129.694 378.328C130.036 378.368 130.379 378.408 130.746 378.467C131.351 378.546 131.957 378.645 132.562 378.763C133.219 378.862 133.851 379 134.509 379.158C134.745 379.217 134.982 379.256 135.192 379.315V379.335C135.455 379.374 135.718 379.454 135.981 379.513C136.165 379.552 136.324 379.591 136.507 379.67C136.533 379.651 136.56 379.67 136.586 379.69C137.928 380.045 139.243 380.499 140.558 381.033C140.953 381.19 141.322 381.348 141.716 381.526C142.874 382.019 144.032 382.611 145.136 383.283L145.609 383.579C145.636 383.579 145.662 383.598 145.689 383.638H145.715V383.657C145.925 383.756 146.109 383.894 146.319 384.033C146.688 384.309 147.083 384.566 147.477 384.841C147.635 384.96 147.793 385.058 147.925 385.177C148.714 385.79 149.477 386.441 150.213 387.151C150.451 387.388 150.687 387.625 150.924 387.862C151.108 388.02 151.266 388.198 151.424 388.375C152.213 389.223 152.95 390.151 153.66 391.118C153.686 391.118 153.686 391.138 153.686 391.138C153.817 391.355 153.976 391.572 154.08 391.789C154.948 393.091 155.764 394.493 156.473 396.032C156.764 396.624 157.025 397.256 157.262 397.888C157.315 398.026 157.368 398.164 157.421 398.322C157.553 398.637 157.657 398.973 157.789 399.328C157.894 399.643 157.999 399.979 158.104 400.315C158.711 402.25 159.184 404.342 159.5 406.592C159.604 407.224 159.684 407.855 159.763 408.506C159.763 408.605 159.79 408.704 159.79 408.803C159.79 408.842 159.79 408.901 159.816 408.941C159.79 408.96 159.79 408.981 159.816 409.02C159.816 409.237 159.841 409.434 159.868 409.652C159.921 410.306 159.974 410.957 160 411.629Z" fill="#5DA167"/>
<path d="M343.533 212.628L343.506 212.648C342.953 213.755 342.373 214.863 341.739 215.97C341.265 216.848 340.764 217.725 340.236 218.603C339.418 220.003 338.548 221.403 337.653 222.803C336.941 223.889 336.228 224.955 335.465 226.041C333.039 229.551 330.349 233.06 327.449 236.508C326.684 237.428 325.893 238.326 325.076 239.246C322.44 242.233 319.644 245.201 316.665 248.083C316.032 248.71 315.373 249.337 314.713 249.963C314.054 250.59 313.369 251.217 312.683 251.843C312.182 252.303 311.654 252.783 311.153 253.243C310.494 253.85 309.809 254.434 309.148 254.999C308.937 255.187 308.753 255.354 308.542 255.521C307.487 256.44 306.38 257.359 305.272 258.258C303.927 259.387 302.53 260.494 301.132 261.56C300.105 262.353 299.076 263.148 298.022 263.9C297.916 264.004 297.784 264.088 297.678 264.15C295.252 265.968 292.747 267.702 290.189 269.415C289.398 269.937 288.58 270.46 287.763 270.982C286.945 271.525 286.101 272.048 285.257 272.57C284.413 273.092 283.569 273.615 282.725 274.116C277.531 277.23 272.125 280.154 266.509 282.807C265.639 283.225 264.768 283.623 263.898 284.019C262.026 284.896 260.154 285.712 258.229 286.505C256.304 287.32 254.378 288.094 252.428 288.825C249.317 290.016 246.126 291.144 242.908 292.167L240.456 292.919C239.508 293.212 238.583 293.503 237.635 293.754C236.923 293.963 236.185 294.172 235.447 294.361C235.051 294.486 234.682 294.591 234.313 294.674C233.259 294.967 232.23 295.217 231.175 295.489C230.622 295.636 230.068 295.761 229.487 295.887C228.59 296.117 227.693 296.326 226.772 296.513C225.902 296.722 225.005 296.911 224.108 297.078C222.526 297.412 220.944 297.726 219.361 297.997C218.175 298.206 216.988 298.415 215.775 298.603C215.59 298.624 215.405 298.666 215.22 298.687C213.243 299.001 211.239 299.272 209.235 299.503C209.05 299.523 208.867 299.545 208.656 299.565C207.944 299.649 207.232 299.732 206.494 299.796C205.728 299.9 204.965 299.962 204.172 300.025C203.039 300.129 201.905 300.234 200.771 300.296C200.481 300.338 200.19 300.359 199.901 300.359C198.74 300.442 197.554 300.505 196.393 300.546C195.443 300.608 194.494 300.629 193.544 300.65C193.017 300.671 192.464 300.692 191.91 300.692C189.852 300.755 187.77 300.755 185.686 300.692H185.661C178.251 300.588 170.71 300.003 163.062 298.875C160.003 298.415 156.918 297.893 153.833 297.246C151.856 296.87 149.851 296.43 147.848 295.971C141.572 294.466 135.243 292.607 128.889 290.351C128.889 290.351 126.41 291.061 122.165 292.126C121.189 292.377 120.134 292.628 118.973 292.899H118.948C94.5568 298.812 32.4305 311.285 14.1037 290.351C4.7698 279.674 4.05765 271.275 6.50934 265.07C10.0701 256.002 20.3526 251.615 20.3526 251.615C20.3526 251.615 12.7052 249.944 2 245.765V113.322C25.415 120.615 46.2738 135.407 47.1178 136.012C46.4858 134.863 19.9055 88.3755 48.7269 75.4225C77.1528 62.6567 87.3579 92.5547 87.8594 94.1214C87.7806 92.952 86.4624 77.9917 89.8899 60.3157C94.9265 34.5549 110.009 3.06863 153.571 0.206452C166.438 -0.629156 181.812 1.02163 200.139 6.07728C207.733 8.1663 214.59 10.5074 220.785 13.0766C221.761 13.474 222.71 13.8907 223.66 14.288C251.452 26.469 265.033 43.079 270.491 60.3157C282.884 99.4484 253.351 141.736 252.981 142.28C254.036 141.778 315.529 112.089 346.803 162.275C355.03 175.48 353.157 193.719 343.533 212.628Z" fill="#5DA167"/>
<path opacity="0.3" d="M297 266.229C294.58 267.947 292.081 269.586 289.529 271.205C288.74 271.698 287.923 272.192 287.108 272.685C286.292 273.198 285.45 273.693 284.608 274.187C283.766 274.68 282.924 275.174 282.082 275.648C276.9 278.59 271.506 281.354 265.903 283.862C265.035 284.257 264.166 284.632 263.298 285.007C261.43 285.836 259.563 286.607 257.641 287.357C255.721 288.127 253.8 288.858 251.854 289.549C248.75 290.674 245.567 291.741 242.356 292.708L239.91 293.418C238.963 293.695 238.041 293.971 237.095 294.208C236.384 294.405 235.648 294.603 234.912 294.781C234.517 294.899 234.148 294.998 233.781 295.077C232.729 295.354 231.702 295.59 230.65 295.847C230.098 295.986 229.545 296.104 228.966 296.223C228.071 296.441 227.176 296.638 226.257 296.815C225.389 297.013 224.494 297.191 223.599 297.348C222.021 297.665 220.443 297.961 218.863 298.217C217.679 298.415 216.495 298.612 215.285 298.79C215.1 298.81 214.916 298.849 214.731 298.87C212.758 299.166 210.76 299.422 208.76 299.64C208.575 299.66 208.392 299.68 208.182 299.699C207.472 299.779 206.761 299.857 206.025 299.917C205.261 300.016 204.499 300.075 203.709 300.134C202.578 300.233 201.447 300.331 200.315 300.39C200.026 300.43 199.736 300.449 199.447 300.449C198.289 300.528 197.106 300.588 195.948 300.626C195 300.685 194.053 300.705 193.105 300.725C192.579 300.744 192.028 300.765 191.474 300.765C189.421 300.824 187.344 300.824 185.265 300.765H185.24C177.847 300.666 170.323 300.113 162.693 299.047C159.641 298.612 156.563 298.119 153.485 297.507C151.512 297.152 149.512 296.737 147.514 296.302C141.252 294.88 134.937 293.123 128.598 290.991C128.598 290.991 126.125 291.663 121.889 292.669C120.916 292.906 119.863 293.143 118.705 293.4H118.68C94.3447 298.988 32.3608 310.776 14.076 290.991C4.76345 280.9 4.05293 272.962 6.499 267.098C10.0516 258.528 20.3105 254.382 20.3105 254.382C20.3105 254.382 12.6807 252.803 2 248.853V123.683C25.3614 130.575 46.1723 144.555 47.0143 145.127C46.3839 144.041 19.8645 100.106 48.6198 87.8646C76.9805 75.7998 87.1623 104.056 87.6626 105.537C87.584 104.432 86.2688 90.2928 89.6884 73.5872C94.7135 49.2409 109.762 19.4834 153.223 16.7784C138.307 31.7263 124.337 51.492 115.839 73.5872C96.9237 122.537 104.711 182.96 188.109 227.863C189.845 228.791 191.634 229.739 193.476 230.667C203.709 235.9 214.996 240.896 227.466 245.615C239.332 250.136 252.25 254.402 266.298 258.391C275.98 261.136 286.215 263.761 297 266.229Z" fill="#518E59"/>
<path d="M343 217.672C342.448 218.717 341.868 219.763 341.236 220.807C340.762 221.636 340.261 222.464 339.735 223.292C338.918 224.613 338.049 225.935 337.155 227.256C336.444 228.281 335.733 229.287 334.97 230.312C332.548 233.625 329.863 236.937 326.967 240.191C326.203 241.059 325.413 241.906 324.597 242.774C321.965 245.594 319.173 248.394 316.199 251.115C315.566 251.706 314.908 252.298 314.25 252.889C313.592 253.481 312.908 254.072 312.223 254.664C311.722 255.098 311.195 255.551 310.694 255.985C310.036 256.557 309.352 257.109 308.693 257.642C308.482 257.819 308.298 257.977 308.088 258.134C307.035 259.002 305.929 259.869 304.823 260.718C303.479 261.783 302.084 262.828 300.689 263.834C299.663 264.583 298.636 265.333 297.583 266.042C297.477 266.141 297.345 266.22 297.239 266.279C294.817 267.994 292.316 269.631 289.762 271.248C288.972 271.74 288.155 272.233 287.34 272.726C286.523 273.238 285.68 273.732 284.837 274.225C283.995 274.718 283.152 275.211 282.309 275.685C277.123 278.623 271.724 281.383 266.117 283.887C265.249 284.281 264.379 284.656 263.51 285.03C261.64 285.859 259.772 286.628 257.849 287.377C255.927 288.146 254.004 288.876 252.057 289.566C248.951 290.69 245.764 291.755 242.551 292.721L240.103 293.43C239.156 293.706 238.233 293.982 237.286 294.219C236.574 294.416 235.838 294.613 235.101 294.791C234.706 294.909 234.337 295.008 233.969 295.086C232.916 295.363 231.889 295.599 230.836 295.856C230.283 295.994 229.73 296.112 229.15 296.231C228.255 296.448 227.359 296.645 226.439 296.822C225.57 297.019 224.675 297.197 223.779 297.355C222.199 297.671 220.62 297.967 219.039 298.223C217.854 298.42 216.67 298.617 215.458 298.795C215.273 298.814 215.088 298.854 214.904 298.874C212.929 299.17 210.929 299.426 208.928 299.644C208.743 299.663 208.56 299.683 208.35 299.703C207.638 299.782 206.927 299.86 206.191 299.92C205.426 300.019 204.664 300.078 203.873 300.136C202.741 300.235 201.609 300.334 200.476 300.393C200.187 300.432 199.897 300.452 199.607 300.452C198.449 300.53 197.264 300.59 196.105 300.628C195.156 300.687 194.209 300.707 193.261 300.727C192.734 300.746 192.182 300.766 191.628 300.766C189.573 300.825 187.495 300.825 185.414 300.766C185.414 300.766 185.414 300.786 185.388 300.766C177.99 300.668 170.46 300.116 162.824 299.051C159.769 298.617 156.688 298.124 153.608 297.513C151.634 297.159 149.632 296.744 147.632 296.31C141.365 294.89 135.045 293.135 128.701 291.006C128.701 291.006 126.226 291.677 121.986 292.682C121.012 292.919 119.959 293.156 118.8 293.412H118.774C94.4196 298.992 32.3854 310.764 14.0858 291.006C4.76569 280.93 4.0546 273.003 6.50266 267.147C10.0581 258.589 20.3254 254.448 20.3254 254.448C20.3254 254.448 12.6893 252.871 2 248.927V175.613C27.1974 199.453 65.8241 225.974 110.532 243.938C119.535 247.566 128.778 250.84 138.23 253.679C146.155 256.065 154.212 258.155 162.4 259.851C165.561 260.522 168.746 261.133 171.932 261.665C181.595 263.361 191.389 264.505 201.237 265.017C207.793 265.371 214.376 265.431 220.959 265.194C221.802 265.174 222.644 265.135 223.487 265.076C237.864 264.425 252.266 262.295 266.511 258.451C278.438 255.256 290.234 250.84 301.819 245.061C315.933 238.042 329.704 229.011 343 217.672Z" fill="#518E59"/>
<path d="M198.654 224.016L142.997 303.377L147.987 355.379L148.408 359.918L152.911 406.87L153.04 408.278L153.365 411.629H107.621L122.07 260.675L62.3318 175.463C61.3279 174.006 62.7202 172.258 64.9237 172.258C65.9605 172.258 66.8987 172.671 67.4185 173.326L123.788 242.831L128.032 198.476C128.129 197.506 129.198 196.752 130.494 196.752C131.791 196.752 132.861 197.505 132.958 198.476L141.38 286.262L193.572 221.855C194.09 221.199 195.061 220.81 196.066 220.81C198.267 220.81 199.692 222.558 198.654 224.016Z" fill="#564841"/>
<path d="M122 260.624V411.629H108L122 260.624Z" fill="#473A34"/>
<path d="M132.296 411.629H44.0853C44.0853 411.629 42.1045 398.085 57.2364 400.775C57.2364 400.775 56.4163 383.352 80.808 390.005C80.808 390.005 95.5191 369.863 109.131 391.312C109.131 391.312 124.896 391.323 121.632 401.61C121.632 401.61 136.341 402.723 132.296 411.629Z" fill="#89CE8D"/>
<path d="M412 411.629H315C315.728 397.57 331.144 401.232 331.486 401.316C331.229 401.062 325.112 395.073 330.195 391.549C336.252 387.358 342.67 390.952 344.501 392.161L344.635 392.25C344.801 392.363 344.918 392.448 344.978 392.492L345.021 392.524C345.262 390.206 346.226 388.164 347.682 386.627L347.688 386.623C348.368 385.897 349.161 385.289 350.039 384.812C353.714 382.811 358.834 383.211 363.499 387.744C368.164 383.211 373.285 382.812 376.958 384.812C377.837 385.289 378.629 385.897 379.309 386.623L379.315 386.627C380.771 388.164 381.736 390.204 381.976 392.524C381.976 392.524 389.641 386.591 396.802 391.548C401.885 395.072 395.769 401.061 395.511 401.315C395.858 401.233 411.268 397.57 412 411.629Z" fill="#5DA167"/>
<path d="M199.093 359.218V379.753C199.224 380.065 199.356 380.397 199.462 380.729C199.594 381.08 199.7 381.433 199.778 381.784C199.963 382.486 200.094 383.228 200.173 383.97C200.173 383.97 200.252 383.911 200.436 383.795C200.489 383.756 200.542 383.697 200.621 383.658C200.647 383.658 200.674 383.639 200.7 383.619C200.806 383.521 200.963 383.424 201.148 383.307C201.332 383.189 201.517 383.072 201.727 382.956V359.219H199.093V359.218ZM167.099 359.218V369.72H169.732V359.218H167.099ZM167.099 359.218V369.72H169.732V359.218H167.099ZM67.6709 374.19C67.4348 374.171 67.223 374.151 67.0127 374.132C66.9598 374.113 66.9068 374.113 66.8539 374.113C66.5119 374.073 66.1957 374.015 65.9066 373.957C65.828 373.938 65.775 373.938 65.7221 373.917V389.709C66.0655 389.593 66.4332 389.495 66.8281 389.417C67.0127 389.377 67.1701 389.339 67.3547 389.319C67.618 389.261 67.8812 389.221 68.1703 389.182C68.2232 389.163 68.3019 389.143 68.3549 389.143V374.21C68.1188 374.209 67.8827 374.209 67.6709 374.19ZM199.093 359.218V379.753C199.224 380.065 199.356 380.397 199.462 380.729C199.594 381.08 199.7 381.433 199.778 381.784C199.963 382.486 200.094 383.228 200.173 383.97C200.173 383.97 200.252 383.911 200.436 383.795C200.489 383.756 200.542 383.697 200.621 383.658C200.647 383.658 200.674 383.639 200.7 383.619C200.831 383.521 200.99 383.424 201.148 383.307C201.332 383.189 201.517 383.072 201.727 382.956V359.219H199.093V359.218ZM167.099 359.218V369.72H169.732V359.218H167.099ZM67.6709 374.19C67.4606 374.171 67.223 374.151 67.0127 374.132C66.9598 374.113 66.9068 374.113 66.8539 374.113C66.5119 374.073 66.1957 374.015 65.9066 373.957C65.828 373.938 65.775 373.938 65.7221 373.917V389.709C66.0655 389.593 66.4332 389.495 66.8281 389.417C67.0127 389.377 67.1701 389.339 67.3547 389.319C67.4863 389.28 67.618 389.261 67.7496 389.24C67.8812 389.201 68.0401 389.182 68.1703 389.182C68.2232 389.163 68.3019 389.143 68.3549 389.143V374.21C68.1188 374.209 67.8827 374.209 67.6709 374.19ZM2 348.99V411.629H266V348.99H2ZM33.7308 409.677H4.63422V350.941H33.7308V409.677ZM65.7221 409.677H36.3636V350.941H65.7235L65.7221 409.677ZM100.428 409.677H68.3563V350.941H100.428V409.677ZM103.06 409.677V350.941H132.684V409.677H103.06ZM167.099 409.677H135.316V350.941H167.099V409.677ZM199.093 409.677H169.733V350.941H199.093V409.677ZM201.726 409.677V350.941H233.797V409.677H201.726ZM263.367 409.677H236.43V350.941H263.367V409.677ZM67.6709 374.19C67.4348 374.171 67.223 374.151 67.0127 374.132C66.9598 374.113 66.9068 374.113 66.8539 374.113C66.5119 374.073 66.1957 374.015 65.9066 373.957C65.828 373.938 65.775 373.938 65.7221 373.917V389.709C66.0655 389.593 66.4332 389.495 66.8281 389.417C67.0127 389.377 67.1701 389.339 67.3547 389.319C67.4863 389.28 67.618 389.261 67.7496 389.24C67.8812 389.201 68.0401 389.201 68.1703 389.182C68.2232 389.163 68.3019 389.143 68.3549 389.143V374.21C68.1188 374.209 67.8827 374.209 67.6709 374.19ZM167.099 359.218V369.72H169.732V359.218H167.099ZM199.093 359.218V379.753C199.224 380.065 199.356 380.397 199.462 380.729C199.594 381.08 199.7 381.433 199.778 381.784C199.963 382.486 200.094 383.228 200.173 383.97C200.173 383.97 200.252 383.911 200.436 383.795C200.489 383.756 200.542 383.697 200.621 383.658C200.647 383.658 200.674 383.639 200.7 383.619C200.806 383.521 200.963 383.424 201.148 383.307C201.332 383.189 201.517 383.072 201.727 382.956V359.219H199.093V359.218Z" fill="white"/>
<path d="M233.107 422.814H129.895C127.191 422.814 125 421.182 125 419.168V413.039C125 411.024 127.191 409.392 129.895 409.392H233.106C235.809 409.392 238 411.024 238 413.039V419.168C238.001 421.182 235.811 422.814 233.107 422.814Z" fill="#DD745A"/>
<path d="M225 409.392H138L142.322 398.735L154.137 369.541L158.459 358.874L170.288 329.681L181.493 302.01L192.696 329.681L204.527 358.874L208.849 369.541L220.678 398.735L225 409.392Z" fill="#C35535"/>
<path d="M204 359.057H158L169.812 329.974H192.187L204 359.057Z" fill="white"/>
<path d="M220 398.206H142L153.761 369.124H208.224L220 398.206Z" fill="white"/>
<path opacity="0.4" d="M181 329.974V359.057H158L169.812 329.974H181Z" fill="#B9B9B9"/>
<path opacity="0.4" d="M153.763 369.124H181V398.206H142L153.763 369.124Z" fill="#B9B9B9"/>
<path opacity="0.3" d="M421 122.278H2V49.2223C8.19136 51.1516 14.2754 55.7988 17.701 65.7823C17.701 65.7823 7.69033 -3 114.673 -3C196.655 -3 186.67 59.6392 186.67 59.6392C186.67 59.6392 219.046 58.3594 220.574 77.755C220.627 78.2279 220.653 78.7202 220.653 79.2124C220.653 79.2124 221.707 79.0551 223.446 78.8967C232.376 78.1488 259.642 77.5185 259.642 97.8996L324.949 107.765L416.678 121.628L421 122.278Z" fill="white"/>
<path d="M333.641 409.148H234C234.748 389.968 250.583 394.964 250.935 395.079C250.671 394.732 244.388 386.562 249.609 381.753C255.832 376.036 262.423 380.939 264.305 382.589L264.443 382.71C264.614 382.864 264.735 382.98 264.795 383.04L264.839 383.084C265.087 379.92 266.077 377.136 267.573 375.04L267.579 375.035C268.278 374.045 269.092 373.214 269.994 372.565C273.768 369.836 279.028 370.381 283.82 376.565C288.612 370.381 293.872 369.836 297.647 372.565C298.549 373.214 299.364 374.045 300.062 375.035L300.067 375.04C301.564 377.136 302.554 379.92 302.802 383.084C302.802 383.084 310.675 374.991 318.032 381.753C323.253 386.562 316.97 394.732 316.706 395.079C317.058 394.964 332.887 389.969 333.641 409.148Z" fill="#3E6041"/>
<path d="M608.522 282.815L602.98 296.057L580.374 308.588L596.579 320.798L615.064 312.209L617.52 297.557L608.522 282.815Z" fill="#E29334"/>
<path d="M588.411 304.132L601.927 307.807L602.741 305.969C602.741 305.969 592.183 302.185 588.411 304.132Z" fill="#CE802C"/>
<path d="M522.376 320.798H515.284V344.467H522.376V320.798Z" fill="#1C4651"/>
<path d="M554.709 320.798H547.617V344.467H554.709V320.798Z" fill="#1C4651"/>
<path d="M563.084 406.109H506.909V346.093C506.909 338.455 513.101 332.263 520.739 332.263H549.254C556.892 332.263 563.084 338.455 563.084 346.093V406.109Z" fill="#2B5B66"/>
<path d="M523.122 359.674C518.381 359.674 514.538 363.517 514.538 368.258V411.249H531.706V368.258C531.706 363.517 527.863 359.674 523.122 359.674Z" fill="white"/>
<path d="M546.871 359.674C542.13 359.674 538.287 363.517 538.287 368.258V411.249H555.455V368.258C555.455 363.517 551.612 359.674 546.871 359.674Z" fill="white"/>
<path d="M563.084 406.109H506.909V411.249H563.084V406.109Z" fill="#1C4651"/>
<path d="M570.681 359.52C572.832 377.262 574.793 394.792 574.793 394.792L586.047 394.18C586.047 394.18 586.546 375.191 586.733 358.647L570.681 359.52Z" fill="#F3A080"/>
<path d="M583.736 358.81L583.541 394.316L586.047 394.18C586.047 394.18 586.546 375.191 586.733 358.647L583.736 358.81Z" fill="#EF6865"/>
<path d="M637.77 319.881C637.77 319.881 590.141 303.174 579.825 302.374C569.509 301.573 563.173 304.216 561.089 307.489C559.005 310.762 567.292 376.06 567.292 376.06L593.408 377.04L589.989 334.591C589.989 334.591 617.989 357.643 622.488 358.669C626.988 359.695 646.54 359.581 646.54 359.581L637.77 319.881Z" fill="#E29334"/>
<path d="M554.944 411.249L595.915 410.693L595.83 407.126L554.859 407.681L554.944 411.249Z" fill="#FFCD43"/>
<path d="M595.832 407.128L554.868 407.68C554.923 407.054 555.199 406.318 555.991 405.932C557.905 404.975 564.07 402.307 567.401 400.319C567.401 400.301 567.401 400.301 567.401 400.301C570.769 397.577 569.867 391.468 568.469 383.334C568.285 382.23 568.101 381.107 567.898 379.948C567.806 379.433 567.475 377.39 567.088 375.071C566.885 373.875 566.665 372.587 566.481 371.409C566.15 369.44 565.874 367.784 565.8 367.305L592.705 368.317C592.705 368.317 592.833 369.973 593.055 372.623C593.128 373.672 593.22 374.905 593.331 376.248C594.194 387.253 595.685 405.969 595.832 407.128Z" fill="#1C4651"/>
<path d="M593.33 376.249L567.088 375.071C566.885 373.875 566.665 372.587 566.481 371.409L593.055 372.624C593.126 373.672 593.219 374.905 593.33 376.249Z" fill="#E2E2E2"/>
<path d="M512.677 252.649L509.458 254.636L601.359 403.546L604.578 401.56L512.677 252.649Z" fill="white"/>
<path d="M545.802 338.81C545.38 337.636 562.481 327.17 562.481 327.17C559.342 326.649 556.387 325.019 554.271 322.636C554.252 322.613 554.233 322.591 554.214 322.568C554.032 322.344 553.874 322.069 553.97 321.81C554.017 321.685 554.116 321.588 554.218 321.504C555.097 320.786 556.345 320.686 557.464 320.895C558.578 321.105 559.624 321.591 560.704 321.923C562.779 322.572 564.977 322.4 567.142 322.222C570.805 321.93 574.879 327.184 574.879 327.184C574.879 327.184 575.376 326.991 576.059 326.739L580.373 335.914L576.327 337.777L574.93 340.248C573.696 341.88 556.405 350.239 555.541 349.286C555.306 349.03 555.078 348.726 554.868 348.423C554.544 347.952 554.272 347.487 554.092 347.176C553.963 346.944 553.891 346.798 553.891 346.798C553.891 346.798 553.266 346.451 552.604 345.953C552.203 345.669 551.793 345.328 551.483 344.986C551.144 344.619 550.933 344.239 550.985 343.912C551.037 343.586 551.9 342.726 553.096 341.667C556.042 339.046 560.982 335.189 560.539 335.048C559.921 334.858 547.235 340.396 547.235 340.396C547.235 340.396 546.835 340.23 546.435 339.818C546.198 339.577 545.958 339.244 545.802 338.81Z" fill="#1C4651"/>
<path d="M550.984 343.913C551.036 343.587 551.899 342.727 553.095 341.668C554.178 342.068 555.255 342.832 556.282 343.132C557.885 343.596 559.597 343.701 561.238 343.406C563.927 342.919 566.34 341.446 568.505 339.778C570.672 338.114 572.68 336.231 574.965 334.738C576.196 333.933 577.499 333.255 578.839 332.65L580.612 336.311L576.328 337.777L574.931 340.248C573.697 341.88 556.406 350.239 555.542 349.286C555.307 349.03 555.079 348.726 554.869 348.423C554.545 347.952 554.273 347.487 554.093 347.176C553.964 346.944 553.892 346.798 553.892 346.798C553.892 346.798 553.267 346.451 552.605 345.953C552.204 345.669 551.794 345.328 551.484 344.986C551.143 344.619 550.932 344.239 550.984 343.913Z" fill="#225460"/>
<path d="M552.602 345.956C552.91 345.77 553.222 345.577 553.532 345.371C555.345 344.176 556.843 342.883 557.87 341.892C558.833 340.961 559.399 340.302 559.464 340.223C559.373 340.268 558.596 340.655 557.434 341.301C556.191 341.992 554.508 342.967 552.725 344.144C552.295 344.428 551.881 344.711 551.482 344.987C551.791 345.329 552.202 345.669 552.602 345.956Z" fill="#173B44"/>
<path d="M554.869 348.421C557.791 346.575 559.81 344.593 559.937 344.467C559.764 344.521 557.075 345.419 554.091 347.179C554.271 347.489 554.545 347.954 554.869 348.421Z" fill="#173B44"/>
<path d="M617.908 393.456C618.761 403.778 622.387 409.61 625.945 411.144C629.514 412.679 694.487 401.564 694.487 401.564L693.059 387.542V380.181L693.002 376.905L648.089 378.292L648.1 378.269C648.657 377.314 666.379 346.906 666.674 342.37C666.833 339.812 665.912 332.742 665.071 326.956C664.378 322.307 663.741 318.476 663.741 318.476L647.19 325.035L646.042 325.49L625.944 333.47C625.946 333.469 617.056 383.157 617.908 393.456Z" fill="#FFCD43"/>
<path d="M648.101 378.269C648.658 377.314 666.38 346.906 666.675 342.37C666.834 339.812 665.913 332.742 665.072 326.956L659.775 326.456V342.064L648.101 378.269Z" fill="#E29334"/>
<path d="M615.655 329.248C614.675 316.145 613.454 316.256 614.192 314.347C612.325 312.259 610.794 290.109 608.522 282.814C607.461 279.382 607.977 272.829 608.747 267.187C609.607 260.881 613.825 254.234 617.526 249.056L642.513 245.861C642.513 245.861 652.06 249.245 653.919 258.847C654.866 263.738 670.861 332.314 670.861 332.314L625.097 336.011C621.337 336.315 615.937 333.011 615.655 329.248Z" fill="#FFCD43"/>
<path d="M628.234 262.399L610.582 297.072L572.648 321.39L581.973 342.059L625.949 312.865L628.234 262.399Z" fill="#FFCD43"/>
<path d="M611.868 300.102C611.592 299.037 611.215 298.009 610.795 296.994C610.596 296.512 611.072 295.968 611.572 296.07C613.544 296.47 615.749 296.184 617.639 296.873C618.015 297.01 617.83 297.494 617.52 297.558C615.917 297.888 614.178 297.528 612.509 297.458C612.82 298.235 613.085 299.029 613.298 299.841C613.52 300.687 613.881 301.543 613.431 302.345C613.297 302.583 612.969 302.709 612.742 302.5C612.045 301.858 612.101 301 611.868 300.102Z" fill="#E29334"/>
<path d="M613.559 290.526C620.246 276.339 623.653 263.421 630.344 259.661C630.344 259.661 621.84 271.412 615.572 289.899C615.572 289.899 612.025 293.779 613.559 290.526Z" fill="#E29334"/>
<path d="M620.406 316.298C626.714 314.488 643.273 284.179 647.341 271.114C647.341 271.114 638.355 305.359 621.934 317.71L620.406 316.298Z" fill="#E29334"/>
<path d="M650.14 302.641C644.76 304.644 639.557 308.584 635.103 312.129C631.737 314.808 627.684 317.87 625.013 321.51C623.462 322.628 621.977 323.826 620.6 325.121C620.082 325.608 620.705 326.38 621.293 325.979C622.196 325.362 623.092 324.742 623.987 324.124C623.998 324.119 624.011 324.116 624.021 324.109C624.214 323.979 624.402 323.842 624.591 323.707C627.911 321.422 631.234 319.195 634.861 317.335C638.876 315.276 643.604 314.208 647.391 311.85C647.795 311.599 647.429 311.064 647.055 311.085C642.323 311.357 637.157 314.353 633.05 316.565C632.622 316.796 632.193 317.034 631.765 317.272C633.335 315.731 634.921 314.213 636.621 312.888C641.101 309.395 646.112 306.856 650.729 303.616C651.283 303.228 650.721 302.425 650.14 302.641Z" fill="#E29334"/>
<path d="M580.374 316.438L591.754 336.033L581.973 342.059L572.648 321.39L580.374 316.438Z" fill="#CE802C"/>
<path d="M563.084 373.931H506.909V379.953H563.084V373.931Z" fill="#1C4651"/>
<path d="M506.909 400.832H505.32C504.469 400.832 503.779 400.142 503.779 399.291V395.858C503.779 395.007 504.469 394.317 505.32 394.317H506.909V400.832Z" fill="white"/>
<path d="M563.187 394.317H564.776C565.627 394.317 566.317 395.007 566.317 395.858V399.291C566.317 400.142 565.627 400.832 564.776 400.832H563.187V394.317Z" fill="white"/>
<path d="M615.112 406.985C613.751 407.797 612.187 408.264 610.543 408.264C607.638 408.264 604.551 406.781 602.175 403.045L603.881 401.948C607.07 406.964 611.233 406.944 614.056 405.238C618.991 402.293 621.387 394.068 616.087 384.685C610.624 374.977 597.443 379.628 584.688 384.157C576.463 387.061 568.685 389.823 563.08 388.645V386.573C568.096 387.853 575.834 385.111 583.998 382.227C596.935 377.658 611.558 372.499 617.853 383.669C623.783 394.19 620.86 403.532 615.112 406.985Z" fill="#FFCD43"/>
<path d="M509.086 239.886L502 250.944L509.453 254.621L512.671 252.635L509.086 239.886Z" fill="#1C4651"/>
<path d="M588.599 225.195L573.207 213.784L569.678 223.849L588.599 225.195Z" fill="#1C4651"/>
<path d="M594.469 223.123L594.623 211.085L588.173 212.62L594.469 223.123Z" fill="#1C4651"/>
<path d="M588.87 233.59L576.164 234.953L577.367 240.916L588.87 233.59Z" fill="#1C4651"/>
<path d="M635.224 245.37C634.89 245.712 620.189 256.873 620.189 256.873C620.189 256.873 620.447 250.106 620.566 246.581C620.6 245.489 620.624 244.709 620.622 244.536C620.605 243.127 619.327 237.041 619.327 237.041L634.214 230.01C634.214 230.01 634.488 233.095 634.76 236.5C635.088 240.608 635.407 245.182 635.224 245.37Z" fill="#FFCD43"/>
<path d="M634.76 236.5C630.639 239.571 621.559 246.291 620.647 246.562C620.62 246.569 620.593 246.576 620.566 246.58C620.6 245.488 620.624 244.708 620.622 244.535C620.605 243.126 619.327 237.04 619.327 237.04L634.214 230.009C634.214 230.009 634.489 233.095 634.76 236.5Z" fill="#EA7C6F"/>
<path d="M636.269 230.503C636.269 230.503 635.904 231.591 634.251 233.094C633.909 233.403 633.522 233.724 633.069 234.063C632.801 234.256 632.204 234.588 631.358 235.012C626.661 237.369 614.586 242.541 612.423 242.283C609.892 241.985 607.396 233.307 607.251 232.396C607.021 230.962 606.693 228.746 606.322 226.245C605.261 219.014 603.91 209.449 603.91 209.449C602.804 187.784 637.825 191.604 639.835 204.45C640.322 207.558 636.269 230.503 636.269 230.503Z" fill="#F3A080"/>
<path d="M634.251 233.094C633.914 233.402 633.519 233.728 633.064 234.065C631.323 235.347 614.965 242.595 612.428 242.288C609.89 241.981 607.396 233.305 607.253 232.391C608.878 236.195 610.725 241.461 612.517 241.27C615.216 240.983 632.268 234.168 634.251 233.094Z" fill="#F8BF92"/>
<path d="M605.705 216.673C605.705 216.673 608.683 212.582 610.392 214.166C612.101 215.75 611.343 215.928 611.343 215.928L605.705 216.673Z" fill="#1D1E1E"/>
<path d="M629.261 212.97C629.261 212.97 623.316 206.862 621.162 209.275C619.904 210.683 620.883 211.538 620.883 211.538L629.261 212.97Z" fill="#1D1E1E"/>
<path d="M624.639 218.469C624.659 220.06 623.871 221.36 622.881 221.372C621.89 221.384 621.071 220.104 621.052 218.513C621.032 216.922 621.82 215.622 622.81 215.61C623.801 215.599 624.62 216.878 624.639 218.469Z" fill="#1D1E1E"/>
<path d="M626.333 216.84C626.333 216.84 625.714 217.837 624.626 218.293C623.538 218.749 622.393 218.491 622.393 218.491C622.393 218.491 623.012 217.494 624.1 217.038C625.188 216.582 626.333 216.84 626.333 216.84Z" fill="#FFEFDF"/>
<path d="M606.893 220.191C606.909 221.508 607.587 222.568 608.407 222.558C609.227 222.548 609.879 221.472 609.863 220.155C609.847 218.838 609.169 217.778 608.349 217.788C607.529 217.797 606.877 218.873 606.893 220.191Z" fill="#1D1E1E"/>
<path d="M605.604 219.049C605.604 219.049 606.134 219.746 606.992 220.081C607.851 220.416 608.713 220.263 608.713 220.263C608.713 220.263 608.183 219.566 607.324 219.231C606.466 218.896 605.604 219.049 605.604 219.049Z" fill="#FFEFDF"/>
<path d="M629.541 223.682C629.824 224.723 628.121 226.093 625.737 226.743C623.353 227.392 621.19 227.074 620.906 226.033C620.623 224.992 622.326 223.622 624.71 222.973C627.095 222.323 629.257 222.641 629.541 223.682Z" fill="#EA7C6F"/>
<path d="M613.819 225.646C615.294 225.961 616.803 226.116 618.311 226.107C617.951 226.985 617.12 227.652 616.185 227.813C615.089 228.002 614.091 227.898 612.98 227.852C613.314 227.262 613.664 226.307 613.819 225.646Z" fill="#EA7C6F"/>
<path d="M612.498 227.664C614.023 224.852 614.475 221.821 614.611 218.66C614.613 218.602 614.702 218.582 614.717 218.644C615.443 221.7 614.787 224.699 613.466 227.48C614.565 227.498 615.632 227.381 616.739 227.364C617.081 227.359 617.106 227.807 616.822 227.923C615.569 228.436 614.179 228.413 612.85 228.258C612.556 228.226 612.34 227.955 612.498 227.664Z" fill="#DD5B67"/>
<path d="M633.859 231.206C637.242 230.898 639.683 228.858 640.982 227.16C641.274 226.777 641.508 226.411 641.683 226.087C642.628 224.321 642.832 218.235 640.324 216.851C638.566 215.883 637.314 217.334 636.722 218.291V218.294C636.47 218.701 636.336 219.018 636.336 219.018L633.859 231.206Z" fill="#F8BF92"/>
<path d="M633.859 231.206C637.242 230.898 639.683 228.858 640.982 227.16C641.094 226.987 641.192 226.822 641.275 226.666C642.22 224.9 642.424 218.814 639.916 217.432C638.493 216.647 637.401 217.45 636.722 218.292V218.295C636.47 218.702 636.336 219.019 636.336 219.019L633.859 231.206Z" fill="#F3A080"/>
<path d="M641.169 221.674C641.3 222.159 641.227 222.667 641.073 223.149C640.418 225.199 638.398 226.782 636.464 228.252C637.04 227.255 637.243 226.134 637.109 225.047C637.063 224.669 636.976 224.293 636.968 223.913C636.935 222.382 640.396 218.807 641.169 221.674Z" fill="#EA7C6F"/>
<path d="M635.491 228.845C635.491 228.845 635.529 228.823 635.601 228.781C635.671 228.737 635.785 228.679 635.913 228.589C636.172 228.411 636.53 228.127 636.865 227.707C637.199 227.289 637.499 226.733 637.637 226.076C637.761 225.422 637.724 224.663 637.365 223.935C637.327 223.843 637.273 223.755 637.22 223.669L637.18 223.604C637.17 223.588 637.176 223.598 637.176 223.598H637.175L637.173 223.597H637.172C637.172 223.597 637.17 223.6 637.177 223.586L637.208 223.527L637.272 223.41C637.316 223.333 637.359 223.256 637.405 223.181C637.586 222.88 637.781 222.596 637.983 222.333C638.185 222.07 638.394 221.827 638.601 221.605C638.81 221.384 639.011 221.177 639.211 221.023C639.411 220.868 639.632 220.766 639.839 220.736C640.047 220.71 640.244 220.755 640.378 220.818C640.513 220.884 640.589 220.969 640.62 221.032C640.654 221.096 640.652 221.135 640.656 221.134C640.656 221.134 640.666 221.097 640.649 221.025C640.635 220.954 640.579 220.847 640.445 220.75C640.311 220.656 640.102 220.567 639.826 220.563C639.551 220.564 639.255 220.66 638.992 220.813C638.726 220.967 638.489 221.158 638.239 221.367C637.991 221.578 637.739 221.816 637.498 222.08C637.257 222.344 637.025 222.634 636.815 222.949C636.762 223.027 636.712 223.108 636.661 223.189L636.588 223.312L636.491 223.486L636.424 223.608C636.442 223.648 636.47 223.688 636.493 223.728L636.594 223.9C636.64 223.975 636.686 224.051 636.719 224.132C637.031 224.763 637.107 225.428 637.058 226.024C636.994 226.622 636.8 227.155 636.561 227.579C636.321 228.003 636.044 228.32 635.836 228.529C635.733 228.634 635.639 228.707 635.582 228.762C635.522 228.817 635.491 228.845 635.491 228.845Z" fill="#B54B57"/>
<path d="M618.824 233.968C617.38 234.643 615.637 234.645 614.192 233.972C614.679 234.726 615.378 235.183 616.276 235.175C617.174 235.167 618.2 234.614 618.824 233.968Z" fill="#B54B57"/>
<path d="M622.299 229.587C622.299 229.587 622.197 229.719 622.018 229.949C621.839 230.186 621.545 230.501 621.146 230.857C620.355 231.57 619.045 232.378 617.422 232.741C615.798 233.097 614.269 232.917 613.251 232.605C612.739 232.451 612.339 232.289 612.077 232.15C611.819 232.017 611.67 231.94 611.67 231.94C611.67 231.94 611.833 231.975 612.117 232.035C612.4 232.104 612.818 232.17 613.327 232.224C614.348 232.337 615.757 232.312 617.255 231.984C618.752 231.649 620.04 231.077 620.918 230.544C621.357 230.28 621.708 230.044 621.935 229.862C622.166 229.688 622.299 229.587 622.299 229.587Z" fill="#B54B57"/>
<path d="M639.83 204.45C639.915 204.973 639.862 206.07 639.731 207.532C639.07 214.681 636.268 230.507 636.268 230.507C636.268 230.507 635.903 231.595 634.25 233.098C633.908 233.407 633.521 233.728 633.068 234.067C632.8 234.26 632.203 234.592 631.357 235.016C628.049 236.68 621.062 239.742 616.481 241.319L616.448 241.328C616.296 241.382 616.142 241.425 616.001 241.475C614.31 242.026 612.998 242.353 612.421 242.287C609.89 241.989 607.394 233.311 607.249 232.4C607.019 230.966 606.691 228.75 606.32 226.249C606.287 226.044 606.094 224.659 606.061 224.454C606.785 224.622 607.544 224.745 608.342 224.834C612.523 225.294 617.415 224.714 621.346 223.15C626.345 221.196 629.782 217.678 628.217 212.797C626.418 207.196 613.885 210.794 604.497 213.558C604.141 211.112 603.908 209.453 603.908 209.453C603.821 207.848 603.937 206.378 604.232 205.036C607.152 191.484 627.678 191.726 636.208 198.71C638.159 200.299 639.48 202.24 639.83 204.45Z" fill="#FFCD43"/>
<path d="M640.259 234.705C640.254 234.73 640.246 234.744 640.246 234.744L642.524 245.728L616.014 254.667C616.014 254.667 620.31 240.33 615.948 241.537L616.002 241.474L627.83 228.668L629.248 223.307L633.073 208.815C633.073 208.815 629.794 201.817 630.497 198.686C630.878 197.012 632.401 196.459 636.21 198.711C636.224 198.719 636.253 198.735 636.266 198.743C649.516 206.633 640.683 233.447 640.259 234.705Z" fill="#FFCD43"/>
<path d="M640.259 234.705C640.432 233.742 643.462 217.318 639.732 207.532C639.188 206.125 638.506 204.863 637.662 203.789C636.007 201.715 633.464 199.957 630.497 198.686C621.072 194.612 607.354 195.257 604.234 205.036C607.154 191.484 627.68 191.726 636.21 198.71C636.224 198.718 636.253 198.734 636.266 198.742C649.516 206.633 640.683 233.447 640.259 234.705Z" fill="#FFD469"/>
<path d="M629.525 235.915C629.525 235.915 626.846 251.671 616.013 254.668C616.013 254.668 620.309 240.331 615.947 241.538C624.98 238.433 629.525 235.915 629.525 235.915Z" fill="#E29334"/>
<path d="M632.002 223.265L643.504 217.141L643.531 215.596L629.514 222.718C628.526 223.22 627.43 223.499 626.322 223.529C624.45 223.58 622.785 223.419 621.346 223.15C618.316 222.597 616.213 221.657 615.01 221.562C613.626 221.457 610.444 223.408 608.343 224.833C607.159 225.624 606.321 226.248 606.321 226.248C605.533 229.89 606.62 242.387 612.566 242.289C612.695 242.291 612.844 242.282 613.022 242.258C613.042 242.256 613.061 242.257 613.082 242.254V242.248C613.773 242.146 614.788 241.869 616.002 241.473L615.948 241.536C616.107 241.468 616.278 241.397 616.449 241.326L616.482 241.317C620.889 239.433 628.275 235.251 630.612 233.911L640.592 233.656L640.852 232.78L633.028 232.733C631.525 232.724 630.186 231.702 629.859 230.235C629.604 229.09 629.571 227.94 629.645 226.91C629.753 225.37 630.638 223.992 632.002 223.265Z" fill="white"/>
<path opacity="0.4" d="M609.171 214.746L610.097 221.33L608.883 224.104L604.542 224.744L603.259 215.618L609.171 214.746Z" fill="#8BCCCA"/>
<path opacity="0.4" d="M618.108 213.333L619.034 219.916L620.963 222.227L628.845 221.167L627.561 212.04L618.108 213.333Z" fill="#8BCCCA"/>
<path d="M631.864 221.519L631.128 216.219V216.201L630.171 209.466L625.883 210.11H625.864L625.239 210.22H625.221L622.276 210.662L620.546 210.92L615.32 211.711L611.4 212.392L605.585 213.238H605.547L604.48 213.404H604.461L602.97 213.625L603.191 215.171L603.265 215.613L604.756 215.392L606.283 215.171L607.148 215.042H607.167L609.173 214.748L609.228 215.171L609.375 216.183L609.78 219.035L610.093 221.335L609.283 223.157L608.879 224.095L606.247 224.5H606.21L606.063 224.518L604.535 224.739L604.848 227.021L604.867 227.113L605.474 227.021L606.21 226.91L606.412 226.873L611.271 226.155L611.749 224.959L612.448 223.156L612.798 222.291L612.779 222.217L612.338 219.033L611.97 216.364L613.737 216.088L615.89 215.757L616.7 221.535L617.086 222.05V222.068L618.54 224.055L619.165 224.902L621.594 224.534L622.275 224.424L629.231 223.356L629.36 223.338L632.065 222.933L631.864 221.519ZM622.277 212.76L625.461 212.318H625.498L627.559 212.042L627.651 212.686L628.276 217.121L628.847 221.17L624.136 221.796L622.278 222.054L620.972 222.22L619.039 219.92L618.119 213.332L622.277 212.76Z" fill="#337789"/>
<path d="M630.177 209.464C636.177 208.58 642.684 208.037 642.684 208.037C642.684 208.037 643.263 210.431 643.382 212.199L632.072 222.938L630.177 209.464Z" fill="#2B6572"/>
<path d="M615.064 257.036L616.813 261.162L639.023 251.356L617.223 259.032L615.064 257.036Z" fill="#E29334"/>
<path d="M533.208 312.102L535.029 317.382L540.309 319.204L535.029 321.025L533.208 326.305L531.387 321.025L526.107 319.204L531.387 317.382L533.208 312.102Z" fill="#FFFEFF"/>
<path d="M551.471 285.628L552.712 289.226L556.309 290.467L552.712 291.707L551.471 295.305L550.23 291.707L546.633 290.467L550.23 289.226L551.471 285.628Z" fill="#FFFEFF"/>
<path d="M722.35 410.367C718.651 410.901 712.357 405.196 708.934 401.755C707.388 400.191 705.18 399.473 703.009 399.823L686.447 402.786L681.736 403.614L676.73 404.516L672.7 377.538L677.798 377.004L682.564 376.489L714.603 373.103L722.35 410.367Z" fill="#1C4651"/>
<path d="M714.602 373.097L718.735 372.559L726.448 409.727L722.357 410.37L714.602 373.097Z" fill="#FFCD43"/>
<path d="M686.447 402.785L681.736 403.613L677.797 377.003L682.563 376.488L686.447 402.785Z" fill="white"/>
<path opacity="0.19" d="M1060.78 405.84H663.835V263.607H701.892V324.942H792.948V205.031H903.29V80.372H959.878V250.964H971.95V114.141V114.122V80.685L1023.88 114.122H1023.9V244.339H1036.52V203.044H1060.78V405.84Z" fill="#78ADD9"/>
<path opacity="0.5" d="M1060.78 166.699V189.058H695.58C695.58 189.058 690.703 141.138 727.711 152.308C727.711 152.308 727.527 142.591 729.827 130.519C735.348 101.369 755.296 58.399 826.901 104.829C826.901 104.829 854.854 90.236 863.136 115.503C863.173 115.576 863.192 115.668 863.21 115.742C863.781 117.49 864.241 119.441 864.608 121.594C864.608 121.594 867.461 120.122 871.289 119.754C874.013 119.496 877.196 119.791 880.25 121.521C884.042 123.637 887.611 127.999 889.746 136.28C889.746 136.28 882.771 72 957.505 72C1014.77 72 1007.78 130.52 1007.78 130.52C1007.78 130.52 1031.54 129.269 1031.54 148.831C1031.54 148.831 1058.77 143.513 1058.77 166.295L1060.78 166.699Z" fill="white"/>
<path d="M1060.77 410.863H551V408.313C551 406.637 552.359 405.278 554.035 405.278H1060.77V410.863Z" fill="white"/>
<path d="M688.134 283.903H680.487V405.091H688.134V283.903Z" fill="#225161"/>
<path d="M885.626 283.903H877.979V405.091H885.626V283.903Z" fill="#225161"/>
<path d="M896.913 283.903H669.199V295.842H896.913V283.903Z" fill="#337789"/>
<path d="M896.913 299.415H669.199V311.354H896.913V299.415Z" fill="#337789"/>
<path d="M896.913 314.925H669.199V326.864H896.913V314.925Z" fill="#337789"/>
<path d="M896.913 330.437H669.199V342.376H896.913V330.437Z" fill="#337789"/>
<path d="M904.671 345.952C904.671 346.945 904.547 347.906 904.314 348.837C903.787 350.978 902.686 352.885 901.166 354.39C899.01 356.546 896.016 357.88 892.728 357.88H673.386C667.786 357.88 663.086 354.033 661.799 348.837C661.566 347.907 661.442 346.945 661.442 345.952H904.671Z" fill="#337789"/>
<path d="M904.671 345.952C904.671 346.945 904.547 347.906 904.314 348.837H661.8C661.567 347.907 661.443 346.945 661.443 345.952H904.671Z" fill="#469BAF"/>
<path d="M1005.55 283.903H997.9V405.091H1005.55V283.903Z" fill="#225161"/>
<path d="M1060.78 283.905H986.617V295.848H1060.78V283.905Z" fill="#337789"/>
<path d="M1060.78 299.418H986.617V311.361H1060.78V299.418Z" fill="#337789"/>
<path d="M1060.78 314.931H986.617V326.856H1060.78V314.931Z" fill="#337789"/>
<path d="M1060.78 330.445H986.617V342.37H1060.78V330.445Z" fill="#337789"/>
<path d="M1060.78 345.958V357.883H990.794C988.954 357.883 987.205 357.46 985.642 356.705C982.476 355.196 980.083 352.325 979.219 348.829C978.98 347.909 978.851 346.952 978.851 345.958H1060.78Z" fill="#337789"/>
<path d="M1060.78 345.958V348.829H979.219C978.98 347.909 978.851 346.952 978.851 345.958H1060.78Z" fill="#469BAF"/>
<path d="M764.237 220.682C764.237 224.948 766.451 228.881 769.964 231.116C771.211 231.922 772.618 232.502 774.155 232.814C777.615 233.512 781.032 232.706 783.707 230.837C786.232 229.075 788.113 226.388 788.768 223.143L791.186 211.258L792.841 203.167L796.044 187.436C796.216 186.598 796.291 185.77 796.291 184.954C796.291 179.184 792.24 174.015 786.373 172.822C779.667 171.457 773.124 175.788 771.759 182.493L764.484 218.2C764.312 219.038 764.237 219.865 764.237 220.682Z" fill="white"/>
<path d="M769.953 231.105L769.963 231.116C771.21 231.922 772.617 232.502 774.154 232.814C777.614 233.512 781.031 232.706 783.706 230.837L791.185 211.259L793.151 206.123L792.839 203.168L790.035 176.852C778.309 179.252 777.581 192.358 775.389 202.458C773.198 212.569 769.953 231.105 769.953 231.105Z" fill="#E5E5E5"/>
<path d="M774.123 223.132C772.647 233.51 779.88 243.128 790.272 244.505C791.332 244.646 792.411 244.782 793.496 244.913V244.924C795.161 245.117 796.838 245.311 798.503 245.461C806.928 246.288 814.804 246.471 817.168 244.709C819.758 242.775 818.425 226.904 816.201 210.194C813.547 190.24 809.636 169.093 809.636 169.093L797.708 172.843C789.681 175.357 783.492 181.794 781.31 189.918C779.204 197.751 776.679 208.046 774.981 217.781L774.97 217.792C774.657 219.598 774.372 221.385 774.123 223.132Z" fill="#225161"/>
<path d="M793.497 244.913V244.924C803.608 246.138 814.343 246.815 817.169 244.709C819.759 242.775 818.426 226.904 816.202 210.194L799.009 204.488C799.009 204.488 791.477 233.888 793.497 244.913Z" fill="#1C4651"/>
<path d="M866.89 217.649L881.486 226.451L870.479 243.403L866.89 217.649Z" fill="#E29334"/>
<path d="M815.521 148.866C796.798 150.617 782.418 194.206 781.369 201.845C780.321 209.484 807.282 227.415 822.411 229.234C837.54 231.054 815.521 148.866 815.521 148.866Z" fill="#FFCD43"/>
<path d="M818.412 404.284L781.022 378.431L783.421 375.085L820.811 400.938L818.412 404.284Z" fill="#FFCD43"/>
<path d="M855.12 321.75L834.526 301.85L793.568 364.328L815.602 379.6L855.12 321.75Z" fill="#E29334"/>
<path d="M865.143 248.488H836.928C838.376 263.694 840.578 291.186 838.18 296.924C838.108 297.097 837.561 298.009 836.664 299.463L859.748 319.899C859.748 319.899 868.007 306.375 869.004 301.271C871.54 288.286 865.207 251.054 865.143 248.488Z" fill="#E29334"/>
<path d="M810.377 250.044C810.377 250.044 835.165 311.476 841.199 325.98L848.641 387.532L872.299 382.617L871.716 375.573L866.764 315.502L845.457 249.886L817.55 250.016L810.377 250.044Z" fill="#FFCD43"/>
<path d="M893.162 399.83L848.951 405.106L848.44 401.046L892.65 395.77L893.162 399.83Z" fill="#FFCD43"/>
<path d="M810.377 250.044C810.377 250.044 835.165 311.476 841.199 325.98L848.641 387.532L872.299 382.617L871.716 375.573L853.13 377.489C853.13 377.489 847.021 327.534 845.633 322.212C844.365 317.362 821.577 260.132 817.55 250.015L810.377 250.044Z" fill="#E29334"/>
<path d="M859.132 116.825L870.191 102.662L875.898 110.877L859.132 116.825Z" fill="#1C4651"/>
<path d="M853.308 116.42L850.159 105.578L856.373 105.353L853.308 116.42Z" fill="#1C4651"/>
<path d="M860.987 124.482L872.813 122.536L873.216 128.227L860.987 124.482Z" fill="#1C4651"/>
<path d="M810.378 252.317L865.051 249.932C868.436 249.792 870.961 246.762 870.477 243.399C868.188 227.528 864.105 198.279 862.966 184.589C860.925 170.115 851.608 151.987 841.722 150.322C840.572 150.129 839.799 149.892 839.326 149.634L839.165 149.602L827.957 147.496L822.004 148.151L815.525 148.871L813.354 188.006L810.378 252.317Z" fill="#FFCD43"/>
<path d="M803.773 191.484C808.434 195.187 813.763 197.948 818.493 201.601C823.544 205.501 827.712 210.275 832.378 214.606C833 215.184 833.687 214.26 833.244 213.647C826.15 203.822 815.248 195.03 804.388 190.204C803.583 189.846 803.1 190.95 803.773 191.484Z" fill="#E29334"/>
<path d="M819.541 145.756C819.019 145.956 817.165 148.739 817.165 148.739C817.165 148.739 828.117 161.311 831.79 161.966L838.634 156.327L846.741 158.861C846.741 158.861 843.677 152.405 841.724 150.315C841.724 150.315 837.673 146.641 835.406 146.455C833.139 146.269 823.248 144.335 819.541 145.756Z" fill="#FFCD43"/>
<path d="M822.033 146.72C822.42 146.946 838.499 153.357 838.499 153.357C838.499 153.357 836.574 147.305 835.585 144.148C835.281 143.17 835.064 142.47 835.023 142.314C834.686 141.037 834.319 135.216 834.319 135.216L819.104 132.583C819.104 132.583 819.627 135.44 820.234 138.586C820.966 142.382 821.82 146.596 822.033 146.72Z" fill="#FFCD43"/>
<path d="M820.235 138.587C824.728 140.332 834.616 144.136 835.508 144.153C835.534 144.153 835.56 144.152 835.586 144.149C835.282 143.171 835.065 142.471 835.024 142.315C834.687 141.038 834.32 135.217 834.32 135.217L819.105 132.584C819.105 132.584 819.628 135.441 820.235 138.587Z" fill="#EA7C6F"/>
<path d="M817.371 133.543C817.371 133.543 817.973 134.435 819.842 135.38C820.229 135.574 820.659 135.767 821.153 135.96C821.443 136.067 822.066 136.218 822.937 136.39C827.773 137.346 839.979 139.001 841.87 138.227C844.084 137.324 844.169 128.857 844.073 127.997C843.922 126.643 843.665 124.558 843.374 122.205C842.525 115.403 841.354 106.42 841.354 106.42C836.937 86.56 806.236 98.771 807.632 110.885C807.97 113.817 817.371 133.543 817.371 133.543Z" fill="#F3A080"/>
<path d="M819.843 135.38C820.225 135.574 820.663 135.77 821.159 135.96C823.053 136.683 839.651 139.145 841.868 138.233C844.085 137.321 844.17 128.855 844.071 127.993C843.554 131.838 843.2 137.059 841.533 137.335C839.021 137.752 821.904 135.856 819.843 135.38Z" fill="#F8BF92"/>
<path d="M841.539 113.4C841.539 113.4 837.824 110.447 836.676 112.306C835.527 114.165 836.257 114.136 836.257 114.136L841.539 113.4Z" fill="#1D1E1E"/>
<path d="M819.321 115.944C819.321 115.944 823.167 108.937 825.718 110.579C827.207 111.537 826.536 112.554 826.536 112.554L819.321 115.944Z" fill="#1D1E1E"/>
<path d="M824.874 119.758C825.254 121.201 826.291 122.179 827.189 121.942C828.088 121.705 828.508 120.344 828.128 118.901C827.748 117.458 826.711 116.48 825.813 116.717C824.914 116.954 824.494 118.315 824.874 119.758Z" fill="#1D1E1E"/>
<path d="M822.936 118.709C822.936 118.709 823.745 119.456 824.842 119.596C825.939 119.736 826.91 119.216 826.91 119.216C826.91 119.216 826.101 118.469 825.004 118.329C823.906 118.19 822.936 118.709 822.936 118.709Z" fill="#FFEFDF"/>
<path d="M841.345 116.876C841.66 118.071 841.312 119.198 840.568 119.394C839.824 119.59 838.966 118.78 838.651 117.586C838.336 116.391 838.684 115.264 839.428 115.068C840.172 114.872 841.03 115.682 841.345 116.876Z" fill="#1D1E1E"/>
<path d="M842.225 115.522C842.225 115.522 841.92 116.284 841.228 116.802C840.536 117.32 839.718 117.397 839.718 117.397C839.718 117.397 840.023 116.634 840.715 116.117C841.407 115.599 842.225 115.522 842.225 115.522Z" fill="#FFEFDF"/>
<path d="M821.747 125.696C821.751 126.708 823.633 127.521 825.951 127.511C828.269 127.501 830.144 126.674 830.14 125.661C830.136 124.649 828.254 123.836 825.936 123.846C823.618 123.855 821.743 124.684 821.747 125.696Z" fill="#EA7C6F"/>
<path d="M836.449 123.54C835.195 124.194 833.87 124.711 832.504 125.08C833.049 125.783 833.967 126.179 834.852 126.09C835.89 125.987 836.766 125.643 837.759 125.324C837.31 124.874 836.754 124.098 836.449 123.54Z" fill="#EA7C6F"/>
<path d="M838.148 125.033C836.066 122.873 834.9 120.246 833.987 117.423C833.97 117.371 833.886 117.375 833.887 117.435C833.995 120.379 835.337 122.926 837.227 125.109C836.238 125.4 835.244 125.562 834.24 125.823C833.929 125.904 834.019 126.315 834.305 126.349C835.566 126.499 836.816 126.131 837.979 125.659C838.235 125.555 838.363 125.257 838.148 125.033Z" fill="#DD5B67"/>
<path d="M819.725 133.577C816.59 134.145 813.874 132.911 812.275 131.701C811.915 131.428 811.612 131.156 811.373 130.906C810.077 129.546 808.371 124.096 810.292 122.218C811.639 120.904 813.133 121.902 813.908 122.619L813.909 122.622C814.239 122.927 814.439 123.18 814.439 123.18L819.725 133.577Z" fill="#F8BF92"/>
<path d="M819.725 133.577C816.59 134.145 813.874 132.911 812.275 131.701C812.13 131.573 812.001 131.448 811.887 131.328C810.591 129.968 808.885 124.518 810.806 122.642C811.896 121.576 813.084 122.029 813.908 122.621L813.909 122.624C814.239 122.929 814.439 123.182 814.439 123.182L819.725 133.577Z" fill="#F3A080"/>
<path d="M810.734 126.788C810.737 127.259 810.93 127.7 811.19 128.097C812.295 129.786 814.516 130.712 816.632 131.557C815.862 130.8 815.398 129.838 815.247 128.821C815.194 128.467 815.178 128.106 815.091 127.761C814.739 126.37 810.716 124.004 810.734 126.788Z" fill="#EA7C6F"/>
<path d="M817.66 131.85C817.66 131.85 817.62 131.839 817.544 131.819C817.47 131.797 817.353 131.773 817.214 131.724C816.935 131.628 816.541 131.46 816.133 131.165C815.727 130.871 815.316 130.443 815.027 129.884C814.752 129.324 814.595 128.628 814.738 127.88C814.75 127.787 814.776 127.695 814.803 127.603L814.823 127.535C814.828 127.518 814.825 127.529 814.825 127.529H814.826L814.827 127.528C814.827 127.528 814.83 127.53 814.82 127.52L814.777 127.474L814.689 127.384C814.63 127.325 814.572 127.267 814.511 127.211C814.272 126.984 814.025 126.777 813.777 126.589C813.529 126.401 813.279 126.234 813.036 126.085C812.792 125.938 812.559 125.801 812.339 125.712C812.119 125.621 811.894 125.585 811.7 125.61C811.505 125.639 811.338 125.728 811.234 125.819C811.128 125.912 811.081 126.008 811.069 126.073C811.054 126.139 811.065 126.174 811.062 126.174C811.062 126.174 811.044 126.143 811.041 126.074C811.036 126.006 811.06 125.896 811.157 125.774C811.254 125.655 811.421 125.523 811.67 125.451C811.919 125.383 812.21 125.396 812.486 125.468C812.765 125.54 813.027 125.654 813.305 125.781C813.582 125.91 813.869 126.062 814.153 126.24C814.437 126.419 814.719 126.623 814.988 126.854C815.056 126.911 815.121 126.972 815.187 127.032L815.284 127.125L815.415 127.258L815.507 127.352C815.5 127.393 815.485 127.436 815.475 127.478L815.426 127.659C815.404 127.738 815.381 127.818 815.371 127.899C815.246 128.548 815.344 129.167 815.538 129.694C815.745 130.219 816.054 130.652 816.376 130.975C816.699 131.298 817.029 131.516 817.269 131.653C817.388 131.723 817.492 131.765 817.557 131.8C817.624 131.832 817.66 131.85 817.66 131.85Z" fill="#B54B57"/>
<path d="M834.006 132.313C835.48 132.562 837.056 132.128 838.194 131.159C837.942 131.963 837.425 132.55 836.611 132.767C835.797 132.984 834.732 132.741 834.006 132.313Z" fill="#B54B57"/>
<path d="M829.769 129.223C829.769 129.223 829.894 129.317 830.113 129.48C830.334 129.649 830.678 129.861 831.128 130.082C832.022 130.528 833.407 130.931 834.965 130.853C836.522 130.769 837.859 130.224 838.701 129.687C839.125 129.42 839.446 129.173 839.649 128.982C839.849 128.797 839.965 128.691 839.965 128.691C839.965 128.691 839.826 128.763 839.585 128.889C839.347 129.022 838.986 129.186 838.539 129.363C837.644 129.721 836.365 130.05 834.928 130.128C833.491 130.199 832.184 130.005 831.257 129.742C830.794 129.613 830.418 129.487 830.167 129.379C829.915 129.28 829.769 129.223 829.769 129.223Z" fill="#B54B57"/>
<path d="M868.626 231.162C862.373 233.253 854.88 233.485 848.343 233.531C843.403 233.565 837.571 233.752 832.559 232.427C830.366 232.547 828.175 232.547 826.01 232.384C825.195 232.323 825.196 231.183 826.01 231.118C827.263 231.018 828.51 230.926 829.756 230.832C829.77 230.829 829.783 230.822 829.798 230.821C830.064 230.798 830.331 230.784 830.598 230.769C835.213 230.416 839.789 230.009 844.373 229.054C849.447 227.998 854.442 225.541 859.528 224.917C860.07 224.851 860.129 225.592 859.779 225.843C855.354 229.014 848.576 230.062 843.309 231.049C842.76 231.152 842.205 231.248 841.651 231.344C844.166 231.588 846.678 231.801 849.154 231.759C855.677 231.649 861.987 230.303 868.451 229.867C869.225 229.812 869.302 230.935 868.626 231.162Z" fill="#E29334"/>
<path d="M848.641 387.533L844.893 356.532L869.867 353.149L872.299 382.619C872.621 384.93 873.013 387.143 875.239 388.554C878.105 390.372 888.293 393.057 891.087 393.972C892.044 394.286 892.465 395.076 892.65 395.772L848.506 401.048C848.465 399.416 848.32 392.467 848.666 387.53L848.641 387.533Z" fill="#1C4651"/>
<path d="M793.643 364.38L793.567 364.328L808.54 341.488L831.177 356.799L815.601 379.6C814.123 381.805 813.836 381.868 814.52 384.38C815.4 387.616 819.439 396.056 820.884 398.575C821.379 399.438 821.15 400.301 820.811 400.938L783.421 375.08C784.595 373.745 789.924 367.73 793.643 364.38Z" fill="#1C4651"/>
<path d="M870.438 360.067L845.703 363.228L846.362 368.516L870.852 365.092L870.438 360.067Z" fill="white"/>
<path d="M827.499 362.185L805.156 346.861L802.124 351.276L824.344 366.803L827.499 362.185Z" fill="white"/>
<path d="M815.928 180.478C813.807 182.785 812.214 185.641 810.121 187.998C807.886 190.515 805.163 192.363 802.687 194.581C802.357 194.877 802.874 195.433 803.223 195.253C808.818 192.358 813.853 186.981 816.647 181.043C816.854 180.603 816.234 180.145 815.928 180.478Z" fill="#E29334"/>
<path d="M801.556 225.872L971.066 257.12L971.754 253.316L816.127 224.583L814.44 227.248C814.44 227.248 807.913 224.757 803.107 222.117L802.244 222.08L801.556 225.872Z" fill="white"/>
<path d="M825.508 219.855C825.487 220.865 826.335 222.649 826.346 223.68C826.346 223.927 826.357 224.174 826.357 224.411C826.389 226.238 826.485 227.753 826.701 228.065C827.26 228.871 832.59 231.536 833.578 232.03L833.739 232.105L834.9 237.166C835.115 237.263 835.416 237.295 835.792 237.263C836.125 237.231 836.523 237.166 836.941 237.059C837.027 237.038 837.113 237.016 837.188 236.995C838.037 236.78 838.993 236.447 839.874 236.103C840.068 236.028 840.25 235.963 840.433 235.888C841.916 235.297 843.087 234.749 843.087 234.749L843.033 228.087L840.82 224.09L843.764 223.381C843.764 223.381 849.889 232.375 851.082 231.343C852.275 230.322 849.051 225.422 846.934 222.231C846.622 221.769 846.15 221.328 845.569 220.909C844.204 219.92 842.227 219.082 840.357 218.416C839.831 218.233 839.326 218.072 838.831 217.911C837.843 217.599 830.138 217.932 830.138 217.932L825.508 219.855Z" fill="#1C4651"/>
<path d="M837.189 236.994C837.108 237.019 837.024 237.038 836.945 237.061C836.924 236.846 836.901 236.564 836.869 236.224C836.795 235.454 836.679 234.415 836.531 233.294C836.375 232.175 836.166 231.175 835.925 230.441C835.862 230.257 835.805 230.09 835.755 229.941C835.691 229.798 835.639 229.673 835.592 229.571C835.506 229.362 835.455 229.241 835.455 229.241C835.455 229.241 835.555 229.325 835.729 229.489C835.816 229.569 835.924 229.672 836.044 229.792C836.151 229.922 836.27 230.07 836.401 230.243C836.909 230.924 837.425 232.014 837.596 233.243C837.757 234.47 837.6 235.554 837.406 236.302C837.332 236.582 837.256 236.812 837.189 236.994Z" fill="#173B44"/>
<path d="M840.437 235.882C840.254 235.957 840.065 236.029 839.874 236.103C839.866 236.06 839.863 236.013 839.859 235.968C839.785 235.198 839.669 234.159 839.52 233.041C839.365 231.919 839.156 230.919 838.915 230.185C838.852 230.001 838.797 229.836 838.746 229.69C838.683 229.544 838.627 229.42 838.585 229.318C838.496 229.107 838.447 228.991 838.447 228.991C838.447 228.991 838.544 229.073 838.72 229.235C838.805 229.317 838.914 229.418 839.033 229.541C839.141 229.669 839.262 229.821 839.391 229.989C839.9 230.674 840.416 231.765 840.585 232.992C840.737 234.13 840.612 235.147 840.437 235.882Z" fill="#173B44"/>
<path d="M826.357 224.411C826.389 226.238 826.485 227.753 826.701 228.065C827.26 228.871 832.59 231.536 833.578 232.03L833.739 232.105C833.237 229.862 831.865 227.91 829.924 226.677L826.357 224.411Z" fill="#173B44"/>
<path d="M827.471 206.728L814.44 227.244L824.019 231.106L835 213.631L827.471 206.728Z" fill="#E29334"/>
<path d="M875.739 235.361C876.384 235.834 877.007 236.274 877.415 236.629C879.725 238.606 881.842 239.745 882.766 239.767C884.485 239.832 891.653 242.518 891.524 241.733C891.405 240.938 890.686 239.401 889.461 239.014C888.236 238.606 883.648 236.94 883.25 235.393C882.842 233.846 890.756 234.225 892.314 235.181C893.679 236.041 896.968 239.007 898.167 239.635C901.168 241.207 904.211 240.634 904.049 240.462C902.459 238.882 888.89 228.332 888.89 228.332C888.89 228.332 887.59 228.149 885.742 227.849C884.409 227.634 882.797 227.365 881.186 227.065L881.014 227.226L875.739 235.361Z" fill="#1C4651"/>
<path d="M834.996 184.749L837.66 207.991H865.621L864.298 196.311L862.988 184.749H834.996Z" fill="#E29334"/>
<path d="M834.996 184.749C837.112 195.226 848.717 196.365 864.191 196.365L864.298 196.311L862.987 184.749H834.996Z" fill="#FFD671"/>
<path d="M971.754 253.316L985.216 251.774L971.754 261.723L971.066 257.12L971.754 253.316Z" fill="#444444"/>
<path d="M781.422 220.316C781.422 221.719 782.559 222.856 783.962 222.856C785.365 222.856 786.502 221.719 786.502 220.316C786.502 218.913 785.365 217.776 783.962 217.776C782.559 217.777 781.422 218.914 781.422 220.316Z" fill="white"/>
<path d="M807.638 110.885C807.692 111.379 808.014 112.357 808.498 113.647C810.883 119.944 817.374 133.548 817.374 133.548C817.374 133.548 817.976 134.44 819.846 135.385C820.233 135.578 820.662 135.772 821.157 135.965C821.447 136.072 822.071 136.223 822.941 136.395C826.347 137.072 833.428 138.093 837.963 138.372H837.995C838.146 138.383 838.296 138.383 838.436 138.393C840.102 138.468 841.37 138.436 841.875 138.232C844.089 137.329 844.174 128.862 844.078 128.002C843.927 126.648 843.67 124.563 843.38 122.21C843.359 122.017 843.186 120.716 843.165 120.523C842.553 120.856 841.897 121.157 841.199 121.436C837.535 122.897 832.968 123.596 829.024 123.166C824.017 122.65 820.03 120.329 820.224 115.526C820.45 110.014 832.678 110.132 841.855 110.282C841.565 107.982 841.361 106.424 841.361 106.424C841.038 104.952 840.566 103.652 839.964 102.513C833.936 90.994 815.443 96.345 809.48 104.791C808.11 106.715 807.401 108.8 807.638 110.885Z" fill="#FFCD43"/>
<path d="M814.816 138.339C814.827 138.36 814.838 138.371 814.838 138.371L815.526 148.869L841.723 150.32C841.723 150.32 834.255 138.436 838.499 138.436L838.434 138.393L824.54 129.775L821.918 125.283L814.837 113.14C814.837 113.14 816.051 105.994 814.633 103.34C813.87 101.921 812.355 101.803 809.475 104.791C809.464 104.802 809.442 104.823 809.432 104.834C799.428 115.279 814.117 137.308 814.816 138.339Z" fill="#FFCD43"/>
<path d="M814.816 138.339C814.418 137.512 807.573 123.424 808.498 113.646C808.638 112.238 808.939 110.927 809.433 109.745C810.411 107.456 812.27 105.232 814.634 103.341C822.134 97.302 834.696 94.454 839.961 102.514C833.933 90.995 815.44 96.346 809.477 104.792C809.466 104.803 809.444 104.824 809.434 104.835C799.428 115.279 814.117 137.308 814.816 138.339Z" fill="#FFD469"/>
<path d="M824.82 136.749C824.82 136.749 831.181 150.32 841.723 150.32C841.723 150.32 834.255 138.436 838.499 138.436C829.558 137.888 824.82 136.749 824.82 136.749Z" fill="#E29334"/>
<path d="M819.418 125.935L807.49 123.276L807.079 121.886L821.53 124.819C822.549 125.026 823.609 125.004 824.618 124.754C826.323 124.333 827.787 123.77 829.021 123.167C831.622 121.91 833.287 120.534 834.351 120.147C835.576 119.706 838.939 120.674 841.195 121.437C842.463 121.856 843.377 122.211 843.377 122.211C845 125.306 847.142 136.874 841.744 138.272C841.627 138.306 841.491 138.336 841.324 138.358C841.305 138.361 841.288 138.367 841.269 138.369L841.268 138.364C840.617 138.445 839.632 138.448 838.435 138.394L838.5 138.437C838.339 138.416 838.167 138.394 837.995 138.373H837.963C833.508 137.773 825.786 135.839 823.339 135.212L814.254 137.477L813.8 136.75L820.86 134.751C822.216 134.367 823.171 133.108 823.1 131.701C823.044 130.602 822.786 129.555 822.462 128.641C821.977 127.274 820.833 126.25 819.418 125.935Z" fill="white"/>
<path d="M822.1 173.198C820.922 173.613 820.651 159.615 818.577 154.842C818.27 154.137 818.521 153.286 819.06 153.213C819.666 153.131 820.262 153.758 820.418 154.644C821.237 159.305 823.467 172.716 822.1 173.198Z" fill="#E29334"/>
<path opacity="0.4" d="M837.925 112.525L838.734 118.707L840.525 120.911L844.609 120.405L843.487 111.835L837.925 112.525Z" fill="#8BCCCA"/>
<path opacity="0.4" d="M829.493 113.482L830.303 119.665L829.137 122.236L821.747 123.248L820.625 114.678L829.493 113.482Z" fill="#8BCCCA"/>
<path d="M844.618 120.407L843.189 120.579H843.169L843.017 120.598L840.522 120.903L838.732 118.713L838.103 113.875L837.931 112.523L839.798 112.294L842.084 112.008L843.494 111.836L843.246 109.969L841.837 110.141L840.999 110.274H840.885L835.323 110.96L831.609 111.322L826.676 111.913L822.295 112.446H822.276L821.685 112.503L817.609 112.998L818.428 119.321L819.095 124.33L819.266 125.663L821.818 125.358L821.952 125.339L829.095 124.482H829.114L831.419 124.196L831.781 123.263L832.6 121.13V121.111L832.809 120.559L832.104 115.111L835.8 114.692L836.524 120.158L836.543 120.253L838.162 122.405L838.886 123.357L843.457 122.785L843.629 122.766L844.905 122.614L844.618 120.407ZM822.6 114.407H822.62L829.476 113.474L830.295 119.664L829.133 122.235L826.162 122.635H826.142L821.742 123.244L821.247 119.454L820.695 115.302L820.619 114.673L822.6 114.407Z" fill="#337789"/>
<path d="M980.338 403.989H920.822C919.263 403.989 918 402.725 918 401.167V396.424C918 394.865 919.264 393.602 920.822 393.602H980.338C981.897 393.602 983.16 394.866 983.16 396.424V401.167C983.161 402.725 981.897 403.989 980.338 403.989Z" fill="#DD745A"/>
<path d="M975.611 393.598H925.55L928.037 385.401L934.835 362.945L937.322 354.74L944.129 332.284L950.576 311L957.023 332.284L963.83 354.74L966.317 362.945L973.124 385.401L975.611 393.598Z" fill="#C35535"/>
<path d="M963.83 354.74H937.322L944.129 332.284H957.023L963.83 354.74Z" fill="white"/>
<path d="M973.124 385.401H928.037L934.835 362.945H966.317L973.124 385.401Z" fill="white"/>
<path opacity="0.4" d="M950.576 332.284V354.74H937.322L944.129 332.284H950.576Z" fill="#B9B9B9"/>
<path opacity="0.4" d="M934.835 362.945H950.576V385.401H928.037L934.835 362.945Z" fill="#B9B9B9"/>
<rect x="352" y="26" width="115" height="115" rx="57.5" fill="white"/>
</g>
<defs>
<clipPath id="clip0_1_2">
<rect width="1059" height="434" fill="white"/>
</clipPath>
</defs>
</svg>
