<svg width="60" height="58" viewBox="0 0 60 58" fill="none" xmlns="http://www.w3.org/2000/svg">
<g filter="url(#filter0_i_2687_3638)">
<rect x="0.5" width="58.9115" height="58" rx="29" fill="url(#paint0_radial_2687_3638)"/>
</g>
<path d="M55.3846 19.8727C55.2206 19.8763 51.331 19.9817 48.0025 21.4318C44.8032 22.8263 43.3899 22.8513 42.2231 22.7571C42.1635 22.753 42.1058 22.7688 42.0529 22.7922C41.8313 22.6267 41.5905 22.4776 41.3294 22.3421C44.9683 17.191 49.2134 14.6305 49.257 14.6051C49.4303 14.5017 49.4853 14.2812 49.3805 14.1112C49.2762 13.9411 49.0504 13.8866 48.877 13.9895C48.6954 14.0969 44.3953 16.6834 40.6443 22.0443C40.4984 21.9913 40.3572 21.9317 40.2031 21.8895C38.0071 21.2846 35.8775 22.0163 35.4467 23.5223C35.3211 23.9617 35.358 24.4189 35.5215 24.8609C34.6713 24.2143 33.2684 23.8996 31.7222 24.0681C31.5857 23.6654 31.4461 23.2443 31.2992 22.7978C31.0786 22.1257 30.9707 21.7978 30.9167 21.6772C30.8747 21.5814 30.844 21.4883 30.8165 21.4058C30.7402 21.1751 30.6437 20.889 30.3333 20.8488C29.9965 20.8101 29.739 21.1334 29.4255 21.6069C28.9569 22.3126 28.675 23.9974 28.5276 25.1862C28.1653 25.4322 27.8581 25.7051 27.6178 25.9963L24.8701 22.8793L24.7855 22.809C24.4206 22.5885 24.0988 22.5407 23.831 22.6629C23.5606 22.7861 23.4583 23.0381 23.4225 23.1695L20.8954 27.5395C19.7447 26.6887 19.0155 26.256 18.7264 26.256C18.5208 26.256 18.0926 26.256 10.0659 36.0592C10.0524 36.0826 8.67129 38.3789 5.01009 38.0377C4.80715 38.026 4.63069 38.1645 4.61096 38.3626C4.59228 38.5606 4.74072 38.7358 4.94262 38.7546C5.22082 38.7801 5.4876 38.7918 5.74296 38.7918C9.27596 38.7918 10.6405 36.523 10.6701 36.4639C13.4271 33.0984 17.9374 27.7142 18.7819 27.0054C19.0715 27.1363 19.7629 27.6098 20.5279 28.175L19.8262 29.3878C17.8487 31.096 16.426 33.5256 16.3908 35.329L16.0342 35.9451C16.03 35.9563 15.6169 37.1101 13.5792 36.6722C13.3814 36.6314 13.1863 36.7521 13.1422 36.9461C13.0986 37.1401 13.2242 37.332 13.4219 37.3748C13.7993 37.4563 14.1361 37.4914 14.4366 37.4914C15.7669 37.4914 16.3664 36.8041 16.5895 36.4466C16.6544 36.5922 16.7302 36.7307 16.8278 36.856C18.2084 38.6273 22.455 37.551 25.4109 35.3367C26.8174 34.2822 27.8373 32.9976 28.3776 31.7492C28.8323 34.0694 29.3835 37.7022 29.82 41.1385L29.8589 41.2612C30.1075 41.7265 30.9629 43.2687 31.5203 43.5671C31.5769 43.5982 31.6376 43.6119 31.6968 43.6119C31.8255 43.6119 31.9527 43.5442 32.0181 43.424C32.1156 43.2499 32.0492 43.0315 31.8722 42.9368C31.6345 42.8095 30.9997 41.8365 30.5389 40.9847C30.1947 38.2801 29.4608 32.8754 28.7887 30.2599C28.8172 29.9972 28.8172 29.7426 28.7913 29.4967C29.2397 29.6647 29.7536 29.7747 30.3079 29.818C30.392 29.8562 30.4844 29.8597 30.571 29.8322C31.0153 29.8506 31.4809 29.8256 31.9594 29.7559C32.8708 31.6341 34.4689 34.9706 34.785 35.9023C34.827 36.0256 34.8623 36.1406 34.8966 36.2491C35.2537 37.4074 35.6331 37.8056 37.8478 37.8056C38.2562 37.8056 38.7285 37.7923 39.2756 37.7663C39.478 37.7577 39.6337 37.5897 39.6254 37.3911C39.615 37.1925 39.4297 37.0189 39.2419 37.049C35.9585 37.1976 35.8796 36.9537 35.5988 36.0408C35.5641 35.9273 35.5251 35.8056 35.482 35.6753C35.1587 34.7262 33.6312 31.5298 32.7027 29.6143C32.8397 29.5807 32.9731 29.5425 33.1065 29.5023C33.3447 29.8964 33.5544 30.1265 33.7485 30.2126C33.8269 30.2462 33.9078 30.2645 33.9873 30.2645C34.061 30.2645 34.1331 30.2492 34.1995 30.2202C34.4798 30.1001 34.636 30.041 34.7196 30.012C34.8301 30.0288 34.9443 29.9992 35.0305 29.9188L35.2661 29.6887L35.0954 29.4356C34.9039 29.15 34.5945 29.264 33.9997 29.5212C33.9374 29.4692 33.8658 29.3786 33.7864 29.2554C34.417 28.9921 34.9604 28.6566 35.3834 28.2758C36.8497 28.0629 38.0398 27.9463 38.318 28.0375C38.4145 28.0696 38.4836 28.095 38.5334 28.1144C38.5121 28.2106 38.5002 28.3404 38.5324 28.4993C38.5874 28.7696 40.8981 35.3621 42.3763 36.1921C42.8989 36.4838 43.3058 36.58 43.6624 36.579C43.9826 36.579 44.2634 36.5026 44.5515 36.4237C44.8359 36.3458 45.1307 36.2649 45.5174 36.2389C45.7209 36.2246 45.8719 36.0525 45.8574 35.8545C45.8423 35.6549 45.642 35.5047 45.4655 35.5205C45.003 35.5531 44.6589 35.6483 44.3548 35.7313C43.802 35.881 43.4672 35.9746 42.7406 35.5673C41.675 34.9706 39.3893 29.0115 39.2507 28.3577C39.2382 28.2966 39.2476 28.2635 39.2668 28.2024C39.4349 27.6454 38.9434 27.4845 38.549 27.3557C38.1862 27.2371 37.1767 27.3145 36.0623 27.456C36.3172 27.0161 36.4236 26.5513 36.3379 26.0935C36.3358 26.0823 36.3312 26.0722 36.3291 26.0615C36.9026 26.6236 37.7019 27.0859 38.6419 27.345C38.7991 27.3883 39.9654 27.5375 41.5494 27.3537C42.7198 27.2177 42.9451 26.1297 44.4731 26.2198L43.719 25.839L44.728 25.6888L43.8721 25.2097C43.3302 24.6786 43.6204 24.8212 43.324 24.3777C43.2124 24.0758 43.0401 23.7815 42.8148 23.5045C42.8641 23.5055 42.9077 23.5111 42.9586 23.5111C44.1025 23.5111 45.6098 23.2637 48.2978 22.0911C51.4903 20.6996 55.3602 20.5942 55.4001 20.5932C55.6026 20.5881 55.7624 20.4236 55.7572 20.2251C55.7541 20.026 55.574 19.8921 55.3846 19.8727ZM30.0401 21.9995C30.0935 21.92 30.1392 21.8533 30.1786 21.7983C30.1989 21.8528 30.2212 21.9093 30.2461 21.9653C30.2871 22.0585 30.433 22.503 30.6022 23.0178C30.7376 23.4302 30.8653 23.8136 30.9899 24.1852C30.3878 24.3085 29.8293 24.4943 29.3321 24.7295C29.4878 23.6517 29.7261 22.4725 30.0401 21.9995ZM24.0869 23.4801L24.1346 23.3171C24.1398 23.3171 24.2036 23.3115 24.3547 23.3961L27.2103 26.6343C27.119 26.8359 27.0629 27.0421 27.0396 27.2493C25.633 26.7173 23.6057 27.0273 21.6526 28.1133C21.5945 28.0685 21.5374 28.0248 21.4808 27.9815L24.0869 23.4801Z" fill="#0C3469"/>
<defs>
<filter id="filter0_i_2687_3638" x="0.5" y="0" width="58.9102" height="58" filterUnits="userSpaceOnUse" color-interpolation-filters="sRGB">
<feFlood flood-opacity="0" result="BackgroundImageFix"/>
<feBlend mode="normal" in="SourceGraphic" in2="BackgroundImageFix" result="shape"/>
<feColorMatrix in="SourceAlpha" type="matrix" values="0 0 0 0 0 0 0 0 0 0 0 0 0 0 0 0 0 0 127 0" result="hardAlpha"/>
<feOffset/>
<feGaussianBlur stdDeviation="10"/>
<feComposite in2="hardAlpha" operator="arithmetic" k2="-1" k3="1"/>
<feColorMatrix type="matrix" values="0 0 0 0 0 0 0 0 0 0 0 0 0 0 0 0 0 0 0.25 0"/>
<feBlend mode="normal" in2="shape" result="effect1_innerShadow_2687_3638"/>
</filter>
<radialGradient id="paint0_radial_2687_3638" cx="0" cy="0" r="1" gradientUnits="userSpaceOnUse" gradientTransform="translate(29.9558 29) rotate(90) scale(29 29.4558)">
<stop offset="0.447817" stop-color="#F5F4E9"/>
<stop offset="0.447917" stop-color="#FFE300"/>
<stop offset="0.802083" stop-color="#FFE300"/>
</radialGradient>
</defs>
</svg>
