<svg width="60" height="58" viewBox="0 0 60 58" fill="none" xmlns="http://www.w3.org/2000/svg">
<g filter="url(#filter0_i_2687_3648)">
<rect x="0.5" width="59.0545" height="58" rx="29" fill="url(#paint0_radial_2687_3648)"/>
</g>
<path d="M46.1052 18.3337C46.4125 18.6099 46.675 18.9285 46.8839 19.2792C46.9233 19.7688 46.8788 20.2613 46.7522 20.7371C46.7522 20.7371 46.2666 19.813 45.8317 19.6739C45.4632 19.597 45.0842 19.5771 44.7092 19.615C44.3528 20.1084 44.1368 20.6822 44.0825 21.28C44.0318 22.1763 44.15 26.1269 43.1923 28.5011C42.2347 30.8753 41.9389 32.6685 40.0681 33.7517C38.1974 34.8454 35.579 35.2097 35.0529 35.8108C34.5369 36.4016 33.4753 37.7522 33.4753 37.7522C34.0004 38.1052 34.459 38.5414 34.8314 39.0419C34.9629 39.4367 35.2302 39.777 35.5898 40.0073C35.8728 40.1368 36.1659 40.2015 36.2571 40.4111C36.3016 40.6155 36.305 40.8261 36.2672 41.0317C36.2672 41.0317 35.9971 40.5884 35.7512 40.5787C35.419 40.5885 35.0948 40.4797 34.8415 40.2733C34.5079 40.0073 34.0932 39.5343 33.9014 39.4165C33.7466 39.3279 33.5744 39.2709 33.3956 39.2489C33.5528 39.5933 33.6813 39.949 33.7799 40.3128C33.8001 40.5069 33.8204 40.9599 33.8204 40.9599L33.426 40.5166C33.2604 40.2989 33.1084 40.072 32.9708 39.8371C32.8391 39.5783 32.6574 38.9208 32.415 38.8523C32.1725 38.7837 31.5755 38.9215 31.6565 39.2955C31.7376 39.6598 32.5163 40.635 32.6371 41.0686C32.7587 41.4925 32.8796 42.0639 33.245 42.1622C33.8602 42.2723 34.4917 42.269 35.1056 42.1525C35.4536 42.0063 35.845 41.9854 36.2078 42.0936C36.5718 42.223 37.0857 43.0099 37.0857 43.0099C37.0857 43.0099 36.3071 42.6352 36.0727 42.7343C35.6023 42.9519 35.0883 43.0696 34.566 43.0792C33.9664 42.9224 33.3385 42.8922 32.7256 42.9905C32.3265 43.1181 31.9134 43.2012 31.4944 43.2384C31.4899 42.9866 31.5453 42.7372 31.6565 42.5091C31.8186 42.2923 32.1421 41.7409 31.8186 41.3074C31.4951 40.8641 30.5145 39.1499 30.3524 38.9726C30.1903 38.7953 29.7257 38.805 29.6548 38.3255C29.5838 37.846 29.8466 36.19 29.4825 36.0891C29.1185 35.981 28.3601 36.3648 28.3601 36.3648L28.2791 36.1059L27.6712 36.4411L27.5497 36.0373C27.3397 36.1119 27.1232 36.168 26.9027 36.2049C26.6805 36.2243 26.3063 35.9196 26.3063 35.9196C26.0282 36.131 25.7224 36.3065 25.3966 36.4418C25.0926 36.4923 24.7852 36.5219 24.4768 36.5304C24.059 36.7014 23.686 36.9591 23.3847 37.285C22.8042 38.0251 22.0798 38.6507 21.2513 39.1273C20.7176 39.2809 20.1588 39.3377 19.6034 39.2949C18.441 40.403 17.2156 41.4488 15.9328 42.4275C15.5519 42.6108 15.1349 42.7148 14.709 42.733L15.0022 42.3195L14.2241 42.656L14.4159 42.2716L13.617 42.5673C14.4567 41.3359 15.3787 40.1579 16.3772 39.0406C17.5199 37.8881 18.4803 36.9815 18.9557 36.3609C19.4285 35.7306 20.1896 34.7845 20.1896 34.7845C20.1896 34.7845 17.3078 35.0013 15.9348 35.0434C15.0029 35.0612 14.0713 34.9946 13.1523 34.8447C13.5192 34.4109 13.9643 34.0438 14.4666 33.7608C15.0933 33.4851 15.9524 33.0218 15.9524 33.0218C15.4501 32.8186 14.9329 32.6508 14.4051 32.5196C13.9978 32.4306 13.5859 32.3615 13.1713 32.3126C13.8743 31.6242 14.7319 31.0986 15.6789 30.7757C17.1451 30.3124 19.8242 29.7513 19.8242 29.7513C20.5495 29.1523 21.3596 28.6547 22.2305 28.2733C23.1301 28.0074 25.1346 27.6825 25.7424 27.3175C26.424 26.8548 27.1523 26.4587 27.9164 26.1353C28.4621 25.9974 30.0498 24.7265 31.3337 24.0568C32.5536 23.4771 33.8349 23.0246 35.1556 22.7069C36.0754 22.4707 38.0069 21.6133 38.3507 20.7856C38.6945 19.958 39.3104 17.8717 40.3822 16.6888C41.454 15.5059 42.1618 14.5805 43.6178 14.7973C45.0739 15.0141 45.7114 15.5855 45.8627 16.3536C45.9605 16.8469 45.9911 17.3502 45.9539 17.851L46.1052 18.3337Z" fill="#0C3469"/>
<defs>
<filter id="filter0_i_2687_3648" x="0.5" y="0" width="59.0547" height="58" filterUnits="userSpaceOnUse" color-interpolation-filters="sRGB">
<feFlood flood-opacity="0" result="BackgroundImageFix"/>
<feBlend mode="normal" in="SourceGraphic" in2="BackgroundImageFix" result="shape"/>
<feColorMatrix in="SourceAlpha" type="matrix" values="0 0 0 0 0 0 0 0 0 0 0 0 0 0 0 0 0 0 127 0" result="hardAlpha"/>
<feOffset/>
<feGaussianBlur stdDeviation="10"/>
<feComposite in2="hardAlpha" operator="arithmetic" k2="-1" k3="1"/>
<feColorMatrix type="matrix" values="0 0 0 0 0 0 0 0 0 0 0 0 0 0 0 0 0 0 0.25 0"/>
<feBlend mode="normal" in2="shape" result="effect1_innerShadow_2687_3648"/>
</filter>
<radialGradient id="paint0_radial_2687_3648" cx="0" cy="0" r="1" gradientUnits="userSpaceOnUse" gradientTransform="translate(30.0273 29) rotate(90) scale(29 29.5273)">
<stop offset="0.447817" stop-color="#F5F4E9"/>
<stop offset="0.447917" stop-color="#FFE300"/>
<stop offset="0.802083" stop-color="#FFE300"/>
</radialGradient>
</defs>
</svg>
