<svg width="60" height="58" viewBox="0 0 60 58" fill="none" xmlns="http://www.w3.org/2000/svg">
<g filter="url(#filter0_i_2687_3628)">
<rect x="0.5" width="58.9115" height="58" rx="29" fill="url(#paint0_radial_2687_3628)"/>
</g>
<path d="M19.7631 23.3703C19.6207 23.4537 19.4895 23.5543 19.3727 23.6698C19.3727 23.6698 19.5595 23.4591 19.6529 23.3813C19.0504 23.4143 18.559 23.4143 18.559 23.4143C18.5072 23.403 18.4604 23.3757 18.4255 23.3364C18.1013 23.3145 17.3428 23.3474 17.3428 23.3474C16.9643 23.3809 16.5838 23.3882 16.2041 23.3694C16.0706 23.3474 16.0257 23.2916 16.0173 23.2476C15.7156 23.2696 15.6044 23.2366 15.5596 23.1917V23.2027C15.1916 23.2247 15.0926 23.1917 15.0683 23.1578L13.5905 23.3593C13.4457 23.3813 13.3897 23.3593 13.3672 23.3145C13.2154 23.3461 13.0689 23.3985 12.932 23.4701C12.932 23.4701 13.2561 23.1707 13.399 23.1707C13.4048 23.1587 13.4124 23.1476 13.4214 23.1377C13.4326 23.004 14.6274 23.0461 15.0094 23.0599C15.0094 23.015 15.4111 23.0489 15.5783 23.0708C15.6792 22.96 16.0696 23.0928 16.0696 23.0928V23.1304C16.0829 23.1173 16.098 23.1062 16.1145 23.0974C16.3097 23.0628 16.5074 23.0442 16.7058 23.0415C17.2669 23.1314 17.8337 23.1834 18.4021 23.1972C18.4243 23.1565 18.4599 23.1242 18.503 23.1056C18.896 23.1182 19.2893 23.0875 19.6753 23.0141C19.5593 22.9466 19.4476 22.8723 19.3409 22.7915C19.4818 22.8897 19.6402 22.9611 19.808 23.0022C20.076 22.9573 20.3329 22.9243 20.4777 22.9023L20.0985 22.6798C20.2575 22.7653 20.4262 22.8323 20.601 22.8794C20.7601 22.8141 20.9244 22.7621 21.0924 22.7238L20.7794 22.5012C20.9076 22.5851 21.0464 22.6522 21.1923 22.7009C21.3725 22.6585 21.5554 22.6279 21.7397 22.6093L21.3717 22.2649C21.5263 22.3936 21.6948 22.5054 21.8742 22.5983H21.9527C22.0087 22.4536 22.4777 22.6203 22.4777 22.6203C22.8544 22.7085 23.2403 22.7534 23.6275 22.754C23.5939 22.5763 23.5827 22.4426 23.5827 22.4426C23.3293 21.0838 23.5453 19.681 24.1964 18.4561C24.2664 18.4016 24.3411 18.3532 24.4197 18.3114C24.1292 18.1777 23.9283 17.8672 24.6541 17.1007C24.3085 16.3681 22.7121 14.3579 15.4998 11.8266C15.4998 11.8266 11.0348 10.7496 7.35156 10.3054C7.35156 10.3054 13.7811 10.8494 16.5264 11.9823C16.5264 11.9823 23.6705 14.4696 24.7858 16.9789C25.3484 16.6666 25.9536 16.4347 26.5831 16.2902C26.9175 12.7369 31.1033 8.28425 31.1033 8.28425C32.8893 5.93704 38.3249 2.25 38.3249 2.25C38.0792 2.38371 33.3246 6.41417 33.3246 6.41417C27.9777 11.3 27.066 15.1757 26.9063 16.2637C26.9886 16.265 27.0707 16.2723 27.152 16.2856C27.152 16.2856 28.1449 16.3525 27.8217 17.0412C27.8532 17.0401 27.8848 17.0438 27.9151 17.0522C28.9732 17.3409 29.9037 17.9658 30.5605 18.8288C30.6278 18.6951 30.7053 18.5733 30.795 18.5953C30.8102 18.5704 30.8291 18.5479 30.851 18.5285C30.8823 18.274 30.886 18.0171 30.8622 17.7619L30.9631 18.3838C31.1058 18.2058 31.2619 18.0387 31.4302 17.8837C31.4906 17.7008 31.5221 17.51 31.5236 17.3178V17.7949C31.6857 17.6542 31.8573 17.5244 32.0374 17.4066C32.1066 17.1892 32.155 16.966 32.1821 16.7399L32.1485 17.2839C32.2597 17.1502 32.4727 16.9285 32.709 16.673C32.788 16.4713 32.8258 16.2562 32.8202 16.0402C32.8202 16.0402 32.8314 16.4065 32.8202 16.5512C33.1698 16.1995 33.4805 15.8124 33.7468 15.3964C33.7947 15.37 33.848 15.3547 33.9028 15.3515C34.2842 14.7586 34.6274 14.1429 34.9303 13.508C34.9303 13.508 35.2208 13.0748 35.2647 13.0968H35.2984C35.3544 12.9411 35.4543 12.7085 35.5786 12.7085C35.6401 12.4991 35.7346 12.3004 35.8588 12.1196C35.9597 11.6975 36.1932 10.7459 36.339 10.7652C36.339 10.7652 36.3726 10.7542 36.4174 10.7432C36.451 10.5655 36.9975 10.332 36.9975 10.332C36.844 10.4577 36.7089 10.6034 36.5958 10.7652C36.607 10.7762 36.607 10.7762 36.607 10.7871C36.7294 10.6956 36.9415 10.6763 37.2208 11.0866C37.0252 10.996 36.8191 10.929 36.607 10.887C36.6017 10.9392 36.5823 10.9891 36.551 11.0317L35.9345 12.2442C35.9569 12.2891 35.9345 12.4328 35.7112 12.8102C35.6772 12.9769 35.5959 13.1308 35.4768 13.2543C35.4857 13.3493 35.4662 13.4447 35.4207 13.5291C35.2374 13.8275 35.0284 14.11 34.7958 14.3734C34.7958 14.3734 34.2353 15.129 34.0364 15.4724C34.0428 15.5391 34.039 15.6064 34.0252 15.6721C34.0252 15.6721 33.6683 16.1831 33.2106 16.771C33.3442 16.738 33.7132 16.7042 33.7132 16.7042C33.5076 16.732 33.308 16.7919 33.1219 16.8818C32.9547 17.0925 32.7875 17.315 32.6081 17.5147L33.0994 17.4038C32.8995 17.4605 32.7054 17.5349 32.5194 17.6264C32.2612 17.9454 31.9609 18.2294 31.6264 18.4708C31.4901 18.5884 31.3702 18.7229 31.2695 18.871L31.3144 18.9158C31.3144 18.9158 31.2807 20.0267 31.2135 20.8812C31.9799 21.3323 32.6351 21.944 33.1321 22.6725C33.2478 22.3976 33.3448 22.1155 33.4227 21.8281C33.4227 21.8281 33.7132 21.2841 33.8897 21.362H33.9009C33.9233 21.3061 34.0121 21.1953 34.3026 21.1953C34.3894 21.1558 34.479 21.1224 34.5707 21.0955C34.6954 21.0561 34.8123 20.996 34.9163 20.9178L34.8051 20.9956C34.8767 20.9674 34.9442 20.9301 35.006 20.8848L34.5146 21.2072C34.7437 21.2481 34.9681 21.3113 35.1844 21.3958C35.2404 21.3848 35.4525 21.351 35.6197 21.3043L35.6869 21.2594C35.6869 21.2704 35.6645 21.2814 35.6533 21.2924C35.7 21.2746 35.7448 21.2522 35.7869 21.2255C35.7869 21.2255 35.3852 21.4142 35.3292 21.448C35.4852 21.5149 35.6533 21.5927 35.8541 21.6926C35.8541 21.6926 35.899 21.7145 35.9877 21.7704C36.1794 21.7554 36.368 21.7144 36.5482 21.6486L36.0811 21.8263C36.2483 21.9371 36.5052 22.101 36.8182 22.2842C36.9979 22.2722 37.1731 22.2229 37.3319 22.1395C37.3319 22.1395 37.0414 22.2842 36.8966 22.3391C37.1647 22.5058 37.4571 22.6835 37.7448 22.8501C37.9319 22.8393 38.1146 22.79 38.281 22.7054C38.281 22.7054 37.9793 22.8501 37.8345 22.9051C38.0913 23.0608 38.3482 23.2046 38.5715 23.3383C38.7721 23.3173 38.968 23.2647 39.1516 23.1826C39.1516 23.1826 38.7947 23.3493 38.6714 23.3932C38.8906 23.5359 39.1268 23.6515 39.3748 23.7376C39.3867 23.7389 39.3982 23.7426 39.4084 23.7485C39.5993 23.7312 39.7851 23.6784 39.9558 23.5929C39.9558 23.5929 39.6429 23.7485 39.4981 23.8035C39.6865 23.8961 39.8597 24.0159 40.0119 24.1588C40.58 24.3954 41.1658 24.5886 41.7643 24.7367C41.7643 24.7367 42.2444 24.9473 42.2313 24.9922V25.0371C42.3649 25.0929 42.4994 25.1589 42.5218 25.2477C42.8021 25.3256 43.37 25.5032 43.0356 25.5142V25.5252C43.4709 25.7358 44.0398 26.0472 43.9959 26.158V26.2359C44.1631 26.3027 44.2761 26.8769 44.2761 26.8769C44.2363 26.7817 44.1839 26.6921 44.1201 26.6104C44.0722 26.7578 43.9878 26.8912 43.8744 26.9987C43.9161 26.8015 43.9349 26.6003 43.9305 26.3989C43.8857 26.4209 43.8081 26.3989 43.6848 26.2991L42.7133 25.5215C42.6461 25.4886 42.5573 25.4547 42.4452 25.3997C42.378 25.4107 42.2668 25.3778 42.0548 25.2441C41.9804 25.2563 41.9043 25.2526 41.8315 25.2331C41.5046 25.1023 41.1883 24.9474 40.8853 24.7697C40.8853 24.7697 40.3827 24.5251 39.9811 24.3475C39.8666 24.3866 39.7451 24.4019 39.6242 24.3924C39.6242 24.3924 39.5233 24.3475 39.3561 24.2706C39.3898 24.4262 39.4346 24.6479 39.4346 24.6479C39.41 24.5039 39.3611 24.3649 39.2898 24.2367C39.103 24.1451 38.8433 24.037 38.5425 23.9033C38.5762 24.059 38.6098 24.2586 38.6098 24.2586C38.5948 24.1212 38.5492 23.9886 38.4762 23.8703C38.2193 23.7485 37.9288 23.6258 37.628 23.482C37.6729 23.6487 37.7065 23.8594 37.7065 23.8594C37.6885 23.7172 37.6391 23.5806 37.5617 23.4592C37.2376 23.3035 36.9144 23.1478 36.5902 23.0012C36.6351 23.1569 36.6836 23.4454 36.6836 23.4454C36.6592 23.2721 36.5985 23.1056 36.5052 22.9564C36.2035 22.8117 35.9139 22.6816 35.657 22.5562L35.8243 23.1221C35.7514 22.9014 35.654 22.6892 35.5337 22.4893C35.232 22.3446 34.9733 22.2146 34.8192 22.123C34.6769 22.0459 34.5137 22.0139 34.3521 22.0314C34.3633 22.0534 34.3745 22.0644 34.3745 22.0763C34.3745 22.0882 34.0943 22.9316 33.8271 23.6423C34.7133 25.0515 35.4965 26.5204 36.1708 28.0382C36.8195 27.9626 37.464 27.855 38.1016 27.7158C38.1016 27.7158 38.6154 27.7048 38.7153 27.8495C38.7782 27.8733 38.8381 27.904 38.8938 27.9411C39.1094 28.0185 39.3347 28.0672 39.5635 28.0858L39.0385 28.0638C39.2227 28.2441 39.3839 28.4455 39.5187 28.6637C39.6659 28.7398 39.823 28.7959 39.9857 28.8304C39.9857 28.8304 39.7176 28.7745 39.5728 28.7525C39.6663 28.8972 39.7597 29.0639 39.8746 29.2635C39.8873 29.3138 39.9061 29.3623 39.9306 29.4082C40.0963 29.5047 40.2724 29.583 40.4556 29.6418L39.9642 29.4971C40.0427 29.6857 40.1651 29.9632 40.3099 30.3075C40.459 30.4001 40.6265 30.4607 40.8012 30.4852C40.8012 30.4852 40.4995 30.4403 40.3435 30.3936C40.4659 30.6821 40.6116 30.9935 40.7564 31.3378C40.905 31.421 41.0676 31.4775 41.2365 31.5045C41.2365 31.5045 40.9563 31.4596 40.79 31.4267C40.9124 31.6822 41.0357 31.9487 41.158 32.2152C41.3111 32.3081 41.4823 32.3687 41.6606 32.3928C41.6606 32.3928 41.3589 32.348 41.2029 32.3013C41.314 32.5348 41.4261 32.7784 41.5373 33.0009C41.7 33.095 41.8774 33.1625 42.0623 33.2006C42.0623 33.2006 41.7381 33.1447 41.5952 33.1008C41.8901 33.7697 42.2689 34.4001 42.7227 34.9772C42.8653 35.2131 42.992 35.4578 43.1019 35.7099C43.6573 36.2133 44.2424 36.6843 44.8543 37.1202C44.8543 37.1202 45.2224 37.4865 45.1999 37.5314C45.1984 37.543 45.1946 37.5542 45.1887 37.5644C45.2999 37.6642 45.412 37.7869 45.3896 37.8758C45.5764 38.0095 45.8921 38.2531 45.8809 38.3089C46.2602 38.5196 47.1083 39.0196 47.0532 39.1533C47.0527 39.1905 47.049 39.2276 47.042 39.2641C47.0871 39.4836 47.0947 39.7089 47.0644 39.9308C47.0532 39.864 47.0196 39.7861 46.9972 39.6863C46.9282 39.8118 46.8375 39.9246 46.7291 40.0197C46.8118 39.8326 46.8789 39.6394 46.9299 39.4418V39.3969C46.8739 39.3969 46.8188 39.364 46.7291 39.2861L45.7361 38.3648C45.6801 38.3648 45.5577 38.3089 45.256 37.9765C45.1887 37.9655 45.1 37.8849 44.9543 37.71C44.8783 37.693 44.8063 37.6619 44.7422 37.6184C44.4796 37.3826 44.2368 37.1262 44.0164 36.8519C44.0164 36.8519 43.4363 36.252 43.1234 35.9636C43.045 35.9746 42.8217 35.8079 42.3313 35.2969C42.3313 35.2969 41.8287 34.4415 41.2038 33.3425C41.1366 33.4982 41.0254 33.7427 41.0254 33.7427C41.0951 33.5915 41.1401 33.4305 41.159 33.2656C41.0254 33.0431 40.8909 32.8214 40.7573 32.5769C40.6901 32.7326 40.6013 32.9432 40.6013 32.9432C40.6628 32.8059 40.7003 32.6595 40.7125 32.5101C40.5677 32.2545 40.4108 31.988 40.266 31.7215C40.1987 31.8772 40.0988 32.0989 40.0988 32.0989C40.1698 31.9604 40.2114 31.8093 40.2211 31.6547C40.0427 31.3323 39.8643 31.0136 39.6962 30.7215C39.6401 30.8662 39.5093 31.1657 39.5093 31.1657C39.5828 30.9924 39.6279 30.8088 39.6429 30.6217C39.4757 30.3332 39.33 30.0557 39.1964 29.8222L39.0096 30.3881C39.0685 30.162 39.1094 29.9318 39.132 29.6994C38.9647 29.3881 38.8302 29.1335 38.7751 28.9888C38.7751 28.9888 38.6079 28.6893 38.4183 28.6444V28.5446C38.3847 28.6005 38.3622 28.6362 38.351 28.6554C38.351 28.6554 37.3683 28.8661 36.5986 28.9888C36.721 29.2883 36.8443 29.5548 36.9443 29.8213L37.1227 30.0319C37.1176 30.0753 37.1022 30.117 37.0778 30.1537L37.1003 30.1986L38.1044 31.5311C38.1044 31.5311 38.0708 31.5759 38.026 31.6309C38.3122 32.0795 38.5588 32.5514 38.763 33.0412C38.7442 33.0668 38.7215 33.0893 38.6957 33.1081L39.2319 34.6741C39.2071 34.7128 39.1723 34.7444 39.131 34.7657L39.3991 35.665C39.3707 35.7065 39.3326 35.7408 39.2879 35.7648C39.3684 36.2895 39.2661 36.8254 38.9974 37.286C40.7695 38.3611 40.0446 40.5307 40.0446 40.5307C40.0603 40.0182 39.9716 39.5078 39.7838 39.0293C39.596 38.5508 39.3128 38.1139 38.9507 37.7439C38.9553 37.7813 38.9628 37.8184 38.9732 37.8547C39.0647 38.3664 38.9794 38.8935 38.7306 39.3523C38.4819 39.811 38.0839 40.1752 37.6 40.3869C37.3846 40.4614 37.1586 40.5025 36.9302 40.5087C37.1407 40.8826 37.2728 41.2939 37.3188 41.7185C37.3649 42.1431 37.3239 42.5725 37.1983 42.9814C37.2344 42.0719 36.9331 41.1804 36.3502 40.4721C35.1434 40.2511 33.9913 39.8046 32.9565 39.157C31.2036 38.086 29.6253 36.7622 28.2748 35.23C28.2827 35.3015 28.2978 35.372 28.3196 35.4406C28.3756 35.5853 28.4644 35.8518 28.5653 36.1843C28.7457 36.3399 28.9441 36.4743 29.1566 36.5845L28.6092 36.329C28.6876 36.5845 28.7764 36.8839 28.8661 37.2063C29.0099 37.3228 29.172 37.4156 29.3462 37.4811C29.3462 37.4811 29.0445 37.3702 28.8997 37.3034C28.9999 37.6367 29.1005 37.9811 29.2014 38.3364C29.3184 38.4367 29.4551 38.5124 29.6031 38.559L29.2238 38.4143C29.3023 38.7027 29.391 39.0031 29.4695 39.2916C29.5857 39.3843 29.7179 39.4556 29.8599 39.5022C29.8599 39.5022 29.6479 39.4244 29.4919 39.3575C29.5704 39.624 29.6367 39.8795 29.7039 40.1241C29.83 40.226 29.9736 40.3051 30.128 40.3576C30.128 40.3576 29.8824 40.2798 29.7264 40.2129C30.072 41.4236 30.3289 42.3898 30.3289 42.3898C30.3625 43.0785 30.3177 43.3559 30.2616 43.4118C30.2392 43.834 30.2728 44.6775 30.2728 44.6775C30.3142 45.0239 30.3255 45.3732 30.3065 45.7215C30.3001 45.7973 30.273 45.8701 30.228 45.9321C30.2644 46.0674 30.2605 46.2101 30.2168 46.3433C30.2392 46.8012 30.1944 46.9322 30.1495 46.9541L30.1159 48.2976C30.1047 48.7867 29.803 48.4423 29.803 48.4423C29.6582 48.3984 29.8964 47.4432 30.0038 47.021C29.9848 46.8022 29.9962 46.582 30.0374 46.3662C29.959 46.3103 29.959 46.1556 29.9702 46.0109C29.9538 46.0067 29.9386 45.9992 29.9253 45.9889C29.8693 45.9779 29.8805 45.4559 29.8805 45.4559C29.9892 44.7198 30.0563 43.9784 30.0813 43.2351C29.959 42.9466 29.8132 42.4466 29.8132 42.4466C29.7323 41.7156 29.552 40.9986 29.2771 40.3146C29.1981 40.4579 29.1085 40.5953 29.009 40.7258C29.1175 40.5704 29.1969 40.3974 29.2434 40.2147L28.9753 39.4821C28.8969 39.6268 28.7185 39.8704 28.7185 39.8704C28.8233 39.7268 28.8991 39.5648 28.9417 39.3933C28.8408 39.1185 28.7297 38.8383 28.6288 38.569C28.5354 38.7137 28.3719 38.9463 28.3719 38.9463C28.4793 38.8083 28.5554 38.6494 28.5952 38.4802C28.1374 37.3364 27.7246 36.4041 27.7246 36.4041C27.6573 36.1934 27.6134 36.0039 27.5686 35.8381C27.4752 35.9599 27.3341 36.1824 27.3341 36.1824C27.4267 36.0454 27.4981 35.8957 27.5462 35.7383C27.3453 34.8609 27.5013 34.5725 27.6134 34.4726C26.9324 33.6621 26.5308 33.0843 26.5308 33.0843C25.8289 32.1528 25.2654 31.1285 24.8568 30.042C24.8344 30.1528 24.812 30.2755 24.7896 30.3973C24.8598 30.605 24.9495 30.8058 25.0577 30.9971L24.7672 30.531C24.6999 30.8424 24.6336 31.1721 24.5551 31.5192C24.604 31.6489 24.6758 31.7691 24.7672 31.8745C24.7672 31.8745 24.6448 31.7188 24.5439 31.5997C24.4654 31.988 24.3767 32.3883 24.2982 32.7436C24.3261 32.8105 24.3677 32.871 24.4206 32.9213C24.4206 32.9213 24.3646 32.8544 24.2982 32.7656C24.2048 33.1987 24.131 33.5651 24.0862 33.7876C24.1106 33.8146 24.1368 33.84 24.1647 33.8636C24.1357 33.8406 24.1094 33.8145 24.0862 33.7858L24.0414 33.9964C23.9405 34.1851 23.8405 34.3408 23.7611 34.4626C23.7992 34.5659 23.8601 34.6597 23.9395 34.7373C23.9395 34.7373 23.8284 34.6155 23.7387 34.4928C23.6714 34.5844 23.6163 34.6595 23.5715 34.7153C23.3931 35.0816 22.9242 36.3812 22.9242 36.3812C22.8338 36.7213 22.7106 37.0522 22.5561 37.3693C22.5078 37.4569 22.4284 37.5241 22.3329 37.558C22.2656 37.8913 22.1881 38.0351 22.1208 38.08C21.976 38.4802 21.8864 38.591 21.8303 38.613L21.2614 39.8457C21.1942 39.9904 21.1391 40.0343 21.083 40.0343C21.172 40.2212 21.2843 40.3966 21.4174 40.5563C21.2627 40.5136 21.1235 40.4288 21.0158 40.3118C20.993 40.414 20.9855 40.5189 20.9933 40.6232C20.9933 40.6232 20.8261 40.0453 20.9485 39.9235C20.9373 39.8786 20.9261 39.8457 20.9261 39.8457C20.8149 39.7458 21.4062 38.9573 21.6734 38.624C21.6285 38.591 21.8294 38.2238 21.9536 38.0241C21.8602 37.9133 22.0545 37.6129 22.132 37.4911L22.0984 37.4582C22.1355 37.2825 22.1915 37.1112 22.2656 36.9471C22.6546 36.2574 23.0012 35.5455 23.3034 34.8151C23.181 34.6375 23.3258 33.8709 23.3258 33.8709C23.6707 32.6453 23.8765 31.3861 23.9395 30.1161C24.0386 29.6395 24.2079 29.1795 24.4421 28.7507V28.7397L23.9395 28.8954C24.108 28.84 24.2691 28.7653 24.4197 28.6728C23.9882 27.075 23.7706 25.4289 23.7723 23.776C23.7639 23.7135 23.7602 23.6504 23.7611 23.5874C23.1362 23.4317 21.9303 23.0873 21.9303 23.0873C21.932 23.0715 21.928 23.0557 21.9191 23.0425C21.7758 23.0433 21.6333 23.0621 21.495 23.0983C20.9317 23.2603 20.3498 23.3517 19.7631 23.3703Z" fill="#0C3469"/>
<defs>
<filter id="filter0_i_2687_3628" x="0.5" y="0" width="58.9102" height="58" filterUnits="userSpaceOnUse" color-interpolation-filters="sRGB">
<feFlood flood-opacity="0" result="BackgroundImageFix"/>
<feBlend mode="normal" in="SourceGraphic" in2="BackgroundImageFix" result="shape"/>
<feColorMatrix in="SourceAlpha" type="matrix" values="0 0 0 0 0 0 0 0 0 0 0 0 0 0 0 0 0 0 127 0" result="hardAlpha"/>
<feOffset/>
<feGaussianBlur stdDeviation="10"/>
<feComposite in2="hardAlpha" operator="arithmetic" k2="-1" k3="1"/>
<feColorMatrix type="matrix" values="0 0 0 0 0 0 0 0 0 0 0 0 0 0 0 0 0 0 0.25 0"/>
<feBlend mode="normal" in2="shape" result="effect1_innerShadow_2687_3628"/>
</filter>
<radialGradient id="paint0_radial_2687_3628" cx="0" cy="0" r="1" gradientUnits="userSpaceOnUse" gradientTransform="translate(29.9558 29) rotate(90) scale(29 29.4558)">
<stop offset="0.447817" stop-color="#F5F4E9"/>
<stop offset="0.447917" stop-color="#FFE300"/>
<stop offset="0.802083" stop-color="#FFE300"/>
</radialGradient>
</defs>
</svg>
