<svg width="60" height="58" viewBox="0 0 60 58" fill="none" xmlns="http://www.w3.org/2000/svg">
<g filter="url(#filter0_i_2687_3613)">
<rect x="0.5" width="59.0545" height="58" rx="29" fill="url(#paint0_radial_2687_3613)"/>
</g>
<path d="M28.0813 40.2768C22.0679 45.627 17.8931 42.2673 16.7079 41.395C13.4917 38.7664 10.8587 34.3895 16.2719 24.9606C16.5247 24.6616 16.8733 24.7664 16.5509 25.2679C14.8168 28.8004 14.1365 31.6503 14.0407 33.8549C14.369 38.6849 18.0671 40.9886 21.0475 41.0229C22.4765 40.9907 23.8402 40.4266 24.8645 39.444C27.139 37.5751 26.5901 36.6109 27.3307 35.4507C26.8697 34.9304 26.4446 34.3802 26.0582 33.8038C25.8231 33.3858 25.7443 32.8054 25.3359 32.5497C24.7955 32.2262 24.177 32.7717 24.0463 32.8487C23.8717 32.9274 23.726 33.0574 23.6293 33.2208C23.5326 33.3843 23.4895 33.5732 23.5059 33.7618C23.9242 34.2309 24.7345 33.8556 24.7088 34.5978C24.7016 34.6519 24.6827 34.7039 24.6532 34.7501C24.6238 34.7964 24.5846 34.8358 24.5383 34.8658C24.492 34.8958 24.4397 34.9156 24.3849 34.9238C24.3302 34.9321 24.2742 34.9286 24.221 34.9136C23.9248 34.8457 23.9511 34.7259 23.827 34.5208C23.7483 34.3913 23.6446 34.2783 23.5217 34.1882C23.4602 34.1505 23.3892 34.1306 23.3168 34.1306C23.2444 34.1306 23.1734 34.1505 23.1119 34.1882C22.9791 34.2483 22.8736 34.3548 22.8158 34.4872C22.8088 34.6546 22.8512 34.8205 22.9379 34.9647C23.0423 35.1692 23.173 35.2805 23.1822 35.5277C23.1881 35.5799 23.1828 35.6328 23.1667 35.6829C23.1506 35.733 23.124 35.7792 23.0887 35.8186C23.0534 35.8579 23.0101 35.8896 22.9616 35.9115C22.9132 35.9334 22.8606 35.9451 22.8073 35.9457C22.7002 35.9514 22.5948 35.918 22.5112 35.8519C22.4276 35.7857 22.3717 35.6915 22.3542 35.5872C22.3562 35.4885 22.3739 35.3907 22.4067 35.2973C22.4678 35.0501 22.5637 34.9473 22.4244 34.7001C22.2852 34.4529 21.9884 34.4354 21.8492 34.8366C21.8108 34.9531 21.7846 35.0733 21.7711 35.1951C21.7898 35.3226 21.7869 35.4523 21.7626 35.5788C21.7015 35.7322 21.6404 35.8603 21.4664 35.8687C21.3218 35.8709 21.1806 35.8254 21.0652 35.7393C20.647 35.2954 21.3876 34.9285 21.4664 34.5875C21.536 34.2801 21.3095 34.2037 21.2038 34.0051C21.0554 33.7747 20.8985 33.9281 20.733 33.9883C20.515 34.0737 20.3318 34.1927 20.1144 34.2697C20.0229 34.2899 19.9275 34.2845 19.839 34.2541C19.7505 34.2236 19.6723 34.1694 19.6134 34.0976C19.5545 34.0257 19.5171 33.939 19.5055 33.8473C19.4939 33.7556 19.5085 33.6626 19.5478 33.5786C19.5745 33.516 19.6137 33.4593 19.6631 33.4119C19.7125 33.3644 19.7711 33.3273 19.8353 33.3026C19.8996 33.2779 19.9682 33.2662 20.0371 33.2682C20.106 33.2701 20.1739 33.2857 20.2366 33.314C20.3782 33.4178 20.5481 33.4773 20.7244 33.4848C20.8844 33.4504 21.0357 33.3844 21.169 33.2907C21.3096 33.1962 21.4139 33.0578 21.4651 32.8979C21.5964 32.6507 21.3778 32.454 21.2819 32.3517C21.0725 32.0444 20.8459 31.9848 20.8551 31.5241C20.8648 31.4598 20.8888 31.3985 20.9254 31.3445C20.962 31.2904 21.0102 31.245 21.0667 31.2116C21.1232 31.1781 21.1866 31.1574 21.2521 31.1509C21.3177 31.1444 21.384 31.1523 21.4461 31.174C21.9779 31.4128 21.8473 31.8651 21.7862 32.1298C21.9175 32.4967 22.6142 32.5562 22.9629 32.4197C23.634 32.1608 23.9649 31.2931 24.1218 31.1565C24.2788 31.02 24.787 30.3192 25.1875 30.2959C25.5881 30.2726 26.6518 30.9702 27.1226 31.2517C27.5934 31.5332 28.3866 32.4294 28.4299 32.287C28.6878 31.5248 28.866 30.7386 28.9618 29.9406C29.0869 28.9764 29.4422 28.0552 29.9986 27.2526C30.6359 26.3177 31.3949 25.4693 32.2561 24.7289C33.1274 23.8585 33.4676 23.9097 35.0448 22.7151C35.7073 22.2201 35.9161 22.1774 35.7336 22.0751C35.3758 21.9545 35.0037 21.8799 34.6265 21.8532C34.6265 21.8532 33.7985 21.8875 33.6501 21.6487C33.5087 21.3766 33.4341 21.0756 33.4321 20.7699C33.4236 20.4541 33.4669 19.2764 33.4669 19.2764C33.4669 19.2764 33.5713 18.6293 33.153 18.5937C33.0048 18.5825 32.8566 18.6156 32.7278 18.6887C32.5989 18.7618 32.4954 18.8714 32.4308 19.0033C32.2738 19.2253 32.1084 19.1826 31.8818 19.1399C31.7809 19.1335 31.6849 19.0952 31.6079 19.0306C31.531 18.966 31.4773 18.8785 31.455 18.7814C31.2895 17.9279 32.4314 18.3122 32.5529 18.2437C32.7794 18.1142 33.4938 17.7997 33.1892 17.5357C32.9361 17.384 32.6971 17.2108 32.4747 17.018C32.2636 16.8416 32.0106 16.7205 31.7393 16.666C31.5476 16.5722 31.4695 16.3671 31.5909 16.0946C31.6167 16.0368 31.6544 15.985 31.7016 15.9424C31.7489 15.8998 31.8047 15.8674 31.8654 15.8473C31.9261 15.8272 31.9904 15.8198 32.0542 15.8256C32.118 15.8314 32.1798 15.8503 32.2357 15.8811C32.5411 16.0519 32.3749 16.1199 32.5148 16.3586C32.6541 16.5592 32.8355 16.728 33.0467 16.8537C33.2995 17.0672 33.6133 17.1695 33.6376 17.084C33.7469 16.8855 33.802 16.6623 33.7974 16.4364C33.7928 16.2106 33.7287 15.9898 33.6114 15.7957C33.5136 15.6652 33.4626 15.5065 33.4664 15.3443C33.4702 15.1822 33.5286 15.0259 33.6324 14.9001C34.092 14.5332 34.5911 14.968 34.3908 15.5912C34.3073 15.8706 34.2748 16.1625 34.2949 16.4531C34.2779 16.6095 34.2839 16.7675 34.3126 16.9223C34.3908 17.1099 34.5392 16.9391 34.5753 16.8712C34.8452 16.3593 35.1853 16.2053 35.2641 16.0351C35.358 15.1473 36.0553 15.3692 36.1945 15.9497C36.1892 16.1559 36.1192 16.3555 35.9943 16.5211C35.8807 16.666 35.6108 16.5554 35.4972 16.7003C35.3118 16.8335 35.1622 17.0092 35.0612 17.2122C35.0179 17.6988 35.1393 17.8593 35.5931 17.9117C35.8721 17.9628 36.2497 17.6897 36.578 17.7493C36.9063 17.8088 37.0225 17.9796 37.0376 18.1848C37.0639 18.5348 36.8374 18.8416 36.2707 18.7024C36.008 18.6345 35.9483 18.4637 35.687 18.3951C35.5734 18.2928 35.2424 18.3271 35.138 18.2242C35.1466 18.8985 34.7808 19.2822 34.8852 20.2037C35.1643 20.6302 35.8354 20.3661 36.2884 20.3144C36.646 20.2707 37.009 20.3177 37.343 20.4509C37.7179 20.7667 37.8571 21.4216 38.3542 20.5803C40.2452 16.9967 42.921 17.5001 44.4897 17.3377C45.9454 16.7146 49.4052 16.8847 47.2876 20.3668C46.5469 21.4591 46.1194 21.6895 45.5967 22.9694C45.1853 23.66 44.5792 24.218 43.852 24.5755C43.1249 24.933 42.308 25.0746 41.5007 24.9832C40.9866 24.9748 40.7075 25.1029 40.934 25.64C41.1594 26.0964 41.318 26.5821 41.4048 27.0824C41.4134 27.2491 41.3956 27.4161 41.3523 27.5774C41.1103 28.2255 41.0739 28.9307 41.2479 29.5996C41.2742 29.7873 41.3352 30.1969 41.4744 30.2228C41.6314 30.2396 42.1311 29.7452 42.7122 29.2929C42.8254 29.1667 42.9115 29.0193 42.9655 28.8595C43.0194 28.6997 43.04 28.5308 43.0261 28.363C42.8476 28.2107 42.6402 28.0948 42.416 28.022C42.242 27.9877 41.5795 27.6894 41.8907 27.16C42.1784 26.6734 42.684 27.16 42.7536 27.4927C42.7969 27.7657 42.9886 27.8596 43.2789 27.8939C43.3509 27.9069 43.4248 27.9069 43.4969 27.8939C43.6886 27.7916 43.6801 27.6635 43.6971 27.4758C43.7497 26.8359 43.3314 26.7161 43.5658 26.2813C43.6098 26.2066 43.672 26.1439 43.7469 26.099C43.8217 26.0541 43.9068 26.0284 43.9943 26.0241C44.0818 26.0199 44.169 26.0373 44.248 26.0747C44.3269 26.1122 44.3951 26.1685 44.4463 26.2386C44.5599 26.4774 44.6295 26.6915 44.2283 27.16C44.1758 27.3225 43.7575 27.7741 44.4634 27.8854C44.6729 27.9197 44.9079 27.7916 45.1345 27.1173C45.2074 26.9676 45.3347 26.8503 45.4912 26.7887C45.6478 26.7271 45.822 26.7257 45.9796 26.7847C46.6244 26.9724 46.4156 27.9197 45.7169 27.9113C45.5685 27.9709 44.9322 27.9967 45.185 28.6193C45.311 28.7086 45.4584 28.7642 45.6127 28.7807C45.7671 28.7971 45.9231 28.7738 46.0656 28.7131C46.3617 28.5837 46.5974 28.1954 47.1897 28.5837C47.4425 28.7545 47.4162 29.0276 47.2856 29.2832C47.0229 29.8209 46.449 29.5647 45.9349 29.377C45.3249 29.1123 44.8889 29.1298 45.0898 29.5478C45.1726 29.6481 45.2628 29.7422 45.3597 29.8293C45.491 29.94 45.688 30.0882 45.8193 30.1794C45.9933 30.2991 46.1765 30.4441 46.1851 30.6233C46.1786 30.7061 46.1527 30.7862 46.1094 30.8574C46.0661 30.9287 46.0066 30.989 45.9356 31.0337C45.8646 31.0783 45.7841 31.1061 45.7003 31.1149C45.6165 31.1236 45.5319 31.1131 45.4529 31.0841C45.2735 30.9825 45.1396 30.818 45.078 30.6233C45.0399 30.4643 44.9782 30.3116 44.8948 30.1704C44.4765 29.7439 44.25 29.7264 43.5001 30.2642C43.1863 30.5289 42.8724 30.7819 42.55 31.0491C41.9663 31.4076 41.6347 31.8936 40.8159 31.8684C40.6356 31.8664 40.4599 31.813 40.3099 31.7146C40.1599 31.6161 40.0421 31.4769 39.9708 31.3138C39.81 30.8766 39.7131 30.419 39.6832 29.9549C39.5262 28.9648 39.7613 28.009 39.0206 27.2325C38.5328 29.0159 37.2773 30.5606 34.7677 31.7551C33.9457 32.1689 33.2553 32.7978 32.7722 33.5728C32.6763 34.042 32.2929 34.5629 33.4518 34.5629C34.7243 34.7848 37.452 35.0747 37.2169 36.2777C37.0074 37.2419 34.9686 38.7095 35.0205 38.727C35.3464 38.7754 35.6796 38.7402 35.9877 38.6247C36.0758 38.594 36.1707 38.587 36.2626 38.6044C36.3544 38.6219 36.4398 38.6632 36.51 38.7241C36.5802 38.7849 36.6327 38.8632 36.662 38.9507C36.6912 39.0383 36.6962 39.1319 36.6765 39.222C36.5196 39.7513 35.8918 39.5119 35.7001 39.3074C35.5688 39.178 35.36 39.2052 35.1334 39.2304C35.09 39.2244 35.0457 39.2323 35.0071 39.2529C34.9686 39.2736 34.9377 39.3059 34.9192 39.3451C34.9007 39.3843 34.8954 39.4283 34.9042 39.4707C34.913 39.5131 34.9353 39.5516 34.968 39.5805C35.1534 39.7017 35.3654 39.7778 35.5865 39.8024C35.8283 39.8786 36.0891 39.8727 36.3272 39.7856C36.597 39.6659 36.9838 40.2386 36.8413 40.5026C36.7968 40.6025 36.7215 40.6861 36.6259 40.7413C36.5304 40.7965 36.4196 40.8205 36.3094 40.81C35.9155 40.7589 35.987 40.3661 35.5688 40.2807C35.0198 40.1784 34.9325 40.3745 35.0198 40.5278C35.1512 40.7155 35.159 40.7925 35.2989 40.9718C35.4473 41.1659 35.9089 41.3814 35.6561 41.8932C35.5248 42.1663 35.2201 42.1663 34.9588 42.0298C34.8607 41.9783 34.7812 41.8982 34.7312 41.8004C34.6813 41.7026 34.6633 41.5919 34.6797 41.4836C34.6712 41.4066 34.723 41.2895 34.706 41.2021C34.6556 40.9182 34.5003 40.6627 34.27 40.4851C34.0001 40.4935 33.9738 41.0481 34.096 41.4661C34.3054 42.2084 33.7558 42.4814 33.1635 42.1061C32.8759 41.9353 32.6665 41.4661 32.9455 41.2358C33.1425 41.0445 33.2918 40.8108 33.3815 40.5531C33.4091 40.4232 33.4062 40.2889 33.373 40.1603C33.2594 39.7423 33.1813 39.6827 32.7545 39.6141C32.1878 39.5287 32.2666 39.981 32.0571 40.0406C31.9863 40.1071 31.9019 40.158 31.8094 40.1896C31.717 40.2213 31.6188 40.2331 31.5213 40.2242C31.4239 40.2153 31.3295 40.186 31.2446 40.1381C31.1596 40.0902 31.0861 40.025 31.0289 39.9468C30.7327 39.554 30.9507 38.9056 31.6855 39.0505C31.9294 39.119 32.1812 39.1562 32.4347 39.1612C32.6153 39.1311 32.7824 39.0479 32.914 38.9224C33.1332 38.7857 33.3086 38.5905 33.4196 38.3594C33.8727 37.4632 33.2627 37.4464 32.6973 37.3609C32.5299 37.3369 32.36 37.3341 32.1917 37.3525C30.0479 37.4295 29.6467 38.3083 29.4031 38.4448C29.1042 39.1437 28.653 39.7691 28.0813 40.2768Z" fill="#0C3469"/>
<defs>
<filter id="filter0_i_2687_3613" x="0.5" y="0" width="59.0547" height="58" filterUnits="userSpaceOnUse" color-interpolation-filters="sRGB">
<feFlood flood-opacity="0" result="BackgroundImageFix"/>
<feBlend mode="normal" in="SourceGraphic" in2="BackgroundImageFix" result="shape"/>
<feColorMatrix in="SourceAlpha" type="matrix" values="0 0 0 0 0 0 0 0 0 0 0 0 0 0 0 0 0 0 127 0" result="hardAlpha"/>
<feOffset/>
<feGaussianBlur stdDeviation="10"/>
<feComposite in2="hardAlpha" operator="arithmetic" k2="-1" k3="1"/>
<feColorMatrix type="matrix" values="0 0 0 0 0 0 0 0 0 0 0 0 0 0 0 0 0 0 0.25 0"/>
<feBlend mode="normal" in2="shape" result="effect1_innerShadow_2687_3613"/>
</filter>
<radialGradient id="paint0_radial_2687_3613" cx="0" cy="0" r="1" gradientUnits="userSpaceOnUse" gradientTransform="translate(30.0273 29) rotate(90) scale(29 29.5273)">
<stop offset="0.447817" stop-color="#F5F4E9"/>
<stop offset="0.447917" stop-color="#FFE300"/>
<stop offset="0.802083" stop-color="#FFE300"/>
</radialGradient>
</defs>
</svg>
