<svg width="60" height="58" viewBox="0 0 60 58" fill="none" xmlns="http://www.w3.org/2000/svg">
<g filter="url(#filter0_i_2687_3603)">
<rect x="0.5" width="58.9115" height="58" rx="29" fill="url(#paint0_radial_2687_3603)"/>
</g>
<path d="M19.9541 31.5302H19.8318V31.6529H19.7094V31.8984H19.5924V32.0211H19.4701V32.1439H19.2263V32.2666H19.104V32.3894H18.8603V32.4984H18.7379V32.6211H18.4916V32.7439H18.247V32.8666H18.0032V32.9894H17.8809V33.1121H17.638V33.2349H17.2886V33.3576H17.0422V33.4803H16.6761V33.6031H15.5788V33.3576H15.4565V32.7439H15.5788V32.4984H15.7012V32.2666H15.8235V32.0211H15.9458V31.8984H16.0681V31.7757H16.1852V31.5302H16.3075V31.4074H16.4298V31.2847H16.5521V31.1619H16.6744V31.0392H16.7967V30.9164H16.919V30.7937H17.1636V30.671H17.2859V30.5482H17.4083V30.4255H17.6389V30.3027H17.8826V30.18H18.005V30.0572H18.247V29.9345H18.4907V29.8118H18.8568V29.689H19.1005V29.5663H19.3443V30.4246H19.4666V30.7928H19.5889V30.9156H19.7112V31.0383H19.9549V31.1611H20.0772V31.4066H19.9549L19.9541 31.5302ZM20.0764 26.7577H20.3201V26.8805H20.6862V27.7388H20.5639V27.8616H20.4416V27.6161H20.3192V27.3706H20.1969V27.1251H20.0746L20.0764 26.7577ZM28.3288 21.9999H28.4511V21.8772H28.9386V21.9999H29.3047V22.1226H29.427V22.8454H29.5493V23.5818H29.6716V23.8273H29.7939V24.3183H29.9162V24.6865H30.0386V25.0548H29.6655V24.8093H29.5432V24.5638H29.4209V24.3183H29.2986V24.0728H29.1763V23.8273H29.054V23.5818H28.9316V23.4591H28.8093V23.3364H28.687V23.2136H28.5647V23.0874H28.4424V22.8419H28.3288V21.9999ZM33.5567 22.8454H33.4344V22.9681H33.3086V23.0874H33.0649V23.2102H32.9426V23.3329H32.8202V23.4557H32.6971V23.5784H32.5747V23.7012H32.4524V23.8239H32.2087V23.9458H32.0864V24.0685H31.9641V24.1913H31.8418V24.314H31.7194V24.4368H31.5971V24.5595H31.4748V24.6822H31.3525V24.805H31.2302V24.9277H30.9996V24.6822H30.8773V24.1947H30.7549V23.8265H30.6326V23.4582H30.5103V23.2127H30.388V22.3544H32.4472V22.4771H33.1784V22.5999H33.6659V22.7226H33.5436L33.5567 22.8454ZM29.7878 17.594H29.9101V17.473H30.6414V17.3502H32.2139V17.473H32.3362V17.594H32.4586V17.8395H32.5809V18.085H32.7032V18.3322H32.0916V18.2094H31.9693V18.0867H30.3967V17.9639H29.7852L29.7878 17.594ZM30.2753 15.5082H29.7878V15.6309H29.6655V12.7014H29.7878V12.8241H29.9101V13.0696H30.0324V13.1924H30.1547V13.4378H30.2771V13.6833H30.3994V13.9288H30.5217V14.1743H30.644V14.4181H30.7663V14.6636H30.8886V14.9091H31.0109V15.1546H31.1193V15.3863H30.2797L30.2753 15.5082ZM23.723 15.6309V15.7537H23.6007V15.8773H23.4783V16H23.356V16.1228H23.2337V16.2464H22.99V16.3691H22.7462V16.4919H22.5025V16.6146H22.3802V16.7356H22.1347V16.8584H22.0124V16.9811H21.8901V17.2266H21.7677V17.3494H21.6454V17.4721H21.5231V17.594H21.4008V17.7167H21.2785V17.8395H21.0348V17.9622H20.6853V18.085H20.563V18.2077H20.4407V18.3322H20.1969V18.4523H20.0746V18.5751H19.9523V18.6841H19.83V18.8068H19.7077V18.9296H19.5924V19.0532H19.4701V19.1759H19.3478V19.2987H19.2254V19.4214H19.1031V19.5442H18.9808V19.6669H18.8585V19.9115H18.7362V20.157H18.6139V20.4025H18.4916V20.5253H18.3693V20.7699H18.247V21.2609H18.1246V21.5063H18.0023V21.8746H17.88V22.3518H17.7577V22.7201H17.6354V25.1741H17.7577V25.2968H17.88V25.5423H18.0023V25.7741H18.1246V25.8968H18.247V26.1423H18.4907V26.2633H18.613V26.3861H18.8568V26.5088H19.3443V26.7543H19.4666V27.2453H19.5889V29.0727H19.4666V29.1955H19.2228V29.3182H18.8568V29.4409H18.613V29.5637H18.3693V29.6864H18.1255V29.8092H18.0032V29.9319H17.7577V30.0547H17.5157V30.1774H17.4083V30.3002H17.1636V30.4229H17.0413V30.5456H16.7967V30.6684H16.6744V30.7911H16.5521V30.9139H16.4298V31.0366H16.3075V31.1594H16.1852V31.2821H16.0628V31.4049H15.9405V31.5276H15.8182V31.6503H15.6959V31.8958H15.5736V32.0186H15.4513V32.2641H15.329V32.4958H15.2067V32.864H15.0844V33.6005H15.2067V33.7233H15.329V33.846H15.4513V33.9687H16.4324V33.846H16.7967V33.7233H17.1636V33.6005H17.4083V33.4778H17.7577V33.355H18.0015V33.2323H18.247V33.1095H18.4907V32.9868H18.7345V32.864H18.8568V32.7439H19.1005V32.6211H19.3443V32.4984H19.5924V32.3894H19.7147V32.2666H20.3262V33.1121H20.4485V34.585H20.5709V35.076H20.4485V35.1988H20.3262V35.3215H20.2039V35.567H20.0816V35.6897H19.9593V35.8125H19.837V36.0442H19.7147V36.167H19.5924V36.2897H19.4701V36.4125H19.3478V36.658H19.2254V36.7807H19.1031V36.9034H18.9808V37.1489H18.8585V37.2717H18.7362V37.3944H18.6139V37.6399H18.4916V37.7652H18.3693V37.888H18.247V38.0107H18.1246V38.2562H18.0023V38.379H17.88V38.5017H17.7577V38.6236H17.6354V38.7463H17.5131V38.8691H17.4083V38.9918H17.2859V39.1146H17.1636V39.2373H17.0413V39.36H16.919V39.4691H16.7967V39.5918H16.6744V39.7145H16.5521V39.8373H16.4298V40.0828H16.3075V40.2055H16.1852V40.3283H16.0628V40.451H15.9405V40.5738H15.8182V40.6965H15.6959V40.8192H15.5736V41.0647H15.4513V41.1875H15.329V41.3102H15.2067V41.433H14.9699V41.5557H14.8476V41.6785H14.7253V41.7995H14.6039V41.9222H14.3601V42.045H14.2378V42.1677H14.1155V42.2905H13.8857V42.4132H13.7634V42.5359H13.5205V42.6578H13.2768V42.8896H13.0322V43.0123H12.7884V43.1351H12.5447V43.2587H12.1795V43.3814H11.9357V43.5042H11.5697V43.6269H11.3259V43.7497H10.9599V43.8724H9.99887V43.9951H9.75512V44.117H9.63281V44.2398H10.7161V44.117H11.2054V43.9943H11.5714V43.8715H11.9375V43.7488H12.1812V43.6261H12.425V43.5033H12.791V43.3788H13.0348V43.2587H13.2785V43.1359H13.6446V43.0132H13.8883V42.8904H13.9967V42.7814H14.119V42.6578H14.2413V42.5351H14.3636V42.4123H14.4859V42.2896H14.6082V42.1669H14.7305V42.0441H14.8528V41.9197H14.9752V41.7995H15.2189V41.6767H15.3412V41.554H15.4635V41.4312H15.5858V41.3085H15.8296V41.1858H16.0733V41.063H16.1852V40.9411H16.3075V40.6922H16.4298V40.5695H16.5521V40.4467H16.6744V40.324H16.7967V40.0828H16.919V39.96H17.0413V39.8339H17.1636V39.7111H17.2859V39.4656H17.4083V39.3566H17.5166V39.2339H17.6389V39.1111H17.7577V38.8656H17.88V38.7429H18.0023V38.6236H18.1246V38.5008H18.247V38.2554H18.3693V38.1326H18.4916V38.0099H18.6139V37.8871H18.7362V37.6416H18.8585V37.5189H18.9808V37.3961H19.1031V37.2734H19.2254V37.0279H19.3478V36.9052H19.4701V36.7824H19.5924V36.5369H19.7147V36.4142H19.837V36.2889H19.9593V36.1661H20.0816V35.9206H20.2039V35.8116H20.3262V35.6889H20.4485V35.5661H20.5709V35.3206H20.6932V35.1979H20.8155V35.0752H20.9238V34.9524H21.0461V34.8297H21.1684V33.4803H21.0461V32.622H20.9238V32.1447H20.8155V32.022H21.0461V32.3902H21.1684V32.622H21.2907V32.8675H21.413V32.9902H21.5354V33.113H21.6577V33.2357H21.78V33.8494H21.6577V34.0949H21.5354V34.4632H21.413V35.6906H21.5354V36.0451H21.7791V35.5679H21.9014V35.0769H22.0237V34.5859H22.3898V35.4443H22.5121V35.6897H22.6344V35.9215H22.7567V36.2897H22.6344V36.5352H22.5121V36.9034H22.3898V37.1489H22.2675V37.3944H22.1452V37.6399H22.0229V37.8854H21.9005V38.1309H21.7782V38.3764H21.6559V38.6236H21.5336V38.8691H21.4113V39.1146H21.289V39.36H21.1667V39.5918H21.0444V39.8373H20.9221V40.0828H20.8137V40.3283H20.6914V40.5738H20.5691V40.8192H20.4468V41.0647H20.3245V41.433H20.2022V41.6785H20.0799V41.9239H19.9576V42.1694H19.8352V42.4149H19.7129V42.6578H19.5924V42.7806H19.4701V43.0123H19.3478V43.2587H19.2254V43.3814H19.1031V43.8724H18.9808V43.9951H18.8585V44.117H18.7362V44.2398H18.6139V44.3625H18.4916V44.4853H18.3693V44.608H18.247V44.8535H18.1246V44.9754H18.0023V45.2209H17.88V45.4664H17.7577V45.7118H17.6354V45.8337H17.4083V45.9565H17.2859V46.202H17.1636V46.4346H17.0413V46.5573H16.7967V46.6801H16.5538V46.8028H16.4315V46.9256H16.1852V47.0483H16.0628V47.171H15.8226V47.2929H15.7003V47.4157H15.578V47.5384H15.4557V47.6612H15.3334V47.7839H15.211V47.9066H14.9699V48.0294H14.7253V48.1513H14.4815V48.274H14.2378V48.3968H13.9941V48.5195H13.7643V48.6423H13.642V49.0096H13.9914V48.8869H14.3575V48.7641H14.6039V48.6414H14.8476V48.5187H15.0914V48.3959H15.2137V48.2732H15.4574V48.1513H15.5797V48.0285H15.702V47.9058H15.9458V47.7822H16.0681V47.6594H16.3118V47.5367H16.4341V47.414H16.5565V47.2929H16.7967V47.1702H16.919V47.0474H17.0413V46.9238H17.1636V46.8011H17.2859V46.6783H17.4083V46.5556H17.5166V46.4346H17.6389V46.3118H17.8826V46.0801H18.005V45.9573H18.1273V45.8337H18.2496V45.5882H18.3693V45.4646H18.4916V45.3419H18.6139V45.2192H18.7362V44.9754H18.8585V44.8526H18.9808V44.7299H19.1031V44.4844H19.2254V44.3617H19.3478V43.9934H19.4701V43.8707H19.7138V43.6252H19.8361V43.5024H19.9584V43.2587H20.0807V42.8904H20.2031V42.6578H20.3254V42.4123H20.4477V42.1669H20.57V41.7995H20.6923V41.554H20.8146V41.3085H20.9229V41.063H21.0452V40.6922H21.1676V40.4467H21.2899V40.2012H21.4122V39.9557H21.5345V39.5875H21.6568V39.3558H21.7791V39.1103H21.9014V38.8648H22.0237V38.4965H22.146V38.2511H22.2683V38.0056H22.3907V37.7652H22.513V37.397H22.6353V37.1515H22.7576V36.906H22.8799V36.6605H23.0022V36.2889H23.1245V36.0434H23.4906V36.5344H23.6129V36.9026H23.7352V37.2708H23.8575V37.7652H23.9798V38.1335H24.1021V38.6236H24.2244V38.8691H24.3328V39.2373H24.4551V40.0828H24.5774V40.8192H24.6997V41.5557H24.822V42.1694H24.9443V42.5377H25.0666V43.0149H25.1889V43.5059H25.3113V43.7514H25.4336V43.8741H25.5559V43.9969H25.6782V44.117H25.8005V44.2398H26.1447V43.8715H26.0224V43.3788H25.9001V43.0106H25.7778V42.6578H25.6555V42.2896H25.5332V41.7995H25.4109V41.4312H25.2885V41.063H25.1662V40.4493H25.0439V39.9583H24.9216V37.7652H25.0439V37.2743H25.1662V36.906H25.2885V36.415H25.4109V36.1696H25.5332V35.6923H25.6555V35.3241H25.7778V34.9558H25.9001V34.7104H26.0224V34.3421H26.1447V34.0966H25.9001V32.9894H25.7778V33.3576H25.6555V33.7258H25.5332V34.0941H25.4109V34.4623H25.2885V34.9533H25.1662V35.1988H25.0439V35.567H24.9216V35.9215H24.7993V36.2897H24.677V36.9034H24.5547V37.1489H24.4324V38.1309H24.3101V37.8854H24.2017V37.5172H24.0794V37.1489H23.9606V36.7807H23.8383V36.5352H23.716V36.167H23.5937V35.8125H23.4714V35.3215H23.349V35.076H23.2267V34.7078H23.1044V34.4623H22.9821V34.0941H22.8598V33.6031H22.7375V32.3894H22.8598V32.2666H23.2259V32.0211H22.9821V30.9164H23.1044V30.671H23.2267V30.0572H23.1044V29.8118H22.9821V29.4435H22.8598V29.1989H22.7375V29.0761H22.6152V28.9671H22.3714V28.2307H22.4937V27.2487H22.9812V27.3715H23.225V27.4942H23.4687V27.6169H23.7125V27.7397H24.0785V27.8624H24.3092V27.9852H24.5529V28.1079H24.6752V28.2307H24.9216V28.3534H25.1654V28.4762H25.4091V28.5989H25.5314V28.7216H25.7752V28.8444H26.0189V28.9671H26.1412V29.0761H26.385V29.1989H26.6287V29.3216H27.36V29.1989H27.4823V29.0761H27.6046V28.3534H27.4823V27.8624H27.36V27.4942H27.2376V27.2487H27.1153V27.126H26.993V27.0032H26.8707V26.7577H26.7563V26.635H27V26.7577H27.2438V26.8805H27.3661V27.0032H27.4884V27.126H27.6107V27.2487H27.8413V27.3715H27.9636V27.4942H28.086V27.6169H28.3288V27.7397H28.5726V27.8624H28.6949V27.9852H28.8172V28.3534H28.9395V28.5989H29.0618V28.9671H29.1841V29.4444H29.3064V29.8126H29.4287V30.3036H29.5511V30.5491H29.6734V30.9173H29.7957V31.2855H30.0394V31.1628H30.2832V30.7946H30.1609V30.4263H30.0386V30.0581H29.9162V29.6899H29.7939V29.3216H29.6716V29.0761H29.5493V28.7216H29.427V28.2307H29.3047V27.9852H29.1824V27.7397H29.3047V27.6169H29.427V27.126H29.5493V26.635H29.7931V26.7577H29.9154V26.8805H30.1591V26.7577H30.2814V26.635H30.5252V26.8805H30.6475V26.7577H30.7698V26.635H31.0135V26.7577H31.1219V27.2487H31.2442V27.6169H31.3665V27.9852H31.4888V28.4762H31.6111V28.7216H31.8549V28.8444H31.9772V29.1989H32.0995V29.5671H32.2218V29.8126H32.3441V30.1808H32.4664V30.4263H32.5887V30.7946H32.711V31.0401H32.8333V31.2855H33.3086V31.0401H33.1863V30.7946H33.064V30.5491H32.9417V30.3036H32.8194V29.9354H32.6971V29.6899H32.5747V29.4444H32.4524V29.1989H32.3301V28.1079H32.2078V27.7397H32.0855V27.4942H31.9632V27.2487H31.8409V27.0032H31.7186V26.7577H31.5963V26.5123H31.474V26.2633H31.3516V26.0178H31.474V25.8951H31.5963V25.7724H31.84V25.6539H31.9623V25.5449H32.0846V25.4221H32.2069V25.2994H32.3293V25.1767H32.4516V25.0539H32.5739V24.9312H32.6962V24.8084H32.8185V24.6857H32.9408V24.5629H33.0631V24.4402H33.1854V24.3174H33.3077V24.1947H33.43V24.072H33.5524V23.9458H33.6747V23.823H33.797V23.7003H33.9193V23.5775H34.0416V23.4548H34.1639V23.3364H34.4077V23.2136H34.53V23.0874H34.6383V22.9647H34.7606V22.8419H35.1267V22.9647H35.249V23.0874H35.3713V23.3329H35.4936V23.5784H35.6159V23.7012H35.7382V23.9458H35.8605V24.1913H35.9828V24.4368H36.1051V24.5595H36.2275V24.805H36.3498V25.0505H36.4721V25.296H36.5944V25.5415H36.7167V25.7732H36.839V26.0187H36.9613V26.3869H37.0836V26.6324H37.2059V26.8779H37.4497V26.7552H37.572V26.6324H37.6943V26.7552H37.9381V26.8779H38.0464V27.0007H38.1687V27.1234H38.291V27.2461H38.4133V27.3689H38.5356V27.4916H38.7794V27.6144H38.9017V27.7371H39.024V27.8599H39.1463V27.9826H39.2686V28.1054H39.5124V28.2281H39.6347V28.3508H39.757V28.4736H39.8793V28.5963H40.0016V28.7191H40.1239V28.8418H40.3677V28.9646H40.49V29.0736H40.6123V29.1963H40.7346V29.3191H40.8569V29.4418H41.0841V29.5645H41.2064V29.6873H41.3287V29.81H41.4335V29.9328H41.5558V30.0555H41.7996V30.1783H41.9219V30.301H42.0442V30.4238H42.1665V30.5465H42.2888V30.6692H42.4111V30.792H42.6566V30.9147H42.7789V31.0375H42.9012V31.1602H43.0235V31.283H43.511V31.4057H43.6334V31.5285H43.8771V32.0194H43.9994V32.1422H44.3655V31.6512H44.1217V31.5285H43.9994V31.4057H43.8771V31.2847H43.7548V31.1619H43.511V31.0392H43.3887V30.9164H43.2682V30.7937H43.1459V30.671H43.0235V30.5482H42.7798V30.4255H42.6566V30.3027H42.5343V30.18H42.412V30.0572H42.2897V29.9345H42.0451V29.8118H41.9228V29.689H41.8004V29.5663H41.6781V29.4435H41.5558V29.3208H41.3252V29.1989H41.2029V29.0761H41.0841V28.9671H40.9617V28.8444H40.8394V28.7216H40.5957V28.5989H40.4725V28.4762H40.3502V28.3534H40.2279V28.2307H39.9841V28.1079H39.8609V27.9852H39.7386V27.8624H39.6163V27.7397H39.494V27.6169H39.3717V27.4942H39.128V27.3715H39.0056V27.2487H38.8833V27.126H38.761V27.0032H38.6387V26.8805H38.402V26.7577H38.2797V26.635H38.1573V26.5123H38.035V26.3895H37.9267V26.2633H37.8044V25.6539H37.6821V25.5449H37.5598V25.2994H37.4375V25.1767H37.3151V25.0539H37.1928V24.8084H37.0705V24.6857H36.9482V24.5629H36.8259V24.3174H36.7036V24.1947H36.5813V24.072H36.459V23.9458H36.3367V23.7003H36.2144V23.5775H36.092V23.3364H35.9697V23.2136H35.8474V23.0874H35.7251V22.9647H35.9689V23.0874H36.4564V23.2102H36.9438V23.3329H37.5554V23.4557H38.0298V23.5784H38.3958V23.7012H38.7619V23.8239H39.0056V23.9458H39.3717V24.0685H39.7378V24.1913H39.9815V24.314H40.3476V24.4368H40.5913V24.314H41.2029V24.4368H41.3252V24.6822H41.4335V24.805H41.5558V25.0505H41.6781V25.1732H41.8004V25.4187H41.9228V25.5415H42.0451V25.7732H42.1674V25.896H42.2897V26.0187H42.412V26.2633H42.5343V26.3861H42.6566V26.6316H42.7789V26.7543H42.9012V26.9998H43.0235V27.1225H43.1459V27.368H43.2682V27.4908H43.3905V27.7363H43.5128V27.859H43.6351V28.1045H43.7574V28.2272H43.8797V28.35H44.002V28.5955H44.1243V28.7182H44.2467V28.9637H44.369V29.0727H44.4913V29.3182H44.6136V29.4409H44.7359V29.6864H44.8442V29.8092H44.9665V30.0547H45.0888V30.1774H45.2112V30.4229H45.3335V30.5456H45.4558V30.7911H45.5781V30.9139H45.7004V31.0366H45.8227V31.2821H46.3102V31.4049H46.554V31.5276H46.6763V31.6503H46.7986V31.7731H46.9209V32.0186H47.0432V33.1095H47.1655V33.2323H47.2878V33.4778H47.4101V33.6005H47.5324V33.846H47.7762V32.3868H47.6364V32.2641H47.5141V32.1413H47.3918V32.0186H47.2695V31.8958H47.1472V31.7731H47.0248V31.6503H46.9025V31.5276H46.7802V31.2847H46.6579V31.1619H46.5356V31.0392H46.4133V30.9164H46.291V30.671H46.1687V30.5482H46.0464V30.4255H45.9241V30.3027H45.8017V30.0572H45.6794V29.9345H45.5571V29.8118H45.4348V29.689H45.3125V29.4435H45.1902V29.3208H45.0679V29.1989H44.9456V28.9671H44.8233V28.8444H44.7149V28.7216H44.5926V28.4762H44.4703V28.3534H44.348V28.2307H44.2257V27.9852H44.1034V27.8624H43.9811V27.6169H43.8588V27.4942H43.7364V27.3715H43.6141V27.126H43.4918V27.0032H43.3695V26.7577H43.2682V26.635H43.1459V26.3895H43.0235V26.2633H42.9012V26.0178H42.7789V25.8951H42.6566V25.6539H42.5343V25.5449H42.412V25.2994H42.2897V25.1767H42.1674V24.9312H42.0451V24.6857H42.8986V24.8084H43.1424V24.9312H43.3861V25.0539H43.5084V25.1767H43.6307V25.0539H44.6057V25.1767H44.8364V25.2994H45.2024V25.4221H45.4462V25.5449H45.6899V25.6539H45.9337V25.7766H46.1774V25.8994H46.5435V25.6539H47.155V25.7766H47.3988V25.8994H47.5211V26.0221H47.6434V26.1449H47.8871V26.0221H48.0094V25.8994H48.5974V25.7766H48.4751V25.6539H48.3528V25.5449H48.2479V25.4221H48.1256V25.2994H48.0033V25.0539H47.881V24.5629H47.515V24.4402H47.3927V24.3174H47.2703V23.9458H46.9043V23.823H46.4168V23.7003H46.173V23.5775H45.807V23.4548H45.5632V23.3364H45.3195V23.2136H45.0757V23.0874H44.832V22.9647H44.7237V22.8419H44.4799V22.7192H44.2362V22.5965H44.1139V22.4737H43.8701V22.351H43.6264V22.2291H43.5041V22.1201H43.2682V21.9973H43.0244V21.8772H42.9021V21.7544H42.6566V21.6282H42.5343V21.5055H42.2897V21.3827H42.1674V21.0145H42.0451V20.8918H41.679V20.7699H40.8394V20.6497H40.3519V20.527H39.9859V20.4042H39.6198V20.2815H39.3761V20.1587H39.1323V20.036H38.8886V19.9115H38.6448V19.7914H38.5225V19.6686H38.4002V19.5459H38.2779V19.4231H38.1556V19.3004H37.8061V19.4231H37.6838V19.5459H37.5615V19.6686H37.074V19.5459H36.708V19.4231H36.3419V19.3004H35.7304V19.1776H35.4927V19.0532H35.1267V18.9322H34.7589V18.8094H34.4094V18.6867H34.0433V18.5777H33.5532V18.4523H33.4309V18.3322H33.3086V18.2094H33.1863V17.9639H33.064V17.7184H32.9417V17.594H32.8194V17.473H32.6971V17.2275H33.4283V17.1047H33.7944V16.982H34.2819V16.8592H34.7562V16.7356H35.2437V16.6137H35.7312V16.4919H35.8535V16.3691H37.3186V16.2464H37.9302V16.1236H38.7698V16.0009H39.1358V15.8773H39.6233V15.7554H39.9894V15.6327H40.4725V15.5099H40.7162V15.3872H41.2037V15.2644H41.6781V15.1554H42.1656V15.0327H42.4094V14.9099H42.8969V14.7872H43.1406V14.6644H43.3844V14.5417H43.7504V14.4181H43.9942V14.2962H44.4817V14.1735H45.3212V14.0507H45.565V13.928H45.8087V13.8052H46.0525V13.6825H46.1748V13.5597H47.5158V13.437H47.8819V13.3142H48.1256V13.1915H48.5974V13.0696H48.7197V12.9469H48.9635V12.8241H49.0858V12.7014H49.6973V12.5786H49.8205V12.4559H49.6982V12.3332H49.4545V12.2104H48.8429V12.0877H49.0866V11.9649H49.209V11.843H49.4527V11.3649H49.3304V11.2422H48.8429V11.3649H48.3554V11.4877H48.1248V11.6104H47.6364V11.7332H46.9052V11.6104H46.7828V11.4877H45.9328V11.6104H45.2015V11.7332H44.8355V11.843H44.486V11.9649H44.2423V12.0877H43.8762V12.2104H43.5102V12.3332H43.1441V12.4559H42.9004V12.5786H42.4129V12.7014H42.0451V12.8241H41.679V12.9469H41.2064V13.0696H40.9617V13.1924H40.4725V13.3151H39.8609V13.4378H39.4949V13.5597H38.7637V13.6825H38.402V13.8052H37.5624V13.928H37.1963V14.0507H36.7088V14.1735H36.3428V14.2962H35.7312V14.4181H35.4927V14.5408H35.1267V14.6636H34.7589V14.7872H34.2845V14.9099H33.0614V15.0327H32.3301V15.1554H31.7186V14.9099H31.5963V14.5417H31.474V14.2962H31.3516V14.0507H31.2293V13.8052H31.107V13.5597H30.9987V13.437H30.8764V13.1915H30.7541V13.0696H30.6318V12.9469H30.5094V12.7014H30.3871V12.5786H30.2648V12.3332H30.1425V12.2104H30.0202V12.0877H29.8979V11.843H29.7756V11.7332H29.6533V11.6104H29.4095V11.4877H29.0435V11.6104H28.9212V12.8241H28.7988V14.1735H28.6765V16.1236H28.3288V16.2464H27.9628V16.0009H27.8405V15.7554H27.7173V15.3872H27.6089V15.0327H27.4866V14.7872H27.3643V14.5417H27.242V14.2962H27.1197V14.1735H26.9974V14.0507H26.6313V14.2962H26.509V14.6644H26.3867V16.982H26.0224V17.1047H24.9216V17.2275H23.8383V16.3691H23.716V16.2464H23.8383V16.0009H23.716V15.8773H23.8383V15.6327L23.723 15.6309Z" fill="#0C3469"/>
<defs>
<filter id="filter0_i_2687_3603" x="0.5" y="0" width="58.9102" height="58" filterUnits="userSpaceOnUse" color-interpolation-filters="sRGB">
<feFlood flood-opacity="0" result="BackgroundImageFix"/>
<feBlend mode="normal" in="SourceGraphic" in2="BackgroundImageFix" result="shape"/>
<feColorMatrix in="SourceAlpha" type="matrix" values="0 0 0 0 0 0 0 0 0 0 0 0 0 0 0 0 0 0 127 0" result="hardAlpha"/>
<feOffset/>
<feGaussianBlur stdDeviation="10"/>
<feComposite in2="hardAlpha" operator="arithmetic" k2="-1" k3="1"/>
<feColorMatrix type="matrix" values="0 0 0 0 0 0 0 0 0 0 0 0 0 0 0 0 0 0 0.25 0"/>
<feBlend mode="normal" in2="shape" result="effect1_innerShadow_2687_3603"/>
</filter>
<radialGradient id="paint0_radial_2687_3603" cx="0" cy="0" r="1" gradientUnits="userSpaceOnUse" gradientTransform="translate(29.9558 29) rotate(90) scale(29 29.4558)">
<stop offset="0.447817" stop-color="#F5F4E9"/>
<stop offset="0.447917" stop-color="#FFE300"/>
<stop offset="0.802083" stop-color="#FFE300"/>
</radialGradient>
</defs>
</svg>
