<svg width="60" height="58" viewBox="0 0 60 58" fill="none" xmlns="http://www.w3.org/2000/svg">
<g filter="url(#filter0_i_2687_3608)">
<rect x="0.5" width="58.9115" height="58" rx="29" fill="url(#paint0_radial_2687_3608)"/>
</g>
<g filter="url(#filter1_d_2687_3608)">
<path d="M36.7373 39.2038C36.8204 39.4362 36.8751 39.6777 36.9003 39.9231V40.4493L36.8727 40.4768V40.5875L36.8451 40.615V40.6699L36.8175 40.6974V40.7832H36.7899V40.8107C36.7623 40.8656 36.7623 40.9214 36.7356 40.9489C36.708 41.0038 36.6813 41.0347 36.6537 41.0871L36.6261 41.1146L36.5985 41.142L36.5709 41.1695V41.197L36.5166 41.2519L36.489 41.2794L36.4614 41.3069L36.4338 41.3343L36.4131 41.3609L36.3855 41.3884L36.3579 41.4159C36.1283 41.6037 35.8582 41.7362 35.5688 41.803C34.0223 42.2492 32.4361 42.5455 30.8323 42.688C30.5373 42.7131 30.2404 42.6754 29.9613 42.5773C29.9069 42.5589 29.8526 42.5406 29.7983 42.5223H29.7724C29.7725 42.5187 29.7719 42.5151 29.7705 42.5117C29.7692 42.5083 29.7672 42.5052 29.7646 42.5026C29.762 42.5001 29.7589 42.498 29.7555 42.4967C29.7521 42.4954 29.7484 42.4947 29.7448 42.4949C29.7172 42.4949 29.6905 42.4674 29.6629 42.4674C29.663 42.4637 29.6623 42.4601 29.661 42.4567C29.6597 42.4533 29.6576 42.4503 29.655 42.4477C29.6525 42.4451 29.6494 42.4431 29.646 42.4418C29.6426 42.4404 29.6389 42.4398 29.6353 42.4399L29.6077 42.4124L29.5801 42.385C29.5594 42.382 29.5403 42.3724 29.5257 42.3575L29.4981 42.33H29.4705V42.3026H29.4429V42.2751H29.4153C29.3387 42.203 29.2743 42.1189 29.2247 42.0262L29.1971 41.9987C29.1695 41.9712 29.1428 41.9129 29.1152 41.888C29.1122 41.8672 29.1026 41.8479 29.0876 41.833V41.8056L29.06 41.7781V41.7506L29.0324 41.7232V41.6957L29.0048 41.6682V41.6133L28.9772 41.5858V41.5584L28.9496 41.5309V41.445L28.922 41.4176V41.3901C28.8725 41.1618 28.8363 40.9308 28.8134 40.6983H29.167C31.5587 40.404 33.931 39.9701 36.2716 39.3987C36.4309 39.3436 36.5864 39.2785 36.7373 39.2038ZM31.7836 44.2932H31.4567C31.1744 44.2689 30.9029 44.1738 30.6676 44.0168L30.64 43.9893C30.6254 43.9744 30.6063 43.9648 30.5857 43.9618C30.2774 43.6624 30.0686 43.2763 29.9871 42.8554C30.2822 42.9186 30.5852 42.9371 30.8858 42.9103C32.4786 42.7543 34.0544 42.4582 35.5946 42.0253C35.8908 41.9673 36.1704 41.8444 36.4131 41.6657C36.4848 41.9946 36.4586 42.3372 36.3378 42.6515C36.2169 42.9659 36.0066 43.2384 35.7326 43.4356H35.705C35.6446 43.4628 35.5894 43.5003 35.542 43.5464C35.4058 43.6013 35.2428 43.6571 35.0789 43.712C34.066 44.0435 33.0131 44.2389 31.9483 44.2932H31.7836ZM34.9676 44.8743C35.056 44.9701 35.1378 45.0716 35.2126 45.1782C35.2945 45.2939 35.3502 45.426 35.3756 45.5653C35.3756 45.6202 35.3212 45.5653 35.2669 45.4546C35.185 45.3687 35.1306 45.2606 35.0496 45.1782L35.0772 45.2056C35.1376 45.4516 35.1831 45.701 35.2134 45.9524C35.2384 46.2944 35.2202 46.6381 35.1591 46.9756C35.1315 47.2245 35.0504 47.3353 34.9961 47.2795C34.9685 47.252 34.9961 47.058 34.9961 47.0031C34.9961 46.9481 34.9685 47.0031 34.9142 47.1138C34.8575 47.2015 34.7836 47.2768 34.6968 47.3353C34.6692 47.3353 34.7512 47.2245 34.8331 46.9756C34.9279 46.6429 34.9737 46.2982 34.9694 45.9524C34.9554 45.7755 34.928 45.5999 34.8874 45.4271C34.8022 45.633 34.6688 45.8157 34.4984 45.9601C34.3281 46.1044 34.1256 46.2063 33.9077 46.2571C33.6221 46.3091 33.3273 46.2604 33.0739 46.1194C32.8205 45.9784 32.6244 45.7539 32.5192 45.4846C32.5419 45.7917 32.5875 46.0967 32.6555 46.3971C32.7717 46.7155 32.9369 47.0141 33.1453 47.282C33.3083 47.476 33.4179 47.5859 33.3903 47.5859C33.2965 47.5457 33.2055 47.4996 33.1177 47.4477C33.0091 47.3619 32.9815 47.3095 33.0091 47.3619C33.0091 47.4168 33.091 47.5833 33.091 47.6383C33.0634 47.6932 32.9547 47.6383 32.8185 47.4168C32.6488 47.1208 32.5206 46.8031 32.4373 46.4726C32.3771 46.2179 32.3316 45.9599 32.301 45.7001V45.6726C32.2734 45.7833 32.2467 45.9215 32.2191 46.0322C32.1915 46.143 32.1648 46.2262 32.1372 46.1704C32.1365 46.0224 32.1457 45.8744 32.1648 45.7275C32.1932 45.6054 32.2295 45.4853 32.2734 45.3679V45.2571C32.2734 45.2022 32.301 45.1713 32.301 45.1464C31.9714 44.9909 31.6964 44.7403 31.5119 44.4271C31.7015 44.4549 31.8941 44.4549 32.0837 44.4271C33.0744 44.3686 34.0533 44.1828 34.9961 43.8743C35.1759 43.831 35.3497 43.7658 35.5136 43.6803C35.4604 44.0951 35.2454 44.4725 34.915 44.7309H34.9426V44.7859C34.9534 44.7977 34.9612 44.8118 34.9656 44.8272C34.9699 44.8425 34.9706 44.8586 34.9676 44.8743ZM36.7365 34.087C37.0398 34.5284 37.2442 35.0296 37.3359 35.5566V35.584C37.3403 35.7322 37.331 35.8805 37.3083 36.0269C37.3083 36.0544 37.2807 36.0544 37.2807 36.0819C37.2807 36.1094 37.2807 36.1094 37.2531 36.1368V36.1918L37.2255 36.2192V36.2433L37.1979 36.2707V36.2982L37.1703 36.3257L37.1427 36.3531V36.3806L37.1151 36.4081C37.1152 36.4117 37.1146 36.4153 37.1132 36.4187C37.1119 36.4221 37.1099 36.4252 37.1073 36.4278C37.1047 36.4303 37.1016 36.4324 37.0982 36.4337C37.0948 36.435 37.0911 36.4357 37.0875 36.4355L37.0599 36.463L37.0323 36.4905V36.5179C37.0286 36.5178 37.025 36.5184 37.0216 36.5198C37.0182 36.5211 37.0151 36.5231 37.0125 36.5257C37.0099 36.5283 37.0079 36.5314 37.0065 36.5348C37.0052 36.5381 37.0046 36.5418 37.0047 36.5454C36.9771 36.5454 36.9771 36.5729 36.9504 36.5729C36.9322 36.5912 36.9141 36.6095 36.896 36.6278H36.8684C36.8684 36.6553 36.8684 36.6553 36.8408 36.6553C36.7865 36.6827 36.7589 36.7102 36.7046 36.7411C36.5853 36.8127 36.4572 36.8684 36.3234 36.9068C33.6655 37.5428 30.9763 38.0414 28.2666 38.4004C28.13 38.407 27.9931 38.3977 27.8587 38.3729H27.7543C27.7267 38.3729 27.7267 38.3454 27.7 38.3454H27.6456C27.618 38.3454 27.618 38.318 27.5913 38.318H27.537C27.5371 38.3143 27.5365 38.3107 27.5351 38.3073C27.5338 38.3039 27.5317 38.3009 27.5292 38.2983C27.5266 38.2957 27.5235 38.2937 27.5201 38.2923C27.5167 38.291 27.513 38.2904 27.5094 38.2905C27.4818 38.2905 27.4818 38.2905 27.455 38.263H27.4274C27.3998 38.2356 27.3998 38.2356 27.3731 38.2356C27.3732 38.2319 27.3726 38.2283 27.3713 38.2249C27.3699 38.2215 27.3679 38.2184 27.3653 38.2159C27.3627 38.2133 27.3596 38.2113 27.3562 38.2099C27.3528 38.2086 27.3492 38.208 27.3455 38.2081L27.3179 38.1806H27.2903L27.2627 38.1532L27.2351 38.1257C27.2315 38.1258 27.2278 38.1252 27.2244 38.1238C27.221 38.1225 27.2179 38.1205 27.2153 38.1179C27.2128 38.1153 27.2107 38.1123 27.2094 38.1089C27.208 38.1055 27.2074 38.1019 27.2075 38.0982H27.1851V38.0708L27.1575 38.0433L27.1299 38.0158L27.1023 37.9884V37.96H27.0747C27.0747 37.9326 27.0471 37.9326 27.0471 37.9051L27.0195 37.8776C26.9623 37.7625 26.9166 37.642 26.8833 37.518L26.8557 37.4905C26.766 36.9575 26.7845 36.412 26.91 35.8862C27.1006 36.1076 27.4542 36.19 28.026 36.1626C30.6292 35.8353 33.2106 35.3549 35.7568 34.7239C35.9569 34.695 36.1482 34.623 36.3176 34.513C36.4869 34.403 36.6301 34.2576 36.7373 34.087H36.7365ZM35.7878 31.9016C36.3053 32.372 37.0944 33.2844 36.6589 33.9479C36.5505 34.1006 36.413 34.2304 36.2543 34.3302C36.0955 34.4299 35.9185 34.4975 35.7335 34.5291C33.1873 35.1601 30.6059 35.6405 28.0027 35.9677C27.6336 36.0227 27.2569 35.9441 26.941 35.7463C26.2882 35.2759 26.7237 34.1153 27.0497 33.5059C27.2157 33.6484 27.4129 33.7502 27.6257 33.803C27.8384 33.8558 28.0606 33.8581 28.2743 33.8097C30.461 33.5767 32.6267 33.179 34.7529 32.62C35.3782 32.4278 35.6757 32.1788 35.7844 31.9016H35.7878ZM28.026 28.8311H28.1079C28.0665 28.7949 28.0378 28.7465 28.026 28.6929C27.952 28.5422 27.9136 28.3766 27.9136 28.2088C27.9136 28.041 27.952 27.8755 28.026 27.7247L28.189 27.4757L28.1614 27.4483C28.1338 27.5032 28.0794 27.559 28.0251 27.6423C27.7802 27.9745 27.399 28.444 27.0764 28.9419C26.7539 29.4397 26.4503 29.9651 26.233 30.3805C26.0979 30.6903 25.933 30.9864 25.7405 31.2646C25.6043 31.3754 25.4956 31.3505 25.4413 31.2921C25.3969 31.253 25.3601 31.2062 25.3326 31.1539C25.2507 31.4303 25.1153 31.79 24.979 32.2604C24.7929 32.8017 24.6488 33.3564 24.5478 33.9196C24.4391 34.5282 24.3848 35.1643 24.3029 35.6364C24.2667 35.8736 24.2028 36.1058 24.1123 36.3282C24.1123 36.3557 24.1399 36.3832 24.1399 36.4141C24.1987 36.5553 24.2354 36.7047 24.2485 36.857C24.3006 37.0464 24.3281 37.2417 24.3305 37.4381C24.3305 37.5763 24.3029 37.6871 24.2485 37.6596C24.1994 37.506 24.1631 37.3487 24.1399 37.1892C24.0855 37.0235 24.0312 36.7746 23.9769 36.6081C23.9799 36.5873 23.9895 36.568 24.0045 36.5531L23.9225 36.639C23.8907 36.6899 23.8428 36.7288 23.7863 36.7497C23.8152 36.8488 23.8334 36.9506 23.8406 37.0536C23.8184 37.1202 23.791 37.1851 23.7587 37.2476V37.275C23.8094 37.3784 23.8193 37.497 23.7863 37.6072C23.7845 37.6602 23.7646 37.711 23.73 37.7512C23.6954 37.7915 23.648 37.8188 23.5957 37.8287H23.5086C23.5362 38.0227 23.5905 38.2716 23.6172 38.5205C23.6448 38.7969 23.6716 39.0459 23.6716 39.1566C23.644 39.2948 23.5896 39.2948 23.5353 39.2115C23.5 39.132 23.4542 39.0575 23.3991 38.9901C23.3869 38.9769 23.3722 38.9665 23.3558 38.9593C23.3394 38.9521 23.3217 38.9484 23.3038 38.9484C23.2858 38.9484 23.2681 38.9521 23.2517 38.9593C23.2353 38.9665 23.2206 38.9769 23.2085 38.9901C23.1541 39.045 23.1265 39.1557 23.0722 39.2115C23.0179 39.2673 22.9635 39.2665 22.9359 39.1841C22.9515 38.9983 22.9788 38.8136 23.0179 38.6313C23.0722 38.3549 23.1809 37.9952 23.2352 37.7729V37.7454H23.2085C23.1371 37.6602 23.0986 37.5525 23.0998 37.4416C23.13 37.3737 23.1663 37.3088 23.2085 37.2476C23.1781 37.2243 23.1528 37.195 23.1341 37.1617C23.1154 37.1283 23.1037 37.0915 23.0998 37.0536C23.0916 36.9757 23.1108 36.8974 23.1541 36.8321C23.1053 36.81 23.0665 36.7705 23.0455 36.7214C23.0455 36.6939 23.0179 36.6664 23.0179 36.6355C22.9903 36.663 22.9635 36.7214 22.9359 36.7463C22.8431 36.9222 22.7337 37.0889 22.6091 37.2441C22.5004 37.3549 22.4185 37.3823 22.4185 37.33C22.3909 37.275 22.4461 37.136 22.5547 36.9428C22.6767 36.7745 22.8132 36.6171 22.9627 36.4724C22.9386 36.3824 22.9293 36.2891 22.9351 36.196C23.0049 35.8199 23.105 35.4499 23.2343 35.0896C23.4434 34.4222 23.6887 33.7666 23.9691 33.1256C24.2469 32.4533 24.5637 31.7975 24.9178 31.1616L24.9454 31.1067H24.9238C24.8757 31.0983 24.8314 31.075 24.7972 31.0402C24.763 31.0054 24.7406 30.9608 24.7332 30.9127C24.7415 30.7508 24.7783 30.5916 24.8419 30.4423C24.9979 30.1292 25.1707 29.8246 25.3593 29.5299C25.6882 29.068 26.0427 28.6246 26.421 28.2019C26.8491 27.7688 27.3036 27.3623 27.7819 26.9848C27.8293 26.9387 27.8845 26.9012 27.9449 26.874C27.9128 26.7015 27.9209 26.524 27.9686 26.3551C28.0163 26.1861 28.1023 26.0304 28.22 25.8998C28.1273 25.8676 28.0363 25.8307 27.9475 25.789C27.6634 25.682 27.3974 25.5326 27.1584 25.3461C27.1308 25.2912 27.104 25.2603 27.104 25.2354C26.8048 25.1495 26.3692 25.0139 25.7155 24.8482C24.9482 24.6661 24.1935 24.435 23.456 24.1564C22.9661 23.9349 22.8031 23.7135 22.7479 23.4929C22.6338 23.4405 22.5319 23.3651 22.4487 23.2714C22.174 22.9189 21.9539 22.5274 21.7958 22.11C21.5785 21.6671 21.3879 21.1658 21.1697 20.7272C20.9791 20.2568 20.7885 19.8422 20.6522 19.455C20.4968 19.1538 20.4041 18.8245 20.3797 18.4868C20.3685 18.3913 20.3875 18.2947 20.434 18.2104C20.3797 18.0447 20.3521 17.8507 20.271 17.6576C20.2194 17.3875 20.1077 17.1324 19.9442 16.9108C19.8049 16.7114 19.6179 16.5497 19.4 16.4404C19.2077 16.3288 18.9921 16.2747 18.8265 16.1915C18.6431 16.0826 18.5 15.9176 18.4185 15.7211C18.338 15.5189 18.301 15.3023 18.3099 15.085C18.3099 14.9743 18.3375 15.0575 18.4185 15.1957C18.4988 15.3672 18.5898 15.5335 18.6911 15.6936C18.8273 15.8593 18.936 15.9151 19.0179 15.9151C19.0999 15.8876 19.1266 15.7769 19.0999 15.6661C19.0718 15.484 19.0169 15.307 18.9369 15.1408C18.8532 14.9468 18.7721 14.6979 18.7445 14.612C18.7169 14.5262 18.7445 14.5846 18.8532 14.7502C19.0365 14.9363 19.2006 15.1402 19.3431 15.3588C19.4793 15.6078 19.5061 15.8018 19.6156 15.9674C19.7414 16.1434 19.8788 16.3109 20.027 16.4687C20.2398 16.7237 20.4224 17.0022 20.5712 17.2988C20.7123 17.5519 20.822 17.8211 20.898 18.1005C21.0874 18.1673 21.25 18.2935 21.3611 18.4602C21.6419 18.8587 21.8366 19.3109 21.9329 19.7881C22.0959 20.3409 22.2055 20.9778 22.3141 21.419C22.3845 21.7611 22.5135 22.0886 22.6953 22.3873C22.804 22.5529 22.9126 22.6911 23.0222 22.8577L23.0498 22.8302C23.1543 22.7765 23.2694 22.7462 23.3869 22.7414C23.5045 22.7367 23.6217 22.7576 23.7302 22.8027C24.0281 22.9497 24.3106 23.1256 24.5737 23.328C24.9227 23.617 25.2961 23.8754 25.6897 24.1006C26.1795 24.3495 26.8056 24.571 27.1558 24.7367C27.1557 24.7403 27.1563 24.7439 27.1576 24.7473C27.159 24.7507 27.161 24.7538 27.1636 24.7563C27.1662 24.7589 27.1693 24.7609 27.1727 24.7623C27.1761 24.7636 27.1797 24.7642 27.1834 24.7641C27.211 24.7641 27.211 24.7367 27.211 24.7092C27.4016 24.4603 27.7008 24.1564 27.919 23.9075L27.9734 23.8525C27.5434 23.8014 27.1165 23.7275 26.6944 23.6311C26.0671 23.4349 25.516 23.0506 25.1165 22.5308C24.717 22.011 24.4885 21.3811 24.4624 20.7272C24.1435 20.4051 23.9349 19.991 23.8664 19.544C23.798 19.097 23.8732 18.6398 24.0812 18.2378C24.211 18.0314 24.4158 17.8829 24.653 17.8232C24.5213 17.7177 24.4026 17.597 24.2994 17.4636C24.2549 17.3786 24.2354 17.2827 24.2434 17.1872C24.189 17.1872 24.1347 17.1323 24.0528 17.1013C23.9686 17.042 23.9103 16.953 23.8898 16.8524C23.8764 16.8268 23.8694 16.7984 23.8694 16.7696C23.8694 16.7407 23.8764 16.7123 23.8898 16.6868H23.8346C23.7626 16.6667 23.6969 16.6286 23.644 16.576C23.5981 16.5117 23.5702 16.4365 23.5629 16.358V16.243C23.542 16.2407 23.5227 16.2309 23.5086 16.2155C23.4383 16.1477 23.3745 16.0736 23.318 15.994C23.2898 15.9544 23.2704 15.9093 23.261 15.8616C23.2517 15.814 23.2526 15.7649 23.2637 15.7176C23.2637 15.6902 23.2912 15.6318 23.2912 15.6069H23.2361C23.1906 15.5817 23.152 15.5459 23.1236 15.5025C23.0952 15.4591 23.0778 15.4095 23.0731 15.358C23.0617 15.3258 23.0583 15.2914 23.0631 15.2576C23.0679 15.2239 23.0808 15.1918 23.1007 15.164C23.1007 15.1365 23.0731 15.1365 23.0463 15.1365C22.9334 15.0181 22.8331 14.8884 22.7471 14.7494C22.7234 14.7078 22.7087 14.6617 22.7039 14.6141C22.6992 14.5665 22.7045 14.5184 22.7195 14.473C22.6103 14.3793 22.5341 14.2533 22.5021 14.1133C22.4748 14.0232 22.4748 13.927 22.5021 13.8369C22.3894 13.7038 22.2976 13.5544 22.2296 13.394C22.1753 13.2833 22.202 13.2 22.2572 13.1725C22.1638 13.0988 22.0893 13.0041 22.0399 12.8961C22.0123 12.7854 22.0123 12.7021 22.0675 12.6472C21.9768 12.523 21.912 12.3821 21.8769 12.2326C21.8478 12.1013 21.8671 11.9639 21.9312 11.8455C21.9463 11.8308 21.9645 11.8197 21.9844 11.813C22.0044 11.8064 22.0256 11.8043 22.0465 11.8069C22.0674 11.8095 22.0875 11.8168 22.1051 11.8283C22.1228 11.8397 22.1376 11.855 22.1485 11.8729C22.2351 11.9861 22.2912 12.1193 22.3115 12.2601C22.3606 12.3543 22.3886 12.4579 22.3935 12.5639C22.4004 12.6118 22.3907 12.6606 22.3659 12.7021C22.3869 12.7516 22.4145 12.7981 22.4478 12.8403C22.4822 12.9088 22.492 12.987 22.4754 13.0618C22.4754 13.0893 22.4478 13.1167 22.4478 13.1476C22.4515 13.1475 22.4551 13.1482 22.4585 13.1495C22.4619 13.1508 22.465 13.1528 22.4676 13.1554C22.4702 13.158 22.4722 13.1611 22.4735 13.1645C22.4749 13.1678 22.4755 13.1715 22.4754 13.1751C22.5573 13.23 22.5841 13.3408 22.6384 13.424C22.6639 13.5052 22.6821 13.5886 22.6927 13.673V13.7837L22.7203 13.8112C22.7814 13.8742 22.8279 13.9498 22.8566 14.0326C22.8844 14.1038 22.9027 14.1782 22.9109 14.2541C22.9243 14.2797 22.9313 14.3081 22.9313 14.3369C22.9313 14.3658 22.9243 14.3942 22.9109 14.4198C22.9385 14.4198 22.9385 14.4198 22.9385 14.4472C23.0472 14.4747 23.1291 14.6129 23.1834 14.7236C23.2311 14.7985 23.2593 14.8841 23.2654 14.9726C23.293 15.0275 23.2654 15.0584 23.2654 15.0833L23.293 15.1108C23.3635 15.1335 23.4222 15.1832 23.456 15.249C23.4861 15.2995 23.5047 15.3561 23.5103 15.4146C23.4985 15.4682 23.4698 15.5166 23.4284 15.5528C23.525 15.5654 23.6128 15.615 23.6733 15.691C23.7462 15.7968 23.7842 15.9225 23.782 16.0507V16.1056C23.8026 16.1086 23.8217 16.1182 23.8363 16.1331C23.9449 16.2324 24.0288 16.3555 24.0812 16.4928C24.0921 16.504 24.1002 16.5176 24.105 16.5325C24.1097 16.5474 24.1111 16.5631 24.1088 16.5786C24.1632 16.5786 24.1908 16.6061 24.2451 16.6335C24.3349 16.7377 24.4 16.8606 24.4357 16.9932V17.0207C24.474 17.0166 24.5126 17.0263 24.5444 17.0481C24.653 17.0756 24.735 17.2138 24.8436 17.352L24.9799 17.4902C24.5168 16.9374 24.8979 15.9966 25.606 15.6095C25.6044 15.1484 25.7438 14.6977 26.0057 14.3173C26.2675 13.9369 26.6395 13.6448 27.0721 13.4798C27.2252 13.4096 27.394 13.38 27.562 13.394C27.6439 13.4215 27.562 13.5047 27.4257 13.7262C27.0759 14.2909 26.8963 14.9436 26.9083 15.6069C26.9889 15.6699 27.0549 15.7494 27.1019 15.8401C27.149 15.9307 27.1759 16.0303 27.1808 16.1322V16.1597C27.2895 16.1322 27.3714 16.1048 27.4533 16.0739C27.4356 15.8119 27.5142 15.5524 27.6744 15.3438C27.8347 15.1351 28.0657 14.9916 28.3244 14.9399C28.5816 14.8936 28.847 14.9444 29.0686 15.0825C29.2901 15.2207 29.4519 15.4361 29.5223 15.6867H29.7129C29.6853 15.5942 29.6783 15.4968 29.6924 15.4013C29.7066 15.3058 29.7415 15.2146 29.7948 15.1339C29.5935 14.4473 29.173 13.8447 28.5969 13.4172C28.3796 13.2232 28.2976 13.1682 28.352 13.1133C28.5081 13.0534 28.6745 13.0243 28.8418 13.0275C29.3317 13.0343 29.8066 13.196 30.1981 13.4892C30.5895 13.7824 30.8772 14.1918 31.0195 14.6584C31.3662 14.6919 31.6884 14.8515 31.9243 15.1067C32.1603 15.3618 32.2935 15.6945 32.2984 16.0412C32.3345 15.9181 32.3801 15.7978 32.4347 15.6816C32.489 15.6541 32.5166 15.6267 32.571 15.6267L32.5434 15.5992C32.5363 15.4589 32.5547 15.3184 32.5977 15.1846C32.6253 15.1571 32.652 15.0987 32.7064 15.0987C32.6955 15.0875 32.6874 15.0739 32.6826 15.059C32.6778 15.0441 32.6765 15.0284 32.6788 15.0129C32.7009 14.8755 32.7385 14.741 32.7909 14.612C32.8185 14.5846 32.8185 14.5571 32.8452 14.5262L32.8176 14.4987C32.7904 14.3804 32.7904 14.2574 32.8176 14.1391C32.8424 14.0496 32.9007 13.9731 32.9806 13.9253V13.8962C32.9318 13.8741 32.893 13.8345 32.8719 13.7854C32.8443 13.758 32.8443 13.6996 32.8443 13.6198C32.8699 13.5497 32.9066 13.4842 32.953 13.4258H32.9806C32.953 13.3983 32.953 13.3399 32.9263 13.315V13.0386C32.9426 12.9097 32.9893 12.7865 33.0625 12.679L33.0901 12.6515C33.0358 12.624 33.0358 12.5657 33.0082 12.5133V12.2644C33.0039 12.1805 33.0132 12.0964 33.0358 12.0154C33.0634 12.0154 33.0634 11.988 33.0901 11.988H33.0625C33.0625 11.9605 33.0349 11.933 33.0349 11.8772C33.009 11.797 32.9996 11.7123 33.0073 11.6283C33.003 11.5263 33.0123 11.4241 33.0349 11.3244C33.0625 11.3244 33.0625 11.297 33.0893 11.297C33.0617 11.2695 33.0349 11.2695 33.0349 11.242C32.9886 11.1781 32.9691 11.0986 32.9806 11.0206C32.9736 10.9727 32.9834 10.9239 33.0082 10.8824C32.9749 10.8401 32.9473 10.7936 32.9263 10.7442C32.9011 10.6353 32.8918 10.5235 32.8987 10.412C32.8714 10.2751 32.8714 10.1343 32.8987 9.99738C32.953 9.91155 33.0349 9.85918 33.0893 9.91155C33.1419 9.9513 33.1859 10.0012 33.2186 10.0583C33.2514 10.1154 33.2722 10.1785 33.2799 10.2437C33.3124 10.4002 33.3029 10.5625 33.2523 10.7141C33.3342 10.7416 33.3609 10.8249 33.3609 10.9356C33.3662 10.9911 33.3592 11.047 33.3404 11.0995C33.3216 11.152 33.2916 11.1998 33.2523 11.2395C33.3342 11.2669 33.3609 11.3253 33.3885 11.4609C33.3758 11.6429 33.3296 11.8209 33.2523 11.9863C33.2884 12.0167 33.317 12.0549 33.3358 12.0981C33.3547 12.1413 33.3633 12.1882 33.3609 12.2352C33.3791 12.3786 33.3503 12.5239 33.279 12.6498C33.3333 12.6773 33.3609 12.788 33.3333 12.9262C33.3172 13.0812 33.2709 13.2317 33.1971 13.3691L33.1427 13.424C33.1746 13.4388 33.2017 13.4621 33.2209 13.4914C33.2401 13.5207 33.2507 13.5547 33.2514 13.5897C33.2639 13.6432 33.2629 13.6989 33.2487 13.7519C33.2344 13.8049 33.2072 13.8535 33.1695 13.8936C33.1549 13.9084 33.1358 13.9181 33.1151 13.921C33.1695 13.9485 33.1695 13.976 33.1971 14.0069C33.223 14.0476 33.2389 14.0939 33.2437 14.1418C33.2485 14.1898 33.242 14.2383 33.2247 14.2833C33.218 14.3803 33.19 14.4746 33.1427 14.5597L33.0884 14.6146C33.116 14.6421 33.116 14.6696 33.1427 14.7005C33.1702 14.7717 33.1702 14.8506 33.1427 14.9219C33.113 15.0036 33.0553 15.0723 32.9797 15.1159H32.9521C32.9941 15.1885 33.0139 15.2716 33.009 15.3552C33.0041 15.4388 32.9747 15.5191 32.9246 15.5863C32.8702 15.6412 32.8426 15.697 32.7883 15.7245C32.8271 15.8209 32.8367 15.9266 32.8159 16.0284C32.7924 16.1468 32.7462 16.2596 32.6796 16.3606C32.8483 16.3839 33.008 16.4508 33.1427 16.5546C33.4275 16.8051 33.6406 17.1261 33.7606 17.485C33.8805 17.8439 33.903 18.228 33.8258 18.5984C34.1066 19.269 34.1602 20.0125 33.9785 20.7161C33.7967 21.4198 33.3895 22.0454 32.8185 22.498C32.4684 22.7392 32.105 22.9607 31.7301 23.1615L31.7844 23.2165C32.1038 23.3511 32.413 23.5083 32.7098 23.6869C32.9823 23.4105 33.4446 22.995 33.7982 22.6079C34.093 22.2625 34.357 21.8923 34.5873 21.5014C34.7451 21.1984 34.9573 20.9266 35.2134 20.6997C35.2983 20.616 35.4012 20.5527 35.5143 20.5143C35.6274 20.4759 35.7477 20.4636 35.8663 20.4782C35.9277 20.2982 35.9733 20.1133 36.0026 19.9254C36.0705 19.5884 36.0798 19.2424 36.0301 18.9022C36.0026 18.4318 35.8671 17.7958 35.8396 17.243C35.7712 16.764 35.7902 16.2766 35.8956 15.8043C35.9509 15.6013 36.0645 15.4188 36.2225 15.279C36.1918 14.993 36.2011 14.7041 36.2501 14.4206C36.3007 14.0844 36.3733 13.7518 36.4674 13.4249C36.5502 13.2352 36.6227 13.0412 36.6847 12.8438C36.7391 12.6498 36.6847 12.4292 36.7391 12.1802C36.7934 11.9038 36.9021 11.5991 36.9564 11.4077C36.8854 11.553 36.7616 11.6661 36.6101 11.7241C36.4586 11.7821 36.2906 11.7807 36.14 11.7201C35.9895 11.6596 35.8677 11.5444 35.7992 11.3979C35.7307 11.2514 35.7206 11.0845 35.771 10.9309C35.8214 10.7773 35.9284 10.6484 36.0706 10.5704C36.2127 10.4923 36.3794 10.4709 36.5368 10.5104C36.6942 10.5499 36.8307 10.6474 36.9187 10.7832C37.0066 10.919 37.0395 11.083 37.0107 11.242C37.0364 11.4346 37.0457 11.629 37.0383 11.8232C37.0245 11.998 37.0245 12.1737 37.0383 12.3485C37.0659 12.4867 37.147 12.57 37.2289 12.57C37.3398 12.4895 37.4172 12.3713 37.4463 12.2378C37.5002 12.0487 37.5277 11.8532 37.5282 11.6566C37.5558 11.5184 37.5825 11.4352 37.6101 11.5459C37.6826 11.7407 37.7194 11.9468 37.7188 12.1545C37.7149 12.3672 37.6382 12.5722 37.5014 12.7356C37.3652 12.9013 37.2022 13.012 37.0702 13.1785C36.896 13.3693 36.7658 13.5958 36.689 13.8421C36.643 14.1067 36.6248 14.3754 36.6347 14.6438C36.6617 14.8653 36.689 15.059 36.7166 15.2249C36.7836 15.2943 36.8307 15.3802 36.8529 15.4739C36.9295 15.7999 36.9571 16.1355 36.9348 16.4696C36.9348 16.8842 36.9072 17.328 36.8805 17.825C36.8262 18.3228 36.7986 18.8482 36.7718 19.3701C36.7665 19.821 36.6933 20.2686 36.5545 20.698C36.4973 20.803 36.4336 20.9045 36.3639 21.0018C36.3915 21.2233 36.282 21.4722 35.9327 21.8602C35.5015 22.2748 34.6537 22.8559 34.0543 23.2989C33.5912 23.6311 33.2652 23.88 33.0194 24.0714C33.047 24.1263 33.0194 24.1821 32.9918 24.2654C32.8452 24.5288 32.6514 24.7633 32.42 24.9573C32.3657 25.0431 32.2838 25.0955 32.2294 25.1787C32.3775 25.2631 32.5053 25.3785 32.604 25.5169C32.7028 25.6553 32.7701 25.8135 32.8012 25.9804C32.8421 26.1813 32.8421 26.3882 32.8012 26.589C32.824 26.4057 32.8332 26.2209 32.8288 26.0362C33.2367 26.1744 33.9448 26.4234 34.5433 26.6998C35.0474 26.9556 35.53 27.2516 35.9862 27.5848C36.2718 27.7675 36.5364 27.9807 36.7753 28.2208C36.91 28.325 37.0059 28.4709 37.0478 28.6354C37.0641 28.6801 37.0649 28.7288 37.0501 28.774C37.0352 28.8191 37.0056 28.858 36.9659 28.8844C36.9622 28.8842 36.9586 28.8849 36.9552 28.8862C36.9518 28.8875 36.9487 28.8896 36.9461 28.8921C36.9435 28.8947 36.9415 28.8978 36.9401 28.9012C36.9388 28.9046 36.9382 28.9082 36.9383 28.9118L36.9659 28.9393C37.5233 29.4036 38.0507 29.9025 38.545 30.4329C39.0892 31.014 39.5799 31.5943 39.9059 32.0097C40.1554 32.3014 40.3742 32.6178 40.5587 32.9539C40.6101 33.0271 40.6386 33.1137 40.6407 33.2029C40.8215 33.2893 40.9946 33.391 41.1581 33.5067C41.2795 33.5844 41.3818 33.6883 41.4574 33.8106C41.4574 33.8655 41.3755 33.8964 41.2401 33.8106C41.1047 33.7248 40.8865 33.5617 40.7502 33.4784L40.6683 33.3926C40.6683 33.42 40.6407 33.4475 40.6407 33.4784C40.6397 33.5295 40.6205 33.5785 40.5863 33.6166C40.6468 33.6694 40.6936 33.7359 40.7226 33.8106C40.7308 33.8885 40.7116 33.9667 40.6683 34.0321C40.7353 34.0609 40.7921 34.109 40.8313 34.1703C40.8644 34.214 40.8824 34.2674 40.8824 34.3222C40.8824 34.377 40.8644 34.4304 40.8313 34.4741V34.5265C41.0135 34.7626 41.1772 35.0123 41.3211 35.2733C41.4341 35.4163 41.5258 35.5747 41.5937 35.7437C41.6213 35.8295 41.5393 35.8544 41.485 35.7986C41.4031 35.7711 41.3487 35.6879 41.2677 35.6604C41.2385 35.6481 41.2057 35.6469 41.1757 35.657C41.1456 35.6671 41.1203 35.6879 41.1047 35.7154C41.0503 35.8012 41.0771 35.9093 41.0503 35.9918C41.0236 36.0742 40.9684 36.1025 40.9141 35.9918C40.8271 35.7874 40.7632 35.5741 40.7235 35.3557C40.6691 35.1342 40.6148 34.8578 40.5872 34.6638H40.6148C40.5831 34.6856 40.5445 34.6954 40.5061 34.6913C40.4553 34.7035 40.4017 34.696 40.3563 34.6703C40.3108 34.6447 40.2768 34.6028 40.2612 34.5531C40.1967 34.4656 40.1675 34.3572 40.1793 34.2492V34.2218C40.1137 34.1866 40.0647 34.127 40.043 34.0561C39.9911 33.973 39.9628 33.8775 39.9611 33.7797C39.9068 33.7522 39.8524 33.7522 39.7981 33.7248C39.7705 33.6973 39.7705 33.6973 39.7438 33.6973C39.7714 33.8913 39.7714 34.1119 39.7981 34.3059C39.831 34.4604 39.8403 34.619 39.8257 34.7763C39.8257 34.8312 39.7438 34.7488 39.6894 34.6106C39.6281 34.421 39.5825 34.2266 39.5532 34.0295C39.5319 33.8736 39.5227 33.7164 39.5256 33.5591V33.5042C39.3579 33.3242 39.2202 33.1187 39.1176 32.8956C38.8727 32.481 38.6002 31.9273 38.2742 31.3745C37.9715 30.8972 37.6445 30.4357 37.2945 29.9917C36.9952 29.6045 36.7503 29.2998 36.5864 29.0792C36.5808 29.1377 36.5622 29.1943 36.5321 29.2449C36.5045 29.3307 36.3958 29.4105 36.2328 29.3307C35.9629 29.1382 35.708 28.9256 35.4704 28.6947C35.0724 28.3117 34.6447 27.9604 34.1915 27.644C33.8379 27.3676 33.4291 27.1461 33.1298 26.9247C33.2173 27.0317 33.2818 27.1555 33.3192 27.2884C33.3566 27.4213 33.3661 27.5605 33.3471 27.6972C33.3535 27.7631 33.3441 27.8296 33.3195 27.8912C33.4665 27.9879 33.6032 28.0992 33.7275 28.2234L33.8905 28.1376C34.0267 28.1101 34.2441 28.165 34.5433 28.4698C34.8426 28.7462 35.2238 29.2715 35.6317 29.7419C36.0177 30.1605 36.4265 30.5576 36.8564 30.9316C37.2099 31.2638 37.4549 31.4569 37.6455 31.6784C37.8071 31.8473 37.9363 32.0443 38.0267 32.2595C38.0569 32.3304 38.0702 32.4073 38.0654 32.4842C38.0606 32.5611 38.0379 32.6358 37.9991 32.7024L38.081 32.7883C38.1881 33.1483 38.252 33.5197 38.2716 33.8947C38.3803 34.6965 38.5985 36.1626 38.7615 37.4072C38.9167 38.3316 39.0167 39.2643 39.0607 40.2004V40.3386C39.1948 40.4552 39.3057 40.5958 39.3876 40.7532C39.4626 40.8763 39.5264 41.0059 39.5782 41.1403C39.5782 41.1953 39.5238 41.1403 39.4419 41.0296C39.3539 40.9297 39.2807 40.8179 39.2246 40.6974C39.1562 40.6142 39.1012 40.521 39.0616 40.421C39.0489 40.4994 39.0211 40.5746 38.9796 40.6425V40.6974C39.0496 40.9035 39.0953 41.1169 39.1159 41.3335C39.1355 41.6104 39.1262 41.8885 39.0883 42.1635C39.034 42.385 38.9796 42.4674 38.952 42.4124C38.9295 42.3409 38.9201 42.2659 38.9245 42.191C38.9245 42.1361 38.9245 42.191 38.8701 42.2768C38.8209 42.3456 38.7664 42.4104 38.7071 42.4708C38.6795 42.4708 38.7347 42.3601 38.789 42.167C38.8699 41.8972 38.9157 41.6182 38.9253 41.3369C38.8987 41.1213 38.8531 40.9085 38.789 40.7008C38.789 40.6734 38.7615 40.6734 38.7347 40.6734C38.6542 40.6296 38.5809 40.5737 38.5174 40.5077C38.5536 40.6711 38.5629 40.8392 38.545 41.0056C38.5434 41.1508 38.4849 41.2897 38.382 41.3927C38.3277 41.3927 38.3001 41.2545 38.3001 41.1163C38.3001 40.9506 38.3277 40.7566 38.3277 40.591C38.349 40.5004 38.3583 40.4075 38.3552 40.3146C38.3214 40.2829 38.2937 40.2454 38.2733 40.2038C38.1079 39.8736 37.9975 39.5187 37.9465 39.1532C37.8892 38.602 37.8619 38.0481 37.8645 37.4939C37.8645 36.9128 37.8645 36.3875 37.8369 35.7514C37.8093 35.1153 37.755 34.396 37.7283 33.8707C37.6765 33.5507 37.6583 33.2262 37.6739 32.9024H37.5653C37.2725 32.8876 36.9897 32.7919 36.7486 32.626C36.4218 32.3497 36.121 32.0443 35.8499 31.7136L35.8223 31.6586C35.8173 31.5734 35.799 31.4894 35.768 31.4097C35.7704 31.5465 35.7327 31.6811 35.6593 31.7968C35.4191 32.0928 35.0843 32.2979 34.7106 32.378C32.5755 32.9136 30.4073 33.309 28.22 33.5617C27.8457 33.6148 27.4642 33.5468 27.1316 33.3677C27.0328 33.2706 26.9501 33.1585 26.8867 33.0355C26.9143 33.1213 26.9143 33.2295 26.941 33.2844L26.9134 33.3703C26.7966 33.7796 26.6224 34.1706 26.396 34.5316C26.2324 34.7712 26.0069 34.9622 25.7431 35.0844C25.6888 35.0844 25.6612 35.1119 25.6345 35.1119C25.7591 35.4183 25.8592 35.734 25.9337 36.0561C26.07 36.554 26.2606 37.2458 26.4512 37.8536C26.6418 38.4613 26.8591 38.96 27.0497 39.4845C27.2466 39.9968 27.4015 40.5242 27.5128 41.0614C27.6017 41.4231 27.6294 41.797 27.5948 42.1678C27.5749 42.2111 27.5654 42.2584 27.5672 42.306C27.5918 42.3935 27.6283 42.4773 27.6758 42.5549C27.7302 42.7206 27.8121 42.8871 27.8664 43.0253C27.9208 43.1635 27.9484 43.3017 27.894 43.3017C27.8397 43.3292 27.7034 43.2159 27.6215 42.9979C27.5391 42.862 27.4838 42.7116 27.4585 42.5549C27.4298 42.6378 27.3833 42.7134 27.3222 42.7764C27.2946 42.7764 27.2946 42.8039 27.2679 42.8039C27.2955 42.9979 27.3222 43.2468 27.3766 43.4674C27.4711 43.7282 27.609 43.9714 27.7845 44.1867C27.9208 44.3524 28.0018 44.4357 27.9751 44.4357C27.8972 44.4105 27.8238 44.3731 27.7578 44.3249C27.6758 44.27 27.6491 44.2142 27.6491 44.27C27.6926 44.3368 27.7206 44.4125 27.731 44.4914C27.731 44.5189 27.6224 44.4914 27.5137 44.2975C27.3786 44.0517 27.2691 43.7928 27.1868 43.5249C27.1378 43.3162 27.1104 43.1031 27.1049 42.8889L27.0773 42.8339C27.0263 42.7835 26.9807 42.728 26.941 42.6682C26.9134 42.7541 26.9134 42.8339 26.8867 42.9721C26.8591 43.0828 26.8048 43.2485 26.778 43.3592C26.7504 43.4974 26.7237 43.5807 26.6961 43.5249C26.6954 43.3768 26.7046 43.2289 26.7237 43.082C26.778 42.888 26.86 42.6674 26.8867 42.5841C26.8867 42.5567 26.8591 42.4983 26.8591 42.4734C26.5815 41.5739 26.3543 40.6597 26.1787 39.7352C25.9061 38.518 25.5801 37.0802 25.4163 36.2501C25.3092 35.8982 25.2364 35.5369 25.1989 35.1711C25.2265 35.1162 25.2265 35.0853 25.2533 35.0604C25.1957 35.0072 25.1492 34.9431 25.1165 34.872C25.0838 34.8009 25.0655 34.724 25.0627 34.6458C25.0859 34.4151 25.1504 34.1903 25.2533 33.9823C25.3889 33.642 25.5435 33.3096 25.7164 32.9866C25.9337 32.572 26.2063 32.0183 26.4512 31.4415C26.6685 30.8603 26.8591 30.2243 27.0497 29.8372C27.2127 29.4775 27.4033 29.3668 27.5396 29.3393C27.5646 29.3259 27.5926 29.3189 27.6211 29.3189C27.6495 29.3189 27.6775 29.3259 27.7026 29.3393C27.7823 29.1538 27.8918 28.9824 28.0268 28.832L28.026 28.8311ZM29.0876 28.0843H29.1687L29.2774 28.1118L29.3317 28.1667L29.4136 28.2526L29.4412 28.3384V28.4492L29.4136 28.535L29.3593 28.6208L29.2774 28.6758L29.1954 28.7307L29.0868 28.7032H29.0048L28.9229 28.6174L28.841 28.5625V28.4517L28.8134 28.3659L28.8677 28.2801L28.8953 28.1693L28.9772 28.1419L29.0876 28.0843ZM28.8151 26.5075L28.897 26.535H29.0057L29.0876 26.6208L29.1419 26.6757L29.1695 26.7865L29.1971 26.8723L29.1428 26.983L29.0885 27.0689L29.0065 27.0963L28.9246 27.1513H28.816L28.734 27.1238L28.6512 27.0586L28.5969 26.9727L28.5693 26.8869L28.5417 26.7762L28.596 26.6903L28.6504 26.6045L28.7323 26.5496L28.8151 26.5075ZM28.8151 24.4053L28.897 24.4328H29.0057L29.06 24.5186L29.1419 24.5736L29.1695 24.6843V24.7701L29.1419 24.856L29.0876 24.9667L29.0057 24.9942L28.9238 25.0491H28.8151L28.7332 25.0216L28.6512 24.9598L28.5693 24.874V24.7882L28.5417 24.6774L28.596 24.5916L28.6236 24.5057L28.7056 24.4508L28.8151 24.4053ZM31.129 23.9907L31.047 24.0182L30.9651 24.0731L30.9108 24.159L30.8832 24.2697V24.3555L30.9108 24.4663L30.9651 24.5212L31.047 24.607H31.1557L31.2376 24.6345L31.3196 24.5796L31.4282 24.5246L31.4558 24.4388L31.5102 24.353L31.4826 24.2422L31.455 24.1564L31.4006 24.0705L31.3187 24.0156L31.2385 23.9916L31.129 23.9907ZM31.837 25.9547L31.7551 26.0096L31.6732 26.0371L31.6188 26.1478L31.5912 26.2337L31.6188 26.3195V26.4302L31.7008 26.5161L31.7551 26.571L31.8638 26.5985H31.9724L32.0544 26.5435L32.1363 26.5161L32.1639 26.4053L32.2182 26.3195L32.1906 26.2337V26.1229L32.1087 26.0371L32.0544 25.9822L31.9457 25.9547H31.837ZM32.1363 27.4998L32.0544 27.5547L31.9724 27.6097L31.9181 27.6955L31.8905 27.7813V27.8921L31.9181 28.0028L32 28.0577L32.0544 28.1127L32.163 28.1401H32.245L32.3536 28.1127L32.4356 28.0577L32.4632 27.9719L32.5175 27.8861L32.4899 27.7753V27.6646L32.408 27.6097L32.326 27.5238H32.2441L32.1363 27.4998ZM29.1963 19.8662C29.3509 19.8488 29.5074 19.8672 29.6537 19.9199C29.8 19.9726 29.9321 20.0582 30.0397 20.1701C29.7811 20.1003 29.51 20.0889 29.2464 20.1368C28.9827 20.1846 28.7331 20.2904 28.5158 20.4465C28.5739 20.3026 28.6662 20.175 28.7849 20.0746C28.9036 19.9743 29.0451 19.9042 29.1971 19.8705L29.1963 19.8662ZM28.9514 18.5383C29.1352 18.5172 29.3213 18.5475 29.4889 18.6257C29.6564 18.7039 29.7988 18.827 29.9 18.9812C29.6149 18.8786 29.3071 18.8553 29.0098 18.9139C28.7124 18.9724 28.4366 19.1105 28.2123 19.3134C28.255 19.1308 28.3463 18.9629 28.4764 18.8273C28.6066 18.6918 28.7709 18.5934 28.9522 18.5426L28.9514 18.5383ZM28.7608 17.4876C28.9733 17.4615 29.1891 17.4882 29.3887 17.5655C29.5883 17.6428 29.7655 17.7683 29.9043 17.9305C29.5576 17.8292 29.1917 17.8115 28.8367 17.8788C28.4817 17.9461 28.148 18.0965 27.863 18.3177C27.9282 18.1144 28.0453 17.9315 28.2028 17.7868C28.3603 17.642 28.5529 17.5404 28.7616 17.4919L28.7608 17.4876ZM36.8175 36.9042C37.0397 37.2311 37.1969 37.5974 37.2807 37.9832V38.2047C37.2807 38.2321 37.2807 38.2596 37.2531 38.2596V38.3454C37.2531 38.3729 37.2531 38.4004 37.2255 38.4004C37.2255 38.4553 37.2255 38.4862 37.1979 38.5111C37.094 38.7421 36.9104 38.9285 36.6804 39.0364C36.5403 39.1005 36.3963 39.1559 36.2492 39.2021C33.9116 39.798 31.5379 40.2432 29.1428 40.5352H28.816C28.6019 40.5498 28.3887 40.4959 28.2075 40.3815C28.0263 40.2671 27.8866 40.0981 27.8086 39.8991C27.8088 39.8955 27.8081 39.8918 27.8068 39.8885C27.8054 39.8851 27.8034 39.882 27.8008 39.8794C27.7982 39.8768 27.7951 39.8748 27.7917 39.8735C27.7883 39.8721 27.7847 39.8715 27.781 39.8716V39.7858C27.7534 39.7858 27.7534 39.7858 27.7534 39.7583C27.6773 39.363 27.6959 38.9554 27.8078 38.5686C27.9698 38.5932 28.1338 38.6024 28.2976 38.5961C31.0073 38.2371 33.6966 37.7385 36.3544 37.1025C36.5174 37.0598 36.6736 36.9945 36.8184 36.9085L36.8175 36.9042Z" fill="#0C3469"/>
</g>
<defs>
<filter id="filter0_i_2687_3608" x="0.5" y="0" width="58.9102" height="58" filterUnits="userSpaceOnUse" color-interpolation-filters="sRGB">
<feFlood flood-opacity="0" result="BackgroundImageFix"/>
<feBlend mode="normal" in="SourceGraphic" in2="BackgroundImageFix" result="shape"/>
<feColorMatrix in="SourceAlpha" type="matrix" values="0 0 0 0 0 0 0 0 0 0 0 0 0 0 0 0 0 0 127 0" result="hardAlpha"/>
<feOffset/>
<feGaussianBlur stdDeviation="10"/>
<feComposite in2="hardAlpha" operator="arithmetic" k2="-1" k3="1"/>
<feColorMatrix type="matrix" values="0 0 0 0 0 0 0 0 0 0 0 0 0 0 0 0 0 0 0.25 0"/>
<feBlend mode="normal" in2="shape" result="effect1_innerShadow_2687_3608"/>
</filter>
<filter id="filter1_d_2687_3608" x="14.3086" y="9.89062" width="31.2891" height="45.7656" filterUnits="userSpaceOnUse" color-interpolation-filters="sRGB">
<feFlood flood-opacity="0" result="BackgroundImageFix"/>
<feColorMatrix in="SourceAlpha" type="matrix" values="0 0 0 0 0 0 0 0 0 0 0 0 0 0 0 0 0 0 127 0" result="hardAlpha"/>
<feOffset dy="4"/>
<feGaussianBlur stdDeviation="2"/>
<feColorMatrix type="matrix" values="0 0 0 0 0 0 0 0 0 0 0 0 0 0 0 0 0 0 0.25 0"/>
<feBlend mode="normal" in2="BackgroundImageFix" result="effect1_dropShadow_2687_3608"/>
<feBlend mode="normal" in="SourceGraphic" in2="effect1_dropShadow_2687_3608" result="shape"/>
</filter>
<radialGradient id="paint0_radial_2687_3608" cx="0" cy="0" r="1" gradientUnits="userSpaceOnUse" gradientTransform="translate(29.9558 29) rotate(90) scale(29 29.4558)">
<stop offset="0.447817" stop-color="#F5F4E9"/>
<stop offset="0.447917" stop-color="#FFE300"/>
<stop offset="0.802083" stop-color="#FFE300"/>
</radialGradient>
</defs>
</svg>
