<?xml version="1.0" standalone="no"?> <!DOCTYPE svg PUBLIC "-//W3C//DTD SVG 1.0//EN" "http://www.w3.org/TR/2001/REC-SVG-20010904/DTD/svg10.dtd" > <svg xmlns="http://www.w3.org/2000/svg" width="100%" height="100%">
<defs >
<font horiz-adv-x="586" ><font-face
    font-family="General Sans Variable"
    units-per-em="1000"
    panose-1="0 0 0 0 0 0 0 0 0 0"
    ascent="1010"
    descent="-240"
    alphabetic="0" />
<missing-glyph horiz-adv-x="740" />
<glyph unicode=" " glyph-name="space" horiz-adv-x="209" />
<glyph unicode="!" glyph-name="exclam" horiz-adv-x="303" d="M215 234H86L41 718H261L215 234ZM263 100Q263 54 231 25T151 -5Q103 -5 72 24T40 100Q40 146 71 176T151 206Q201 206 232 176T263 100Z" />
<glyph unicode="&quot;" glyph-name="quotedbl" horiz-adv-x="474" d="M195 415H61L51 718H205L195 415ZM413 415H279L269 718H423L413 415Z" />
<glyph unicode="#" glyph-name="numbersign" horiz-adv-x="660" d="M240 0H110L140 168H70V296H163L179 387H110V517H202L230 676H360L332 517H393L421 676H550L522 517H590V387H499L483 296H550V168H460L430 0H301L331 168H270L240 0ZM309 387L293 296H354L370 387H309Z" />
<glyph unicode="$" glyph-name="dollar" horiz-adv-x="616" d="M356 -89H246V-5Q147 10 88 70T20 224H191Q191 180 221 155T303 129Q333 129 356 136T392 159T405 195Q405 217 385 232T340 253L228 277Q190 285 157 299T100 336T61 392T47 470Q47 525 72 569T142
643T246 682V767H356V682Q420 673 468 643T546 566T579 457H408Q406 485 393 505T358 536T307 548Q283 548 264 541T233 520T221 483Q221 469 229 458T252 439T284 428L394 405Q457 392 500 367T566 304T589 217Q589 154 561 106T481 28T356 -8V-89Z" />
<glyph unicode="%" glyph-name="percent" horiz-adv-x="1134" d="M245 262Q181 262 130 290T48 367T18 472Q18 530 48 577T129 653T245 682Q309 682 360 654T442 578T472 472Q472 415 442 367T361 291T245 262ZM245 383Q269 383 289 392T321 422T333 472Q333 503
321 522T289 551T245 561Q222 561 202 552T169 523T156 472Q156 442 168 422T201 393T245 383ZM431 0H296L682 676H817L431 0ZM889 -9Q825 -9 774 19T692 96T662 201Q662 259 692 306T773 382T889 411Q953 411 1004 383T1086 307T1116 201Q1116 144 1086 96T1005
20T889 -9ZM889 112Q913 112 933 121T965 151T977 201Q977 232 965 251T933 280T889 290Q866 290 846 281T813 252T800 201Q800 171 812 151T845 122T889 112Z" />
<glyph unicode="&amp;" glyph-name="ampersand" horiz-adv-x="732" d="M458 363H615Q615 326 604 283T573 199T529 126Q477 60 417 26T288 -9Q211 -9 154 19T66 97T35 217Q35 259 54 297T109 368T195 422L287 315Q260 310 240 298T210 268T199 227Q199 197 211
176T246 144T302 132Q345 132 379 155T433 220Q444 242 451 283T458 363ZM357 398L740 0H528L184 351Q163 373 149 396T128 445T120 497Q120 552 149 594T229 661T346 686Q411 686 459 662T533 595T560 493H400Q398 512 392 524T374 542T346 549Q332 549 321 543T303
524T297 496Q297 482 303 468T323 437T357 398Z" />
<glyph unicode="&apos;" glyph-name="quotesingle" horiz-adv-x="256" d="M195 415H61L51 718H205L195 415Z" />
<glyph unicode="(" glyph-name="parenleft" horiz-adv-x="325" d="M335 -193H162Q101 -99 68 20T35 263Q35 387 68 505T162 718H335Q274 624 244 506T213 263Q213 139 243 20T335 -193Z" />
<glyph unicode=")" glyph-name="parenright" horiz-adv-x="325" d="M163 -193H-10Q52 -99 82 20T112 263Q112 387 82 505T-10 718H163Q225 624 257 506T290 263Q290 139 258 20T163 -193Z" />
<glyph unicode="*" glyph-name="asterisk" horiz-adv-x="500" d="M250 415L167 304L66 377L151 481L25 523L61 637L191 589L184 718H316L309 589L439 637L475 523L349 481L434 377L333 304L250 415Z" />
<glyph unicode="+" glyph-name="plus" horiz-adv-x="660" d="M411 100H249V269H80V419H249V588H411V419H580V269H411V100Z" />
<glyph unicode="," glyph-name="comma" horiz-adv-x="265" d="M241 64Q241 -7 206 -57T112 -135T-17 -162V-73Q44 -73 83 -49T129 18Q122 17 118 17T109 16Q71 16 45 44T19 111Q19 157 49 185T123 213Q177 213 209 177T241 64Z" />
<glyph unicode="-" glyph-name="hyphen" horiz-adv-x="360" d="M330 197H30V351H330V197Z" />
<glyph unicode="." glyph-name="period" horiz-adv-x="265" d="M241 104Q241 56 211 26T133 -5Q85 -5 55 25T24 104Q24 153 54 183T133 214Q181 214 211 184T241 104Z" />
<glyph unicode="/" glyph-name="slash" horiz-adv-x="516" d="M123 -193H-47L393 718H563L123 -193Z" />
<glyph unicode="0" glyph-name="zero" horiz-adv-x="630" d="M43 337Q43 505 114 595T315 686Q445 686 516 596T587 337Q587 170 517 80T315 -10Q184 -10 114 80T43 337ZM220 337Q220 243 244 194T315 144Q361 144 385 193T410 337Q410 432 386 482T315 532Q269
532 245 482T220 337Z" />
<glyph unicode="1" glyph-name="one" horiz-adv-x="384" d="M318 0H145V527H20V676H318V0Z" />
<glyph unicode="2" glyph-name="two" horiz-adv-x="581" d="M547 154V0H44V98L245 292Q283 329 307 356T343 407T355 459Q355 482 346 498T320 523T278 532Q250 532 230 522T200 491T189 442H22Q22 514 56 569T149 655T287 686Q358 686 414 659T502 586T535 481Q535
439 522 404T476 327T379 224L307 154H547Z" />
<glyph unicode="3" glyph-name="three" horiz-adv-x="580" d="M283 -9Q207 -9 148 18T56 94T22 205H190Q193 168 218 147T285 126Q330 126 354 146T379 203Q379 239 350 258T265 278H189V413H255Q286 413 306 421T338 444T349 482Q349 515 330 533T274 551Q240
551 220 530T200 472H33Q33 533 66 581T156 658T283 686Q359 686 413 662T497 595T526 496Q526 453 502 418T432 356Q492 335 524 298T556 207Q556 143 522 94T426 18T283 -9Z" />
<glyph unicode="4" glyph-name="four" horiz-adv-x="612" d="M594 120H497V0H326V120H8V249L357 676H497V270H594V120ZM194 270H326V436L194 270Z" />
<glyph unicode="5" glyph-name="five" horiz-adv-x="585" d="M296 -10Q220 -10 159 19T61 98T22 214H195Q202 179 228 162T295 144Q331 144 350 157T377 189T385 226Q385 245 377 264T347 296T288 310Q252 310 226 295T189 248L46 296L106 676H522V522H231L217
435Q240 446 266 451T318 457Q404 457 458 423T537 336T563 225Q563 184 547 143T498 67T415 11T296 -10Z" />
<glyph unicode="6" glyph-name="six" horiz-adv-x="592" d="M295 -8Q214 -8 153 23T57 106T22 218Q22 260 30 294T57 362T110 436L314 676H508L318 449Q321 449 323 449T329 449Q401 449 455 421T540 343T570 230Q570 165 536 111T439 24T295 -8ZM297 136Q321
136 342 145T377 173T391 224Q391 257 378 276T343 305T297 314Q261 314 232 294T202 224Q202 193 216 174T251 145T297 136Z" />
<glyph unicode="7" glyph-name="seven" horiz-adv-x="527" d="M509 575L268 0H84L318 522H18V676H509V575Z" />
<glyph unicode="8" glyph-name="eight" horiz-adv-x="591" d="M567 201Q567 141 534 94T440 19T297 -9Q214 -9 153 18T58 93T24 201Q24 252 53 289T128 351Q91 374 68 407T45 486Q45 543 76 588T163 659T297 686Q373 686 429 660T516 588T547 486Q547 440 524
407T464 351Q509 327 538 290T567 201ZM222 480Q222 451 241 434T297 416Q332 416 351 433T370 480Q370 513 351 532T297 551Q261 551 242 532T222 480ZM202 205Q202 181 213 163T245 136T297 126Q327 126 348 135T380 163T391 205Q391 227 380 244T348 271T297
281Q266 281 245 271T213 244T202 205Z" />
<glyph unicode="9" glyph-name="nine" horiz-adv-x="592" d="M297 684Q378 684 439 653T535 570T570 458Q570 417 562 383T535 314T482 240L278 0H84L274 227Q271 227 269 227T263 227Q191 227 137 255T53 333T22 446Q22 512 56 566T153 652T297 684ZM295 540Q271
540 250 531T215 503T201 452Q201 420 214 400T249 371T295 362Q331 362 360 382T390 452Q390 483 376 502T341 531T295 540Z" />
<glyph unicode=":" glyph-name="colon" horiz-adv-x="265" d="M241 104Q241 56 211 26T133 -5Q85 -5 55 25T24 104Q24 153 54 183T133 214Q181 214 211 184T241 104ZM241 430Q241 382 211 352T133 321Q85 321 55 351T24 430Q24 479 54 509T133 540Q181 540 211
510T241 430Z" />
<glyph unicode=";" glyph-name="semicolon" horiz-adv-x="265" d="M241 430Q241 382 211 352T133 321Q85 321 55 351T24 430Q24 479 54 509T133 540Q181 540 211 510T241 430ZM241 64Q241 -7 206 -57T112 -135T-17 -162V-73Q44 -73 83 -49T129 18Q122 17 118 17T109
16Q71 16 45 44T19 111Q19 157 49 185T123 213Q177 213 209 177T241 64Z" />
<glyph unicode="&lt;" glyph-name="less" horiz-adv-x="660" d="M80 406L580 602V453L252 338L580 223V74L80 270V406Z" />
<glyph unicode="=" glyph-name="equal" horiz-adv-x="660" d="M580 393H80V543H580V393ZM580 145H80V295H580V145Z" />
<glyph unicode="&gt;" glyph-name="greater" horiz-adv-x="660" d="M580 270L80 74V223L408 338L80 453V602L580 406V270Z" />
<glyph unicode="?" glyph-name="question" horiz-adv-x="555" d="M376 100Q376 54 344 25T263 -5Q214 -5 182 24T149 100Q149 146 181 176T263 206Q313 206 344 176T376 100ZM178 503H18Q21 570 56 620T151 699T285 728Q359 728 416 703T505 634T537 530Q537 491
514 454T447 383L369 322Q347 304 337 290T325 262T329 234H220Q203 264 196 290T196 342T234 392L307 453Q326 469 336 483T346 517Q346 545 325 560T266 576Q229 576 206 556T178 503Z" />
<glyph unicode="@" glyph-name="at" horiz-adv-x="986" d="M766 5V-136Q710 -167 643 -185T500 -203Q400 -203 314 -169T164 -73T64 68T28 241Q28 334 64 414T166 556T319 651T510 686Q606 686 688 656T830 575T924 459T958 321Q958 237 926 174T839 76T716 41Q656
41 623 60T571 101Q519 41 434 41Q383 41 345 65T285 132T264 232Q264 295 287 347T351 431T449 462Q481 462 505 454T550 426L554 448H707L677 257Q676 248 675 237T673 219Q673 196 687 184T724 171Q766 171 785 208T805 305Q805 350 786 394T728 475T636 534T510
556Q438 556 378 532T273 464T204 364T180 241Q180 176 203 119T270 19T371 -48T500 -73Q586 -73 655 -50T766 5ZM426 241Q426 211 438 191T471 171Q486 171 497 182T514 213T520 257Q520 293 511 312T481 332Q460 332 448 318T431 284T426 241Z" />
<glyph unicode="A" glyph-name="A" horiz-adv-x="748" d="M216 282H521L570 133H166L216 282ZM538 0L370 510L197 0H6L272 718H479L742 0H538Z" />
<glyph unicode="B" glyph-name="B" horiz-adv-x="658" d="M634 216Q634 115 563 58T367 0H70V718H358Q476 718 544 668T613 524Q613 477 589 440T520 376Q575 353 604 313T634 216ZM343 569H241V445H343Q390 445 412 462T435 508Q435 536 413 552T343 569ZM352
296H241V149H352Q405 149 430 169T456 223Q456 256 431 276T352 296Z" />
<glyph unicode="C" glyph-name="C" horiz-adv-x="793" d="M393 -15Q317 -15 251 13T134 93T56 213T28 360Q28 439 56 506T134 625T250 704T393 733Q492 733 572 693T703 580T765 412H565Q558 457 534 491T475 545T395 564Q355 564 323 550T269 508T234 444T222
360Q222 314 234 276T268 211T323 169T395 154Q439 154 474 173T533 227T565 307H765Q753 211 702 139T572 26T393 -15Z" />
<glyph unicode="D" glyph-name="D" horiz-adv-x="748" d="M350 0H70V718H350Q464 718 547 673T675 548T720 363Q720 259 674 177T545 47T350 0ZM259 555V163H339Q402 163 443 185T505 251T526 363Q526 427 505 469T443 533T339 555H259Z" />
<glyph unicode="E" glyph-name="E" horiz-adv-x="616" d="M578 164V0H70V718H571V554H259V451H542V287H259V164H578Z" />
<glyph unicode="F" glyph-name="F" horiz-adv-x="589" d="M259 0H70V718H559V554H259V421H510V257H259V0Z" />
<glyph unicode="G" glyph-name="G" horiz-adv-x="796" d="M401 -15Q323 -15 255 12T136 90T57 209T28 363Q28 443 55 510T132 627T249 705T395 733Q485 733 558 701T682 609T758 468H534Q525 496 505 517T456 551T390 564Q344 564 306 542T245 475T222 358Q222
298 242 250T304 174T411 145Q452 145 482 159T534 197T565 251H392V400H767Q773 311 750 236T679 104T561 16T401 -15Z" />
<glyph unicode="H" glyph-name="H" horiz-adv-x="783" d="M259 0H70V718H259V451H524V718H713V0H524V287H259V0Z" />
<glyph unicode="I" glyph-name="I" horiz-adv-x="329" d="M259 0H70V718H259V0Z" />
<glyph unicode="J" glyph-name="J" horiz-adv-x="648" d="M583 718V268Q583 188 551 124T455 23T294 -15Q198 -15 134 22T38 124T5 268H195Q195 236 202 210T230 169T294 154Q336 154 357 169T386 209T393 265V718H583Z" />
<glyph unicode="K" glyph-name="K" horiz-adv-x="711" d="M259 0H70V718H259V416L483 718H698L445 381L705 0H475L259 324V0Z" />
<glyph unicode="L" glyph-name="L" horiz-adv-x="591" d="M561 0H70V718H259V171H561V0Z" />
<glyph unicode="M" glyph-name="M" horiz-adv-x="947" d="M395 0L241 414V0H70V718H293L474 231L654 718H877V0H706V419L551 0H395Z" />
<glyph unicode="N" glyph-name="N" horiz-adv-x="781" d="M529 0L243 448V0H70V718H273L538 303V718H711V0H529Z" />
<glyph unicode="O" glyph-name="O" horiz-adv-x="797" d="M398 -15Q320 -15 253 12T136 90T57 209T28 360Q28 442 56 510T135 628T253 705T398 733Q476 733 543 706T661 628T740 510T769 360Q769 278 741 210T662 91T544 13T398 -15ZM398 154Q440 154 473 170T528
214T562 280T574 360Q574 402 563 439T529 504T473 548T398 564Q356 564 323 548T268 504T234 439T222 360Q222 318 233 281T267 215T323 170T398 154Z" />
<glyph unicode="P" glyph-name="P" horiz-adv-x="677" d="M350 219H259V0H70V718H350Q444 718 511 691T615 609T651 473Q651 392 615 336T512 249T350 219ZM349 559H259V378H349Q405 378 434 404T463 471Q463 513 434 536T349 559Z" />
<glyph unicode="Q" glyph-name="Q" horiz-adv-x="797" d="M398 -15Q320 -15 253 12T136 90T57 209T28 360Q28 442 56 510T135 628T253 705T398 733Q476 733 543 706T661 628T740 510T769 360Q769 278 741 210T662 91T544 13T398 -15ZM398 154Q440 154 473 170T528
214T562 280T574 360Q574 402 563 439T529 504T473 548T398 564Q356 564 323 548T268 504T234 439T222 360Q222 318 233 281T267 215T323 170T398 154ZM553 137L723 -182H534L386 89L553 137Z" />
<glyph unicode="R" glyph-name="R" horiz-adv-x="708" d="M259 0H70V718H364Q510 718 589 656T669 478Q669 409 630 355T517 269L693 0H468L321 239H259V0ZM259 562V395H356Q419 395 449 415T479 478Q479 521 449 541T356 562H259Z" />
<glyph unicode="S" glyph-name="S" horiz-adv-x="672" d="M645 235Q645 161 608 106T502 21T340 -10Q247 -10 178 21T68 111T20 248H211Q213 197 245 167T336 137Q369 137 393 145T430 169T444 207Q444 230 424 246T371 269L240 294Q197 302 162 319T102 361T63
421T49 499Q49 566 85 617T184 698T328 727Q414 727 480 696T587 609T633 474H442Q440 507 425 531T386 568T330 581Q302 581 282 572T251 548T240 512Q240 496 249 485T275 466T310 454L449 427Q545 408 595 361T645 235Z" />
<glyph unicode="T" glyph-name="T" horiz-adv-x="659" d="M424 0H235V547H15V718H644V547H424V0Z" />
<glyph unicode="U" glyph-name="U" horiz-adv-x="759" d="M691 718V286Q691 199 656 131T551 24T380 -15Q278 -15 209 24T104 131T68 286V718H257V283Q257 246 268 217T305 171T380 154Q428 154 454 170T491 216T502 283V718H691Z" />
<glyph unicode="V" glyph-name="V" horiz-adv-x="718" d="M717 718L461 0H255L1 718H206L364 221L527 718H717Z" />
<glyph unicode="W" glyph-name="W" horiz-adv-x="992" d="M613 0L496 447L379 0H188L6 718H191L288 290L402 718H593L703 288L801 718H986L803 0H613Z" />
<glyph unicode="X" glyph-name="X" horiz-adv-x="752" d="M239 0H16L236 366L42 718H262L381 481L511 718H722L520 359L736 0H512L376 247L239 0Z" />
<glyph unicode="Y" glyph-name="Y" horiz-adv-x="701" d="M444 270V0H255V270L4 718H208L356 443L507 718H697L444 270Z" />
<glyph unicode="Z" glyph-name="Z" horiz-adv-x="665" d="M627 0H42V151L385 555H38V718H617V564L272 163H627V0Z" />
<glyph unicode="[" glyph-name="bracketleft" horiz-adv-x="333" d="M327 -193H52V718H327V569H231V-44H327V-193Z" />
<glyph unicode="\" glyph-name="backslash" horiz-adv-x="516" d="M563 -193H393L-47 718H123L563 -193Z" />
<glyph unicode="]" glyph-name="bracketright" horiz-adv-x="333" d="M281 -193H6V-44H102V569H6V718H281V-193Z" />
<glyph unicode="^" glyph-name="asciicircum" horiz-adv-x="661" d="M449 274L331 508L212 274H37L247 676H415L624 274H449Z" />
<glyph unicode="_" glyph-name="underscore" horiz-adv-x="500" d="M500 -193H0V-44H500V-193Z" />
<glyph unicode="`" glyph-name="grave" horiz-adv-x="500" d="M398 571H222L101 733H299L398 571Z" />
<glyph unicode="a" glyph-name="a" horiz-adv-x="560" d="M371 0V52Q343 20 306 5T217 -10Q133 -10 82 36T30 159Q30 238 92 279T269 321Q291 321 311 320T348 315V341Q348 376 329 395T273 414Q238 414 218 395T192 341H38Q43 404 74 450T156 522T274 548Q385
548 447 491T509 332V0H371ZM191 164Q191 138 208 123T257 108Q300 108 324 127T348 179V213Q329 217 313 218T280 220Q237 220 214 206T191 164Z" />
<glyph unicode="b" glyph-name="b" horiz-adv-x="635" d="M613 269Q613 192 583 129T500 28T373 -10Q326 -10 286 8T213 61V0H56V718H227V488Q259 518 295 533T373 548Q446 548 499 511T583 411T613 269ZM435 269Q435 334 403 364T332 394Q306 394 283 381T244
341T229 270Q229 228 243 200T282 158T332 144Q371 144 403 175T435 269Z" />
<glyph unicode="c" glyph-name="c" horiz-adv-x="588" d="M293 -10Q213 -10 152 25T57 124T22 269Q22 349 57 412T154 511T293 548Q367 548 426 517T522 429T566 298H384Q382 342 358 368T294 394Q264 394 243 379T211 337T199 269Q199 229 210 201T242 158T294
143Q334 143 357 168T384 240H566Q559 163 523 107T429 21T293 -10Z" />
<glyph unicode="d" glyph-name="d" horiz-adv-x="635" d="M22 269Q22 347 52 410T136 511T262 548Q304 548 340 533T408 488V718H579V0H422V61Q389 27 349 9T262 -10Q190 -10 136 27T52 128T22 269ZM200 269Q200 206 232 175T303 144Q330 144 353 158T391 200T406
270Q406 313 391 340T353 381T303 394Q264 394 232 364T200 269Z" />
<glyph unicode="e" glyph-name="e" horiz-adv-x="591" d="M299 -9Q216 -9 154 26T57 124T22 270Q22 351 57 413T155 512T298 548Q365 548 419 523T509 454T561 351T564 226H125V333H381Q380 374 356 398T294 422Q261 422 240 406T207 355T196 269Q196 221 207
189T240 140T295 124Q331 124 355 139T390 183H561Q536 91 468 41T299 -9Z" />
<glyph unicode="f" glyph-name="f" horiz-adv-x="421" d="M279 0H108V389H8V538H108V557Q108 640 153 685T288 730Q317 730 341 725T385 712V577Q375 582 360 584T331 587Q309 587 294 580T279 553V538H411V389H279V0Z" />
<glyph unicode="g" glyph-name="g" horiz-adv-x="619" d="M296 -203Q222 -203 165 -178T75 -105T39 4H205Q210 -32 232 -51T295 -70Q343 -70 367 -45T392 29V92Q371 62 335 45T255 28Q190 28 137 62T53 156T22 288Q22 364 51 422T131 514T248 548Q299 548 337
533T406 483V538H563V31Q563 -78 492 -140T296 -203ZM195 287Q195 237 221 207T290 177Q320 177 342 191T377 230T390 288Q390 338 363 368T290 399Q247 399 221 369T195 287Z" />
<glyph unicode="h" glyph-name="h" horiz-adv-x="605" d="M227 283V0H56V718H227V480Q256 512 289 530T373 548Q453 548 503 496T554 346V0H383V289Q383 340 365 367T307 394Q286 394 268 383T238 348T227 283Z" />
<glyph unicode="i" glyph-name="i" horiz-adv-x="283" d="M227 0H56V538H227V0ZM250 663Q250 621 220 594T140 566Q91 566 61 593T30 663Q30 706 60 733T140 761Q189 761 219 734T250 663Z" />
<glyph unicode="j" glyph-name="j" horiz-adv-x="282" d="M226 538V27Q226 -55 200 -106T128 -180T24 -203Q4 -203 -16 -201T-56 -192V-31Q-45 -38 -30 -41T2 -44Q25 -44 40 -28T55 32V538H226ZM249 663Q249 621 219 594T139 566Q90 566 60 593T29 663Q29 706
59 733T139 761Q188 761 218 734T249 663Z" />
<glyph unicode="k" glyph-name="k" horiz-adv-x="621" d="M227 0H56V718H227V320L394 538H591L392 283L619 0H401L227 245V0Z" />
<glyph unicode="l" glyph-name="l" horiz-adv-x="285" d="M229 0H56V718H229V0Z" />
<glyph unicode="m" glyph-name="m" horiz-adv-x="926" d="M227 0H56V538H213V472Q244 508 280 528T368 548Q419 548 458 527T520 465Q555 504 594 526T693 548Q773 548 824 496T875 346V0H704V293Q704 340 686 367T630 394Q609 394 591 384T562 351T551 292V0H380V293Q380
340 362 367T306 394Q284 394 266 384T238 351T227 292V0Z" />
<glyph unicode="n" glyph-name="n" horiz-adv-x="605" d="M227 283V0H56V538H213V473Q245 508 283 528T373 548Q453 548 503 496T554 346V0H383V289Q383 340 365 367T307 394Q286 394 268 383T238 348T227 283Z" />
<glyph unicode="o" glyph-name="o" horiz-adv-x="606" d="M303 -10Q243 -10 192 11T103 71T44 160T22 269Q22 327 43 377T103 466T192 526T303 548Q363 548 414 527T503 467T562 378T584 269Q584 211 563 161T503 72T414 12T303 -10ZM303 143Q330 143 353 157T391
199T406 269Q406 311 392 339T354 380T303 394Q277 394 253 381T215 339T200 269Q200 227 214 199T253 157T303 143Z" />
<glyph unicode="p" glyph-name="p" horiz-adv-x="635" d="M613 269Q613 191 583 128T500 28T373 -10Q331 -10 295 5T227 50V-193H56V538H213V477Q246 512 286 530T373 548Q446 548 499 511T583 410T613 269ZM435 269Q435 332 403 363T332 394Q306 394 282 380T244
339T229 268Q229 225 244 198T282 157T332 144Q371 144 403 174T435 269Z" />
<glyph unicode="q" glyph-name="q" horiz-adv-x="635" d="M22 269Q22 346 52 409T136 510T262 548Q309 548 349 530T422 477V538H579V-193H408V50Q377 20 341 5T262 -10Q190 -10 136 27T52 128T22 269ZM200 269Q200 205 232 175T303 144Q329 144 352 157T391 197T406
268Q406 332 375 363T303 394Q264 394 232 363T200 269Z" />
<glyph unicode="r" glyph-name="r" horiz-adv-x="435" d="M227 248V0H56V538H213V443Q244 490 302 516T425 542V364Q365 370 321 366T252 335T227 248Z" />
<glyph unicode="s" glyph-name="s" horiz-adv-x="560" d="M533 183Q533 94 469 42T283 -10Q162 -10 96 43T22 190H186Q186 156 214 136T286 116Q315 116 337 124T360 153Q360 171 347 180T305 194L199 213Q129 226 87 266T45 371Q45 423 73 463T152 525T274 548Q345
548 399 525T485 457T523 353H359Q356 385 333 403T275 422Q245 422 227 414T209 387Q209 370 222 363T260 351L374 330Q452 316 492 279T533 183Z" />
<glyph unicode="t" glyph-name="t" horiz-adv-x="441" d="M417 168V19Q389 3 360 -3T295 -10Q235 -10 192 13T126 80T103 185V389H3V538H103V696H274V538H421V389H274V225Q274 186 291 168T343 149Q364 149 383 154T417 168Z" />
<glyph unicode="u" glyph-name="u" horiz-adv-x="602" d="M375 231V538H546V0H389V58Q367 28 327 9T239 -10Q186 -10 143 12T76 81T51 199V538H222V231Q222 187 242 165T299 143Q316 143 333 152T363 181T375 231Z" />
<glyph unicode="v" glyph-name="v" horiz-adv-x="568" d="M573 538L380 0H190L-5 538H181L289 194L399 538H573Z" />
<glyph unicode="w" glyph-name="w" horiz-adv-x="820" d="M493 0L410 305L327 0H156L5 538H172L247 243L326 538H497L572 243L647 538H815L663 0H493Z" />
<glyph unicode="x" glyph-name="x" horiz-adv-x="609" d="M204 0H12L186 273L24 538H223L313 367L403 538H584L425 266L597 0H402L301 176L204 0Z" />
<glyph unicode="y" glyph-name="y" horiz-adv-x="568" d="M573 538L317 -193H130L205 6L-5 538H181L297 205L401 538H573Z" />
<glyph unicode="z" glyph-name="z" horiz-adv-x="553" d="M515 0H44V141L295 388H38V538H509V394L255 150H515V0Z" />
<glyph unicode="{" glyph-name="braceleft" horiz-adv-x="353" d="M6 189V338Q47 338 66 355T86 411V539Q86 627 140 674T297 721Q308 721 321 721T347 718V569Q339 571 332 571T318 572Q292 572 279 560T265 523V388Q265 283 166 265Q216 254 240 223T265 139V3Q265
-22 279 -34T319 -47Q325 -47 332 -46T347 -44V-193Q334 -194 321 -195T296 -196Q194 -196 140 -149T86 -14V115Q86 153 67 171T6 189Z" />
<glyph unicode="|" glyph-name="bar" horiz-adv-x="359" d="M266 -193H93V718H266V-193Z" />
<glyph unicode="}" glyph-name="braceright" horiz-adv-x="353" d="M347 336V187Q306 187 287 170T267 114V-14Q267 -102 213 -149T56 -196Q45 -196 33 -195T6 -193V-44Q14 -45 21 -46T35 -47Q61 -47 74 -35T88 2V137Q88 242 187 260Q137 271 113 302T88 386V522Q88
547 74 559T34 572Q28 572 21 572T6 569V718Q20 720 32 720T57 721Q159 721 213 675T267 539V410Q267 372 286 354T347 336Z" />
<glyph unicode="~" glyph-name="asciitilde" horiz-adv-x="660" d="M451 229Q414 229 381 240T318 265T266 290T226 301Q206 301 197 285T190 225H51Q39 292 56 344T114 425T210 455Q246 455 279 444T342 419T395 394T435 383Q456 383 464 399T471 459H610Q623
392 605 340T547 259T451 229Z" />
</font>
</defs>
</svg>
